<svg id="Layer_1" data-name="Layer 1" xmlns="http://www.w3.org/2000/svg" width="49.72" height="27.4" viewBox="0 0 49.72 27.4"><polygon points="28.96 6.95 29.79 12.1 28.13 12.1 28.96 6.95"/><path d="M49.14,20.29l-22.4-9.2a5.32,5.32,0,0,0-3.48,0L.86,20.29c-1,.38-1,1,0,1.42l22.4,9.18a5.2,5.2,0,0,0,3.48,0l17.42-7.15v4.15a1.86,1.86,0,0,0,0,3.39l-.39,1.3-1.16,4,2.53.54,2.61-.69-1.4-3.9-.47-1.29a1.82,1.82,0,0,0,.94-1.61,1.85,1.85,0,0,0-1.12-1.71V23.13l3.49-1.42C50.1,21.31,50.1,20.67,49.14,20.29ZM22.29,26.52,22,24.36H19.82l-.34,2.16H17.79v0L20,15.11h1.79L24,26.52Zm8.23,0-.35-2.16H28l-.34,2.16H26v0l2.2-11.39H30l2.2,11.41ZM20,22.9h1.67l-.83-5.15Z" transform="translate(-0.14 -10.8)"/><path d="M38,27.85a.42.42,0,0,1,.57.39v5.33l-.35.28A21.45,21.45,0,0,1,25,38.2a21.38,21.38,0,0,1-13.58-4.62h0V28.26a.42.42,0,0,1,.57-.39l11.25,4.61a5.2,5.2,0,0,0,3.48,0Z" transform="translate(-0.14 -10.8)"/></svg>