<svg id="Layer_1" data-name="Layer 1" xmlns="http://www.w3.org/2000/svg" width="34.64" height="34.62" viewBox="0 0 34.64 34.62"><path d="M38.36,13.47a16.53,16.53,0,0,0-21.45-3.19,2.38,2.38,0,0,0-2.88.14A18.11,18.11,0,0,0,37.54,38a2.36,2.36,0,0,0,.6-2.82,16.48,16.48,0,0,0,.22-21.69ZM18.67,35.52a13.11,13.11,0,0,1-3.05-2.64,13.28,13.28,0,0,1-3.18-8.71,19.14,19.14,0,0,0,3.16-.66,46.73,46.73,0,0,0,5.28-1.68,23.2,23.2,0,0,0,2.36-1.13,73.65,73.65,0,0,1,4.22,8.37A52,52,0,0,0,18.67,35.52Zm9.4-5q1.23,3.07,2.17,6.24a13.4,13.4,0,0,1-10.07-.48A49.87,49.87,0,0,1,28.07,30.55ZM20.28,20.37A48.62,48.62,0,0,1,15.18,22a18.76,18.76,0,0,1-2.64.59A13.33,13.33,0,0,1,17.11,14a2.29,2.29,0,0,0,.75-1.22,69.9,69.9,0,0,1,4.55,6.53A23.14,23.14,0,0,1,20.28,20.37Zm14.18,14a13.48,13.48,0,0,1-2.76,1.8q-1-3.24-2.24-6.38a26.82,26.82,0,0,1,11.06-3.12A14.78,14.78,0,0,1,37,34,2.38,2.38,0,0,0,34.46,34.37Zm2.7-19.87A14.85,14.85,0,0,1,40.7,25.08a28.34,28.34,0,0,0-11.84,3.23,75.13,75.13,0,0,0-4.25-8.4A24.54,24.54,0,0,0,33,11.1,14.8,14.8,0,0,1,37.16,14.5ZM25.78,9.26a15,15,0,0,1,5.74,1.16,23,23,0,0,1-7.74,8.14,72.84,72.84,0,0,0-5.22-7.43A14.83,14.83,0,0,1,25.78,9.26Z" transform="translate(-7.68 -7.69)"/></svg>