<svg id="Layer_1" data-name="Layer 1" xmlns="http://www.w3.org/2000/svg" width="34.65" height="34.65" viewBox="0 0 34.65 34.65"><path d="M38.37,13.48a16.51,16.51,0,0,0-21.46-3.2,2.38,2.38,0,0,0-2.88.15A18.11,18.11,0,0,0,24.36,42.26c.49,0,1,.06,1.46.06A18,18,0,0,0,37.55,38a2.38,2.38,0,0,0,.6-2.81,16.51,16.51,0,0,0,.22-21.69Zm2.32,11.91A14.79,14.79,0,0,1,37,34a2.38,2.38,0,0,0-2.56.33A13.36,13.36,0,1,1,17.12,14a2.38,2.38,0,0,0,.73-2.48,14.75,14.75,0,0,1,7.92-2.3c.4,0,.8,0,1.2,0A15,15,0,0,1,40.69,25.39Z" transform="translate(-7.68 -7.68)"/><path d="M33.55,17.36H18a2.55,2.55,0,0,0-2.54,2.55v8.6A2.54,2.54,0,0,0,18,31.05H33.55a2.54,2.54,0,0,0,2.54-2.54v-8.6A2.55,2.55,0,0,0,33.55,17.36ZM33,19l-6.8,6.56a.4.4,0,0,1-.55,0L17.92,19,18,19Zm1.52,9.56a1,1,0,0,1-1,1H18a1,1,0,0,1-1-1V20.32l7.55,6.41a2,2,0,0,0,1.29.48,2,2,0,0,0,1.38-.57l7.18-6.93a1.42,1.42,0,0,1,0,.2Z" transform="translate(-7.68 -7.68)"/></svg>