<svg id="Layer_1" data-name="Layer 1" xmlns="http://www.w3.org/2000/svg" width="101.35" height="127.18" viewBox="0 0 101.35 127.18"><defs><style>.cls-1{fill:none;stroke:#000;stroke-miterlimit:10;stroke-width:1.81px;}</style></defs><path class="cls-1" d="M67.45,137a18.69,18.69,0,0,1-3.39-1.18c-.38-.16-.65-.44-1-.6a2.35,2.35,0,0,0-.65-.13C45,117.5,14.44,100.93,29.62,89.11,45.85,76.46,64.22,115.09,67.45,137Z" transform="translate(-19.9 -13.25)"/><path class="cls-1" d="M118.66,117.28c-.66,6.76-5.55,12.59-11.5,15.88a35.06,35.06,0,0,1-9.28,3.41c-.94,0-1.88-.06-2.82-.14l-1.12-.11c-1.65-.18-3.29-.44-4.92-.71l-.18,0c1-1.93,2.1-4.43,2.39-4.87a40.75,40.75,0,0,1,5.39-6.93c1.47-1.47,3.36-2.34,4.82-3.74,1.81-1.77,2.75-4.2,4-6.38l.17-.31c1.67-2.9,4.53-5.72,7.82-5.24a6.16,6.16,0,0,1,4.44,3.47A10.55,10.55,0,0,1,118.66,117.28Z" transform="translate(-19.9 -13.25)"/><path class="cls-1" d="M105.41,113.66c-3,10.68-6.77,19.13-10.35,22.77l-1.12-.11c-1.65-.18-3.29-.44-4.92-.71l-.18,0c-1.63-.27-3.25-.67-4.87-1a10.58,10.58,0,0,0-4.08.13A15.22,15.22,0,0,0,75.33,136a22.46,22.46,0,0,1-4.11,1.1,6.54,6.54,0,0,1-2.51.12C64,109,24.27,35.59,69.55,27.62,115.88,19.47,115.16,78.6,105.41,113.66Z" transform="translate(-19.9 -13.25)"/><path d="M120.62,138.29c-2.14-.17-4.27-.52-6.39-.89-1.09-.19-2.17-.43-3.25-.68a12.58,12.58,0,0,0-3-.47,21.52,21.52,0,0,0-3.1.38,16.42,16.42,0,0,0-2.92.73c-.91.33-1.76.79-2.7,1s-2,.47-2.93.66c-2,.39-4.29-.42-6.15-1.17a7.14,7.14,0,0,1-1.25-.59,3.65,3.65,0,0,0-1.3-.63c-.45-.09-.91-.1-1.36-.23a12.5,12.5,0,0,0-1.48-.42,14.81,14.81,0,0,0-3-.11c-1,0-2.07,0-3.1.1-2.2.13-4.36.56-6.55.75a61.15,61.15,0,0,1-7.28.53,16.65,16.65,0,0,1-3.46-.25c-1.1-.28-2.14-.75-3.23-1.06a.65.65,0,0,0-.35,1.26c1,.27,1.87.67,2.82,1a11.31,11.31,0,0,0,3,.37c1.08,0,2.16.09,3.24.06s2.08-.23,3.12-.35,2.27-.19,3.4-.32,2.23-.31,3.34-.44a53.57,53.57,0,0,1,6.33-.32,11.77,11.77,0,0,1,3.06.54c.47.13,1,.1,1.44.25a9.41,9.41,0,0,1,1.24.7,17.18,17.18,0,0,0,5.85,1.73,8.84,8.84,0,0,0,2.94-.29,25.87,25.87,0,0,0,2.92-.7c1-.33,1.83-.81,2.8-1.08a26,26,0,0,1,3-.6,9.38,9.38,0,0,1,3.62.07c1.2.27,2.39.56,3.6.78a64.63,64.63,0,0,0,7.2,1c.85.07.84-1.24,0-1.31Z" transform="translate(-19.9 -13.25)"/><path d="M20.15,93.69c-.4,3-.48,6.3,1,9.08a23.8,23.8,0,0,0,5.49,6.35.44.44,0,0,0,.62-.62c-1.73-2-3.69-3.79-5-6.13a9,9,0,0,1-1.13-3.92c-.09-1.58.15-3.18,0-4.76a.46.46,0,0,0-.92,0Z" transform="translate(-19.9 -13.25)"/><path d="M40.06,83.75c2.75,0,6.5.58,7.82,3.38.21.44.88.13.77-.32-.95-3.57-5.46-4.24-8.59-4.27a.61.61,0,0,0,0,1.21Z" transform="translate(-19.9 -13.25)"/><path d="M87.4,129.48l-.19,0,.22.51c.56-.59,1.38-.95,1.71-1.73a12.65,12.65,0,0,1,1.72-2.3,31.38,31.38,0,0,0,2.68-5,30,30,0,0,0,1.91-5.79c.25-1,.45-2,.77-3s.67-1.92.91-2.9.51-2.2.73-3.3a7.83,7.83,0,0,0,.18-3c-.06-.28-.48-.2-.49.07a31,31,0,0,1-1.16,5.54c-.45,1.92-1.17,3.76-1.62,5.69a30,30,0,0,1-1.7,5.73,44.78,44.78,0,0,1-2.43,4.91,12.6,12.6,0,0,1-1,1.4c-.27.33-.61.62-.85,1s-.28.86-.59,1.19-.84.71-1.21,1.14a.3.3,0,0,0,.29.5l.19,0c.33-.05.26-.61-.08-.58Z" transform="translate(-19.9 -13.25)"/><path d="M65.39,102.07a7,7,0,0,0,.61,2.45c.31.93.53,1.88.77,2.82a20.06,20.06,0,0,0,.85,2.73c.35.87.75,1.72,1,2.61s.54,1.87.83,2.79.72,1.85,1.08,2.78a23.26,23.26,0,0,1,1.46,5.5,15.46,15.46,0,0,1,.25,1.66,14.54,14.54,0,0,0,0,1.48,21.24,21.24,0,0,0,.74,3.25.17.17,0,0,0,.33-.09,20.58,20.58,0,0,1-.55-3.82,9.78,9.78,0,0,0,0-1.71c-.11-.62-.17-1.23-.25-1.85a34,34,0,0,0-2.13-6.73c-.4-1.14-.68-2.31-1.06-3.45s-.93-2.22-1.34-3.35-.66-2.37-1-3.56a15.85,15.85,0,0,0-.57-1.77,6.32,6.32,0,0,1-.51-1.74.29.29,0,0,0-.57,0Z" transform="translate(-19.9 -13.25)"/><path d="M63,95.72l-.07.19c-.09.26.35.45.46.19a1.61,1.61,0,0,0,0-1.27,11.78,11.78,0,0,1-.41-2A36.12,36.12,0,0,0,62,88.71c-.7-2.62-.84-5.36-1.38-8-.27-1.37-.51-2.75-.88-4.1s-.78-2.41-1-3.66-.52-2.64-.93-4a33.27,33.27,0,0,1-1.09-3.78c-.56-2.91-.27-5.87-.49-8.8a.25.25,0,0,0-.49,0,44.25,44.25,0,0,0-.12,7.72c.26,2.61,1.37,4.95,1.9,7.5.27,1.26.51,2.49.89,3.72s.71,2.6,1,3.92.63,2.77.86,4.16.32,2.62.58,3.92c.3,1.48.82,2.9,1.16,4.37.17.77.27,1.56.42,2.33s.38,1.33.54,2l.49-.13-.07-.19a.18.18,0,0,0-.35,0Z" transform="translate(-19.9 -13.25)"/><path d="M57.17,47.65a.07.07,0,1,0,0-.13.07.07,0,0,0,0,.13Z" transform="translate(-19.9 -13.25)"/><path d="M70.71,27.74a3.68,3.68,0,0,1-.93.4c-.42.17-.83.37-1.23.57a18,18,0,0,0-2.36,1.38,44.3,44.3,0,0,0-3.92,3.29,18.55,18.55,0,0,0-3.19,4.35c-.51.8-.94,1.64-1.42,2.46a21.5,21.5,0,0,0-1.39,2.59c-.38.91-.56,1.89-.86,2.82a8.66,8.66,0,0,0-.74,2.93.3.3,0,0,0,.59.08c.34-1.08.81-2.09,1.17-3.15a20.31,20.31,0,0,1,1.32-3.37c1.15-2.06,2.43-4,3.69-6a8.74,8.74,0,0,1,1-1.4c.36-.37.77-.69,1.16-1,.81-.67,1.51-1.46,2.35-2.09a21.08,21.08,0,0,1,2.92-1.84c.48-.25,1-.5,1.46-.71a2.52,2.52,0,0,0,1-.62.45.45,0,0,0-.64-.64Z" transform="translate(-19.9 -13.25)"/><path d="M72.71,27.5a6.52,6.52,0,0,0-1.4,1.61c-.4.73-.81,1.46-1.22,2.19a12.28,12.28,0,0,0-1.21,5,17.87,17.87,0,0,0,.53,5.2,6.81,6.81,0,0,0,2.42,3.9.29.29,0,0,0,.39-.39,12.52,12.52,0,0,1-2-3.83,17.08,17.08,0,0,1-.48-4.88,11.66,11.66,0,0,1,1.08-4.76l1-2a6.39,6.39,0,0,1,1.3-1.62c.27-.27-.14-.68-.42-.42Z" transform="translate(-19.9 -13.25)"/><path d="M75.15,27.39,75,27.27l-.28.67a13.83,13.83,0,0,1,2.68.6,16.16,16.16,0,0,1,2.54,1.05,24.19,24.19,0,0,1,2.19,1.18,12.87,12.87,0,0,1,2.14,1.82,22.42,22.42,0,0,1,2,2c.5.64.87,1.37,1.37,2a13,13,0,0,1,1.24,2.18c.18.34.42.66.6,1A12.48,12.48,0,0,0,90,41.05c.15.21.52.09.44-.18-.15-.46-.27-.94-.44-1.39s-.37-.73-.53-1.1-.29-.8-.48-1.18A8.36,8.36,0,0,0,88.19,36c-.49-.7-.86-1.46-1.4-2.12a29.38,29.38,0,0,0-2.13-2.19,16.4,16.4,0,0,0-4.47-3,14.14,14.14,0,0,0-2.57-1c-.49-.13-1-.21-1.49-.31a6.88,6.88,0,0,0-1.43-.23.4.4,0,0,0-.19.73.82.82,0,0,0,.36.18.37.37,0,0,0,.28-.67Z" transform="translate(-19.9 -13.25)"/><path d="M81,127.48c1.17-1.37,1-3.28,1.24-5a11.07,11.07,0,0,0,.06-3.2c-.17-1.25-.5-2.49-.56-3.75s.07-2.35-.09-3.52-.16-2.49-.39-3.72-.51-2.61-.67-3.94S80.3,102,80,100.75c0-.21-.41-.16-.38.06.31,2.33.36,4.7.86,7a31.7,31.7,0,0,1,.43,3.64,35.2,35.2,0,0,1,.15,3.56c0,2.32,1,4.6.59,6.93-.27,1.61,0,3.77-1.11,5.09-.27.31.18.77.45.45Z" transform="translate(-19.9 -13.25)"/><path d="M34.58,98c-2-.37-1.52,2.82-1,3.85.63,1.21,1.74,1.82,2.64,2.77a7.6,7.6,0,0,0,1.39,1.27c.56.36,1.18.6,1.74,1,2.48,1.63,5.21,2.85,7.53,4.74A29.66,29.66,0,0,1,50,114.67c1.07,1.16,2.17,2.3,3.12,3.56a46.52,46.52,0,0,0,3,3.8,16,16,0,0,1,1.18,1.69c.41.55,1,1,1.22,1.71.06.26.49.21.47-.06-.07-1-1-1.72-1.43-2.6a21.45,21.45,0,0,0-2.33-3c-.85-1.1-1.63-2.25-2.54-3.3s-1.94-2.08-2.9-3.14a23.94,23.94,0,0,0-6.19-4.86c-1.18-.66-2.39-1.26-3.51-2a18,18,0,0,0-1.6-.93,6.19,6.19,0,0,1-1.63-1.3c-1-1.08-2.38-1.77-2.87-3.24-.21-.63-.53-2.47.51-2.43a.32.32,0,0,0,.08-.62Z" transform="translate(-19.9 -13.25)"/><path d="M39.54,96.92a4,4,0,0,1,2.1,1c.77.55,1.49,1.12,2.21,1.73A13.53,13.53,0,0,1,46,101.36c.56.73,1.15,1.41,1.76,2.1,1.33,1.53,2.12,3.46,3.5,5,.63.69,1.31,1.33,1.88,2.08a6.3,6.3,0,0,0,1.69,1.83c.22.14.43-.16.27-.35-.65-.73-1.13-1.57-1.74-2.34s-1.37-1.44-2-2.21a29.4,29.4,0,0,1-1.86-2.79,16.09,16.09,0,0,0-1.8-2.31,16.69,16.69,0,0,0-1.86-2.15c-.35-.27-.75-.43-1.11-.68s-.81-.68-1.22-1a12.81,12.81,0,0,0-2.23-1.57,2.87,2.87,0,0,0-1.82-.41.21.21,0,0,0,.06.41Z" transform="translate(-19.9 -13.25)"/><path d="M104.54,124.65a9.05,9.05,0,0,0,.93-.83,7.39,7.39,0,0,1,1-.74,8.54,8.54,0,0,0,1.52-1.71c1-1.22,2-2.56,2.07-4.19,0-.39-.56-.37-.59,0a4.87,4.87,0,0,1-.82,2,20.45,20.45,0,0,1-1.36,1.85,7.41,7.41,0,0,1-1.38,1.57,5.84,5.84,0,0,0-.86.7,11.81,11.81,0,0,1-.82.91c-.22.19.07.58.31.41Z" transform="translate(-19.9 -13.25)"/><path d="M101.8,131a1,1,0,0,0,.77-.08c.3-.18.39-.45.75-.56a9.14,9.14,0,0,0,1.15-.27,3.63,3.63,0,0,0,.91-.7,12.77,12.77,0,0,1,1.24-.58,9.23,9.23,0,0,0,1-.83c.71-.62,1.48-1.14,2.21-1.74a45.37,45.37,0,0,0,3.95-4.25,5.79,5.79,0,0,0,1.39-2,6.9,6.9,0,0,0,.22-3.13.31.31,0,0,0-.62,0,9.82,9.82,0,0,1-.6,3,7,7,0,0,1-1.43,1.79,40.28,40.28,0,0,1-3.53,3.86c-.64.54-1.34,1-2,1.55-.3.27-.6.55-.92.8a5.38,5.38,0,0,1-1.09.57,3,3,0,0,0-.75.62,2,2,0,0,1-1.07.49,2.18,2.18,0,0,0-.88.39c-.24.21-.32.5-.68.46s-.45.58-.09.65Z" transform="translate(-19.9 -13.25)"/><ellipse cx="78.55" cy="68.6" rx="5.71" ry="6.06" transform="translate(-33.5 6.52) rotate(-13.22)"/><ellipse cx="93.84" cy="66.7" rx="5.71" ry="6.06" transform="translate(-32.66 9.97) rotate(-13.22)"/><path d="M83,79.78a7.36,7.36,0,0,1,2.25-.49,3.28,3.28,0,0,1,3,3.9c-.46,3.79-4.65,6.9-7.93,7.47a21.69,21.69,0,0,1-6.18.06A2.82,2.82,0,0,1,72.33,89c-.61-1.39,1.06-3.14,1.87-4.1a14.17,14.17,0,0,1,3.8-3.1,20.57,20.57,0,0,1,3.7-1.6Z" transform="translate(-19.9 -13.25)"/><path d="M88.39,80.72a5.28,5.28,0,0,1,3.66-3.19,7.56,7.56,0,0,1,4.16.53A14.11,14.11,0,0,1,102.9,83a2.86,2.86,0,0,1,.68,1.93,2.17,2.17,0,0,1-1.07,1.51,6.6,6.6,0,0,1-3.44.67l-5.52.07A11.34,11.34,0,0,1,90.82,87a3.34,3.34,0,0,1-2.63-2.27A6.39,6.39,0,0,1,88.39,80.72Z" transform="translate(-19.9 -13.25)"/><path d="M106.36,80c.17.61.53,1.14.71,1.74a6,6,0,0,1,.25,2,20.3,20.3,0,0,1-.63,4.24A.14.14,0,0,0,107,88a20.84,20.84,0,0,0,.78-4.31,5.72,5.72,0,0,0-.19-2c-.19-.65-.59-1.22-.77-1.87a.22.22,0,0,0-.43.12Z" transform="translate(-19.9 -13.25)"/><path d="M68.67,85.76c-1,1.52-.44,3.52.19,5.07a11.63,11.63,0,0,0,1.27,2.29A4.25,4.25,0,0,0,72,94.66c.2.08.33-.25.14-.35a4.26,4.26,0,0,1-1.63-1.55,12.06,12.06,0,0,1-1.09-2.15,10.55,10.55,0,0,1-.48-2.23,3.31,3.31,0,0,1,.45-2.22c.29-.42-.41-.83-.69-.4Z" transform="translate(-19.9 -13.25)"/><path d="M85.71,91.71a7.54,7.54,0,0,1,1.16-.28l1-.22a15.84,15.84,0,0,0,1.89-.58c.58-.22,1.19-.39,1.77-.63l.92-.37a1.79,1.79,0,0,0,.84-.41.14.14,0,0,0,0-.22c-.52-.23-1.25.24-1.74.44s-1.24.39-1.85.62a14.73,14.73,0,0,1-2,.55l-1,.2a6.79,6.79,0,0,1-1.18.21c-.57,0-.4,1,.19.69Z" transform="translate(-19.9 -13.25)"/><path d="M75.38,55.88c-.39-.11-.8-.12-1.18-.23l.25.19c-.33-.52-1.22-.24-1.69,0-.65.26-1.26.63-1.89.93a22.3,22.3,0,0,0-2,1c-.56.34-1.45.8-1.66,1.46a.32.32,0,0,0,.31.4c.62,0,1.27-.56,1.79-.86s1.26-.69,1.92-1,1.17-.61,1.78-.89a3.71,3.71,0,0,1,.66-.24c.3-.08.61,0,.79-.36l-.25.19a2.36,2.36,0,0,1,1,.14.37.37,0,0,0,.2-.71Z" transform="translate(-19.9 -13.25)"/><path d="M90.25,53.44l-.38,0v.7c1.32-.06,2.64-.39,4-.53a16.08,16.08,0,0,1,2.5-.09A3.2,3.2,0,0,1,98,54a.66.66,0,0,1,.26.46c.06.28.23.76.64.54.64-.33.14-1.34-.23-1.67-1.07-.94-2.94-.76-4.24-.65-.94.08-1.87.22-2.8.39q-.56.1-1.11.24l-.41.09-.31.09a.35.35,0,0,0,.18.68l.38-.08c.35-.08.28-.69-.09-.65Z" transform="translate(-19.9 -13.25)"/><path d="M70.94,21.4a10,10,0,0,0-4.79.82A2.42,2.42,0,0,0,64.64,24a2.23,2.23,0,0,0,1.21,2.21,5.58,5.58,0,0,0,2.94.41,15.89,15.89,0,0,0,3-.54,7.42,7.42,0,0,0,3-1.58c.74-.64,2.12-2.1,1.21-3.11-.76-.85-2.42-.53-3.42-.56a23.6,23.6,0,0,0-2.66,0,6.22,6.22,0,0,0-1.28.21,2.88,2.88,0,0,0-1.14.62.4.4,0,0,0,.3.73c.31-.07.63-.06.94-.12s.62-.08.94-.1c.66,0,1.33,0,2,0s1.21.05,1.81,0a8.7,8.7,0,0,1,1.25,0,1.08,1.08,0,0,1,.3.09s-.25-.17-.1-.19-.06.2,0,.17a4.65,4.65,0,0,1-1,1.21,5.73,5.73,0,0,1-2.24,1.23,9.39,9.39,0,0,1-4.63.45c-.56-.14-1-.44-1-1a.58.58,0,0,1,.16-.37,2.08,2.08,0,0,1,.69-.46,12.79,12.79,0,0,1,4.11-.82.59.59,0,0,0,0-1.17Z" transform="translate(-19.9 -13.25)"/><path d="M73.91,23.4c-.11-.79,1.12-1.55,1.59-2.09,1-1.11,1.72-2.41,2.65-3.55,1.35-1.68,2.91-3.62,5.31-3.14L83,14.17c.42,1.91-1.38,2.89-2.58,4a18.5,18.5,0,0,1-2.63,2,6.38,6.38,0,0,0-2,1.71c-.37.61.35,1.22.93.93a50.68,50.68,0,0,1,8-3.37,6.09,6.09,0,0,1,3.75-.07c.42.18.34.43,0,.83a5,5,0,0,1-2.1,1.31,46,46,0,0,1-5,1.44,12.72,12.72,0,0,1-4.23.65c-.93-.07-2.12-.19-2.69.71a.66.66,0,0,0,.4,1,4.45,4.45,0,0,0,2.48-.05c.41-.1.81-.23,1.23-.29A9,9,0,0,1,80,25a24.87,24.87,0,0,0,2.58-.46c.41,0,1.28-.21,1.43.31s-.55.88-1,1.05a15.17,15.17,0,0,1-2.27.68c-1.88.41-3.83.55-5.73.85a25,25,0,0,1-3.12.06,6.61,6.61,0,0,1-2.51-.09l.16,1.25a5.67,5.67,0,0,0,1.89-1.72c.33-.62.35-1.67,1.1-1.95s.44-1.47-.34-1.21a2.52,2.52,0,0,0-1.63,1.79A2.85,2.85,0,0,1,70,26.65a9.93,9.93,0,0,1-1.13.79A.7.7,0,0,0,69,28.69a6.08,6.08,0,0,0,2.62.13c1.07-.07,2.14.06,3.21-.07s2.28-.35,3.43-.49a24.12,24.12,0,0,0,3.26-.55c1.3-.33,3.43-.8,3.74-2.36a1.83,1.83,0,0,0-.8-1.92,3.75,3.75,0,0,0-2.22-.21c-.59.07-1.12.33-1.7.41s-1.3,0-1.94,0c-1.17.12-2.31.78-3.48.42l.39,1c.14-.22.89-.11,1.11-.09a10.72,10.72,0,0,0,1.7,0,28,28,0,0,0,4-.88A23.9,23.9,0,0,0,88,22.27c1.18-.65,3-2.47,1.48-3.74-1.16-1-3.23-.69-4.58-.44A21.33,21.33,0,0,0,81,19.45c-1.69.68-3.37,1.42-5,2.26l.93.92c.47-.78,1.59-1.29,2.31-1.83,1-.71,1.82-1.48,2.71-2.26a9.4,9.4,0,0,0,1.87-1.91,3.52,3.52,0,0,0,.39-2.8.61.61,0,0,0-.44-.44,5,5,0,0,0-3.72.52,11.9,11.9,0,0,0-2.85,2.77c-1,1.26-1.81,2.76-3,3.93-.77.78-1.87,1.72-1.55,2.95.16.64,1.26.53,1.18-.16Z" transform="translate(-19.9 -13.25)"/><path d="M70.12,24.94A26.79,26.79,0,0,1,66,28a6.63,6.63,0,0,1-4.92.87c-.57-.19-1.11-.82-.51-1.32a8.73,8.73,0,0,1,1.79-.8,15.15,15.15,0,0,1,2.53-1.05,11.08,11.08,0,0,1,2.66-.57.79.79,0,0,0,0-1.57c-1.15,0-2.22.4-3.35.47s-2.16-.18-3.24-.08-2,.58-3,.58a2.89,2.89,0,0,1-2-.5,1.86,1.86,0,0,1-.24-1.81,1.92,1.92,0,0,1,1.22-1,12,12,0,0,1,4.38-.34c1.15.05,2.25.32,3.38.47.66.09,1.88,0,2.33.59l1.12-1.12a8,8,0,0,1-2.52-3.93c-.11-.48-.22-1.05.25-1.36a3.18,3.18,0,0,1,1.58-.31c1.1,0,2.76-.22,3.58.7,1.23,1.37.34,3.55.62,5.17L73,20.69,73,20.4a.65.65,0,0,0-1.24,0l-.06.29c-.16.88,1.18,1.27,1.36.38a14.28,14.28,0,0,0,.19-2.85,5.82,5.82,0,0,0-.55-2.6,3.91,3.91,0,0,0-3.43-1.92,8.39,8.39,0,0,0-3.86.33c-1.41.62-1.59,2.07-1.22,3.43a8.46,8.46,0,0,0,3,4.58c.76.5,1.58-.61,1-1.24a4.37,4.37,0,0,0-2.7-.88c-1.08-.12-2.13-.36-3.21-.46a14.47,14.47,0,0,0-5.64.28,3.36,3.36,0,0,0-2.48,4c.41,2.2,2.93,2.64,4.81,2.31.64-.12,1.25-.37,1.89-.46a11.34,11.34,0,0,1,2.18,0,8.45,8.45,0,0,0,2.13-.12,11.8,11.8,0,0,1,2.37-.36V23.54a12,12,0,0,0-2.64.6,13.37,13.37,0,0,0-2.5,1c-.67.32-1.35.59-2,.89A2.45,2.45,0,0,0,59,27.36c-.59,1.69,1,2.81,2.46,3a8.33,8.33,0,0,0,5-1.09,15.31,15.31,0,0,0,4.45-3.63.5.5,0,0,0-.7-.7Z" transform="translate(-19.9 -13.25)"/></svg>