<svg id="Layer_1" data-name="Layer 1" xmlns="http://www.w3.org/2000/svg" width="35.39" height="35.39" viewBox="0 0 35.39 35.39"><path d="M41.84,14.23,35.79,8.16a2.89,2.89,0,0,0-2.06-.85H14.05a5.15,5.15,0,0,0-4.57,2.8,2.37,2.37,0,0,0-2.17,2.36V36a6.74,6.74,0,0,0,6.74,6.74h23.5a2.36,2.36,0,0,0,2.35-2.18A5.11,5.11,0,0,0,42.69,36V16.28A2.88,2.88,0,0,0,41.84,14.23Zm-1.31.93H34.26V9a1.22,1.22,0,0,1,.41.27ZM39.48,39a2.35,2.35,0,0,0-1.93-1H14.05a2,2,0,0,1-2-2V12.47a2.36,2.36,0,0,0-1-1.94,3.58,3.58,0,0,1,3-1.64H32.68V16a.79.79,0,0,0,.79.79h7.64V36A3.55,3.55,0,0,1,39.48,39Z" transform="translate(-7.31 -7.31)"/><path d="M35.08,23.1H15.52a.79.79,0,1,0,0,1.58H35.08a.79.79,0,0,0,0-1.58Z" transform="translate(-7.31 -7.31)"/><path d="M15.52,19.56h7.26a.8.8,0,1,0,0-1.59H15.52a.8.8,0,0,0,0,1.59Z" transform="translate(-7.31 -7.31)"/><path d="M35.08,28.42H15.52a.79.79,0,0,0,0,1.58H35.08a.79.79,0,0,0,0-1.58Z" transform="translate(-7.31 -7.31)"/><path d="M35.08,33.74H15.52a.79.79,0,1,0,0,1.58H35.08a.79.79,0,0,0,0-1.58Z" transform="translate(-7.31 -7.31)"/></svg>