<svg id="Layer_1" data-name="Layer 1" xmlns="http://www.w3.org/2000/svg" width="49.72" height="27.4" viewBox="0 0 49.72 27.4"><path d="M38,27.85a.42.42,0,0,1,.57.39v5.33l-.35.28A21.45,21.45,0,0,1,25,38.2a21.38,21.38,0,0,1-13.58-4.62h0V28.26a.42.42,0,0,1,.57-.39l11.25,4.61a5.2,5.2,0,0,0,3.48,0Z" transform="translate(-0.14 -10.8)"/><path d="M49.14,20.29l-22.4-9.2a5.32,5.32,0,0,0-3.48,0L.86,20.29c-1,.38-1,1,0,1.42l22.4,9.18a5.2,5.2,0,0,0,3.48,0l17.42-7.15v4.15a1.86,1.86,0,0,0,0,3.39l-.39,1.3-1.16,4,2.53.54,2.61-.69-1.4-3.9-.47-1.29a1.82,1.82,0,0,0,.94-1.61,1.85,1.85,0,0,0-1.12-1.71V23.13l3.49-1.42C50.1,21.31,50.1,20.67,49.14,20.29ZM24.4,25.48a.91.91,0,0,1-1,1H18.81V15.12h4.52c.68,0,1,.35,1,1.05v2.94A1.13,1.13,0,0,1,24,20s-.33.22-.89.56c.58.36.89.55.92.59a1.17,1.17,0,0,1,.39.94ZM32,18.71h-1.7V16.56H28.17v2.06l3.41,3.22a1.2,1.2,0,0,1,.37.93v2.71a.91.91,0,0,1-1,1H27.49a.91.91,0,0,1-1-1V22.77h1.71v2.32h2.08V22.85l-3.42-3.23a1.2,1.2,0,0,1-.37-.91V16.17a.92.92,0,0,1,1-1.05h3.43a.91.91,0,0,1,1,1ZM20.51,21.29v3.8h2.18V21.84l-.84-.55Zm2.14-2V16.56H20.51V19.9h1.31Z" transform="translate(-0.14 -10.8)"/></svg>