<svg id="Layer_1" data-name="Layer 1" xmlns="http://www.w3.org/2000/svg" width="103.74" height="136.17" viewBox="0 0 103.74 136.17"><defs><style>.cls-1,.cls-3,.cls-4{stroke:#000;stroke-miterlimit:10;}.cls-1{stroke-width:0.09px;}.cls-2{fill:#f4e5ca;}.cls-3,.cls-4{fill:none;stroke-width:1.73px;}.cls-4{stroke-linecap:round;}</style></defs><path class="cls-1" d="M122.69,106.4h0c.86-.44-.27-1.79-.77-2.24-1.51-1.39-4.26-1.26-5.46-2.74a.4.4,0,0,0-.64,0c-.66.81-2,1-3.16,1a6,6,0,0,1-3.14-.52c-1.16-.67-2-2.16-3.32-2.09-1.13.06-1.86,1.24-2.92,1.62-1.57.56-3.35-.74-4.91-.17-1.2.44-1.75,1.79-2.17,3a1.51,1.51,0,0,0-.12.93,1.32,1.32,0,0,0,.58.68,5.9,5.9,0,0,0,2.5.44,23.91,23.91,0,0,0,4.23.07c2.87-.32,5.84.37,8.77,0a9.1,9.1,0,0,1,1.56-.11c1.08,0,2.15.53,3.22.33.29-.06.58-.17.88-.21a6.92,6.92,0,0,1,2,.2,5.1,5.1,0,0,0,1.56,0A8.07,8.07,0,0,0,122.69,106.4Z" transform="translate(-19.34 -5.46)"/><path d="M71.61,103.61c-.39,0-.79-.09-1.18-.1a2.62,2.62,0,0,0-1.15.13.2.2,0,0,0-.1.18c0,.55.79.58,1.18.58a11.87,11.87,0,0,0,2.06-.19c.24,0,.48-.07.71-.13a.17.17,0,0,0,.11-.19c-.08-.19-.33-.2-.51-.22-.33,0-.67,0-1,0s-.73,0-1.09,0a1.9,1.9,0,0,0-.67.09.1.1,0,0,0,0,.17c.36.35,1,.13,1.36-.05.08,0,0-.14,0-.14-.39,0-.83.38-1.18,0l0,.18a1.77,1.77,0,0,1,.56-.08q.49,0,1,0c.31,0,.63,0,.94.07a1.86,1.86,0,0,1,.34.06l.09,0s0,0,0,0l.15-.19c-.46,0-.92.12-1.38.17a6.25,6.25,0,0,1-1.78,0,.82.82,0,0,1-.29-.09l0,0h0s0,0,0,0l-.21.21a10.15,10.15,0,0,1,1.1-.07,10.46,10.46,0,0,0,1.12,0,.18.18,0,0,0,0-.35Z" transform="translate(-19.34 -5.46)"/><path d="M68.36,116.18c1.2,0,2.4-.05,3.6-.12.58,0,1.16-.1,1.74-.12a11.73,11.73,0,0,0,1.78-.08c.13,0,.11-.2,0-.24a4.63,4.63,0,0,0-1.78-.08c-.55,0-1.11.07-1.65.14a28.65,28.65,0,0,1-3.69.37.07.07,0,0,0,0,.13Z" transform="translate(-19.34 -5.46)"/><path d="M24.36,119.67c1.89,1.06,4.22.79,6.31.72a23.65,23.65,0,0,0,3.46-.22,32.82,32.82,0,0,1,4-.76,10.56,10.56,0,0,1,3.87.51,19.75,19.75,0,0,0,4,.54c1.42.14,2.88,0,4.31.09,1.59.06,3.19.24,4.78.25l-.62-.36.1.17a.66.66,0,0,0,1.22-.33l0-.2c0-.42-.37-.68-.72-.72-2.87-.37-5.75-.15-8.62-.31-2.63-.14-5.1-1-7.72-1-2.4,0-4.64,1.07-7,1.11s-4.74.41-7-.34a.45.45,0,0,0-.34.81Z" transform="translate(-19.34 -5.46)"/><path d="M107.17,119.4a8.6,8.6,0,0,1,1.31,1.57c.33.44.81,1.31,1.45.83a4.58,4.58,0,0,0,.61-.71,5,5,0,0,1,.87-.63l1-.68a6.9,6.9,0,0,0,1-.74.54.54,0,0,0-.23-.89h0c-.33-.14-.77.09-.65.5a.85.85,0,0,1,0,.17l.25-.6a6.47,6.47,0,0,0-1,.66c-.34.24-.68.48-1,.71a7.73,7.73,0,0,0-.94.68,4.12,4.12,0,0,0-.33.4l-.14.22c-.12.16-.14,0,.16,0l.26.07s.1.08.09.09-.12-.16-.13-.18l-.27-.31c-.19-.21-.37-.43-.55-.65a6.26,6.26,0,0,0-1.24-1.17c-.39-.26-.86.35-.51.66Z" transform="translate(-19.34 -5.46)"/><path d="M109.82,118.71v-.12a.42.42,0,0,0-.82-.11,3.64,3.64,0,0,0-.05.81v.76c0,.5,0,1,0,1.52a.47.47,0,0,0,.47.47.48.48,0,0,0,.48-.47c0-.51,0-1,0-1.52v-.76a3.64,3.64,0,0,0-.06-.81.41.41,0,0,0-.81.11v.12a.41.41,0,1,0,.81,0Z" transform="translate(-19.34 -5.46)"/><path d="M28.12,131.27a.92.92,0,0,0-.59,0,.41.41,0,0,0-.24.59,2.65,2.65,0,0,0,1.83,1.09,23,23,0,0,1,3.8,1.52,21.29,21.29,0,0,0,3.53,1.45c.64.17,1.22.49,1.85.66a6.22,6.22,0,0,0,1.1.31c.83.09,1.64-.71,2.37-1,1.23-.51,2.5-1,3.76-1.45a26.76,26.76,0,0,0,2.76-1,1.12,1.12,0,0,0,.55-1.54.4.4,0,0,0-.72.09l.11.06a.58.58,0,0,0-.26.06,2.22,2.22,0,0,1-.38.18c-.27.11-.56.17-.84.27-1,.35-2,.75-3,1.16s-2,.71-2.94,1.15c-.35.16-.64.37-1,.56s-.15.19-.57.06c-.88-.28-1.8-.52-2.71-.74a21.32,21.32,0,0,1-3.33-1.27,28.65,28.65,0,0,0-3-1.16c-.77-.24-1.89-.26-2.42-.93l-.08.63.2,0a.34.34,0,0,0,.09-.67Z" transform="translate(-19.34 -5.46)"/><path d="M33.89,130.12c.18.62.6.87,1.12,1.19a6.34,6.34,0,0,1,1.54,1.6c.46.59.9,1.19,1.36,1.79a4.38,4.38,0,0,1,.52.62c.17.32.18.52.53.75a.64.64,0,0,0,.68,0,7.91,7.91,0,0,0,1.71-1.5c.46-.52,1-1,1.39-1.53s.65-.93,1-1.35a14.39,14.39,0,0,0,1.12-1.07.35.35,0,0,0,0-.4c-.46-.56-1.25-.27-1.7.11a7.07,7.07,0,0,0-1.21,1.46c-.4.55-.9,1-1.34,1.55A7.78,7.78,0,0,1,39,134.9h.68c.09.2.11.22.07.06l0-.1a1.38,1.38,0,0,0-.23-.39c-.19-.24-.42-.46-.62-.7l-1.31-1.6a10.84,10.84,0,0,0-1.45-1.5c-.41-.34-1-.44-1.28-.93s-1-.16-.9.38Z" transform="translate(-19.34 -5.46)"/><path d="M39.08,128.12a15.92,15.92,0,0,0,.38,2.26,13.15,13.15,0,0,1,.19,2.35c0,.51,0,1-.11,1.53,0,.18-.06.37-.11.56s-.07.24-.07.24-.08.1,0,0,0,0-.08.05l.26-.15h-.09a.41.41,0,0,0-.36.61l0,.11a.6.6,0,0,0,.72.41c.53-.1.68-.81.76-1.24a11.66,11.66,0,0,0,.16-1.67,13.12,13.12,0,0,0-.23-2.65,7.67,7.67,0,0,0-.75-2.58.41.41,0,0,0-.75.2Z" transform="translate(-19.34 -5.46)"/><path d="M56.82,112.67l-.08,0c-.31-.22-.62.31-.3.51a6.87,6.87,0,0,0,3.79,1.48,1.84,1.84,0,0,0,.84-.35c.47-.28,1-.5,1.47-.74s.94-.4,1.42-.58a.88.88,0,0,0,.59-.88.25.25,0,0,0-.37-.21c-.14.07-.27.15-.4.23a2.6,2.6,0,0,1-.51.21c-.43.17-.86.37-1.28.57l-1.23.62a2.52,2.52,0,0,1-.7.34,3.18,3.18,0,0,1-1.72-.42c-.55-.24-1.06-.53-1.6-.78l.11.41,0,0a.21.21,0,0,0,0-.41Z" transform="translate(-19.34 -5.46)"/><path d="M57.68,112.36a1.94,1.94,0,0,0,.54.6c.2.18.41.35.62.52s.39.34.57.53.16.21.31.24a.48.48,0,0,0,.39-.07,3.66,3.66,0,0,0,.44-.44,3.72,3.72,0,0,0,.43-.46,3.31,3.31,0,0,1,.91-.88.37.37,0,0,0,.13-.49.27.27,0,0,0-.18-.13l.18.14h0a.36.36,0,0,0-.4-.16,2.77,2.77,0,0,0-1.08.93,4.51,4.51,0,0,1-.45.53,1.8,1.8,0,0,0-.2.19l-.09.11c-.1.12-.06,0,.07.06l.16.09a6.85,6.85,0,0,0-1-.87c-.16-.12-.32-.23-.47-.36A4.33,4.33,0,0,0,58,112a.27.27,0,0,0-.36.36Z" transform="translate(-19.34 -5.46)"/><path d="M60.08,113.58a5.06,5.06,0,0,1,0-1.1c0-.19,0-.38,0-.56s0-.44-.18-.56a.18.18,0,0,0-.22,0c-.15.12-.13.4-.13.57s0,.39,0,.58a4.36,4.36,0,0,0,.16,1.14.19.19,0,0,0,.36-.1Z" transform="translate(-19.34 -5.46)"/><path d="M110.63,112.7c.51,0,1,0,1.54,0s.82-.13,1.24-.14c.24,0,.49,0,.74,0s.43.07.65.1a1.53,1.53,0,0,0,.64,0,1.19,1.19,0,0,0,.52-.24.15.15,0,0,0,0-.18c-.1-.17-.26-.17-.43-.12a1.43,1.43,0,0,1-.71.06c-.23,0-.45-.1-.69-.12h-.7c-.43,0-.84.13-1.28.12s-1,0-1.54,0a.25.25,0,0,0,0,.5Z" transform="translate(-19.34 -5.46)"/><path d="M35,110.32c.75,0,1.68-.42,2.38,0a5.83,5.83,0,0,0,2,.4,5.05,5.05,0,0,0,2,0,4.4,4.4,0,0,1,1.3-.14c.47,0,.92.15,1.39.14l-.15-.55-.06,0a.25.25,0,0,0,0,.43l.06,0c.38.27.68-.54.15-.55s-.93.08-1.39.1a6.32,6.32,0,0,0-1.06.09,5.82,5.82,0,0,1-1.31.24,10.3,10.3,0,0,1-1.1-.13c-.33,0-.65-.13-1-.17a3,3,0,0,1-.42,0l-.33-.19a1.38,1.38,0,0,0-.43-.19,8.52,8.52,0,0,0-2.14.09c-.31,0-.31.49,0,.47Z" transform="translate(-19.34 -5.46)"/><path d="M92,105.9c-1.16-.06-2.74.1-3.86.1-1.34-.16-3.09,0-4.41-.1-.6-.11-1.22,0-1.82-.09-1.95-.17-4-.19-6-.17a20.35,20.35,0,0,1-2.92.18c-1.36,0-2.73-.12-4.08-.12a21.32,21.32,0,0,0-3.09-.23,36,36,0,0,0-4.65.26c-1.22.09-3.86,0-5.08,0a80.43,80.43,0,0,0-9.94-.24c-1.63.09-3.26.27-4.89.25-1.27,0-2.51-.29-3.77-.36-1.76.09-3.51.24-5.27.35-2,0-4.47-.06-6.42-.06a21.38,21.38,0,0,0-4.43.48,15.89,15.89,0,0,1-1.81-.3l.71-1.41c.14-.33.57-.43.75-.73.42-.21.64-.62,1-.9.51-.32,1.24-.27,1.56-.84a.55.55,0,0,1,.18-.19c.17-.14.2-.34.34-.5.33-.59,1-.5,1.34-1a5.43,5.43,0,0,1,1.12-.85,3.82,3.82,0,0,0,1.31-.56c.27-.18.07-.34.35-.47.57-.7,1.31-.16,2-.18.62.14,1,0,1.29.68.45.6,1.35.2,1.8.86.29.47.19.88.85,1.12s1.37.92,2.2.69a16.51,16.51,0,0,1,3.7-1.44c.87-.24,2.07.15,2.77-.52.48-1,1.6-1.18,2.47-1.65,1-.67,2.2-1,3.27-1.61.86-.41,2.28-1.95,3.14-1.45a.9.9,0,0,0,.64-.17c1.51-.44,3.39-1.14,4.84-.15.07.47.7.44,1,.68,1,.34,1.86.87,2.83,1.23a11.64,11.64,0,0,1,3.18,1.3c.87.29,1.47,1,2.33,1.33a3.09,3.09,0,0,0,3.19.18A6.56,6.56,0,0,0,72,99c1.53-.5,3.16,1.08,4.82.65,1-.12.67,1.19,2.6,1.66,1.86,1.39,1.48.72,3.16,1.19a12.71,12.71,0,0,0,2.35.7,31.3,31.3,0,0,0,5.84,1.72c.1,0,.3,0,.35.13s-.06.31,0,.43S91.83,105.64,92,105.9Z" transform="translate(-19.34 -5.46)"/><path d="M92,105.69c-2.09-.07-4.2,0-6.28,0-2.35,0-4.69-.25-7-.29-2.51,0-5,.24-7.51.13a71.25,71.25,0,0,0-7.45-.27c-2,.11-4,.26-6,.25-2.21,0-4.41-.22-6.62-.28-2.56-.06-5.1.07-7.66.22s-5.08-.37-7.65-.2-5.21.27-7.84.22a29,29,0,0,0-3.73,0c-.54.06-1.07.16-1.6.25a8.28,8.28,0,0,1-3-.1l.12.31A5.37,5.37,0,0,1,21,104.08a8.77,8.77,0,0,1,1.93-1.37,2.51,2.51,0,0,0,1-.76,8.75,8.75,0,0,1,3.05-2.4,4.29,4.29,0,0,0,1.2-.68,1.76,1.76,0,0,1,1.77-.44c.75.11,1.08.57,1.7.88.82.4,1,.17,1.75,1.11A3.84,3.84,0,0,0,36,101.85c1.24,0,2.48-1.13,3.7-1.42,1-.25,2.43.12,3.29-.69a4.65,4.65,0,0,1,1.16-1c.31-.16.63-.27.94-.42.7-.35,1.38-.75,2.1-1.07a16.83,16.83,0,0,0,1.9-1c.58-.38,1.27-1.13,2-1.23a6,6,0,0,0,1.66-.22,8.68,8.68,0,0,1,2.61-.54c.94,0,1.27.44,2,.85s1.58.66,2.35,1c1.47.67,3,1.09,4.45,1.85,1.18.62,2.36,1.77,3.74,1.86a9.76,9.76,0,0,0,2.21-.39c.55-.08,1.09-.07,1.63-.18a4.85,4.85,0,0,1,2.92.28,7,7,0,0,0,1.87.29c1,.06.9.44,1.57,1a14.65,14.65,0,0,0,1.9,1.06,13.13,13.13,0,0,0,2.91.91c1.87.62,3.78,1.25,5.68,1.77.42.11.84.21,1.27.3s.58.12.87.17a.3.3,0,0,1,.23.37c.14.09.81.53.86.59a.21.21,0,0,0,.29-.29c-.13-.14-.29-.17-.42-.29s-.08,0-.2-.12-.11-.3-.16-.35a1.07,1.07,0,0,0-.49-.3c-.88-.3-1.86-.39-2.76-.66s-1.78-.58-2.67-.9a25.49,25.49,0,0,0-4-1.08,4.78,4.78,0,0,1-1.66-.82,6.24,6.24,0,0,1-1.9-1.28c-.76-.85-1.43-.34-2.53-.6-1.48-.36-2.37-.8-3.9-.43-.75.18-1.5.19-2.25.39a4,4,0,0,1-3.34-.79,19.83,19.83,0,0,0-4.51-2.14c-.9-.31-1.75-.75-2.63-1.13a12.77,12.77,0,0,1-1.56-.92c-1.17-.73-2.68-.39-3.92,0s-2.18.23-3.16.85c-.54.34-1,.75-1.57,1.06-.83.46-1.73.77-2.57,1.21l-1.93,1c-.65.33-.93.89-1.5,1.27s-1.52.17-2.16.25a8.32,8.32,0,0,0-2.24.69c-.37.16-.72.35-1.08.51a2.26,2.26,0,0,1-2.11-.09,3,3,0,0,1-1.25-1c-.16-.21-.17-.4-.39-.57a1.45,1.45,0,0,0-.35-.18,5.8,5.8,0,0,1-1.35-.7,1.62,1.62,0,0,0-.77-.42c-1.17-.27-2-.43-2.9.37-.63.56-1.4.7-2.05,1.21s-1.22.76-1.69,1.22c-.64.62-.87,1.13-1.76,1.54a6.22,6.22,0,0,0-1.5,1.13,6.11,6.11,0,0,0-1.48,2.19.2.2,0,0,0,.12.3,8,8,0,0,0,2.8.18,23,23,0,0,1,4.06-.35c2.18,0,4.38.16,6.57,0,1.28-.09,2.55-.19,3.83-.27a33.65,33.65,0,0,1,4,.3c2.57.16,5.16-.26,7.73-.28,4.29,0,8.61.61,12.89.24a47.08,47.08,0,0,1,7.51,0c2.5.17,5,0,7.45-.06,2.71-.08,5.41.2,8.11.3,2.51.09,5-.13,7.52-.05C92.23,106.11,92.23,105.7,92,105.69Z" transform="translate(-19.34 -5.46)"/><path d="M102.63,131.89c.84,0,1.69,0,2.54,0a13,13,0,0,1,2.23.48,15.37,15.37,0,0,0,4.48.44,14.71,14.71,0,0,0,2.28-.4c.84-.18,1.67-.34,2.5-.55s1.51-.41,2.27-.56a11.24,11.24,0,0,1,2.46-.07.86.86,0,0,0,0-1.72,16.74,16.74,0,0,0-2.35,0,23.5,23.5,0,0,0-2.38.55c-.78.2-1.57.38-2.36.54a15.2,15.2,0,0,1-2.42.46,14.78,14.78,0,0,1-4.44-.49,17.7,17.7,0,0,0-4.81-.46.87.87,0,0,0,0,1.73Z" transform="translate(-19.34 -5.46)"/><path d="M57,129.88l-.1,0c-.76.36-.4,1.33.2,1.58a12.18,12.18,0,0,0,2.51.78,9.19,9.19,0,0,0,1.39.09c.43,0,.84.1,1.27.15a21.42,21.42,0,0,0,5.47-.41c1-.11,1.85-.45,2.8-.6s1.81-.14,2.72-.24,1.89-.31,2.85-.4a21.8,21.8,0,0,1,3.13,0c1.12,0,1.11-1.68,0-1.73a25.33,25.33,0,0,0-2.89,0c-1,.08-1.91.26-2.87.39s-1.82.14-2.72.25-1.86.44-2.8.59-1.78.25-2.67.37a10.93,10.93,0,0,1-2.68.12c-.43-.05-.85-.15-1.28-.19s-.84,0-1.26,0a11.57,11.57,0,0,1-2.51-.77l.21,1.58.1,0c1-.48.13-2-.87-1.49Z" transform="translate(-19.34 -5.46)"/><path class="cls-2" d="M78.85,93C77,92.34,75,91.7,73,90.89a48.2,48.2,0,0,1-5.68-2.76,19.34,19.34,0,0,1-4.92-3.88A8.19,8.19,0,0,1,60,78.63c0-1.17-.34-3.58-.57-6.57-.16-2-.3-4.26-.39-6.57s0-4.46.05-6.59A31.13,31.13,0,0,1,60,52.39c.73-2.73,1.94-4.52,4-4.55,2.26,0,3.53,1.93,4.32,4.85a35.4,35.4,0,0,1,1.15,7c.14,2.38.14,4.84.15,7.11,0,2.86-.14,5.42,0,7.09.19,1.82,1.79,3.26,3.63,4.46a22.09,22.09,0,0,0,5.28,2.57" transform="translate(-19.34 -5.46)"/><path class="cls-3" d="M78.85,93C77,92.34,75,91.7,73,90.89a48.2,48.2,0,0,1-5.68-2.76,19.34,19.34,0,0,1-4.92-3.88A8.19,8.19,0,0,1,60,78.63c0-1.17-.34-3.58-.57-6.57-.16-2-.3-4.26-.39-6.57s0-4.46.05-6.59A31.13,31.13,0,0,1,60,52.39c.73-2.73,1.94-4.52,4-4.55,2.26,0,3.53,1.93,4.32,4.85a35.4,35.4,0,0,1,1.15,7c.14,2.38.14,4.84.15,7.11,0,2.86-.14,5.42,0,7.09.19,1.82,1.79,3.26,3.63,4.46a22.09,22.09,0,0,0,5.28,2.57" transform="translate(-19.34 -5.46)"/><path class="cls-2" d="M102.41,97.46c1.83-1,4.09.56,5.92-1.08A5.92,5.92,0,0,0,109.74,93c.38-1.9.83-3.8,1.22-5.71s.77-4,2.06-5.5,3.74-2.12,5.27-.87a5.38,5.38,0,0,1,1.53,3.73,34.84,34.84,0,0,1,0,7.84,35.81,35.81,0,0,1-1.83,7.63,6.93,6.93,0,0,1-2.66,3.81c-1.81,1.07-4.06.53-6.18.51a10.92,10.92,0,0,0-6.49,2l-.53.37" transform="translate(-19.34 -5.46)"/><path class="cls-3" d="M102.41,97.46c1.83-1,4.09.56,5.92-1.08A5.92,5.92,0,0,0,109.74,93c.38-1.9.83-3.8,1.22-5.71s.77-4,2.06-5.5,3.74-2.12,5.27-.87a5.38,5.38,0,0,1,1.53,3.73,34.84,34.84,0,0,1,0,7.84,35.81,35.81,0,0,1-1.83,7.63,6.93,6.93,0,0,1-2.66,3.81c-1.81,1.07-4.06.53-6.18.51a10.92,10.92,0,0,0-6.49,2l-.53.37" transform="translate(-19.34 -5.46)"/><path d="M113.22,78.27l1.43,1.1.18.14.23.18.44.35a3.94,3.94,0,0,0,1.32.85c1.21.29,1.61-1.09,2.11-1.87.11-.17.25-.32.35-.5,0,0-.17.22,0,.07l.11-.14.22-.25c.19-.22.38-.43.59-.64s.74-.6.81-1.07a1.19,1.19,0,0,0-.2-.95,1,1,0,0,0-.85-.42c-.74,0-1.26.66-1.72,1.18a8.34,8.34,0,0,0-.86,1.12,6.7,6.7,0,0,0-.79,1.64c0,.07-.05.15-.08.23s-.11.3,0,.08,0-.09,0-.05.1-.13.11-.14a.93.93,0,0,1,.56-.22c-.15,0,.27.05.19,0s-.15-.06,0,0,0,0-.09-.05-.36-.25-.54-.38c-.86-.63-1.72-1.25-2.63-1.82a.88.88,0,0,0-1.2.31.9.9,0,0,0,.32,1.2Z" transform="translate(-19.34 -5.46)"/><path d="M117.14,78.85a1.19,1.19,0,0,1-.08-.16c0,.06,0,0,0,0s-.08-.23-.11-.34-.05-.23-.08-.35a.88.88,0,0,1,0-.17c0,.08,0,.07,0,0,0-.46-.06-.93-.07-1.4a5.86,5.86,0,0,0-.22-1.51,2.24,2.24,0,0,0-.89-1.22A.43.43,0,0,0,115,74c0,.21,0,.43,0,.64s0,.45,0,.67l0,1.4a7,7,0,0,0,.64,3,.85.85,0,0,0,1.15.3.87.87,0,0,0,.31-1.16Z" transform="translate(-19.34 -5.46)"/><path class="cls-2" d="M78.14,140.23a21.39,21.39,0,0,0,1.17-6.62c.09-1.93-.06-4.22,0-6.76,0-2.09.06-4.36.06-6.76,0-2.16.06-4.42,0-6.76s-.06-4.46-.1-6.76-.45-4.48-.5-6.76-.05-4.51-.11-6.76c-.05-2,0-4.07,0-6.08s-.34-4.07-.41-6.06c-.07-2.38.25-4.72.15-6.94-.1-2.43-.62-4.73-.72-6.91-.13-2.52.08-4.86,0-6.93-.13-2.84-.1-5.2-.1-6.92,0-2.33-.29-4.61-.21-6.82s.36-4.61.56-6.79c.22-2.37.7-4.59,1.06-6.72a56.42,56.42,0,0,1,1.11-6.74,29,29,0,0,1,2.7-6.3,14.76,14.76,0,0,1,4.75-4.92,11.79,11.79,0,0,1,6.53-1.48c2.41,0,4.57.31,6.21,1.88a14,14,0,0,1,3.37,5.77,41.47,41.47,0,0,1,1.18,6.56c.28,2,.42,4.16.56,6.61.12,2,.4,4.23.43,6.63,0,2.07-.42,4.27-.46,6.63,0,2.1-.14,4.3-.23,6.63-.08,2.11.25,4.34.12,6.65-.11,2.13-.59,4.31-.74,6.61-.12,1.93-.26,3.94-.45,6s0,4-.25,6-.21,4-.39,6-.34,4-.47,6-.72,4-.77,6c-.09,3.17,0,6.32,0,9.37,0,2.2-.22,4.36-.21,6.44,0,2.23.25,4.39.29,6.43,0,2.3,0,4.46,0,6.44.07,2.43.08,4.6.15,6.43.16,4,.62,3.19.8,6.4" transform="translate(-19.34 -5.46)"/><path class="cls-4" d="M78.14,140.23a21.39,21.39,0,0,0,1.17-6.62c.09-1.93-.06-4.22,0-6.76,0-2.09.06-4.36.06-6.76,0-2.16.06-4.42,0-6.76s-.06-4.46-.1-6.76-.45-4.48-.5-6.76-.05-4.51-.11-6.76c-.05-2,0-4.07,0-6.08s-.34-4.07-.41-6.06c-.07-2.38.25-4.72.15-6.94-.1-2.43-.62-4.73-.72-6.91-.13-2.52.08-4.86,0-6.93-.13-2.84-.1-5.2-.1-6.92,0-2.33-.29-4.61-.21-6.82s.36-4.61.56-6.79c.22-2.37.7-4.59,1.06-6.72a56.42,56.42,0,0,1,1.11-6.74,29,29,0,0,1,2.7-6.3,14.76,14.76,0,0,1,4.75-4.92,11.79,11.79,0,0,1,6.53-1.48c2.41,0,4.57.31,6.21,1.88a14,14,0,0,1,3.37,5.77,41.47,41.47,0,0,1,1.18,6.56c.28,2,.42,4.16.56,6.61.12,2,.4,4.23.43,6.63,0,2.07-.42,4.27-.46,6.63,0,2.1-.14,4.3-.23,6.63-.08,2.11.25,4.34.12,6.65-.11,2.13-.59,4.31-.74,6.61-.12,1.93-.26,3.94-.45,6s0,4-.25,6-.21,4-.39,6-.34,4-.47,6-.72,4-.77,6c-.09,3.17,0,6.32,0,9.37,0,2.2-.22,4.36-.21,6.44,0,2.23.25,4.39.29,6.43,0,2.3,0,4.46,0,6.44.07,2.43.08,4.6.15,6.43.16,4,.62,3.19.8,6.4" transform="translate(-19.34 -5.46)"/><path d="M89,10.55c.89.84,1.82,1.49,2.74,2.23a5.24,5.24,0,0,0,1.59,1.09c1.27.4,2-1,2.75-1.74a15.7,15.7,0,0,1,1.26-1.19c.66-.57,1.44-1,2.07-1.65A1.15,1.15,0,0,0,98,7.49a10.94,10.94,0,0,0-1.83,1.44c-.41.37-.81.75-1.2,1.15s-.88,1-1.31,1.55c-.07.1-.31.29-.34.39s.25-.17.11-.09.16-.06.17-.06c-.16.05.22,0,.17,0s.15,0,.17,0l-.09,0s.25.15.13.06-.17-.1-.24-.15c-.23-.15-.45-.32-.67-.48a16.45,16.45,0,0,0-3.12-2,.8.8,0,0,0-1,1.25Z" transform="translate(-19.34 -5.46)"/><path d="M94.4,13.14a5.72,5.72,0,0,0,.2-1.89c0-.64.07-1.28.1-1.92a11.07,11.07,0,0,0,0-1.82,2.46,2.46,0,0,0-.82-1.95.71.71,0,0,0-1,.25,3.62,3.62,0,0,0-.15,1.88c0,.61,0,1.22,0,1.83s-.07,1.23-.07,1.85a3.84,3.84,0,0,0,.33,2,.81.81,0,0,0,1.45-.19Z" transform="translate(-19.34 -5.46)"/><path d="M60.18,45.8a14.67,14.67,0,0,0,1.91,2,2.86,2.86,0,0,0,1.72.81c1.22,0,1.75-1.28,2.33-2.14l.31-.45.06-.07c.1-.15,0,0,0,0s.13-.17.2-.24.29-.35.44-.51a2.22,2.22,0,0,0,.69-.95,1.12,1.12,0,0,0-1.35-1.35,2.6,2.6,0,0,0-1.22,1,11.81,11.81,0,0,0-.74,1c-.28.43-.53.88-.79,1.32-.05.08-.1.16-.16.24l-.06.1c-.07.11.21-.23.07-.09a.93.93,0,0,0-.14.14c.16-.22.23-.16.12-.1s.23-.09.14-.06.32,0,.09,0,.32.08.17,0l-.12,0c-.17,0,.22.13.11,0l-.12-.06-.32-.21-.06-.05c-.17-.11.15.13,0,0l-.2-.16-.48-.42c-.41-.38-.83-.76-1.26-1.13a1,1,0,0,0-1.35,1.35Z" transform="translate(-19.34 -5.46)"/><path d="M64.62,47.65a5,5,0,0,0,.23-1.86c0-.56.06-1.12.08-1.68a13.3,13.3,0,0,0,0-1.67,8.85,8.85,0,0,0-.12-.9,2.12,2.12,0,0,0-.47-.92.7.7,0,0,0-1.15.31,5.86,5.86,0,0,0,0,1.62c0,.56,0,1.12,0,1.67s0,1.09,0,1.63a7.32,7.32,0,0,0,0,.81,2.28,2.28,0,0,0,.23,1,.73.73,0,0,0,1.25,0Z" transform="translate(-19.34 -5.46)"/><path d="M83.87,60.84c.1,2.57.67,5.08.82,7.65s-.16,5.19-.09,7.78.28,5.27.39,7.9.53,5.17.71,7.77c.36,5.27.56,10.53.63,15.81a39,39,0,0,1-.12,3.9c-.13,1.3-.31,2.59-.4,3.89-.18,2.59,0,5.2,0,7.79,0,3-.34,5.91-.53,8.86s-.08,5.93-.31,8.88c-.06.75,1.13.75,1.18,0,.17-2.63.07-5.27.19-7.9s.45-5.18.53-7.77-.07-5.27-.08-7.91.51-5.18.58-7.79c.15-5.28-.27-10.55-.52-15.81-.13-2.61-.47-5.18-.67-7.77s-.23-5.19-.34-7.78c-.11-3,.13-5.92.08-8.89s-.75-5.72-.89-8.61c0-.77-1.22-.78-1.2,0Z" transform="translate(-19.34 -5.46)"/><path d="M95.41,60.06c-.21,2.6.26,5.2.23,7.8s-.2,5.1-.31,7.65c-.22,5.13-.67,10.25-1.3,15.35a52.1,52.1,0,0,0-.2,7.9c.08,2.66-.15,5.32-.28,8s-.38,5.19-.55,7.78a58.65,58.65,0,0,0,.18,7.84c.19,3,.69,5.86,1.06,8.81a26,26,0,0,1,.2,4.32c0,1.48-.17,3-.08,4.46a.57.57,0,0,0,1.13,0,60.21,60.21,0,0,0,.11-7.83c-.26-2.56-.78-5.09-1-7.65s-.44-5.36-.41-8,.39-5.15.52-7.72.34-5.33.37-8-.26-5.32,0-8,.69-5.06.84-7.61.41-5.08.55-7.62q.23-4.36.34-8.72c.08-2.92-.3-5.83-.42-8.75a.46.46,0,0,0-.92,0Z" transform="translate(-19.34 -5.46)"/><path d="M115.39,85.54a14.32,14.32,0,0,0-.43,2.85c-.09.81-.15,1.63-.19,2.46-.06,1.34,0,2.69-.08,4a3.46,3.46,0,0,1-1,2.66,10.41,10.41,0,0,1-3.33,1.62c-.79.28-1.58.53-2.38.77-1,.32-2.17.53-3.19.93l.66.17-.1-.11a.6.6,0,0,0-1,.27l0,.14a.68.68,0,0,0,.83.82,21.32,21.32,0,0,0,3-.86c.79-.24,1.57-.51,2.34-.79a13.14,13.14,0,0,0,3.58-1.77c2.12-1.64,1.69-4.47,1.74-6.83,0-.91.06-1.81.13-2.72.08-1.17.32-2.35.32-3.53a.46.46,0,0,0-.89-.12Z" transform="translate(-19.34 -5.46)"/><path d="M62.57,56.12a35.94,35.94,0,0,0,0,4.28c0,1.28.08,2.57.18,3.85.19,2.42.57,4.82.74,7.24.1,1.37.15,2.75.16,4.12a10.58,10.58,0,0,0,.43,3.5,8.77,8.77,0,0,0,3.78,4.33C70.29,85,73,86,75.38,87.66l.51-1.2-.19,0a.64.64,0,0,0-.34,1.24l.18.06a.66.66,0,0,0,.64-1.09C74.31,85,71.85,84.15,69.68,83a9,9,0,0,1-4.28-3.84,7.78,7.78,0,0,1-.56-3.31c0-1.32-.06-2.63-.15-3.94-.16-2.35-.5-4.67-.73-7-.14-1.36-.2-2.73-.24-4.1-.06-1.55,0-3.13-.15-4.68a.5.5,0,0,0-1,0Z" transform="translate(-19.34 -5.46)"/><path d="M92.93,13.06c-2.39,1-3.83,3.56-4.62,5.92a38.8,38.8,0,0,0-1.13,4.49c-.16.76-.33,1.51-.52,2.26A22.69,22.69,0,0,0,86,28.12a.51.51,0,0,0,.92.39,12,12,0,0,0,1.29-4.28c.29-1.46.56-2.92,1-4.35a12.78,12.78,0,0,1,1.42-3.31,9.28,9.28,0,0,1,2.79-2.65.5.5,0,0,0-.5-.86Z" transform="translate(-19.34 -5.46)"/><path d="M93.33,14.07a38.16,38.16,0,0,0,2.1,3.67,14.72,14.72,0,0,1,1.66,4c.2.83.3,1.7.46,2.55a6.56,6.56,0,0,1,.14,1.17,1.32,1.32,0,0,1,0,.34c-.06.24.08-.33-.06.15-.07.21-.11.22,0,0l.29-.22a.23.23,0,0,1-.11,0,.43.43,0,0,0-.19.71.75.75,0,0,0,1.08,0,1.75,1.75,0,0,0,.26-1.23c0-.92-.32-1.82-.45-2.73a13.63,13.63,0,0,0-1.71-4.7,19.5,19.5,0,0,0-2.91-4.13c-.29-.3-.69.08-.54.42Z" transform="translate(-19.34 -5.46)"/><path d="M87.1,51.6a8.89,8.89,0,0,0,2.23.43,18.06,18.06,0,0,0,2.32.14A15.93,15.93,0,0,0,93.94,52a4,4,0,0,0,2.22-.69A.81.81,0,0,0,95.81,50a2.53,2.53,0,0,0-1.19.15c-.35.08-.71.15-1.07.2a13,13,0,0,1-2,.13c-.7,0-1.4,0-2.1-.1a17.8,17.8,0,0,0-2.19-.18.72.72,0,0,0-.19,1.41Z" transform="translate(-19.34 -5.46)"/><path d="M89.9,37.3a5.09,5.09,0,0,0-.44-1.58,3,3,0,0,0-.95-1.34A2.7,2.7,0,0,0,87.3,34a3.12,3.12,0,0,0-1.36.08,4.63,4.63,0,0,0-1.07.63,1.21,1.21,0,0,0-.53.66A1.58,1.58,0,0,1,84,36a2,2,0,0,0-.52,1.29c0,.17,0,.34,0,.51a7.27,7.27,0,0,0-.17.91,1.23,1.23,0,0,0,.62.83,4.42,4.42,0,0,0,4.36.38,2.77,2.77,0,0,0,1.31-1.07A2.64,2.64,0,0,0,89.9,37.3Zm-1.13-.52a.56.56,0,0,1-.29,0l-.51,0a.74.74,0,0,1-.36-.12.62.62,0,0,1-.21-.45c0-.19,0-1.13.27-1.12a.39.39,0,0,1,.22.11,7.76,7.76,0,0,1,.8.92,1,1,0,0,1,.18.32A.33.33,0,0,1,88.77,36.78Z" transform="translate(-19.34 -5.46)"/><path d="M100,37.65c-.06-.18-.17-.34-.25-.52s-.11-.37-.17-.55a3.71,3.71,0,0,0-2.11-2,2.31,2.31,0,0,0-.8-.24,2,2,0,0,0-1.44.55A3.42,3.42,0,0,0,94.29,36a8.61,8.61,0,0,1-.44,1.16c-.12.19-.27.37-.38.58a1.9,1.9,0,0,0,.3,2,3.75,3.75,0,0,0,1.74,1.12,3.19,3.19,0,0,0,1.14.2A3.49,3.49,0,0,0,98,40.56,3.8,3.8,0,0,0,99.81,39a2.09,2.09,0,0,0,.2-.73A1.23,1.23,0,0,0,100,37.65Zm-1.44.1a.16.16,0,0,1-.05.09H98.4a1.31,1.31,0,0,1-.83-.18,1.27,1.27,0,0,1-.33-.43l-.49-.84a.24.24,0,0,1,0-.18.18.18,0,0,1,.09-.08c.24-.16.59-.48.89-.34a1.07,1.07,0,0,1,.39.4,3.42,3.42,0,0,1,.39.73A1.36,1.36,0,0,1,98.51,37.75Z" transform="translate(-19.34 -5.46)"/><path d="M81.67,47.11l0,0c-1.55,2.24-3.06,3.9-.41,6,.46-.81-.22-1.86.25-2.68.59-1,1.85-2.74,1.18-.33.63.11.65-.9,1.15-1.07.77.1,2-1.44,1.74,0a.76.76,0,0,0,.87-.36c.6-1.25,2.18.62,2.7-.79.77-.75.77-2,1.51-2.76a.8.8,0,1,0-1.31-.9c-.65,1-.31,2.64-1.27,3.31.08-1,2.35-4.43-.26-3.64-.36.41-.86.28-1.14.74-.5-.23-.87.19-1.3.36.05.48-.47.58-.82.75-.24.45-.86,0-1.13.41s-.87.14-1.21.37" transform="translate(-19.34 -5.46)"/><path d="M81.7,47.07l0,0s-.06,0-.08,0a9,9,0,0,0-1.83,3.21,3,3,0,0,0,1.42,2.82.06.06,0,0,0,.1,0,2.79,2.79,0,0,0,.1-1.57A2.27,2.27,0,0,1,81.8,50a4.86,4.86,0,0,1,.7-.92c.17-.17.27-.21.29.07a2.74,2.74,0,0,1-.18.93.05.05,0,0,0,0,.06c.72.07.68-1,1.31-1.06a2.58,2.58,0,0,0,.79-.32,3.3,3.3,0,0,1,.41-.23c.39-.12.38.17.32.49a.07.07,0,0,0,0,.07.85.85,0,0,0,.93-.38c.34-.49.7-.47,1.25-.34a1.7,1.7,0,0,0,1,.09c.32-.12.48-.48.67-.74a7.55,7.55,0,0,0,.78-1.62,6.64,6.64,0,0,1,.56-.92,1.12,1.12,0,0,0,.18-.55.85.85,0,0,0-1.44-.64c-1,.9-.32,2.66-1.42,3.49l.11.06a7.72,7.72,0,0,1,.66-1.83c.17-.46.5-1.17.26-1.67s-.92-.39-1.29-.2c-.11.06-.19.18-.31.24s-.29.1-.43.17-.29.24-.48.28a2.4,2.4,0,0,0-.52.05c-.24.1-.45.26-.69.37a.05.05,0,0,0,0,.05c0,.46-.45.55-.78.71a1.64,1.64,0,0,1-.48.2,1.6,1.6,0,0,0-.31,0c-.34.06-.48.38-.85.43a2.15,2.15,0,0,0-.71.15c-.06,0,0,.13.06.09.41-.22.83-.09,1.21-.39s.45-.14.79-.19a.65.65,0,0,0,.28-.12c.25-.16.68-.28.84-.56s0-.24.21-.35a1.2,1.2,0,0,1,1.08-.27.08.08,0,0,0,.08,0c.23-.32.7-.41,1-.62a1.2,1.2,0,0,1,.94-.17c.46.17.29.81.19,1.16a16.51,16.51,0,0,0-.88,2.5s.06.1.1.06c.88-.67.72-1.89,1.06-2.83a1.21,1.21,0,0,1,.72-.86.69.69,0,0,1,.85.58c.06.39-.21.64-.4.93a4.83,4.83,0,0,0-.42.89,9.71,9.71,0,0,1-.38.94c-.15.29-.36.52-.52.8-.29.49-.84.32-1.3.21a1.46,1.46,0,0,0-.9,0,.82.82,0,0,0-.32.26c-.12.16-.16.31-.35.41s-.42.17-.49-.05.08-.45-.21-.5-.66.28-.88.4-.78.13-1,.43a4.12,4.12,0,0,0-.27.45.87.87,0,0,1-.28.35c-.34.21-.17-.15-.13-.31s.2-1.16-.33-.75a3.59,3.59,0,0,0-.67.83,2.87,2.87,0,0,0-.57,1.16,5.28,5.28,0,0,0,0,1,3.13,3.13,0,0,1,0,.53.74.74,0,0,1-.06.36c-.12.14-.14.05-.26,0a3,3,0,0,1-.84-.95,2.22,2.22,0,0,1-.32-1A3.45,3.45,0,0,1,80.44,49a18.48,18.48,0,0,0,1.19-1.82s.11,0,.07-.07Z" transform="translate(-19.34 -5.46)"/><path d="M91.36,45.1A10.88,10.88,0,0,0,93,48.58c.63.06-.11-1,.43-1,.76.26,2.56,2.52,2.9,1.21.09-.22.41-.16.62-.06,1,.34.44-.69,0-1A6.57,6.57,0,0,1,96,45.54c-.41-.92-4.84-2.12-4.77-.45" transform="translate(-19.34 -5.46)"/><path d="M91.28,45.12a9.67,9.67,0,0,0,1.46,3.26c.09.15.13.31.32.28a.3.3,0,0,0,.22-.12c.12-.21,0-.49,0-.71,0-.42.53,0,.68.15l.81.66c.31.25.92.8,1.36.55a.54.54,0,0,0,.18-.19s0-.12.07-.17c.14-.22.33-.14.53-.07s.52.17.64,0-.06-.45-.17-.6c-.21-.31-.52-.5-.7-.85a13.18,13.18,0,0,1-.53-1.61,1,1,0,0,0-.36-.49,4.78,4.78,0,0,0-1.59-.72c-.72-.21-3.07-.72-3,.65a.08.08,0,1,0,.15,0c0-1.15,2-.72,2.64-.56a5.38,5.38,0,0,1,1.55.63,1.15,1.15,0,0,1,.43.39,8.24,8.24,0,0,1,.42,1.33,2.11,2.11,0,0,0,.61,1,1.19,1.19,0,0,1,.46.68c0,.39-.64,0-.82,0-.34,0-.3.22-.46.42-.34.43-1.14-.31-1.41-.52l-.74-.6a1.7,1.7,0,0,0-.54-.34c-.2,0-.32.12-.33.3s.13.85-.13.64a1.73,1.73,0,0,1-.25-.42l-.21-.34c-.16-.28-.31-.56-.46-.84a7.06,7.06,0,0,1-.63-1.77c0-.11-.18-.06-.16,0Z" transform="translate(-19.34 -5.46)"/><path d="M96.46,45.28c-.17,1.43,1.51,4.68,3,3.65.16-.7.87,0,.73.45,0,.49.5.67.88.83.58.38.49,1.42.9,2,.74,1,1.39-.44.65-1,0-1.24-1.08-1.62-.65-3-1.56-.15.1-1.13-.9-1.77l.16,0c-.89-.74-.81.18-.91.82-.46.45-.21-1-.23-1a1.18,1.18,0,0,1-.29-.77c-.36-.74-.94.06-1,.75-.29-.37-.57-.92-1-.41-.87-1.06-1.44-1.29-1.27.42" transform="translate(-19.34 -5.46)"/><path d="M96.41,45.28a4.55,4.55,0,0,0,1,3c.45.6,1.38,1.36,2.12.71.12-.11-.2-.3.25-.28.06,0,.14.08.17.11.19.17.17.35.18.57a.83.83,0,0,0,.3.58c.25.21.62.25.81.53a3.08,3.08,0,0,1,.36,1c.11.4.34,1,.85,1.09s.57-.37.59-.69a1,1,0,0,0-.24-.68,4.75,4.75,0,0,1-.29-.9c-.13-.3-.31-.57-.43-.88a1.85,1.85,0,0,1,0-1.23.08.08,0,0,0-.07-.09c-.25,0-.64-.06-.61-.4,0-.17.09-.34.12-.51a.78.78,0,0,0-.37-.86l-.06.15.15,0c.07,0,.15-.08.08-.13-.35-.28-.79-.47-.93.09a2.78,2.78,0,0,0-.05.39c0,.1,0,.54-.17.33s0-.52,0-.68a.52.52,0,0,0-.09-.45,1.27,1.27,0,0,1-.15-.31c0-.09,0-.21,0-.29a.67.67,0,0,0-.22-.28c-.53-.35-.89.68-.94,1l.13,0c-.2-.26-.47-.77-.87-.62-.06,0-.16.13-.22.13s-.2-.2-.26-.27a2.32,2.32,0,0,0-.44-.39c-.77-.49-.68.8-.65,1.2,0,.09.15.09.14,0s-.17-1.19.24-1.17.72.57.91.8a.07.07,0,0,0,.1,0c.41-.4.68.08.92.39,0,0,.13.06.14,0,0-.27.27-1.14.7-1,.19.08.16.34.21.51a2,2,0,0,0,.2.38c.15.28,0,.68,0,1s.23.37.39.14.07-.49.1-.67a.63.63,0,0,1,.1-.31c.17-.2.45,0,.6.16l.08-.13-.16,0a.08.08,0,0,0-.06.15c.53.37.12.75.14,1.23s.46.5.8.54l-.07-.09a2,2,0,0,0,.12,1.54c.09.2.21.4.3.6a2.32,2.32,0,0,1,.16.44,3.81,3.81,0,0,0,.07.47c.05.09.18.16.23.27a.73.73,0,0,1,.09.41c0,.24-.17.58-.47.52-.63-.14-.68-1.24-.88-1.72a1.12,1.12,0,0,0-.34-.49c-.26-.21-.62-.23-.82-.53s0-.49-.16-.73a.62.62,0,0,0-.34-.35.28.28,0,0,0-.3,0c-.07,0-.08.12-.13.19a.55.55,0,0,1-.38.22,1.48,1.48,0,0,1-1.26-.54,4.56,4.56,0,0,1-1.3-3.23c0-.07-.09-.06-.1,0Z" transform="translate(-19.34 -5.46)"/></svg>