<svg id="Layer_1" data-name="Layer 1" xmlns="http://www.w3.org/2000/svg" width="61.02" height="124.87" viewBox="0 0 61.02 124.87"><defs><style>.cls-1,.cls-2{fill:none;stroke:#000;stroke-miterlimit:10;stroke-width:2px;}.cls-1{stroke-linecap:round;}</style></defs><path class="cls-1" d="M62.64,138.44a19.61,19.61,0,0,0,1.07-6.06c.08-1.78-.06-3.88,0-6.21,0-1.91.06-4,.06-6.19,0-2,0-4,0-6.2s-.05-4.09-.08-6.2-.42-4.11-.46-6.19-.05-4.14-.1-6.21c0-1.86,0-3.73,0-5.57s-.32-3.74-.38-5.56c-.07-2.18.23-4.32.14-6.37-.1-2.22-.57-4.33-.67-6.33-.11-2.31.08-4.46,0-6.36-.12-2.6-.09-4.76-.09-6.34,0-2.14-.27-4.23-.19-6.25s.33-4.23.51-6.22c.2-2.18.64-4.22,1-6.17a54.27,54.27,0,0,1,1-6.18,27.25,27.25,0,0,1,2.48-5.78,13.68,13.68,0,0,1,4.36-4.51,10.85,10.85,0,0,1,6-1.36c2.21,0,4.19.29,5.69,1.73A12.72,12.72,0,0,1,86,29.2a38.06,38.06,0,0,1,1.08,6c.26,1.8.38,3.82.52,6.06.11,1.87.37,3.89.39,6.08,0,1.9-.38,3.92-.42,6.08,0,1.93-.13,4-.21,6.08-.08,1.94.23,4,.11,6.1-.1,2-.54,4-.68,6.07-.11,1.76-.24,3.6-.41,5.5s-.05,3.65-.23,5.52-.19,3.65-.36,5.51-.31,3.65-.43,5.5-.66,3.66-.71,5.49c-.08,2.91,0,5.8,0,8.59,0,2-.21,4-.19,5.91s.22,4,.25,5.9c0,2.1,0,4.08,0,5.9.06,2.23.08,4.22.14,5.9.15,3.69.57,2.92.74,5.87" transform="translate(-42.24 -14.87)"/><path d="M85.09,131c.78,0,1.56,0,2.34,0a11.5,11.5,0,0,1,2,.43,14,14,0,0,0,4.18.4,12.23,12.23,0,0,0,2.08-.36c.75-.16,1.5-.31,2.25-.49s1.42-.39,2.14-.53a10.2,10.2,0,0,1,2.21-.06,1,1,0,0,0,0-2,14.16,14.16,0,0,0-2.16,0A20.4,20.4,0,0,0,98,129c-.73.19-1.47.35-2.22.51a14.18,14.18,0,0,1-2.14.41,12.64,12.64,0,0,1-4-.42,17,17,0,0,0-4.55-.45,1,1,0,0,0,0,2Z" transform="translate(-42.24 -14.87)"/><path d="M43.12,128.77l-.09,0c-.88.41-.47,1.53.23,1.82a10.94,10.94,0,0,0,2.28.71,7.77,7.77,0,0,0,1.27.1,10.6,10.6,0,0,1,1.38.16,21.34,21.34,0,0,0,5-.42c.82-.1,1.58-.38,2.39-.52s1.8-.15,2.7-.26,1.73-.28,2.6-.35a20.42,20.42,0,0,1,2.71,0c1.29.06,1.29-1.94,0-2a26.39,26.39,0,0,0-5.1.32c-.86.13-1.73.15-2.59.24s-1.68.36-2.53.53-1.66.24-2.48.36a11.34,11.34,0,0,1-2.4.13c-.41,0-.82-.13-1.23-.17s-.81,0-1.22-.05a10,10,0,0,1-2.27-.7l.24,1.82.09,0c1.17-.55.15-2.27-1-1.73Z" transform="translate(-42.24 -14.87)"/><path class="cls-2" d="M63.27,95.13c-1.74-.61-3.54-1.17-5.37-1.91a44.2,44.2,0,0,1-5.21-2.55,17.85,17.85,0,0,1-4.51-3.56A7.42,7.42,0,0,1,46.07,82c0-2.15-.14-4.21-.21-6.2q-.11-3.24-.33-6.19c-.16-2.18-.27-4.24-.48-6.18-.25-2.21-.52-4.26-.77-6.16C44,55,43.7,52.9,43.51,51.09a29.6,29.6,0,0,1-.17-6.17c.3-2.55,1.27-4.07,3.69-4.24,1.91-.14,3.43,1.11,4.51,3.11a21.32,21.32,0,0,1,1.63,5.43,53,53,0,0,1,1.09,5.6c.19,1.85.17,3.79.26,5.69s.27,3.87.3,5.7c0,2.06,0,4,0,5.7,0,2.54,0,4.56.16,5.68a6.19,6.19,0,0,0,3.07,4.26A20.81,20.81,0,0,0,63,84" transform="translate(-42.24 -14.87)"/><path class="cls-2" d="M84.89,99.23c1.68-1,3.75.51,5.43-1a5.49,5.49,0,0,0,1.3-3.12c.35-1.75.76-3.5,1.11-5.24s.7-3.68,1.89-5.05,3.43-1.95,4.83-.8a4.92,4.92,0,0,1,1.41,3.42,30.79,30.79,0,0,1-1.67,14.19,6.35,6.35,0,0,1-2.44,3.5c-1.66,1-3.73.48-5.67.46a10,10,0,0,0-6,1.87c-.14.11-.33.23-.48.34" transform="translate(-42.24 -14.87)"/><path d="M65.87,53.05l0,0c-.77.5-.64,1.51-1.3,2.1-1.13,1.53-.1,2.28.92,3.37.42-.73-.2-1.7.23-2.45.54-.95,1.7-2.52,1.09-.3.57.1.59-.83,1-1a2.77,2.77,0,0,0,1.32-.55c.47-.3.22.34.27.56a.7.7,0,0,0,.8-.32c.55-1.16,2,.56,2.48-.73.7-.69.71-1.8,1.38-2.53a.73.73,0,1,0-1.2-.83c-.6.89-.28,2.42-1.17,3,.08-.89,2.16-4.07-.24-3.34-.32.37-.78.25-1,.67-.29-.05-.54-.16-.76.15-.11.14-.35,0-.43.18,0,.45-.43.54-.75.7-.22.4-.79,0-1,.37s-.79.13-1.11.35" transform="translate(-42.24 -14.87)"/><path d="M65.9,53l0,0a0,0,0,0,0,0,0,2.34,2.34,0,0,0-.76,1.16,3.3,3.3,0,0,1-.56.94,2.54,2.54,0,0,0-.43.79c-.35,1.12.68,1.94,1.35,2.66,0,0,.08,0,.09,0a2.28,2.28,0,0,0,.11-1.32A2.13,2.13,0,0,1,66,55.66a3.91,3.91,0,0,1,.65-.85c.47-.43.14.74.09.92s0,.06.05.07c.57,0,.58-.64.94-.91s.81-.21,1.16-.41c.15-.09.42-.32.51-.06,0,.09,0,.25,0,.36a.05.05,0,0,0,0,0,.8.8,0,0,0,.85-.35c.34-.48.69-.42,1.21-.29a1.37,1.37,0,0,0,.87,0c.27-.12.42-.46.59-.68a7.36,7.36,0,0,0,.71-1.5c.2-.44.67-.84.66-1.35a.77.77,0,0,0-1.26-.59c-1,.78-.34,2.46-1.36,3.24l.1.06a8.45,8.45,0,0,1,.67-1.86c.14-.39.44-1.11.09-1.48s-1.33.11-1.75.31c-.15.07-.3.26-.46.28s-.32-.08-.49,0-.13.13-.21.19-.24.06-.34.12-.1.13-.16.27c-.12.33-.4.33-.67.5s-.22.17-.43.17h-.26c-.3,0-.44.32-.74.39a2.79,2.79,0,0,0-.71.14c-.06,0,0,.12,0,.09.25-.14.53-.08.79-.17s.27-.17.43-.27.59,0,.88-.21.62-.27.79-.57.13-.23.34-.31c0,0,.07,0,.1-.07a.88.88,0,0,1,.72-.13,0,0,0,0,0,.06,0c.23-.29.63-.37.94-.56a1.07,1.07,0,0,1,.87-.15c.43.16.26.76.16,1.1a15.05,15.05,0,0,0-.8,2.25.07.07,0,0,0,.1.06c.75-.58.68-1.6.91-2.44a1.42,1.42,0,0,1,.55-.87.63.63,0,0,1,.89.25c.19.38-.06.67-.25,1a3.83,3.83,0,0,0-.37.69c-.11.27-.2.56-.32.83a7.25,7.25,0,0,1-.51.8c-.13.22-.2.42-.48.48a1.51,1.51,0,0,1-.63-.07,1.81,1.81,0,0,0-.89-.1c-.45.12-.5.73-1,.74s0-.43-.21-.62c-.06-.05-.1,0-.17,0a.3.3,0,0,0-.15.07,3.25,3.25,0,0,1-.6.35c-.4.14-.78.11-1,.48a4.39,4.39,0,0,1-.27.47.38.38,0,0,1-.22.17c-.2.06-.1.08-.12,0s.08-.33.1-.45.07-.76-.32-.49a2.94,2.94,0,0,0-.6.71,3.09,3.09,0,0,0-.54,1,2.45,2.45,0,0,0,0,.81c0,.25.16.82,0,1s-.24,0-.36-.16l-.34-.35a3.46,3.46,0,0,1-.57-.79,1.43,1.43,0,0,1,0-1.23,8,8,0,0,1,.61-.91,3.85,3.85,0,0,0,.31-.69c0-.08.55-1.17.66-1s.1,0,.06-.06Z" transform="translate(-42.24 -14.87)"/><path d="M74.76,51.22a9.87,9.87,0,0,0,1.47,3.18c.59.06-.09-.87.4-.93.7.24,2.35,2.31,2.67,1.11.07-.2.37-.14.56-.06,1,.32.4-.63,0-.9a5.89,5.89,0,0,1-.81-2c-.38-.84-4.44-1.95-4.38-.41" transform="translate(-42.24 -14.87)"/><path d="M74.68,51.24a9.2,9.2,0,0,0,1.34,3c.09.14.12.29.3.26a.27.27,0,0,0,.2-.11c.11-.19,0-.45,0-.65,0-.38.49,0,.63.14s.49.41.74.61.85.73,1.25.5a.55.55,0,0,0,.16-.18s0-.11.07-.15c.12-.2.3-.13.48-.07s.48.16.59,0-.06-.42-.15-.55c-.2-.29-.49-.47-.65-.78a12.77,12.77,0,0,1-.48-1.48.93.93,0,0,0-.33-.45,4.38,4.38,0,0,0-1.46-.66c-.66-.19-2.82-.66-2.77.6,0,.08.14.08.14,0,0-1.06,1.83-.66,2.41-.51a4.81,4.81,0,0,1,1.43.57,1.13,1.13,0,0,1,.4.35,7.46,7.46,0,0,1,.37,1.22,2,2,0,0,0,.56.9,1.09,1.09,0,0,1,.43.62c.05.36-.59,0-.76,0s-.27.2-.42.39c-.31.39-1-.29-1.29-.48l-.68-.55a1.54,1.54,0,0,0-.49-.32c-.19,0-.3.11-.31.28s.12.78-.11.59a1.87,1.87,0,0,1-.24-.38l-.18-.32c-.15-.25-.29-.51-.43-.77a6.82,6.82,0,0,1-.58-1.62c0-.1-.16-.06-.15,0Z" transform="translate(-42.24 -14.87)"/><path d="M79.44,51.38c0,1.29.93,3.68,2.47,3.5.18,0,.34.1.3-.15.14-.65.8,0,.66.41,0,.45.47.61.82.76.52.35.44,1.3.82,1.8.68.9,1.28-.41.6-.91.11-.8-.61-1.14-.72-1.85,0-.22.23-.69.12-.89s-.61.06-.67-.26c0-.48.42-1.06-.16-1.36l.15,0c-.82-.67-.74.17-.83.75-.43.42-.2-.87-.22-.92-.12-.23-.3-.42-.26-.7-.33-.68-.86,0-.94.68-.26-.34-.52-.84-1-.37-.8-1-1.32-1.18-1.16.38" transform="translate(-42.24 -14.87)"/><path d="M79.4,51.38a4.19,4.19,0,0,0,1.32,3.17,1.62,1.62,0,0,0,.66.35,1.12,1.12,0,0,0,.36.05,1.8,1.8,0,0,0,.4,0,.13.13,0,0,0,.12-.08s0-.1,0-.14c.06-.19.21-.29.37-.14s.09.59.28.87.47.33.72.49.4.7.49,1,.36,1.18.91,1.08.5-.68.37-1c0-.11-.13-.17-.18-.27s0-.3-.08-.45a2.87,2.87,0,0,0-.43-.81,1.27,1.27,0,0,1-.26-.62c0-.21.1-.4.12-.61s0-.39-.25-.42h-.19c-.1,0,0,0-.14-.07s-.06-.07-.05-.19.08-.34.1-.51a.69.69,0,0,0-.34-.76l-.06.14.15,0c.06,0,.13-.07.07-.12-.33-.26-.72-.43-.85.08,0,.12,0,.24-.06.36s0,.5-.15.3,0-.48,0-.62a.49.49,0,0,0-.08-.42,1.47,1.47,0,0,1-.14-.28c0-.08,0-.19,0-.26a.47.47,0,0,0-.2-.26c-.49-.33-.81.62-.86.94l.12,0c-.18-.23-.44-.7-.8-.56-.07,0-.13.11-.2.11s-.19-.18-.24-.24a1.77,1.77,0,0,0-.41-.36c-.7-.45-.62.74-.59,1.1,0,.08.14.08.13,0s-.15-1.09.22-1.08.66.53.84.74a.05.05,0,0,0,.08,0c.38-.37.63.07.85.36,0,0,.11.05.12,0,0-.24.26-1,.65-.88.18.08.14.31.19.46a1.92,1.92,0,0,0,.18.35c.14.26,0,.63,0,.92s.21.34.36.13.06-.45.09-.61a.7.7,0,0,1,.09-.29c.16-.19.42,0,.55.15l.07-.12-.14,0a.08.08,0,0,0-.06.14c.4.24.25.61.16,1,0,.17-.1.41.09.51s.57-.1.58.24-.19.54-.13.82c.12.62.7,1,.7,1.66,0,.24.26.36.29.63s-.1.66-.42.59c-.62-.13-.63-1.21-.85-1.66a.9.9,0,0,0-.49-.47,1.41,1.41,0,0,1-.45-.28A.59.59,0,0,1,83,55c0-.26-.27-.75-.6-.59a.35.35,0,0,0-.16.2.38.38,0,0,0,0,.1c-.08.19,0,.09-.17.12a1.62,1.62,0,0,1-.81-.14,2.89,2.89,0,0,1-1.26-1.45,4.49,4.49,0,0,1-.43-1.87,0,0,0,1,0-.09,0Z" transform="translate(-42.24 -14.87)"/><path d="M73.51,44a4.53,4.53,0,0,0-.4-1.45,2.67,2.67,0,0,0-.88-1.23,2.47,2.47,0,0,0-1.1-.36,2.78,2.78,0,0,0-1.25.08,3.62,3.62,0,0,0-1,.58,1.07,1.07,0,0,0-.49.6,1.47,1.47,0,0,1-.36.61,1.89,1.89,0,0,0-.47,1.19c0,.15,0,.31,0,.47a5.93,5.93,0,0,0-.16.82,1.16,1.16,0,0,0,.57.77,4.06,4.06,0,0,0,4,.35,2.57,2.57,0,0,0,1.2-1A2.43,2.43,0,0,0,73.51,44Zm-1-.48a.42.42,0,0,1-.27,0,3.73,3.73,0,0,1-.47,0,.62.62,0,0,1-.33-.11.61.61,0,0,1-.19-.41c0-.18,0-1,.25-1a.31.31,0,0,1,.2.11,6,6,0,0,1,.73.84.85.85,0,0,1,.17.29A.32.32,0,0,1,72.48,43.55Z" transform="translate(-42.24 -14.87)"/><path d="M82.73,44.35c-.06-.17-.16-.32-.23-.48s-.1-.34-.16-.5a3.35,3.35,0,0,0-1.93-1.85,2.2,2.2,0,0,0-.74-.23,1.85,1.85,0,0,0-1.32.51,3.32,3.32,0,0,0-.82,1,6,6,0,0,1-.4,1.07,6,6,0,0,0-.34.53,1.74,1.74,0,0,0,.27,1.8,3.42,3.42,0,0,0,1.6,1,2.65,2.65,0,0,0,1,.18A3,3,0,0,0,81,47a3.58,3.58,0,0,0,1.64-1.43,2.17,2.17,0,0,0,.19-.66A1.25,1.25,0,0,0,82.73,44.35Zm-1.32.09a.14.14,0,0,1,0,.08H81.3a1.17,1.17,0,0,1-.76-.16,1.27,1.27,0,0,1-.3-.39c-.15-.26-.3-.52-.44-.78,0-.05-.07-.11,0-.17s0-.05.08-.07c.22-.14.54-.44.81-.31A.92.92,0,0,1,81,43a2.89,2.89,0,0,1,.36.67A1.28,1.28,0,0,1,81.41,44.44Z" transform="translate(-42.24 -14.87)"/><path d="M95.42,81.71a.53.53,0,0,1-.56-.23.61.61,0,0,1,.07.1,1.8,1.8,0,0,0,.26.29,4.07,4.07,0,0,0,.63.46,10.16,10.16,0,0,1,1,.85c.52.45,1.11,1.17,1.88.94.57-.17.75-.65.94-1.15-.08.21.09-.13.11-.17s.1-.16.16-.24l.39-.51.37-.5.22-.29c-.14.18,0,0,.06-.07a6,6,0,0,1,.43-.45c.09-.07.08-.07,0,0a3.06,3.06,0,0,0,.29-.21,1.16,1.16,0,0,0,.31-.8,1,1,0,0,0-.73-1c-.67-.22-1.24.32-1.65.79a9.56,9.56,0,0,0-.86,1.15c-.22.36-.48.7-.67,1.08a2.85,2.85,0,0,0-.25.69c0,.07-.1.52,0,.23,0,.1,0,.09,0,0,.28-.31.56-.4.84-.26s0,0-.06,0-.13-.1,0,0c-.12-.09-.23-.19-.34-.29L98.05,82l-.17-.14c.1.08.1.07,0,0l-.51-.46a4.24,4.24,0,0,0-.65-.46l-.24-.15s-.31-.22-.2-.12a2.08,2.08,0,0,0-.41-.37,1.1,1.1,0,0,0-.87-.09.8.8,0,1,0,.42,1.55Z" transform="translate(-42.24 -14.87)"/><path d="M98.48,82.35A12.64,12.64,0,0,1,98.09,81L98,80.61c0,.09,0,0,0,0s0-.11,0-.17a5.86,5.86,0,0,1,0-.73,5.26,5.26,0,0,0-.14-1.31,1.56,1.56,0,0,0-.91-1,.4.4,0,0,0-.5.38,3,3,0,0,1,.06.49c0,.19,0,.39,0,.58,0,.4-.07.8,0,1.2A9.49,9.49,0,0,0,97,82.76a.78.78,0,0,0,1,.54.79.79,0,0,0,.55-1Z" transform="translate(-42.24 -14.87)"/><path d="M72.7,19.65c-.12-.08,0,.09.08.14a1.43,1.43,0,0,0,.28.32,2.56,2.56,0,0,0,.78.42,3.3,3.3,0,0,1,1,.8,5.5,5.5,0,0,0,.69.57,1.62,1.62,0,0,1,.37.37,1.31,1.31,0,0,0,1.7.29,3.82,3.82,0,0,0,.84-1,8.55,8.55,0,0,1,1.27-1.21,12.89,12.89,0,0,0,1.35-1,14.06,14.06,0,0,1,1.08-1,1,1,0,0,0,.16-1.27,1.06,1.06,0,0,0-1.17-.48,2.61,2.61,0,0,0-1.31,1,5.65,5.65,0,0,1-1,.88,8.18,8.18,0,0,0-2.21,2.33c0,.05-.13.15-.14.21.08-.14.23-.16.45,0q.6.17.33-.06a1.41,1.41,0,0,0-.5-.47,11.66,11.66,0,0,1-1-.84,3.06,3.06,0,0,0-1.38-.75c-.37-.11-.62-.44-1-.56a.74.74,0,0,0-.56,1.34Z" transform="translate(-42.24 -14.87)"/><path d="M77.48,22.08a3.87,3.87,0,0,0,.27-1.66c0-.53,0-1.06,0-1.6a19.09,19.09,0,0,0,0-2.62c-.07-.51-.27-1.14-.83-1.3s-.94.5-.92,1c0,.83-.07,1.64-.07,2.46,0,.6,0,1.19,0,1.79a4.36,4.36,0,0,0,.28,1.9.73.73,0,0,0,1.26,0Z" transform="translate(-42.24 -14.87)"/><path d="M44,38.51a2.26,2.26,0,0,0,.9,1.17l.45.33.15.11c-.27-.15,0,0,.07.07.7.65,1.59,1.8,2.68,1.21.66-.36.76-1,1.15-1.6l.37-.53c.08-.09.08-.09,0,0a1.34,1.34,0,0,1,.11-.14,2.75,2.75,0,0,1,.22-.26,4.77,4.77,0,0,0,1.09-1.41,1,1,0,0,0-1.23-1.23,3,3,0,0,0-1.21,1c-.29.34-.55.69-.81,1.06a6.25,6.25,0,0,0-.57,1l-.06.15c-.1.25.07-.14,0,0s-.12.21-.17.32.18-.18,0,0a.63.63,0,0,1,.47-.19c.19,0,.23,0,.13,0,.13.06.16.06.08,0s-.15-.1-.23-.16c.17.13,0,0-.06-.06l-.26-.23-.4-.37a10.68,10.68,0,0,0-.87-.63l-.4-.29c.18.14,0,0,0,0s.08.16,0,0a.85.85,0,0,0-1.09-.36.87.87,0,0,0-.5,1Z" transform="translate(-42.24 -14.87)"/><path d="M48.26,40.59a2.28,2.28,0,0,0,.2-1,8.72,8.72,0,0,0,0-.89l0-1.72c0-.51,0-1,0-1.53a1.49,1.49,0,0,0-.18-.88,1.37,1.37,0,0,0-.65-.56.6.6,0,0,0-.67.27,1.22,1.22,0,0,0-.1.75,3.88,3.88,0,0,1,0,.59c0,.51,0,1,0,1.52l0,1.67a6.78,6.78,0,0,0,0,.78,2.28,2.28,0,0,0,.2,1,.66.66,0,0,0,1.14,0Z" transform="translate(-42.24 -14.87)"/><path d="M68.26,65.63c0,.62,0,1.23,0,1.85a12.18,12.18,0,0,0,0,1.91,12.28,12.28,0,0,1,.22,1.48c0,.62.18,1.21.22,1.83s0,1.07.12,1.61a10.31,10.31,0,0,1,.2,1.76c0,1.23-.05,2.47,0,3.71,0,2.42.1,4.85,0,7.27,0,1.15.2,2.23.24,3.37a33.24,33.24,0,0,0,.07,3.46,27.44,27.44,0,0,1,.09,3.74,6.69,6.69,0,0,0,.16,1.55,8,8,0,0,1,0,1.69,25.1,25.1,0,0,0,.09,3.47,21.68,21.68,0,0,1,.11,3.69c-.08,2.49,0,5,0,7.47v7.73c0,.6.06,1.21,0,1.81s-.2,1.29-.25,1.93c-.12,1.33,0,2.67,0,4s0,2.87,0,4.3a15.33,15.33,0,0,1-.15,2.15c-.09.63-.38,1.18-.41,1.81s1.05.69,1.08,0c0-.52.28-1,.35-1.5a14.39,14.39,0,0,0,.16-2c0-1.28,0-2.55,0-3.83s-.06-2.39-.07-3.6.29-2.33.28-3.51c0-5-.05-10-.05-14.93,0-1.23.07-2.46.07-3.69s-.25-2.31-.26-3.49.14-2.27,0-3.37a13.93,13.93,0,0,1-.2-1.72c0-.62,0-1.25,0-1.87,0-1.16-.19-2.3-.16-3.45a17.88,17.88,0,0,0-.16-3.51,20.1,20.1,0,0,1,0-3.47l0-3.7c0-1.42,0-2.84,0-4.26,0-.64.08-1.29,0-1.94s-.22-1.21-.26-1.82a16.12,16.12,0,0,0-.15-1.83c-.11-.63-.06-1.27-.17-1.9a6.4,6.4,0,0,1-.19-1c0-.35,0-.7,0-1.05,0-.74,0-1.48,0-2.22a.55.55,0,0,0-1.1,0Z" transform="translate(-42.24 -14.87)"/><path d="M78.65,64.94c0,.65-.08,1.3-.06,2s.17,1.28.17,1.93a8.52,8.52,0,0,0,.1,1.67,9.46,9.46,0,0,1,.22,2.05,10.56,10.56,0,0,0,.22,1.37c0,.58,0,1.19,0,1.77,0,1.24,0,2.5-.06,3.73S79,82,78.79,83.24a13.25,13.25,0,0,0-.06,1.67c0,.61-.16,1.22-.23,1.83-.12,1.2-.34,2.41-.34,3.61a26.9,26.9,0,0,1-.32,3.7c-.15,1.18-.21,2.36-.38,3.53a5.08,5.08,0,0,0,0,.78,3,3,0,0,1-.14.73,9.9,9.9,0,0,0-.07,1.72c0,.58-.19,1.14-.27,1.71s-.1,1.28-.17,1.91c-.12,1.27-.22,2.54-.39,3.79a12.94,12.94,0,0,0-.06,1.76c0,.62-.13,1.21-.18,1.82-.1,1.25,0,2.52,0,3.77a27.88,27.88,0,0,0,.07,3.77c.07.51.08,1,.14,1.53,0,.28.12.55.14.83s0,.62,0,.94.18.62.2,1,0,.62,0,.94.13.59.17.9,0,.6,0,.9.14.68.18,1,0,.65,0,1c.08.68.09,1.33.13,2,.08,1.32.38,2.63.37,3.95,0,.61-.06,1.22,0,1.82s.22,1.38.26,2.08a.52.52,0,0,0,1,0,8.88,8.88,0,0,0-.11-1.71,9.41,9.41,0,0,1,0-1.76,23.05,23.05,0,0,0-.25-3.42,14.56,14.56,0,0,1-.13-1.75c0-.61-.14-1.21-.16-1.82s-.17-1.07-.18-1.61-.16-1.19-.18-1.79a7.58,7.58,0,0,0-.11-1.5c-.14-.59-.08-1.2-.18-1.81a18.94,18.94,0,0,1-.24-3.45c0-1.3,0-2.59,0-3.89,0-.58,0-1.17,0-1.75s.19-1.28.19-1.94c0-1.21.11-2.39.22-3.6s.16-2.62.37-3.89c.09-.52.2-1,.25-1.56a10.28,10.28,0,0,1,.11-1.84,12.29,12.29,0,0,0,.11-1.49,12.93,12.93,0,0,0,.15-1.76c0-1.22.37-2.41.41-3.63s.12-2.42.28-3.62c.07-.58.11-1.16.16-1.73a18.19,18.19,0,0,0,.23-2c0-.54,0-1.06.06-1.6.09-.69.19-1.37.23-2.06.09-1.34.23-2.64.23-4V75.07a6.1,6.1,0,0,0-.06-1.76,13.55,13.55,0,0,1-.21-1.81,18.19,18.19,0,0,1-.31-2.2c0-.7-.09-1.35-.15-2s0-1.55-.1-2.32a.42.42,0,0,0-.84,0Z" transform="translate(-42.24 -14.87)"/><path d="M96.71,88.4c0,.1-.2.38-.22.57,0,.4-.1.8-.16,1.21a19.54,19.54,0,0,0-.06,2.76,17.82,17.82,0,0,1-.12,2.83c-.15.88,0,1.77-.22,2.65A2,2,0,0,1,94.48,100a16,16,0,0,1-2.5.84,10.76,10.76,0,0,0-1.28.27l-1.17.39a25.37,25.37,0,0,0-2.58.9l.82.22-.06-.09a.56.56,0,0,0-1,.13l0,.1a.61.61,0,0,0,.58.76,5.73,5.73,0,0,0,1.45-.42l1.48-.5c.42-.14.83-.34,1.26-.45s1-.2,1.49-.37c1.44-.5,3.27-.94,3.83-2.54a11.35,11.35,0,0,0,.33-2.91c0-.41.14-.82.17-1.23s0-1.11,0-1.67a24.26,24.26,0,0,1,0-3.19c.06-.39.06-.88.15-1.26a1.15,1.15,0,0,0,.09-.68.42.42,0,0,0-.82.11Z" transform="translate(-42.24 -14.87)"/><path d="M48,47.42a11.29,11.29,0,0,0,.33,2.3c.13.86.28,1.71.47,2.56a12.42,12.42,0,0,1,.38,1.95c0,.85.32,1.66.38,2.51,0,.39.12.78.15,1.17a6.71,6.71,0,0,0,.06,1,17.8,17.8,0,0,1,.14,2.31c.06.77.17,1.52.16,2.3s-.06,1.75,0,2.61c0,.64.18,1.3.27,1.94a16.88,16.88,0,0,1,.09,2.36c0,1.76,0,3.51-.11,5.26,0,.8-.07,1.59-.1,2.38a8.88,8.88,0,0,0,.14,2.47,9.31,9.31,0,0,0,.84,1.91,2.48,2.48,0,0,0,.41.77c.26.26.59.44.85.69a9.11,9.11,0,0,0,.79.73c.29.22.64.36.94.57.68.46,1.2,1.15,1.86,1.63s1.54.87,2.25,1.39a15.73,15.73,0,0,1,1.91,1.31l.85-.85L61,88.58a.59.59,0,0,0-.84.84l.11.12c.54.56,1.35-.27.85-.85a5,5,0,0,0-1.39-1c-.65-.34-1.25-.8-1.89-1.17a10.41,10.41,0,0,1-1.88-1.35,8,8,0,0,0-1.56-1.22,12.57,12.57,0,0,1-1.5-1.23,1.68,1.68,0,0,1-.59-.73c-.18-.34-.4-.66-.55-1a11.07,11.07,0,0,1-.29-4.76c.1-1.68.13-3.35.12-5a22.28,22.28,0,0,0-.23-4.32c-.31-1.6,0-3.24-.22-4.86a20,20,0,0,1-.1-2.19,4.51,4.51,0,0,0-.11-.89c-.1-.43-.06-.84-.12-1.27-.12-.82-.15-1.65-.33-2.46a9.24,9.24,0,0,1-.16-1.26c0-.32-.21-.62-.27-1-.17-.93-.39-1.86-.55-2.8s-.43-1.81-.52-2.72a.46.46,0,0,0-.92,0Z" transform="translate(-42.24 -14.87)"/><path d="M76.45,21.81c-.56,0-.79.38-1.16.75s-1.05.81-1.51,1.34a9.35,9.35,0,0,0-2,3.63c-.2.67-.36,1.34-.6,2a19.11,19.11,0,0,0-.36,2.14,20.76,20.76,0,0,1-.44,2.08c-.11.31-.14.65-.26,1a2.9,2.9,0,0,0-.31,1.05.47.47,0,0,0,.87.23c.14-.28.34-.51.46-.79a5.24,5.24,0,0,0,.24-.86c.08-.3.23-.58.31-.88a3.64,3.64,0,0,0,.06-.81c0-.7.32-1.37.35-2.07a8.59,8.59,0,0,1,.44-1.85,10,10,0,0,1,1.47-3.61,7.5,7.5,0,0,1,1.31-1.39A4.32,4.32,0,0,0,76,23.2c.16-.17.29-.44.54-.49a.46.46,0,0,0-.12-.9Z" transform="translate(-42.24 -14.87)"/><path d="M76.49,22.63c0,.48.35.83.62,1.18a9.83,9.83,0,0,1,1.1,1.81,32.74,32.74,0,0,1,1.71,3.77A25.78,25.78,0,0,1,80.41,32a6.56,6.56,0,0,1,.15,1.07,1,1,0,0,1,0,.35c0,.22.08-.3,0,.15-.06.19-.1.19,0,0l.27-.2-.1,0a.39.39,0,0,0-.18.65.69.69,0,0,0,1,0A1.52,1.52,0,0,0,81.71,33c-.06-.85-.32-1.66-.44-2.5a11.64,11.64,0,0,0-1.63-4.32,18.79,18.79,0,0,0-1.18-2,7.84,7.84,0,0,0-.66-.86c-.23-.25-.56-.42-.69-.76a.32.32,0,0,0-.62.09Z" transform="translate(-42.24 -14.87)"/><path d="M70.85,57.17c.65.17,1.31.28,2,.42a10.2,10.2,0,0,0,2.21.09,7.58,7.58,0,0,0,2.18-.11c.55-.16,1.09-.29,1.63-.45a.79.79,0,0,0-.42-1.52c-.51.15-1,.27-1.52.42a7.18,7.18,0,0,1-2,.1,9.57,9.57,0,0,1-1.93-.07,5.66,5.66,0,0,0-2.09-.14c-.65.11-.59,1.11,0,1.26Z" transform="translate(-42.24 -14.87)"/></svg>