<svg id="Layer_1" data-name="Layer 1" xmlns="http://www.w3.org/2000/svg" width="194.06" height="277.59" viewBox="0 0 194.06 277.59"><defs><style>.cls-1{fill:#dbc49e;}.cls-2{fill:#f4e5ca;}.cls-3{fill:#fff;}.cls-4,.cls-5{fill:none;stroke:#000;stroke-miterlimit:10;stroke-width:1.96px;}.cls-5{stroke-linecap:round;}</style></defs><path class="cls-1" d="M71.62,25a21.19,21.19,0,0,0,3.65,0A18.36,18.36,0,0,0,79.12,24a59.09,59.09,0,0,0,6.63-2.77c1.18-.58,2.35-1.15,3.57-1.66s2-1.19,3.08-1.7c2.25-1.08,5.64.86,7.67,1.73a58.73,58.73,0,0,1,7.06,3.28,12.18,12.18,0,0,0,3,1.25c1.29.37,2.52.94,3.84,1.2a16.92,16.92,0,0,0,7.19,0c1.2-.31,2.33-.82,3.51-1.18a22.92,22.92,0,0,0,3.42-1.25c5-2.55,10-5.34,15.59-6.65A33.55,33.55,0,0,1,152.15,15a67,67,0,0,1,8.61.61,51.44,51.44,0,0,1,8,2.4c2.63.89,5.3,1.66,8,2.43,5.5,1.57,10.92,3.34,16.52,4.53a49.74,49.74,0,0,0,9,1.39c3.13.1,6.17.89,9.31,1s6.4.18,9.6.26a27.52,27.52,0,0,0,4.54-.09,36.32,36.32,0,0,0,4.48-1,.76.76,0,0,0-.4-1.46c-1.31.35-2.61.73-4,.95a23.42,23.42,0,0,1-4.43.12l-8.64-.23c-1.27,0-2.53-.07-3.79-.19-1.49-.14-2.93-.52-4.42-.7-1.3-.16-2.6-.13-3.91-.2A30.89,30.89,0,0,1,196,24c-2.71-.57-5.42-1.12-8.08-1.84s-5.49-1.66-8.25-2.46-5.49-1.55-8.21-2.41-5.2-1.89-7.87-2.6a40.35,40.35,0,0,0-7.67-1,33.59,33.59,0,0,0-8.14.11,51.52,51.52,0,0,0-8,1.91,74.8,74.8,0,0,0-7.42,3.21c-2.48,1.16-4.8,2.67-7.42,3.48-1.18.36-2.33.82-3.51,1.19a12.45,12.45,0,0,1-4,.44,26,26,0,0,1-7.58-1.65,27.57,27.57,0,0,1-3.36-1.66c-1.28-.61-2.57-1.2-3.88-1.77-2.44-1.06-5-2.43-7.64-2.79a5.26,5.26,0,0,0-3.28.33,40.67,40.67,0,0,1-3.7,1.95c-1.21.5-2.34,1.16-3.54,1.7s-2.52,1.26-3.8,1.71-2.81,1-4.23,1.4a15.07,15.07,0,0,1-4.74.24c-1-.05-1,1.47,0,1.52Z" transform="translate(-54.91 -9.64)"/><path class="cls-1" d="M71.62,34.93a9.92,9.92,0,0,0,3.2-.42,27.69,27.69,0,0,0,3.7-1.12c2.35-1,3.85-3.1,6-4.46a9.61,9.61,0,0,1,3.38-1.39,36.59,36.59,0,0,1,3.68-.69,51.89,51.89,0,0,1,8.54.81,30.2,30.2,0,0,0,8.7-.25,17.27,17.27,0,0,1,4.19-.07c1.26.09,3.22-.24,4.18.63a11.79,11.79,0,0,0,2.62,1.52c1.18.62,2.21,1.48,3.42,2.06a14.13,14.13,0,0,0,7.26,1.61c2.79-.25,5.42-1.42,8.1-2.15s5.45-1.83,8.21-2.74c1.28-.43,2.58-.83,3.87-1.24a20.69,20.69,0,0,1,4.76-.54c1.34-.11,2.63-.49,4-.58a37.48,37.48,0,0,1,4.37,0c1.41.1,2.73.44,4.11.66s2.58.26,3.88.36,2.8.48,4.21.7,2.87.18,4.3.41c1.27.21,2.53.49,3.81.59,1.59.13,3.19.13,4.79.29,3,.32,6.07.76,9.13.94,6.66.4,13.34.17,20,.34l10.26.27c1.39,0,2.77.34,4.16.31a4.26,4.26,0,0,0,3-1.34c.73-.66-.35-1.73-1.08-1.08a2.7,2.7,0,0,1-1.91.9,11.42,11.42,0,0,1-1.55-.1c-1.44-.16-2.87-.21-4.32-.25l-8.79-.24c-5.95-.15-11.9,0-17.85-.23-2.9-.12-5.77-.4-8.66-.75-3.06-.38-6.2-.34-9.24-.87-2.68-.47-5.37-.62-8-1.11a36.51,36.51,0,0,0-3.74-.4c-1.46-.12-2.86-.43-4.3-.67a27.32,27.32,0,0,0-7.61-.14A30.65,30.65,0,0,1,154,25a12.49,12.49,0,0,0-4,.66c-2.81.9-5.55,1.94-8.34,2.89-2.58.88-5.26,1.54-7.87,2.35a12.51,12.51,0,0,1-8.45-.05,16.91,16.91,0,0,1-3.44-1.76,12.82,12.82,0,0,0-1.53-1,14,14,0,0,1-1.67-.76c-.89-.61-1.21-1.3-2.41-1.39s-2.66-.07-4-.16c-2.86-.2-5.58.57-8.44.53a29.31,29.31,0,0,1-5-.37,30.5,30.5,0,0,0-4.56-.54,16.82,16.82,0,0,0-4.43.17,28.27,28.27,0,0,0-3.59.78,13.61,13.61,0,0,0-3.26,1.74c-1.15.91-2.19,2-3.37,2.84A11,11,0,0,1,76,32.58a12.3,12.3,0,0,1-4.39.83c-1-.07-1,1.44,0,1.52Z" transform="translate(-54.91 -9.64)"/><path class="cls-1" d="M71.62,45a13.89,13.89,0,0,0,6.62-1.6c2.22-1.1,4.08-2.77,6.47-3.52A33.2,33.2,0,0,1,92,38.14a31.94,31.94,0,0,1,4,.15,17.79,17.79,0,0,0,3.79-.21c5.41-.76,10.66-1.88,16-3.11a22.49,22.49,0,0,1,15.67,2,43.93,43.93,0,0,0,13.87,4.33c5.34.69,10.83.53,16.22.66,10.76.27,21.5.83,32.24-.18,5.87-.55,11.77-.95,17.62-1.61,3-.33,6-.26,8.92-.54a82.71,82.71,0,0,1,9-.5.76.76,0,0,0,0-1.52c-5.32-.1-10.62.77-15.94.9-2.5,0-5,.51-7.5.65-2.71.14-5.4.41-8.1.69-5.34.55-10.68,1-16.05,1s-10.87-.21-16.3-.35c-10.59-.26-21.75.56-31.58-4.06a41.91,41.91,0,0,0-6.76-2.89,22.27,22.27,0,0,0-7.17-.8,42.27,42.27,0,0,0-7.56,1.47c-2.61.65-5.25,1.17-7.91,1.61a39.4,39.4,0,0,1-9.43.86,23.55,23.55,0,0,0-8.17,1,33.87,33.87,0,0,0-3.72,1.11,20.7,20.7,0,0,0-3.35,1.94,14.47,14.47,0,0,1-8.19,2.72.76.76,0,0,0,0,1.52Z" transform="translate(-54.91 -9.64)"/><path class="cls-1" d="M71.24,53.17a20.57,20.57,0,0,0,7,1.9A32,32,0,0,0,86,54.41a46.5,46.5,0,0,0,7.5-2,73.19,73.19,0,0,1,7.77-1.86c2.73-.67,5.44-1.32,8.22-1.79s5.36-1,8-1.65a24.05,24.05,0,0,1,3.66-.77c1.35-.14,2.7,0,4.06-.09s2.83-.31,4.25-.39,3,0,4.42.06a39.73,39.73,0,0,1,8.3.63c2.66.66,5.31,1.09,8,1.62,2.47.5,4.85,1.18,7.36,1.47,2.72.3,5.26,1,7.93,1.54a23.94,23.94,0,0,0,3.48.31,27.74,27.74,0,0,1,4.26.65c2.61.55,5.25,1,7.83,1.64a65.42,65.42,0,0,0,8,1.55c2.6.34,5.29.14,7.91.22,3.22.08,6.44.13,9.66.26s6.4.35,9.59.21,6.29-.4,9.46-.39,6.17-.41,9.26-.41a.76.76,0,0,0,0-1.52c-2.69,0-5.36.29-8.05.39-2.84.1-5.65.07-8.49.28-5.53.41-11.09-.07-16.62-.21-2.78-.08-5.57-.22-8.35-.21a33.93,33.93,0,0,1-3.91-.08c-1.5-.17-3-.55-4.5-.8-5-.85-10-2.5-15.12-3-1.33-.13-2.65-.06-4-.32s-2.61-.65-3.92-1c-2.56-.6-5.21-.58-7.76-1.2S149,46.43,146.45,46c-2.41-.42-4.72-1.35-7.18-1.49-2.87-.17-5.79-.2-8.66-.22s-5.47.45-8.23.44a28.19,28.19,0,0,0-7,1.34c-2.63.67-5.32,1-8,1.5-3,.56-6,1.44-9.07,2.07a42.2,42.2,0,0,0-4.19.91c-1.4.45-2.75,1.06-4.16,1.48a40.23,40.23,0,0,1-8.72,1.52A18.88,18.88,0,0,1,72,51.85c-.88-.39-1.66.92-.76,1.32Z" transform="translate(-54.91 -9.64)"/><path class="cls-1" d="M71.24,60.8a24.82,24.82,0,0,0,7.06,2.74c1.21.18,2.41.15,3.62.4a25.27,25.27,0,0,0,3.56.63c2.44.15,4.89-.87,7.24-1.4,2.65-.59,5.19-1.49,7.81-2.16s5.42-1,8.09-1.79,5.15-1.52,7.74-2.2A140.49,140.49,0,0,1,133,53.68a51.26,51.26,0,0,1,8.49-.47c2.86.07,5.64-.5,8.49-.5,2.61,0,5.2.33,7.8.42s5.49-.09,8.23.15c1.36.12,2.65.49,4,.67s2.88.11,4.31.25,2.69.43,4,.62,2.81.13,4.18.36c1.19.2,2.32.6,3.53.7a41.15,41.15,0,0,1,4.27.53c2.71.49,5.46.69,8.18,1.09s5.57,1.41,8.41,1.65c1.56.13,3.12,0,4.68,0a42.08,42.08,0,0,1,4.75.53,87,87,0,0,0,8.93,1.19,93,93,0,0,0,9.59.11c1,0,1-1.57,0-1.52a79.12,79.12,0,0,1-16.7-1,44.78,44.78,0,0,0-7.74-.81,26,26,0,0,1-4.23-.09c-1.37-.2-2.7-.6-4-.91a70.56,70.56,0,0,0-7.65-1.14c-2.61-.32-5.17-1-7.78-1.1a34.36,34.36,0,0,1-4-.71c-1.22-.19-2.47-.14-3.7-.29s-2.73-.47-4.1-.64-2.79-.11-4.18-.24-2.5-.48-3.77-.65a35.32,35.32,0,0,0-4.24-.22c-2.72,0-5.41,0-8.12-.22a37.47,37.47,0,0,0-7.78,0,61.27,61.27,0,0,1-8.24.24,55,55,0,0,0-7.88.86q-4.06.63-8.08,1.48c-5.4,1.15-10.64,2.81-16,4.23-3,.79-6,1.18-9,2.1-2.77.86-5.6,1.47-8.41,2.18a11.17,11.17,0,0,1-4.8.44c-1.19-.2-2.35-.54-3.55-.69a20.09,20.09,0,0,1-4.55-.79,43,43,0,0,1-4.32-2c-.87-.43-1.64.88-.76,1.32Z" transform="translate(-54.91 -9.64)"/><path class="cls-1" d="M71.24,71.81c1.24.56,2.43,1.26,3.69,1.78,1.06.44,2.18.55,3.26.91,2.45.83,5.07.54,7.63.68a21.07,21.07,0,0,0,3.64,0,15.11,15.11,0,0,0,3.65-1.06c2.41-.89,5-1.08,7.4-1.9s4.59-2.18,7.12-2.81a39,39,0,0,0,7.21-2.36,73.43,73.43,0,0,1,7.71-3.41c2.54-.82,5.17-1.32,7.73-2a62.31,62.31,0,0,1,16.8-2.78c2.9,0,5.75-.12,8.64-.28s5.7,0,8.54.07a70.63,70.63,0,0,1,8.28,1.22c2.84.46,5.7.82,8.52,1.31s5.62,1.38,8.43,2.06,5.59,1.36,8.37,2.1c3.08.83,6.17,1.68,9.29,2.37s6.18,1.25,9.25,2.06c6,1.6,12,3.86,18.24,4.77,1,.14,1.37-1.32.4-1.46-5.49-.81-10.84-2.73-16.18-4.21s-11-2.45-16.43-3.87-10.86-2.77-16.28-4.2c-5.66-1.5-11.52-2-17.27-3.06a65.23,65.23,0,0,0-16-.48c-2.86.18-5.72,0-8.57.18a58.75,58.75,0,0,0-7.92,1.12c-2.71.56-5.35,1.34-8,2a63.79,63.79,0,0,0-7.92,2.24c-2.38.95-4.62,2.19-7,3.22A60.77,60.77,0,0,1,106,68.29a24,24,0,0,0-3.83,1.65,20.21,20.21,0,0,1-4.28,1.46c-1.39.32-2.8.46-4.15.91a29.19,29.19,0,0,1-4.06,1.33,21.14,21.14,0,0,1-4.77,0c-1.51-.09-3.08.09-4.57-.08A9.71,9.71,0,0,1,78.41,73c-.64-.21-1.29-.29-1.93-.46a29,29,0,0,1-4.48-2c-.88-.4-1.65.91-.76,1.32Z" transform="translate(-54.91 -9.64)"/><path class="cls-1" d="M71.24,79.3c2.34,1.1,4.8,2.08,7.23,3s4.69.83,7.28.8a21.5,21.5,0,0,0,7.4-1,67.19,67.19,0,0,0,7.39-3.35,93.4,93.4,0,0,1,15.18-6.54,90.36,90.36,0,0,1,17-3.15c2.76-.28,5.5-.77,8.27-1a82.73,82.73,0,0,1,8.48.1c2.84.08,5.73,0,8.56.29,1.19.12,2.31.54,3.49.69,1.47.19,2.94,0,4.4.29,5.55,1.16,11.17,1.91,16.72,3,5.31,1.1,10.82.81,16.22,1,3.24.09,6.48.19,9.72.19,1.63,0,3.26,0,4.89.06.81,0,1.63.06,2.43.14a13.94,13.94,0,0,1,2.3.62c1.34.38,2.67.12,4,.62a23.41,23.41,0,0,0,4,1.2c2.88.56,5.57,1.83,8.46,2.37,1,.18,1.36-1.28.4-1.46-2.6-.49-5-1.55-7.59-2.18a31.29,31.29,0,0,1-3.32-.76,13,13,0,0,0-3.54-1.12,16.38,16.38,0,0,1-1.72-.07c-.66-.12-1.25-.45-1.9-.59a21.69,21.69,0,0,0-4-.31c-2.85-.08-5.69,0-8.54-.08-5.65-.14-11.33-.07-17-.4A73.69,73.69,0,0,1,179,70.29c-2.74-.47-5.5-.89-8.25-1.39A43.23,43.23,0,0,0,163,67.72a24.07,24.07,0,0,1-3.95-.63,27.3,27.3,0,0,0-3.73-.28c-5.64-.13-11.37-.67-17,0s-11.16,1.23-16.67,2.33a67.8,67.8,0,0,0-15.16,4.9c-2.78,1.29-5.47,2.76-8.22,4.11s-5.72,2.91-8.82,3.29c-1.46.18-2.91.08-4.37.13a15.49,15.49,0,0,1-4.56-.22,31,31,0,0,1-4.15-1.56c-1.47-.62-3-1.15-4.4-1.83-.88-.41-1.65.9-.76,1.32Z" transform="translate(-54.91 -9.64)"/><path class="cls-1" d="M71.24,89.54A27.79,27.79,0,0,0,78.88,92c2.62.4,5.3.35,7.94.52a78.3,78.3,0,0,0,8.39.25c2.73-.13,5.39-.7,8.13-.57a28.56,28.56,0,0,0,4,.06c1.37-.12,2.71-.51,4.09-.54,2.44,0,5,.6,7.35-.07a5.72,5.72,0,0,1,2-.33,14.91,14.91,0,0,0,1.89,0,29.14,29.14,0,0,0,3.61-.56c2.76-.57,5.54-1,8.33-1.39a31,31,0,0,0,3.69-.66c1.42-.39,2.77-1,4.18-1.36,2.59-.69,5.23-1.45,7.86-2a38.06,38.06,0,0,1,8.26-.56c2.8.06,5.06,1.47,7.74,2,1.27.28,2.54.46,3.78.86a18.89,18.89,0,0,0,3.6,1,80.91,80.91,0,0,0,8.39.12c1.36,0,2.73,0,4.09.11a40.4,40.4,0,0,1,4.36.71c2.68.45,5.39,0,8.08.55,3,.56,6.07.6,9.1,1.14a86.21,86.21,0,0,0,9.07,1c1.64.12,3.25.41,4.87.66,1.44.21,2.88.21,4.33.36s2.86.48,4.3.67a38.77,38.77,0,0,0,4.45.18.76.76,0,0,0,0-1.52c-1.23,0-2.47,0-3.69-.09-1.48-.15-2.94-.49-4.42-.68-1.13-.15-2.25-.13-3.38-.24-1.48-.14-2.93-.46-4.39-.65-2.79-.37-5.62-.31-8.41-.77a60.63,60.63,0,0,0-7.7-1c-2.7-.1-5.29-.9-8-.93a23.37,23.37,0,0,1-4-.18c-1.28-.22-2.53-.56-3.82-.67-2.87-.25-5.78-.15-8.66-.2-1.21,0-2.43.06-3.64,0a16,16,0,0,1-4.09-1,37.76,37.76,0,0,0-3.79-.86,31.58,31.58,0,0,1-4.11-1.4c-2.3-.84-4.68-.7-7.09-.65a31.89,31.89,0,0,0-7.64,1c-2.6.67-5.27,1.25-7.81,2.14a42.73,42.73,0,0,1-8,1.68c-2.65.38-5.26,1-7.91,1.4a24.36,24.36,0,0,1-3.82.12c-1.28,0-2.43.63-3.72.65-2.57,0-5-.37-7.61,0-3.13.52-6.23,0-9.36.3a56.81,56.81,0,0,1-8.84.45c-6.38-.25-13-.14-18.9-3-.87-.42-1.64.89-.76,1.32Z" transform="translate(-54.91 -9.64)"/><path class="cls-1" d="M71.42,91.27c1,.36,1.88,1,2.87,1.4,1.3.57,2.69.93,4,1.51A57,57,0,0,0,85,96.81a17,17,0,0,0,3.56.93,31.32,31.32,0,0,1,4.21.35c2.49.5,5,.65,7.51,1.09a54.73,54.73,0,0,0,7.79.4c2.72.07,5.47.24,8.19.22,1.28,0,2.49-.41,3.76-.53s2.77,0,4.16-.18c2.68-.32,5.36-.57,8.05-.87s5.22-1.24,7.9-1.58,5.35-.32,8-.5,5.5-.63,8.25-.89,5.75-.51,8.63-.7a66.18,66.18,0,0,1,8.09.18,78.72,78.72,0,0,0,8.55-.3c5.56-.29,11.25,0,16.81.2,1.63.07,3.26.17,4.88.37s3,.53,4.53.6a45.65,45.65,0,0,1,4.82.27c1.31.21,2.61.5,3.94.62a49.27,49.27,0,0,1,9.48,1.8c2.82.84,5.75,1,8.56,1.89.93.3,1.33-1.16.4-1.46-2.51-.82-5.12-.89-7.64-1.61a56.57,56.57,0,0,0-7.82-1.84c-1.37-.19-2.75-.23-4.11-.44s-2.47-.47-3.72-.61-2.45-.08-3.67-.13c-1.53-.06-3-.38-4.53-.57-5.58-.72-11.34-.59-17-.67a79,79,0,0,0-8.28.35A57.91,57.91,0,0,1,170,93c-5.55-.29-11.23.41-16.74,1-2.71.31-5.38.59-8.1.71a43.28,43.28,0,0,0-8,.85c-1.21.29-2.37.69-3.6.9-1.44.24-2.91.32-4.37.43-2.79.22-5.52.77-8.33.77a20.42,20.42,0,0,0-3.3.43,24.69,24.69,0,0,1-4.63,0l-8.2-.22A29,29,0,0,1,100,97.6a28.27,28.27,0,0,0-3.88-.53,41.84,41.84,0,0,1-4.46-.72c-1.43-.21-2.85,0-4.25-.38a58.92,58.92,0,0,1-8.35-3.1c-1.28-.57-2.6-1-3.9-1.48S73,90.22,71.82,89.81c-.92-.32-1.32,1.14-.4,1.46Z" transform="translate(-54.91 -9.64)"/><path class="cls-1" d="M71.42,102.93A14,14,0,0,1,74.57,104c1.12.58,2.38.7,3.54,1.18a43.1,43.1,0,0,0,7.65,2.6c5.13,1.07,10.2,2.32,15.47,2.3,5.58,0,11.17.14,16.74.38a57.86,57.86,0,0,0,8.43,0,32.35,32.35,0,0,1,3.79-.44c1.48,0,2.94.17,4.43,0,1.3-.09,2.59-.29,3.89-.37s2.77,0,4.15-.08c2.62-.18,5.2-.73,7.82-.92s5.28-.39,7.94-.84,5.4-.59,8.08-1.05c5.54-1,10.85-2.86,16.44-3.57,2.58-.33,5-1,7.64-.86,2.91.11,5.81.17,8.72.24,3.07.07,6.17,0,9.24.19,1.59.12,3.07.54,4.63.78s3,0,4.55.25c1.32.25,2.63.45,4,.59,1.52.16,3,.54,4.5.77s2.93.24,4.39.53a40.93,40.93,0,0,0,4.26.52c1,.09,1-1.43,0-1.52-2.62-.24-5.18-.71-7.8-.94-1.29-.11-2.53-.52-3.81-.71s-2.67-.26-4-.49a19.83,19.83,0,0,0-3.35-.44c-.6,0-1.21,0-1.81,0a21.86,21.86,0,0,1-2.54-.48,42.06,42.06,0,0,0-7.93-.51c-2.85,0-5.7-.1-8.55-.17a45.85,45.85,0,0,0-7.86,0c-2.56.39-5.16.74-7.71,1.2-2.73.5-5.4,1.3-8.09,2a153.21,153.21,0,0,1-16,2.64c-2.7.38-5.43.36-8.14.74-1.39.18-2.77.4-4.17.51s-2.76,0-4.15.09c-2.65.12-5.18.51-7.84.39s-5.53.57-8.33.55c-5.65,0-11.32-.36-17-.52-3-.08-6,.13-8.91-.2A90.17,90.17,0,0,1,88,106.69,43,43,0,0,1,79.21,104c-1.33-.6-2.78-.8-4.08-1.45a16.31,16.31,0,0,0-3.31-1.11.76.76,0,0,0-.4,1.46Z" transform="translate(-54.91 -9.64)"/><path class="cls-1" d="M71.42,111.88a10.73,10.73,0,0,0,3.1.09,11.75,11.75,0,0,1,4,.9c2.7,1,5.41,1.91,8.08,2.95a33.22,33.22,0,0,1,3.85,1.39,20.42,20.42,0,0,1,3.21,2.49,31.77,31.77,0,0,0,6.24,4.08,21.47,21.47,0,0,0,6.61,2.16,27.91,27.91,0,0,1,3.62.61A14,14,0,0,0,114,127c2.68,0,5.32.28,8,.39s5.39-.54,8.13-.59a50.9,50.9,0,0,0,7.77-1.14,67.69,67.69,0,0,1,8.42-.6c2.87-.13,5.72-.69,8.58-1s5.74-.69,8.61-1c2.64-.32,5.35-.33,8-.79,1.31-.24,2.6-.62,3.93-.83,1.51-.24,3-.35,4.57-.44,5.77-.37,11.62-.6,17.4-.47,6.5.14,13,.33,19.5.51,3.18.08,6.33.24,9.5.48a21.8,21.8,0,0,0,4.35,0c1.45-.18,2.88-.59,4.32-.86,1-.18.55-1.64-.4-1.46-1.27.24-2.52.59-3.79.79a19.48,19.48,0,0,1-4.25.05c-2.76-.2-5.5-.39-8.28-.46l-17-.45c-5.75-.15-11.46,0-17.2.18-2.85.1-5.71.22-8.54.6-1.22.17-2.4.48-3.6.73a32,32,0,0,1-4.36.5c-2.88.23-5.75.64-8.61,1-2.7.34-5.41.56-8.1.93s-5.6.42-8.44.59a51.17,51.17,0,0,0-7.88,1.19c-2.77.59-5.58.3-8.36.8a31,31,0,0,1-8,0c-2.64-.21-5.32.15-7.88-.56-2.37-.66-4.79-.64-7.14-1.47a28.72,28.72,0,0,1-7.62-4.27c-1.14-.86-2.16-1.87-3.32-2.71A11.58,11.58,0,0,0,88.7,115c-2.92-.92-5.83-2.09-8.7-3.16a21.07,21.07,0,0,0-4.24-1.26c-1.3-.19-2.67.21-3.94-.13a.76.76,0,0,0-.4,1.46Z" transform="translate(-54.91 -9.64)"/><path class="cls-1" d="M72.35,123.84c1.13,0,2.26-.07,3.39-.08a14.58,14.58,0,0,1,3.72.52,10.75,10.75,0,0,1,3.27,1.08c1.06.63,2,1.38,3.12,2a34.87,34.87,0,0,0,6.6,2.72c2.48.7,4.9,1.7,7.43,2.23a20.8,20.8,0,0,0,3.34.36c1.49.07,3,.35,4.42.56a68.51,68.51,0,0,0,8.11.41c5.69.16,11.37.4,17.06.46,2.84,0,5.68,0,8.52-.16s5.48-.6,8.22-.84,5.64-.19,8.46-.2,5.54-.23,8.32-.51c5.47-.55,10.94-1.07,16.4-1.78a75.21,75.21,0,0,1,8.21-.9c2.84-.06,5.71.13,8.56.2a47.87,47.87,0,0,0,8.88-.16c2.92-.46,5.87.09,8.8-.35a13.43,13.43,0,0,1,2.45-.28c.65,0,1.29.1,1.94.08a29.32,29.32,0,0,0,4.16-.58c3.1-.59,6.19-1.24,9.31-1.72,1-.15.56-1.61-.4-1.46-2.76.42-5.5.93-8.23,1.5-1.32.27-2.64.53-4,.67s-2.59-.12-3.88,0-2.37.41-3.6.46-2.73-.06-4.1-.08a21,21,0,0,0-3.53.39,23.31,23.31,0,0,1-4.42.08c-5.58-.19-11.26-.6-16.81.13-2.68.36-5.36.72-8.05,1s-5.46.77-8.2,1-5.51.56-8.27.72-5.44.05-8.15.1-5.62.43-8.45.73-5.67.42-8.51.45c-5.6.08-11.21-.18-16.81-.34l-8.54-.23c-2.66-.06-5.24-.73-7.89-.86-3.11-.14-5.77-1.23-8.73-2.08a41.92,41.92,0,0,1-7.87-3c-1.15-.6-2.18-1.4-3.29-2a10.81,10.81,0,0,0-3.28-1.08,17.79,17.79,0,0,0-3.7-.63c-1.33,0-2.66.1-4,.08a.76.76,0,0,0,0,1.52Z" transform="translate(-54.91 -9.64)"/><path class="cls-1" d="M71.62,132.44c2.66.07,5.33.06,8,.21a23.53,23.53,0,0,1,3.72.73c1.36.3,2.75.22,4.11.48s2.6.46,3.9.71c.62.12,1.21.34,1.84.43s1.31.07,2,.18c1.2.2,2.33.79,3.51,1.1s2.53.46,3.78.76c2.51.59,5,1.42,7.48,2a43.52,43.52,0,0,0,7.73.64c2.74.07,5.58.37,8.32.17,1.3-.1,2.56-.46,3.87-.51s2.73,0,4.11-.1c2.54-.25,5-1,7.5-1.3s5-.34,7.57-.7a36.68,36.68,0,0,1,3.93-.49c1.35,0,2.7.07,4-.06s2.42-.41,3.65-.48c1.42-.08,2.87.06,4.3.1q16.78.44,33.58.86c3.08.09,6.16.19,9.24.25s6-.44,9.07-.48a41,41,0,0,0,4.57-.21c1.41-.18,2.76-.47,4.18-.54,3.13-.14,6.15-.87,9.27-1,1-.06,1-1.57,0-1.52-2.66.15-5.23.84-7.87,1-1.24.07-2.47.07-3.69.25a34.14,34.14,0,0,1-4.39.52c-2.69.09-5.35.22-8,.41s-5.49,0-8.24,0c-11.2-.26-22.4-.63-33.6-.88-2.7-.06-5.46-.29-8.16-.19-1.31,0-2.58.35-3.88.48s-2.7,0-4,.07c-2.64.08-5.23.75-7.86.93a43.3,43.3,0,0,0-7,.84,37.37,37.37,0,0,1-8,.8c-1.31,0-2.58.37-3.87.5a34.88,34.88,0,0,1-4.09,0c-2.87-.07-5.77-.07-8.63-.25a38.27,38.27,0,0,1-7.77-1.65c-2.72-.76-5.57-1.08-8.23-2s-5.64-1-8.46-1.63c-1.47-.33-2.85-.42-4.34-.61s-2.64-.67-4-.86a82.5,82.5,0,0,0-9-.3.76.76,0,0,0,0,1.52Z" transform="translate(-54.91 -9.64)"/><path class="cls-1" d="M71.62,141.72l9,.24a43.38,43.38,0,0,1,8.21.65,49.59,49.59,0,0,1,7.85,1.88,22.74,22.74,0,0,1,3.09,1.72,8.57,8.57,0,0,0,1.32.56,5.45,5.45,0,0,1,1.76,1.16,9.13,9.13,0,0,0,5.94,2.09,4.57,4.57,0,0,1,1.87.31,4.66,4.66,0,0,0,1,.42,15,15,0,0,0,3.85.12,14.65,14.65,0,0,1,3.79.49,16.75,16.75,0,0,0,3.67.37l8.26.19c5.69.15,11.38.41,17.07.47a44.51,44.51,0,0,0,7.89-.86c2.9-.51,5.79-.94,8.7-1.3,2.62-.32,5.23-.64,7.82-1.09,2.81-.49,5.58-1.17,8.39-1.69,5.63-1.07,11.52-1.19,17.24-1.47a94.15,94.15,0,0,1,9.65-.06,34.6,34.6,0,0,1,4.77.77,26.56,26.56,0,0,0,4.09.2,27.49,27.49,0,0,1,4.62.35,23.41,23.41,0,0,0,4.08.64c3.11.07,6.26.2,9.36.14a.76.76,0,0,0,0-1.52c-2.82.05-5.65-.15-8.47-.14-2.5,0-4.82-.8-7.3-.92-1.38-.07-2.76-.08-4.14-.11a22.73,22.73,0,0,1-4.19-.67,40.06,40.06,0,0,0-8.27-.34c-5.72.09-11.52.44-17.22,1-5.43.51-10.7,2.1-16.1,2.86-2.77.39-5.55.68-8.32,1.06s-5.51,1-8.28,1.35a51.83,51.83,0,0,1-8.45.16l-8.82-.22-8.23-.21a39.1,39.1,0,0,1-8.24-.61,12.42,12.42,0,0,0-3.15-.34c-1.31,0-3,.3-4.17-.26a6.25,6.25,0,0,0-2.74-.58,8.5,8.5,0,0,1-4-1c-1-.57-1.66-1.54-2.76-2a10.18,10.18,0,0,1-1.63-.71c-.55-.34-1-.75-1.63-1.05-2.61-1.32-5.4-1.63-8.21-2.28-6.14-1.43-12.59-1.07-18.86-1.25a.76.76,0,0,0,0,1.52Z" transform="translate(-54.91 -9.64)"/><path class="cls-1" d="M71.62,153.47c1.17-.15,2.35-.26,3.53-.4a33.83,33.83,0,0,1,3.75-.53,23.23,23.23,0,0,0,3.22-.52,21.25,21.25,0,0,1,4-.14,14.85,14.85,0,0,1,7.29,2.47c2.3,1.36,4.58,2.72,6.95,3.94a14.07,14.07,0,0,0,6.92,1.69,56.8,56.8,0,0,1,7.59.7c2.77.35,5.63.31,8.42.4a47.21,47.21,0,0,0,8.15-.37c1.35-.2,2.7-.42,4.06-.54s2.82,0,4.23-.11,2.73-.42,4.11-.48,2.81,0,4.23-.16c2.73-.31,5.42-.82,8.16-1s5.55-.59,8.33-1,5.4-.5,8.11-1.06,5.48-.62,8.24-.95,5.42-.4,8.1-.75a27.41,27.41,0,0,1,4-.42c1.42,0,2.85.08,4.27.11,6.3.14,12.63.18,18.92.55a29.74,29.74,0,0,0,8.83-.59c3.22-.74,6.51-1.11,9.79-1.53,1-.12,1-1.64,0-1.52-2.69.35-5.4.65-8.07,1.15-1.33.25-2.64.62-4,.87a20.76,20.76,0,0,1-4.46.22c-5.61-.2-11.23-.41-16.85-.56-2.81-.08-5.63-.18-8.45-.22a21.76,21.76,0,0,0-3.42.33c-1.49.22-3,.23-4.46.36-2.76.25-5.5.7-8.26.83s-5.43,1-8.18,1.29-5.41.65-8.11.95-5.66.42-8.46.82c-1.36.19-2.71.46-4.08.62s-2.81.09-4.23.16-2.58.33-3.88.45-2.82,0-4.23.12c-2.77.22-5.5.86-8.29,1s-5.54-.1-8.3-.21c-1.39-.06-2.79,0-4.17-.22s-2.61-.45-3.93-.6c-2.58-.3-5.32.28-7.81-.61a46.54,46.54,0,0,1-7.9-4.23c-2.32-1.4-4.66-2.85-7.4-3.22a24.85,24.85,0,0,0-7.79.39c-1.35.24-2.71.18-4.08.47s-3,.4-4.43.58c-1,.12-1,1.64,0,1.52Z" transform="translate(-54.91 -9.64)"/><path class="cls-1" d="M71.62,162.25a20.89,20.89,0,0,1,3.71.05,28.56,28.56,0,0,1,4.15,1.21,29.36,29.36,0,0,0,3.56.88c1.29.21,2.59.22,3.87.52s2.48.73,3.75,1,2.4.21,3.61.36c2.73.31,5.22,1.53,7.77,2.45a37.29,37.29,0,0,0,15.27,2.17,49.49,49.49,0,0,0,7.73-1.38c2.67-.63,5.36-1.12,8-1.66s5.32-1.51,8-1.94a43.65,43.65,0,0,1,8.4-.27c5.8.21,11.61.34,17.41.49a132.09,132.09,0,0,0,17-.26c2.57-.27,5-1.12,7.59-1a15,15,0,0,0,3.4-.42c1.47-.28,3-.34,4.47-.51,3.08-.36,6.14-.82,9.2-1.28,2.9-.43,5.61-1.49,8.5-1.95,1.47-.24,3-.43,4.4-.81s2.95-1,4.46-1.33c3-.71,6.06-1.06,9.08-1.66,1-.19.55-1.65-.4-1.46-2.64.52-5.32.86-7.95,1.41s-5.13,1.58-7.79,2c-1.25.21-2.51.36-3.76.62s-2.54.72-3.81,1.07a61.66,61.66,0,0,1-8.23,1.35c-2.77.39-5.62.49-8.36,1a17.07,17.07,0,0,1-3.84.37,13.93,13.93,0,0,0-3.63.49c-5.46,1.15-11.29,1.07-16.85.93-5.79-.16-11.59-.29-17.38-.46-5.32-.15-10.59-.55-15.76,1a79,79,0,0,1-8.07,1.78c-2.69.51-5.33,1.23-8,1.77a34.51,34.51,0,0,1-15.94-.67c-2.93-.81-5.66-2.19-8.6-3a19.06,19.06,0,0,0-3.9-.53,19.59,19.59,0,0,1-4.41-.94,21.11,21.11,0,0,0-3.77-.66,24.2,24.2,0,0,1-4.69-1,30.74,30.74,0,0,0-4.25-1.24,22.48,22.48,0,0,0-4-.08c-1,0-1,1.55,0,1.52Z" transform="translate(-54.91 -9.64)"/><path class="cls-1" d="M71.62,176.21c2.66,0,5.32-.17,8-.11a68,68,0,0,1,8,1.1c1.31.17,2.62.14,3.92.37,1.15.21,2.29.49,3.47.62,2.82.3,5.58.82,8.38,1.3a26,26,0,0,1,3.15.82,12.4,12.4,0,0,0,3.8.28c2.78,0,5.56.11,8.34.19a69.25,69.25,0,0,0,16.12-1.41c5.46-1.14,10.85-2.58,16.25-4,2.66-.69,5.33-1.37,8-2s5.27-.95,7.88-1.54a12.88,12.88,0,0,1,3.86-.36,12.36,12.36,0,0,0,3.69-.38c2.66-.59,5.69-.11,8.39,0,1.36.07,2.72.13,4.08.12s2.75-.26,4.15-.37,2.57,0,3.85,0a36.31,36.31,0,0,0,3.75-.36c2.87-.35,5.76-.05,8.64-.43s5.93-.92,8.95-1.15,6-.74,9-.87c3.2-.14,6.35-.83,9.55-.83a.76.76,0,0,0,0-1.52c-2.76,0-5.44.6-8.18.77s-5.42.5-8.15.76-5.32.34-7.95.76a45.81,45.81,0,0,1-8.09.86c-2.53,0-5,.44-7.49.5-1.21,0-2.41-.08-3.62,0-1.39.08-2.75.37-4.15.39-2.75,0-5.5-.23-8.25-.32a24.8,24.8,0,0,0-4,0,18.76,18.76,0,0,1-3.95.52c-2.57-.17-4.9.56-7.41,1-2.78.46-5.54,1.07-8.27,1.73-5.36,1.31-10.67,2.78-16,4.07a75.68,75.68,0,0,1-16.24,2.54c-2.86,0-5.73-.11-8.59-.18-1.38,0-2.77-.08-4.15-.07a10.57,10.57,0,0,1-3.92-.43,22.85,22.85,0,0,0-4-.87c-1.54-.28-3.09-.58-4.64-.8s-2.88-.28-4.31-.56a27.4,27.4,0,0,0-3.93-.59c-2.88-.14-5.64-1-8.53-1.19-3.13-.19-6.26.05-9.39.05a.76.76,0,0,0,0,1.52Z" transform="translate(-54.91 -9.64)"/><path class="cls-1" d="M234.84,171.2c-5.49-.22-11-.64-16.52-.53-2.61.05-5.09-.87-7.73-.95s-5.55-.1-8.33-.18a35.61,35.61,0,0,0-7.65.47c-2.72.5-5.39,1.25-8.05,2s-5.45,1.59-8.17,2.43c-2.53.78-5.18.63-7.73,1.24-1.2.28-2.34.76-3.52,1.12a20.53,20.53,0,0,1-4.42.67c-2.66.2-5.14,1.07-7.76,1.37-2.79.33-5.61.33-8.4.68s-5.45,1-8.19.87a9.39,9.39,0,0,0-3.07.44,13.84,13.84,0,0,1-4.45.14,68.82,68.82,0,0,0-8.25.18c-5.61.34-11.18-.35-16.77-.75a56.55,56.55,0,0,1-9-1c-2.58-.61-5.47-.14-8.12-.13a21.91,21.91,0,0,1-4.34-.6,28.77,28.77,0,0,0-4.35-.24,32.73,32.73,0,0,1-4.73-.83,23.46,23.46,0,0,0-3.84-.27.76.76,0,0,0,0,1.52,21.2,21.2,0,0,1,3.65.25c1.28.23,2.47.67,3.76.79s2.63,0,3.93.12,2.62.55,4,.7a57.66,57.66,0,0,0,7.55,0,14.66,14.66,0,0,1,3.71.59,20.16,20.16,0,0,0,3.64.38c5.64.2,11.24,1,16.89,1.1,2.78.05,5.54-.27,8.31-.36,2.61-.09,5.37.5,8,.09a17.1,17.1,0,0,1,3.56-.6,20.4,20.4,0,0,0,3.82-.26c2.81-.41,5.63-.81,8.47-1a48.74,48.74,0,0,0,7.9-1c2.66-.66,5.41-.51,8.07-1.12,1.16-.27,2.26-.74,3.4-1.08a21.86,21.86,0,0,1,4.33-.71,40.91,40.91,0,0,0,7.7-1.84c5.21-1.57,10.73-3.45,16.2-3.82,3.11-.21,6.29.08,9.4.15,1.5,0,3,0,4.5.13s2.77.65,4.18.81,2.82,0,4.22.07l4.65.12c3.21.08,6.42.27,9.63.4,1,0,1-1.48,0-1.52Z" transform="translate(-54.91 -9.64)"/><path class="cls-1" d="M71.62,196.78l17.23.45a65.62,65.62,0,0,0,7.93.13c1.22-.12,2.42-.41,3.64-.5s2.57,0,3.84-.18,2.34-.45,3.53-.62,2.67-.28,4-.56c1.18-.26,2.33-.62,3.5-.92s2.64-.45,4-.72a79.4,79.4,0,0,1,8-1,64.63,64.63,0,0,0,7.69-1.3c2.64-.59,5.27-1.26,7.93-1.8a78.84,78.84,0,0,1,8-1.07c2.68-.27,5.28-.87,7.94-1.21a52.86,52.86,0,0,0,7.75-1.63,85.67,85.67,0,0,1,16.25-3.24c1.33-.11,2.65-.06,4-.09s2.55-.35,3.83-.49c2.48-.27,4.91-.14,7.36-.71a38,38,0,0,1,5-.64c1.39-.14,2.75-.41,4.13-.65a37.89,37.89,0,0,1,4.52-.21,35.5,35.5,0,0,0,4.25-.53,34.31,34.31,0,0,1,4.75-.38c1.54,0,3-.3,4.54-.49,3.22-.38,6.47-.4,9.7-.46a.76.76,0,0,0,0-1.52c-2.83,0-5.67.08-8.49.34-1.37.13-2.71.39-4.08.53s-2.87.07-4.3.17c-2.59.19-5.09.91-7.7.84s-5.33.67-8,.9-5.36,1-8.08,1.13c-1.18.08-2.38,0-3.56.16s-2.54.47-3.83.5a73.53,73.53,0,0,0-15.83,2.05c-2.69.66-5.32,1.55-8,2.19-2.54.6-5.15.82-7.72,1.31s-5.46.63-8.19,1a74.58,74.58,0,0,0-7.7,1.45,120.65,120.65,0,0,1-16,2.81,27.23,27.23,0,0,0-3.61.35c-1.3.29-2.63.41-3.94.7s-2.33.63-3.5.93a35.45,35.45,0,0,1-4.23.67c-1.47.2-2.92.6-4.4.72s-2.72,0-4.07.22a29.75,29.75,0,0,1-4.09.45c-1.58,0-3.16-.09-4.73-.13l-19.12-.5a.76.76,0,0,0,0,1.52Z" transform="translate(-54.91 -9.64)"/><path class="cls-1" d="M71.42,202.39c5.37,1.39,10.78,1.28,16.28,1.44,2.84.08,5.67.2,8.5.29,2.68.09,5.23-.55,7.91-.46a22.75,22.75,0,0,0,3.59-.36c1.29-.14,2.59,0,3.88-.12a4.66,4.66,0,0,0,1.1-.27,5.7,5.7,0,0,1,2.16-.28,20.65,20.65,0,0,0,3.92-.44,54.88,54.88,0,0,0,7.84-2.27c2.54-.89,5.25-1.51,7.72-2.55,1-.42,1.82-1.13,2.84-1.46,1.26-.4,2.58-.82,3.87-1.13s2.57,0,3.91-.1,2.52-.47,3.85-.48c5.62-.07,11.29.27,16.91.42a34,34,0,0,0,4,0c1.39-.12,2.76-.38,4.15-.44,2.51-.11,5,.34,7.49,0,1.39-.18,2.79-.16,4.19-.21a35.11,35.11,0,0,0,4.07-.52c2.88-.48,5.8-.77,8.7-1.15,6.07-.81,12.1-1.93,18.17-2.74s12.17-1.93,18.33-2.52c1-.09,1-1.61,0-1.52-5.36.52-10.61,1.42-15.93,2.19s-10.69,1.48-16,2.37c-2.87.48-5.75.85-8.64,1.21-2.72.33-5.46,1-8.2,1.14-1.3.07-2.6,0-3.9.14a30.31,30.31,0,0,1-4.15.24c-1.22-.06-2.43-.19-3.65-.17-1.39,0-2.76.26-4.15.41a63.18,63.18,0,0,1-8.14-.05l-8.48-.22a35.14,35.14,0,0,0-7.74.17,31.93,31.93,0,0,1-3.91.12,18.57,18.57,0,0,0-3.72,1,13.91,13.91,0,0,0-3,1.09,17.11,17.11,0,0,1-3.47,1.46c-2.7.86-5.37,1.82-8.07,2.69a32,32,0,0,1-8.14,1.79,10.17,10.17,0,0,0-3.16.3,12.88,12.88,0,0,1-3.83.33c-1.42.06-2.79.46-4.21.42a19.66,19.66,0,0,0-4.13.2c-3,.56-6.22.14-9.31.05-6.37-.18-12.86.13-19.08-1.47a.76.76,0,0,0-.4,1.46Z" transform="translate(-54.91 -9.64)"/><path class="cls-1" d="M211,201a56.27,56.27,0,0,1,12.1-.34c3.93.19,7.86.3,11.79.39a.76.76,0,0,0,0-1.52q-6.14-.13-12.26-.41a55.65,55.65,0,0,0-12,.42c-1,.16-.56,1.62.4,1.46Z" transform="translate(-54.91 -9.64)"/><path d="M236.85,208.34c-1.39-.1-3.29.2-4.63.2-1.6-.29-3.71.07-5.29-.2a20,20,0,0,0-2.18-.15,50.9,50.9,0,0,0-7.2-.3,16.43,16.43,0,0,1-3.49.32c-1.63.06-3.28-.21-4.91-.22a18.49,18.49,0,0,0-3.7-.42,29,29,0,0,0-5.58.48c-1.47.16-4.63,0-6.1.06a61.82,61.82,0,0,0-11.93-.44,54.8,54.8,0,0,1-5.87.44c-1.52-.05-3-.52-4.52-.65-2.11.16-4.21.45-6.32.65-2.35.08-5.37-.12-7.7-.11-1.81-.3-3.55.59-5.32.86a13.77,13.77,0,0,1-2.17-.54l.85-2.55c.16-.61.68-.79.89-1.34.51-.38.77-1.11,1.2-1.63.6-.57,1.49-.48,1.87-1.52a1,1,0,0,1,.21-.34,4.74,4.74,0,0,0,.41-.91c.4-1.07,1.16-.9,1.6-1.81.48-.5.81-1.21,1.36-1.53s1.13-.42,1.56-1c.32-.33.09-.61.43-.86.68-1.26,1.57-.29,2.41-.33.74.26,1.23,0,1.54,1.25.54,1.07,1.63.36,2.17,1.55.34.86.22,1.59,1,2s1.64,1.66,2.64,1.24c1.48-.87,2.82-2.27,4.44-2.61,1-.44,2.48.27,3.32-.94.57-1.72,1.92-2.13,3-3a48.54,48.54,0,0,1,3.92-2.92c1-.74,2.74-3.52,3.77-2.63a.8.8,0,0,0,.76-.3c1.82-.8,4.08-2.07,5.81-.28.09.85.84.8,1.23,1.23,1.17.62,2.24,1.59,3.41,2.23a12.23,12.23,0,0,1,3.82,2.37c1,.52,1.75,1.87,2.79,2.4,1.1,1.39,2.58,1.08,3.82.33.93-.26,1.87.08,2.74-.65,1.84-.9,3.79,2,5.78,1.17,1.18-.21.81,2.16,3.13,3,2.23,2.53,1.77,1.31,3.79,2.17a11.82,11.82,0,0,0,2.82,1.27,29.19,29.19,0,0,0,7,3.11c.12,0,.35.06.41.23s-.06.57,0,.78S236.69,207.88,236.85,208.34Z" transform="translate(-54.91 -9.64)"/><path d="M236.85,208c-1.31-.07-2.61.13-3.92.17s-2.67-.08-4-.07c-2.74,0-5.48-.47-8.23-.54-3-.08-5.89.45-8.87.24s-5.93-.76-9-.49c-1.26.11-2.51.4-3.77.45s-2.22,0-3.32,0c-2.67,0-5.31-.4-8-.5a75.56,75.56,0,0,0-9.39.41,17.91,17.91,0,0,1-4.85-.23,15.08,15.08,0,0,0-4.55-.09,50.33,50.33,0,0,1-5.05.43c-1.46,0-2.92,0-4.38-.09a20.8,20.8,0,0,0-4.1,0c-.76.13-1.49.36-2.24.55A6.25,6.25,0,0,1,150,208l.21.37a11.83,11.83,0,0,1,1.13-3c.5-.71,1-1.49,1.58-2.16s1.44-.75,1.93-1.49a11,11,0,0,1,1.55-2.49c.69-.63,1.14-1.51,1.85-2.11s1.38-.65,1.88-1.31c.32-.43.44-1.26,1.07-1.36a4.53,4.53,0,0,1,1.26.3c.41.09,1,.1,1.29.46s.2.74.57,1.08a1.84,1.84,0,0,0,.57.34,2.12,2.12,0,0,1,1.46,1.47,2.53,2.53,0,0,0,.94,1.46,6,6,0,0,0,2.13,1.34c.72.12,1.27-.37,1.82-.77a10.57,10.57,0,0,1,3.36-1.9,20.17,20.17,0,0,0,2.59-.35c.83-.34.91-1,1.38-1.68a8.55,8.55,0,0,1,2.16-1.76c.95-.72,1.85-1.47,2.84-2.14a12.8,12.8,0,0,0,2-1.55c.59-.6,1.24-1.67,2-2,.53-.23,1,.1,1.6-.14a15,15,0,0,1,3.1-1.28,2.69,2.69,0,0,1,2,.32c.43.3.51.72.84,1.06a15.45,15.45,0,0,0,2.19,1.41c2,1.36,4.14,2.33,6,3.84,1.27,1,2.64,3,4.31,3.36a3.66,3.66,0,0,0,2-.32,29.63,29.63,0,0,0,3-.73c1.95-.93,3.19,1.05,5.11,1.12.51,0,1-.25,1.35.11a3.66,3.66,0,0,1,.48.92,4.91,4.91,0,0,0,1.67,1.66c.7.47,1.18,1.25,1.92,1.67a3.69,3.69,0,0,0,1.26.34,21.47,21.47,0,0,1,2.76,1.19c1.48.54,2.82,1.42,4.25,2.09.56.26,1.13.51,1.71.73s1.8.36,2.12.69.09.49.26.84.75.46,1,.85a.3.3,0,0,0,.52-.31c-.17-.28-.35-.35-.56-.57s-.22-.77-.44-1c-.56-.64-1.75-.7-2.51-1a31.21,31.21,0,0,1-3.8-1.77c-1.21-.66-2.5-1.07-3.71-1.72s-2.33-.56-3.26-1.49a12.61,12.61,0,0,0-.87-.92c-.59-.45-1.07-.52-1.52-1.16a12.15,12.15,0,0,0-.88-1.53,1.05,1.05,0,0,0-1-.34,3.77,3.77,0,0,1-1.53-.05,12.89,12.89,0,0,1-1.59-.76,3.75,3.75,0,0,0-2-.53,3.09,3.09,0,0,0-.85.31,8.7,8.7,0,0,1-2.11.43c-1.1.21-2,1.09-3.16.49a15.14,15.14,0,0,1-2.76-2.49,17.91,17.91,0,0,0-2.35-1.81c-1.09-.68-2.29-1.11-3.35-1.83-.91-.62-1.9-1.19-2.77-1.86-.71-.54-.93-1.25-1.81-1.64-1.82-.8-3.52.39-5.17,1-.56.21-1,0-1.54.18a5.33,5.33,0,0,0-1.75,1.49c-1.44,1.57-3.27,2.55-4.88,3.91-.7.6-1.52,1-2.2,1.65s-1,2-1.95,2.24-1.8.07-2.69.36a11.28,11.28,0,0,0-3,1.75c-.77.56-1.5,1-2.42.32-.28-.21-.56-.42-.83-.64a2.7,2.7,0,0,1-1-1.52,2.2,2.2,0,0,0-.51-1,1.69,1.69,0,0,0-.69-.42,2.93,2.93,0,0,1-1.32-1.18,1.75,1.75,0,0,0-1.31-.8,5.18,5.18,0,0,0-2.15-.36c-1,.28-1.08,1.65-1.91,2.12a6.58,6.58,0,0,0-2.25,2,11.24,11.24,0,0,0-1.79,2.22,4,4,0,0,1-1.09,1.63c-.31.21-.69.3-1,.53a3.94,3.94,0,0,0-.83,1.1c-.34.51-.8.95-1.15,1.46a11.91,11.91,0,0,0-1.25,3.26.3.3,0,0,0,.21.37,6.17,6.17,0,0,0,3.55.28,15.59,15.59,0,0,1,4.39-.59,62.13,62.13,0,0,0,8.3,0c1.46-.15,2.92-.33,4.38-.46a25.18,25.18,0,0,1,4.81.51c3.1.31,6.3-.45,9.41-.49,5.07-.07,10.19,1.06,15.25.47,1.53-.17,3-.45,4.56-.47s3.23.31,4.87.43c1.4.1,2.82.22,4.23.23s2.91-.27,4.39-.34a80.47,80.47,0,0,1,9.69.54c1.54.11,3.16.09,4.7.11s3-.27,4.46-.19C237.24,208.67,237.24,208.06,236.85,208Z" transform="translate(-54.91 -9.64)"/><path class="cls-2" d="M189.67,190.86c.8-.22,4.68-1,4.86-.09.12.59-1.33,1.12-1.69,1.51-.2.22-.26.24-.3.52a.25.25,0,0,0,.13.22,7.13,7.13,0,0,0,2.45.43c.49.07,2.32-.16,2.45.32a.15.15,0,0,0,.12.12c.48.12,1-.11,1.18.37,0,.08-.06.47,0,.61s.34.12.37.2c.3.63.17.26-.15.69-.17.24-.44.4-.57.67-.92,1.88,2.5,1.15,3.31,1.07,1.33-.14,2.66-.1,4-.13a3.56,3.56,0,0,1,.72,0c.07.2-.54.6-.64.69a5.32,5.32,0,0,0-1.21,1.25c-.25.39-.64,1.24-.08,1.57s2-.63,2.38-.79a18.53,18.53,0,0,1,4.76-1.11c.72-.08,1.41-.12,2.14-.14s1-.18,1.57.65c0,0,.23.62.23.64a4.49,4.49,0,0,0,2.24,2.16c1.45.63,3.06.25,4.56.58,1.25.27,1.86,1.29,3.14,1.55a15.33,15.33,0,0,0,1.66.19,5.08,5.08,0,0,1,.77.08c.6.7-.45.66-.7.72a28,28,0,0,1-4.71.84,7.5,7.5,0,0,1-1.06,0h-.37c-.36-.08-.52-.28-.46-.58-.19-.3-.17-.58-.5-.84-.68-.57-1.69-.09-2.44.13a11.59,11.59,0,0,1-1.56.29c-.58.08-.7.38-.78-.28,0-.43.38-.67.26-1.07-.2-.65-1.35-1-2-1a12.69,12.69,0,0,0-2.05.55c-.93.22-1.84.53-2.76.8a.18.18,0,0,0,.09.34c1.06-.3,2.1-.59,3.16-.86a3.59,3.59,0,0,1,2.35-.21c.48.19.52.55.37,1-.45,1.33.22,1.37,1.44,1.16.9-.16,2.65-1,3.44-.6.63.34.32,1,.73,1.37s1.44.13,1.93.12a15.76,15.76,0,0,0,3.2-.48c.59-.14,1.16-.33,1.75-.44.22,0,.85,0,1-.16a.53.53,0,0,0,.13-.75c-.54-1-2.58-.61-3.47-1s-1.34-1.16-2.31-1.44a21.66,21.66,0,0,0-3.32-.28,4,4,0,0,1-3.32-2.23c-.32-.67-.37-1.29-1.16-1.53a9.18,9.18,0,0,0-3.3.1,20,20,0,0,0-3.67.71,11.44,11.44,0,0,0-1.47.57c-.2.09-1.28.81-1.53.73-.88-.3,1.94-2.73,2.14-3a.24.24,0,0,0,0-.28,1.54,1.54,0,0,0-1.1-.2l-2.36,0c-1,0-1.91.14-2.87.21-.68.05-2.68.3-1.52-.91.49-.52,1.17-.89.54-1.54-.25-.25-.35.14-.52-.29,0-.11.17-.43.12-.6s-.29-.34-.58-.39-.66.29-1,.15c-.07,0,0-.26-.12-.29a4.91,4.91,0,0,0-1.73-.16c-.17,0-2.77-.38-2.77-.4,0-.21,1.21-1,1.42-1.22.57-.67.79-1.45-.24-1.66a9.51,9.51,0,0,0-2.61.11,13.27,13.27,0,0,0-2.33.43.26.26,0,0,0,.14.5Z" transform="translate(-54.91 -9.64)"/><path class="cls-2" d="M193.93,194.51h-.07a.25.25,0,0,0,0,.49l1.57,0a9,9,0,0,1,1.37,0l-.13-.17c0,.33-.7.68-1,.83s-.78.39-.75.78a.16.16,0,0,0,.11.15,4.31,4.31,0,0,0,1,0,6.24,6.24,0,0,1,1.12-.14l-.07-.19c-.14.29-.43.43-.63.67a2.28,2.28,0,0,0-.52.68c-.14.36.13.57.45.66a16.43,16.43,0,0,0,1.84.31c.37.07.73.19,1.1.23a2.59,2.59,0,0,0,1-.08.08.08,0,0,0,0-.15,6.45,6.45,0,0,0-.76,0c-.33,0-.65-.15-1-.22-.57-.13-1.16-.16-1.74-.26a3.34,3.34,0,0,1-.43-.1c-.33-.11-.15-.35,0-.55a4.27,4.27,0,0,1,.5-.54,1.94,1.94,0,0,0,.42-.48c0-.06,0-.17-.08-.18a3.36,3.36,0,0,0-1,.08,4.18,4.18,0,0,1-1.06,0l.12.15c0-.21.36-.36.51-.45l.47-.28c.32-.2.79-.45.78-.88a.18.18,0,0,0-.13-.17,6.69,6.69,0,0,0-1.34-.06l-1.7,0a.25.25,0,0,0,0,.49h.07a.25.25,0,0,0,0-.49Z" transform="translate(-54.91 -9.64)"/><path class="cls-2" d="M191.16,204c1.11-.2,2.22-.33,3.34-.47a2.82,2.82,0,0,1,.95-.09c.78.43-.18.75-.56,1s-2.42,1-2,1.74c.23.42,1.09.27,1.43.24s.83-.14,1.25-.16a1.6,1.6,0,0,1,.38,0c.2,0,.19,0,0,.17s-.4.3-.22.61.88.15,1.1.12a4.88,4.88,0,0,1,.86-.19c.19.06.38.48.52.55.36.18.31.13.78,0a44.07,44.07,0,0,1,5.8-1.15c3.95-.41,7.87-1,11.84-1.05a.38.38,0,0,0,0-.76,40.47,40.47,0,0,0-6.4.56c-2,.27-3.92.5-5.88.79a21.61,21.61,0,0,0-3.29.69c-.67.2-2.1.91-2.67.53-.26-.17,0-.37-.5-.42s-2.45.53-1.46-.4a.13.13,0,0,0,0-.18.83.83,0,0,0-.59-.2c-.52,0-1.6.41-1.94.14-.73-.57,1.11-1.25,1.5-1.51s.81-.47.89-.81c.31-1.37-4.69-.08-5.18,0-.16,0-.09.26.06.23Z" transform="translate(-54.91 -9.64)"/><path class="cls-2" d="M197.12,204.9a.69.69,0,0,0,0,.13v0a.12.12,0,0,0,0,.12.23.23,0,0,0,.21,0,.28.28,0,0,0,.16-.12h-.3a.64.64,0,0,0,.1.13.35.35,0,0,0,.24.08.36.36,0,0,0,.32-.17.34.34,0,0,0,0-.22.8.8,0,0,0-.08-.16.36.36,0,0,0-.3-.18.55.55,0,0,0-.48.4.5.5,0,0,0,0,.36c.08.13.29.08.41,0a1.18,1.18,0,0,0,.35-.23.7.7,0,0,0,.2-.33.15.15,0,0,0-.11-.18,1.45,1.45,0,0,0-.3,0l-.16,0a.23.23,0,0,0-.14,0,.09.09,0,0,0,0,.17.22.22,0,0,0,.16,0s0,0,0,0,0,0,0,0h.23s0,0,0,0h.08l-.1-.18,0,0s0,0,0,0v0l0,0v0h0l0,0-.05,0,0,0h0l0,0-.1.06-.05,0s0,0,0,0l0,0-.1,0h0l.09.07c0,.05,0,0,0,0v0h0v0s0,0,0-.06h0v0l0-.05s0,0,0,0l0,0,0,0h0s0,0,0,0l.05,0h.08s0,0,0,0h0l0,0s0,0,0,0h0v0s0,0,0,0v0s0,0,0,0h0s0,0,0,0h0s0,0,0,0h0s0,0,0,0h0s-.05,0,0,0l-.12,0h0a.17.17,0,0,0-.18,0,.16.16,0,0,0-.08.14v0s0,0,0,0,0,0,0,0h0s0,0,0,0,0,0,0,0,0,0,0,0h0l.12,0h0v0l0-.07a.11.11,0,0,0-.12,0,.11.11,0,0,0,0,.12Z" transform="translate(-54.91 -9.64)"/><path class="cls-2" d="M198.51,203.83a1.22,1.22,0,0,1,.45.91.94.94,0,0,1-.11.52c-.07.14-.25.38-.14.54a.1.1,0,0,0,.1,0c.1,0,.17-.15.22-.23l.15-.25a1.44,1.44,0,0,0,.15-.68,1.53,1.53,0,0,0-.57-1.19.21.21,0,0,0-.31,0,.2.2,0,0,0,.06.31Z" transform="translate(-54.91 -9.64)"/><path class="cls-2" d="M199.55,203.32c.11.44.59.6.78,1a.6.6,0,0,1-.09.63,1.28,1.28,0,0,0-.35.63c0,.1.15.18.21.09l.23-.28a1.48,1.48,0,0,0,.25-.3.94.94,0,0,0,.1-.83,1.14,1.14,0,0,0-.47-.55c-.16-.12-.36-.24-.43-.44s-.26-.08-.23.06Z" transform="translate(-54.91 -9.64)"/><path class="cls-2" d="M195.59,199.57c.8.12,1.6.21,2.39.36.38.06.75.13,1.13.18a2.2,2.2,0,0,0,1.14-.05.12.12,0,0,0,0-.2,3.56,3.56,0,0,0-1.08-.2l-1.19-.18a7.76,7.76,0,0,0-2.35-.19c-.14,0-.22.26,0,.28Z" transform="translate(-54.91 -9.64)"/><path class="cls-2" d="M201.07,196.16a1.35,1.35,0,0,0,.53,0,.24.24,0,0,0,.11-.06.22.22,0,0,0,0-.08.26.26,0,0,0,0-.21.55.55,0,0,0-.19-.18l-.12-.05h-.18l-.1,0-.09.05a.47.47,0,0,0-.16.18.36.36,0,0,0,0,.11.54.54,0,0,0,0,.18,0,0,0,0,0,0,0,.2.2,0,0,0,.15.16l.08,0a.66.66,0,0,0,.46,0,.43.43,0,0,0,.19-.23.26.26,0,0,0,0-.15.31.31,0,0,0-.09-.11l-.11-.12a.17.17,0,0,0-.18,0,.18.18,0,0,0-.11.08.5.5,0,0,0,0,.12.54.54,0,0,0,.05.11l.16.17-.05-.18s0,0,0,0v0s0,0,0,.05l0,0,0,0,0,0,0,0,0,0-.08,0h0l-.17,0,.05,0,0,0,.09.12h0v0s0,0,0-.06l0,0,0,0,0,0,0,0,0,0,.06,0,0,0,.07,0h0l.07,0-.06,0,.05,0-.05,0,0,.05,0-.05,0,0,.14-.34-.16,0h-.25a.28.28,0,0,0-.17.07.21.21,0,0,0-.06.17.24.24,0,0,0,.23.23Z" transform="translate(-54.91 -9.64)"/><path d="M158.27,208.34c-1.39-.1-3.29.2-4.63.2-1.6-.29-3.71.07-5.3-.2a19.79,19.79,0,0,0-2.18-.15,50.69,50.69,0,0,0-7.19-.3,16.43,16.43,0,0,1-3.49.32c-1.64.06-3.29-.21-4.91-.22a18.57,18.57,0,0,0-3.7-.42,29,29,0,0,0-5.58.48c-1.47.16-4.64,0-6.1.06a61.82,61.82,0,0,0-11.93-.44,54.8,54.8,0,0,1-5.87.44c-1.52-.05-3-.52-4.52-.65-2.11.16-4.21.45-6.33.65-2.34.08-5.36-.12-7.69-.11-1.81-.3-3.55.59-5.33.86a13.93,13.93,0,0,1-2.16-.54l.84-2.55c.17-.61.69-.79.9-1.34.5-.38.77-1.11,1.2-1.63.6-.57,1.48-.48,1.87-1.52a.79.79,0,0,1,.21-.34,4.74,4.74,0,0,0,.41-.91c.39-1.07,1.16-.9,1.6-1.81.48-.5.81-1.21,1.36-1.53s1.13-.42,1.56-1c.32-.33.09-.61.43-.86.67-1.26,1.57-.29,2.41-.33.74.26,1.23,0,1.54,1.25.54,1.07,1.63.36,2.16,1.55.35.86.23,1.59,1,2s1.64,1.66,2.64,1.24c1.48-.87,2.82-2.27,4.44-2.61,1-.44,2.48.27,3.32-.94.57-1.72,1.92-2.13,3-3a46.84,46.84,0,0,1,3.92-2.92c1-.74,2.74-3.52,3.77-2.63a.8.8,0,0,0,.76-.3c1.82-.8,4.07-2.07,5.81-.28.09.85.84.8,1.23,1.23,1.17.62,2.24,1.59,3.4,2.23a12.28,12.28,0,0,1,3.83,2.37c1,.52,1.75,1.87,2.79,2.4,1.1,1.39,2.58,1.08,3.82.33.93-.26,1.87.08,2.74-.65,1.84-.9,3.79,2,5.78,1.17,1.18-.21.81,2.16,3.13,3,2.23,2.53,1.77,1.31,3.79,2.17a11.82,11.82,0,0,0,2.82,1.27,29,29,0,0,0,7,3.11c.12,0,.35.06.41.23s-.06.57.05.78S158.11,207.88,158.27,208.34Z" transform="translate(-54.91 -9.64)"/><path d="M158.27,208c-1.32-.07-2.61.13-3.92.17s-2.67-.08-4-.07c-2.74,0-5.48-.47-8.23-.54-3-.08-5.89.45-8.88.24s-5.92-.76-8.94-.49c-1.26.11-2.51.4-3.77.45-1.11,0-2.22,0-3.32,0-2.67,0-5.31-.4-8-.5a75.48,75.48,0,0,0-9.39.41,18,18,0,0,1-4.86-.23,15,15,0,0,0-4.54-.09,50.33,50.33,0,0,1-5,.43c-1.46,0-2.92,0-4.38-.09a20.8,20.8,0,0,0-4.1,0c-.76.13-1.5.36-2.24.55a6.24,6.24,0,0,1-3.23-.27l.21.37a11.12,11.12,0,0,1,1.13-3c.5-.71,1-1.49,1.58-2.16s1.44-.75,1.93-1.49a10.7,10.7,0,0,1,1.55-2.49c.68-.63,1.14-1.51,1.84-2.11s1.39-.65,1.89-1.31c.32-.43.44-1.26,1.07-1.36a4.53,4.53,0,0,1,1.26.3c.41.09,1,.1,1.29.46s.2.74.56,1.08a1.88,1.88,0,0,0,.58.34,2.12,2.12,0,0,1,1.46,1.47,2.53,2.53,0,0,0,.94,1.46,6,6,0,0,0,2.13,1.34c.72.12,1.27-.37,1.82-.77a10.46,10.46,0,0,1,3.36-1.9,20.17,20.17,0,0,0,2.59-.35c.83-.34.91-1,1.37-1.68a8.78,8.78,0,0,1,2.17-1.76c1-.72,1.85-1.47,2.84-2.14a12.8,12.8,0,0,0,2-1.55c.59-.6,1.24-1.67,2-2,.53-.23,1,.1,1.6-.14a14.78,14.78,0,0,1,3.1-1.28,2.69,2.69,0,0,1,2,.32c.42.3.51.72.84,1.06a15.45,15.45,0,0,0,2.19,1.41c2,1.36,4.14,2.33,6,3.84,1.27,1,2.64,3,4.31,3.36a3.61,3.61,0,0,0,2-.32,29.82,29.82,0,0,0,3-.73c2-.93,3.19,1.05,5.11,1.12.5,0,.95-.25,1.35.11a4,4,0,0,1,.48.92,5,5,0,0,0,1.66,1.66c.71.47,1.19,1.25,1.93,1.67a3.63,3.63,0,0,0,1.26.34,20.76,20.76,0,0,1,2.75,1.19c1.49.54,2.83,1.42,4.26,2.09.56.26,1.13.51,1.71.73s1.8.36,2.12.69.09.49.26.84.75.46,1,.85a.3.3,0,0,0,.52-.31c-.17-.28-.36-.35-.56-.57s-.22-.77-.45-1c-.55-.64-1.74-.7-2.5-1a31.21,31.21,0,0,1-3.8-1.77c-1.21-.66-2.51-1.07-3.71-1.72s-2.33-.56-3.26-1.49a12.61,12.61,0,0,0-.87-.92c-.59-.45-1.07-.52-1.52-1.16A11.09,11.09,0,0,0,141,197a1,1,0,0,0-.95-.34,3.77,3.77,0,0,1-1.53-.05,13.76,13.76,0,0,1-1.6-.76,3.69,3.69,0,0,0-2-.53,3.09,3.09,0,0,0-.85.31,8.7,8.7,0,0,1-2.11.43c-1.1.21-2,1.09-3.17.49a15.08,15.08,0,0,1-2.75-2.49,17.91,17.91,0,0,0-2.35-1.81c-1.09-.68-2.29-1.11-3.35-1.83-.91-.62-1.91-1.19-2.78-1.86-.7-.54-.92-1.25-1.81-1.64-1.81-.8-3.51.39-5.16,1-.56.21-1,0-1.54.18a5.33,5.33,0,0,0-1.75,1.49c-1.44,1.57-3.28,2.55-4.89,3.91-.7.6-1.51,1-2.2,1.65s-1,2-1.94,2.24-1.8.07-2.69.36a11.28,11.28,0,0,0-3,1.75c-.78.56-1.51,1-2.43.32l-.82-.64a2.65,2.65,0,0,1-1-1.52,2.31,2.31,0,0,0-.51-1,1.69,1.69,0,0,0-.69-.42,2.83,2.83,0,0,1-1.32-1.18,1.75,1.75,0,0,0-1.31-.8,5.18,5.18,0,0,0-2.15-.36c-1,.28-1.08,1.65-1.91,2.12a6.71,6.71,0,0,0-2.26,2,11.19,11.19,0,0,0-1.78,2.22,4,4,0,0,1-1.09,1.63c-.31.21-.69.3-1,.53a4.1,4.1,0,0,0-.82,1.1c-.35.51-.8.95-1.15,1.46a11.91,11.91,0,0,0-1.25,3.26.29.29,0,0,0,.21.37,6.17,6.17,0,0,0,3.55.28,15.54,15.54,0,0,1,4.39-.59,62.13,62.13,0,0,0,8.3,0c1.46-.15,2.92-.33,4.38-.46a25.18,25.18,0,0,1,4.81.51c3.1.31,6.29-.45,9.41-.49,5.06-.07,10.19,1.06,15.25.47,1.53-.17,3-.45,4.56-.47s3.22.31,4.86.43c1.41.1,2.83.22,4.24.23s2.91-.27,4.39-.34a80.47,80.47,0,0,1,9.69.54c1.54.11,3.16.09,4.7.11s3-.27,4.46-.19C158.66,208.67,158.66,208.06,158.27,208Z" transform="translate(-54.91 -9.64)"/><path d="M86,210.26c-1.37.19-2.75.38-4.13.53a5.62,5.62,0,0,0-2.27.59.22.22,0,0,0-.07.27c.19.28.6.21.89.21a26.75,26.75,0,0,1,4,.22c.44.07,1.39,0,1.7.27.1.09.17-.08-.06,0a2,2,0,0,1-.64.1c-.81.1-1.63.11-2.45.16-2.57.16-5.14.21-7.71.44a32.87,32.87,0,0,0-3.42.54,2.45,2.45,0,0,0-1.76.82.29.29,0,0,0,.1.37,5.17,5.17,0,0,0,2.47.5c1.18.09,2.35.14,3.53.19,2.47.09,5,.1,7.41.13,5,.06,10,.14,15,.45,1.22.08,2.42.15,3.63.29a15.17,15.17,0,0,0,3.45.33c.31,0-.19,0-.25,0a1.53,1.53,0,0,0-.36.07c-.29.06-.58.09-.86.14-1.36.22-2.7.46-4.06.61-5,.54-10,1.09-15,1.77-2.84.39-5.68.83-8.51,1.28-1.32.21-2.65.39-4,.66a10.61,10.61,0,0,0-3,.79.42.42,0,0,0,0,.72,3.73,3.73,0,0,0,1.9.41c1.25.12,2.51.15,3.76.2,2.79.12,5.58.14,8.37.13q3.8,0,7.59.26a5.29,5.29,0,0,0,.56.05l.42.07,0-.41a3.75,3.75,0,0,0-.83.26c-.36.11-.83.18-1,.53a.38.38,0,0,0,0,.4c.34.49,1.26.47,1.79.52,1.53.17,3.07.11,4.6.25.37,0,1.72,0,1.81.45,0,.19-.52.64-.44,1,.16.83,1.53,1,2.18,1.09,2.86.5,5.93.28,8.62,1.54l1.86.87c.23.11,1.38.53,1.29.91a4.55,4.55,0,0,1-1,.39,30.66,30.66,0,0,1-5,.94c-6.86,1.05-13.77,1.91-20.67,2.69-6.24.7-12.49,1.16-18.67,2.2-.72.12-5.61.66-4.77,2.38.36.73,2.09.92,2.76,1a39.38,39.38,0,0,0,4.59.44c7.11.24,14.21.21,21.32.21,6.73,0,13.44-.15,20.17.15,1.76.08,3.51.19,5.26.36a17,17,0,0,1,4.88.77c.76.32-.11.28-.54.36a27,27,0,0,1-2.7.37c-1.72.17-3.43.38-5.15.56-7.35.79-14.68,1.64-22,2.66-3.44.48-6.82,1.23-10.28,1.6-3.73.41-7.47.74-11.23,1-.6,0-.6,1,0,.94,3.9-.19,7.78-.48,11.65-.94,3.68-.44,7.29-1.23,11-1.71q11.83-1.53,23.68-2.92c.76-.09,7.76-.27,7.08-2-.36-.93-2.67-1-3.47-1.16a52.6,52.6,0,0,0-5.74-.56c-8.17-.51-16.37-.29-24.56-.29-4.18,0-8.37.06-12.56,0-2.11,0-4.21-.13-6.32-.21a25.84,25.84,0,0,1-5.88-.64c-.2-.05-.92-.2-.84-.54s1.34-.48,1.48-.51c1-.26,1.9-.39,2.86-.57,1.82-.34,3.64-.51,5.47-.76,3.86-.51,7.75-.8,11.62-1.22,8-.85,16-1.77,23.84-3.15a25.76,25.76,0,0,0,2.75-.56,4.11,4.11,0,0,0,1.71-.78c.79-.92-.54-1.63-1.21-2a23.81,23.81,0,0,0-4.4-1.84,43.22,43.22,0,0,0-5.2-.66,7.74,7.74,0,0,1-2.41-.37c-.86-.44-.14-.65-.13-1.25,0-1-1.63-1-2.32-1.06-1.81-.19-3.65-.1-5.46-.35-.11,0-.62-.17-.7-.11s.08.42.11.43.3-.1.39-.13a4,4,0,0,0,1.12-.37c.43-.3.43-.7,0-1a4,4,0,0,0-1.5-.22c-.93-.06-1.88-.09-2.82-.14-4.25-.21-8.52-.1-12.78-.27l-3.1-.14A5.28,5.28,0,0,1,70,222v.72a11,11,0,0,1,3.17-.78c1.25-.23,2.52-.41,3.78-.61l8.27-1.27c5.48-.82,11-1.24,16.51-2,1-.13,2-.33,2.94-.49.47-.08,1.3-.09,1.64-.49.88-1.06-1.82-1.3-2.3-1.35-5.14-.59-10.32-.64-15.49-.76-2.85-.06-5.71-.09-8.56-.15-1.55,0-3.1,0-4.65-.1-.76,0-1.51,0-2.27-.07a6.53,6.53,0,0,1-2.66-.34l.1.37c.38-.7,2-.81,2.76-.94a26.44,26.44,0,0,1,2.8-.35c1.75-.16,3.52-.27,5.27-.33,1.27,0,2.56,0,3.82-.17.46,0,1.3,0,1.59-.44a.2.2,0,0,0,0-.21c-.25-.46-1.18-.43-1.62-.48a37.42,37.42,0,0,0-4.36-.3h-.5c-.29,0-.17.11-.09.07a5.31,5.31,0,0,1,1.84-.38c1.34-.13,2.67-.3,4-.47a.23.23,0,1,0-.06-.45Z" transform="translate(-54.91 -9.64)"/><path d="M136.75,210.89c-1.25,0-2.49,0-3.74.11a2.08,2.08,0,0,0-1.11.23.22.22,0,0,0,0,.31c.67.73,3.15.34,4,.36,1.6,0,3.2,0,4.8.09.32,0,.64,0,1,.09s.9,0,.47,0c-1.09.1-2.2.1-3.29.15-2.36.11-4.72.27-7.08.43a50.65,50.65,0,0,0-6,.59c-.36.07-1.56.28-1,.84s2.24.31,2.89.35c1.87.1,3.75.11,5.63.2.18,0,1.35.15,1.35.14.06-.17-.78.07-.91.1-1.16.24-2.36.44-3.54.58-1.37.16-2.74.29-4.1.46a5.81,5.81,0,0,0-2.38.51c-.07.05-.15.14-.13.23.08.67,1.16.69,1.67.77,1.38.21,2.74.42,4.13.53,3.64.29,7.3.52,10.95.63s7.35.24,11,.43c.9.05,1.79.11,2.69.18.74,0,1.59.28,2.31.26l.19-.22-.37.09a5,5,0,0,0-.88.13c-.64.08-1.28.13-1.91.18-7,.64-13.92,1.56-20.91,2s-14.29.71-21.37,1.58c-.61.07-2.3.07-2.26,1s2.12.94,2.76,1c2.06.18,4.12.3,6.18.42l2.71.1A7.62,7.62,0,0,1,123,226l-.19-.46c0,.09-2.31.48-2.53.59-.46.24-.79.68-.42,1.16.51.65,2,.55,2.73.57a20.05,20.05,0,0,0,2,.06c.23,0,.3-.1.36-.06s0,.27.1.34a3.39,3.39,0,0,0,1.91.69c1.34.19,2.71.24,4,.4,3.11.35,6.26.47,9.38.76,13.17,1.19,26.43.7,39.62,1.08,6.49.19,13,.18,19.46.41a73.14,73.14,0,0,1,9.36.55c.26.05.51.13.77.19s.39-.11,0,0-.8.19-1.21.26c-1.26.2-2.53.3-3.79.45-6.31.75-12.74.87-19.07,1-6.5.16-13,.47-19.5.71-7.18.25-14.37.64-21.55.84-3.62.11-7.24.35-10.85.62-1.64.12-3.26.27-4.88.49-.94.13-2.56.19-3.18,1a.35.35,0,0,0,0,.41c.41.46,1,.42,1.61.49.93.12,1.85.19,2.79.24,2.27.1,4.56,0,6.83,0,4.52,0,9-.07,13.56-.21,4.71-.15,9.45-.15,14.17-.12,2.38,0,4.77-.07,7.15-.09,1,0,2,0,2.93,0s2.92-.24,3.75.35v-.52a7.38,7.38,0,0,1-2.82.42l-2.61.18c-1.83.11-3.68.18-5.51.32-1.58.12-3.18.19-4.76.36-.49,0-1.53,0-1.86.44a.3.3,0,0,0,0,.43c.32.31,1,.21,1.41.23,1.55.07,3.09.05,4.64.05h9.35c6,0,11.92-.14,17.88-.13,12.08,0,24.16-.11,36.24.52a87,87,0,0,1,8.83.81,34.73,34.73,0,0,1,3.5.79c.33.09,1.23.21.88.86-.08.15-.78.29-.92.33a15.19,15.19,0,0,1-2.41.42c-5.93.69-12,.94-17.9,1.29-11.91.7-23.82,1.31-35.73,2-6.55.38-13.1.76-19.64,1.22-3.24.23-6.49.43-9.71.78a90.69,90.69,0,0,1-9.86.76.4.4,0,0,0,0,.79c2.95,0,5.95-.42,8.89-.67,3.1-.26,6.19-.54,9.29-.77,6.09-.45,12.19-.92,18.29-1.18,12.33-.52,24.66-1.36,37-2.08,6.16-.37,12.31-.79,18.46-1.35,1-.09,5.23-.24,5.22-1.75,0-.55-.8-1-1.21-1.12a22.4,22.4,0,0,0-4-.91A146.77,146.77,0,0,0,221.81,240c-6.36-.21-12.74-.23-19.1-.23-7,0-14,.07-21,.15-3.57,0-7.14,0-10.71,0h-5.27c-.85,0-1.7,0-2.55,0a6.72,6.72,0,0,1-1.92-.09v.43c.39-.48,2.74-.37,3.26-.4,1.75-.12,3.49-.29,5.24-.35s3.31-.18,4.95-.31c1.15-.09,3,.06,4-.57a.31.31,0,0,0,0-.52,4.7,4.7,0,0,0-2.27-.37c-1-.06-2-.07-3.06-.06-2.28,0-4.56.1-6.85.09-4.65,0-9.3,0-14,0-4.5,0-9,.23-13.52.25-2.28,0-4.56,0-6.83,0q-1.53,0-3.06-.09c-.71,0-2.58.06-3.07-.48l0,.4c.37-.48,2-.59,2.6-.67s1.45-.22,2.18-.29c1.46-.12,2.93-.25,4.39-.34,3.21-.2,6.42-.42,9.63-.51,6.41-.18,12.81-.61,19.22-.8s13-.59,19.53-.74,12.79-.44,19.18-.92a35.64,35.64,0,0,0,6.68-.79c1.3-.36,1-1.14-.2-1.4-2.7-.62-5.68-.48-8.42-.6-3.31-.14-6.62-.22-9.93-.3-13.05-.33-26.1-.2-39.15-.62-7.24-.23-14.5-.76-21.71-1.5-.69-.08-1.38-.11-2.07-.19a5,5,0,0,1-2.23-.43c-.15-.14-.1-.36-.28-.54s-.79-.16-1.1-.17c-.85,0-1.72-.06-2.58-.13a3,3,0,0,1-1-.12c-.34-.25.63-.27.82-.32.46-.12,1.72-.27,1.85-.85a.42.42,0,0,0-.19-.46c-1-.47-2.63-.25-3.73-.26-2,0-4-.18-6-.36-1-.09-2-.16-2.93-.27-.27,0-1.25,0-.58-.13a15,15,0,0,1,1.5-.21c2-.23,4-.41,6-.58,7.94-.66,15.9-.91,23.81-1.8,4-.45,7.93-.9,11.89-1.3.45-.05,4.58-.14,3.7-1.25-.56-.71-2.93-.52-3.71-.57-2-.14-4.06-.2-6.08-.27-4.24-.15-8.49-.25-12.72-.51-2.12-.13-4.24-.2-6.35-.41-1-.09-1.92-.28-2.88-.42-.14,0-1-.08-1.1-.22.06.14.59,0,.81-.07,2.15-.38,4.34-.45,6.49-.82.9-.15,3-.18,3.72-.89a.27.27,0,0,0,0-.31c-.23-.43-1.21-.39-1.61-.42-1.32-.1-2.67-.14-4-.16-.91,0-1.83,0-2.74-.1-.4,0-.79-.05-1.18-.1l-.58-.08c-.32,0,.29.06.38.06,1.26,0,2.66-.38,4-.5,1.54-.16,3.1-.21,4.64-.36s3.13-.28,4.7-.37a16.94,16.94,0,0,0,3.77-.29.12.12,0,0,0,.09-.09v0a.12.12,0,0,0,0-.13c-.36-.33-1.28-.25-1.72-.27-1-.06-1.92-.06-2.88-.1-1.68-.06-3.39-.09-5.07-.28a3.45,3.45,0,0,1-.55-.07c-.19-.06-.14,0,.14.14a9,9,0,0,0,.91-.08c1.1-.09,2.19-.08,3.29-.08a.21.21,0,0,0,0-.42Z" transform="translate(-54.91 -9.64)"/><path d="M133.29,223.39c-1.14,0-2.32.07-3.46.13s-2.24.17-3.36.23-2.19.13-3.28.22a12.82,12.82,0,0,0-2.69.3.16.16,0,0,0-.1.24c.12.17.38.16.56.18.5.05,1,.05,1.5.06,1,0,1.92,0,2.89,0s1.88,0,2.83.08c.51,0,1,0,1.52.09.17,0,.44.1.47,0-.06.11-.45.16-.55.18-.86.18-1.74.27-2.6.46s-1.63.44-2.44.57c-.27,0-.16.46.11.41,1-.16,1.94-.5,2.92-.64.45-.06.88-.19,1.33-.27a4.94,4.94,0,0,0,1.27-.26c.29-.13.61-.41.3-.7a1.24,1.24,0,0,0-.71-.18c-.54,0-1.08,0-1.62-.06-1.45-.08-2.89-.07-4.34-.05-.64,0-1.27,0-1.91,0-.26,0-.53,0-.79,0-.11,0-.24,0-.35,0s-.17-.08-.1,0l-.1.25a13.28,13.28,0,0,1,3.09-.3c1-.07,2.08-.1,3.12-.17,2.17-.14,4.38-.14,6.53-.47.15,0,.1-.25,0-.26Z" transform="translate(-54.91 -9.64)"/><path d="M132.26,216.92l.13.07c.17.1.31-.16.15-.27a1.05,1.05,0,0,0-.72-.08,1,1,0,0,0-.56.19.23.23,0,0,0,0,.36,1.28,1.28,0,0,0,.61.11c.26,0,.52,0,.78,0l.32,0a.89.89,0,0,0,.39-.12.24.24,0,0,0,0-.37.76.76,0,0,0-.39-.13,3.5,3.5,0,0,0-1,0c-.2,0-.56.07-.55.34s.43.34.64.35a4.26,4.26,0,0,0,.8,0c.26,0,1.15-.07,1-.54,0-.16-.21-.23-.36-.27a3.55,3.55,0,0,0-.57-.07,4,4,0,0,0-.6,0,3.08,3.08,0,0,0-.53.08c-.23.08-.47.3-.31.56s.39.21.59.23a2.5,2.5,0,0,0,.67,0c.23-.06.5-.21.46-.49s-.35-.33-.58-.34a3.35,3.35,0,0,0-.71,0,2.27,2.27,0,0,0-.3.06.29.29,0,1,0,.15.57l.18,0h0l.14,0a3.2,3.2,0,0,1,.44,0h.14c.06,0-.05,0,0,0l.07,0h0s0,0,0,0a.28.28,0,0,1,0-.3c.05-.07.05-.05,0,0l0,0h0c-.05,0,.07,0,0,0l-.09,0-.09,0h0c.08,0,0,0,0,0H132s.07,0,0,0a.28.28,0,0,1,.09.35l0,0c-.07.06,0,0,0,0s-.05,0,0,0l.05,0,.14,0h.07s-.08,0,0,0h0l.2,0,.41,0h.6c.07,0-.06,0,0,0h0c.06,0,0,0,0,0s-.05-.05-.06-.06a.25.25,0,0,1,0-.21c0-.06,0-.05,0,0s0,0,0,0l-.05,0-.05,0c.06,0,0,0,0,0a4,4,0,0,1-1,.12h-.33s-.07,0,0,0l-.15,0-.06,0h0l.06.06c0,.11,0,.18-.05.23h0s0,0,0,0h0l.12,0a3.36,3.36,0,0,1,1,0l.1,0h0s0-.05,0,0l0-.1a.14.14,0,0,1,.05-.12s0,0,0,0h0l-.16,0s-.11,0,0,0h-.13l-.51,0h-.76c-.07,0,0,0,0,0l.05.35c-.05,0,0,0,0,0a.38.38,0,0,1,.1,0l.23,0a1.44,1.44,0,0,0,.62-.09l-.15-.27-.13.06a.08.08,0,0,0,0,.14Z" transform="translate(-54.91 -9.64)"/><path d="M153.8,221.5h0l-.1.71c1.3,0,2.61-.19,3.91-.26,1.7-.09,3.41-.21,5.11-.38,1.53-.17,3.06-.27,4.59-.49.91-.14,1.82-.24,2.73-.34.33,0,.67-.07,1-.12a5.62,5.62,0,0,0,.65-.18.34.34,0,0,0,.42-.41V220a.36.36,0,0,0-.36-.27,13.3,13.3,0,0,0-2.35.25c-.67.09-1.34.17-2,.27-1.72.24-3.45.41-5.17.58s-3.42.3-5.14.39c-.81,0-1.62.12-2.44.19a4,4,0,0,0-1,.11c-.36.13-.33.72.1.71h.05a.35.35,0,0,0,.09-.69Z" transform="translate(-54.91 -9.64)"/><path d="M103.66,221.49h.46a.19.19,0,0,0,.16-.28.46.46,0,0,0-.54-.12c-.15.05-.36.14-.41.3a.2.2,0,0,0,.15.25.87.87,0,0,0,.36,0,.65.65,0,0,0,.36-.15.22.22,0,0,0,0-.36.56.56,0,0,0-.26-.07.57.57,0,0,0-.29,0,.46.46,0,0,0-.31.31.14.14,0,0,0,.13.17,2.77,2.77,0,0,0,.5,0,2.74,2.74,0,0,0,.5-.07c.14,0,.35-.15.31-.33s-.22-.19-.35-.19a.78.78,0,0,0-.26,0,.31.31,0,0,0-.23.15.12.12,0,0,0,.07.17h.24s0,0,0,0h.24s0,0,0,0l0,0s0,0,0,0h0s0,0,0,0,0,0,0-.08,0,0,0,0,0,0,0,0,0,0,0,0h0l-.07,0h0l0,0a1.93,1.93,0,0,1-.41.06,2.44,2.44,0,0,1-.47,0l.13.17v0s0,0,0,0,0,0,0,0l0,0,.08,0h0s.05,0,0,0h.08a.55.55,0,0,1,.18,0h0s0,0,0,0,0,0,0,0l0,0s0,0,0,0v0s0,0,0,0h0s0,0,0,0h0s0,0,0,0l-.07,0h0s-.06,0,0,0h-.23s0,0,0,0h0s0,0,0,0h0l0,0a.13.13,0,0,1,0,.06s0,0,0,0,0,0,0,0,0,0,0,0l0,0s0,0,0,0h0l0,0,0,0s0,0,0,0h0l.09,0h.07s0,0,0,0H104c.05,0,0,0,0,0h0s0,0,0,0h0s0,0,0,0,0,0,0,0l.11-.27h-.41a.19.19,0,0,0,0,.38Z" transform="translate(-54.91 -9.64)"/><path d="M95.25,216.15h-.08v.34a56.84,56.84,0,0,1,5.69.2c.18,0,.51.17.65.06-.17.14-1,.11-1.21.15-1,.17-2.08.15-3.13.23-3.83.25-7.61.79-11.43,1.19a.24.24,0,0,0,0,.48,21.64,21.64,0,0,0,3.84-.45c1.49-.21,3-.39,4.46-.57s3-.23,4.52-.34c.66-.06,1.3-.16,2-.27a3.24,3.24,0,0,0,1.39-.3.12.12,0,0,0,0-.19c-.18-.19-.73-.23-1-.28a12.67,12.67,0,0,0-1.5-.14c-1.42-.1-2.85-.13-4.27-.11a.17.17,0,1,0,0,.34h.08a.17.17,0,1,0,0-.34Z" transform="translate(-54.91 -9.64)"/><path d="M83.7,224.42v.05a.25.25,0,0,0,.22.17c1.74.22,3.56-.06,5.3.1l-.23-.18c0-.08-3.38,1.34-1.34,1.62,1,.13,2,0,2.94.11,1.2.08,2.43.09,3.63.1.43,0,.85,0,1.27.07h.42c-.14-.12-.29-.1-.45,0l-.28.1c-.42.16-1.29.54-1.38,1.07s.66.56,1,.58a22.91,22.91,0,0,1,3.2.28.26.26,0,0,0,.28-.12l0,0a.24.24,0,0,0-.42-.25l0,0,.28-.11a19.79,19.79,0,0,0-2.67-.26l-.77,0c-.19,0-.32.06-.29-.12s1-.57,1.17-.65,1-.33.85-.77-.91-.25-1.2-.28c-2-.16-4.1-.1-6.13-.14a8.37,8.37,0,0,1-1.54-.12,7.49,7.49,0,0,0,1.09-.45c.33-.13,1-.34.8-.8a.27.27,0,0,0-.24-.19c-.85-.08-1.74-.05-2.6-.06s-1.81.1-2.7,0l.22.17v0a.23.23,0,0,0-.44.12Z" transform="translate(-54.91 -9.64)"/><path d="M105.64,229.51s0-.09,0-.1l.05,0a.44.44,0,0,0,.15-.08.19.19,0,0,0,0-.28.57.57,0,0,0-.24-.06.73.73,0,0,0-.35.09.39.39,0,0,0-.2.2.23.23,0,0,0,.1.27.84.84,0,0,0,.52,0,3.38,3.38,0,0,0,.54-.09l.27-.08a.45.45,0,0,0,.31-.26.29.29,0,0,0-.22-.34,1,1,0,0,0-.34,0,4.19,4.19,0,0,0-.69.13,5.08,5.08,0,0,0-.51.17c-.18.06-.44.15-.49.36s.21.38.41.42a2.89,2.89,0,0,0,.72,0,2.77,2.77,0,0,0,.69-.16.92.92,0,0,0,.27-.16.31.31,0,0,0,0-.43.76.76,0,0,0-.4-.2,1.71,1.71,0,0,0-.55-.05,2.18,2.18,0,0,0-.52.11c-.16.07-.36.16-.42.34a.35.35,0,0,0,.2.41,1.37,1.37,0,0,0,.41.1,2.43,2.43,0,0,0,.71,0c.22,0,.58-.13.59-.41a.37.37,0,0,0-.27-.34.79.79,0,0,0-.43,0,1,1,0,0,0-.34.15.15.15,0,0,0,0,.25.6.6,0,0,0,.3.06l.29,0h0s0,0,0,0,0,0,0,0,0,0,0,0a.15.15,0,0,1,0-.16s0,0,0,0,0,0,0,0l0,0s0,0,0,0l0,0-.26.06h-.61l-.11,0h0s0,0,0,0l0,.06,0,.06s0,0,0,0h0a1.24,1.24,0,0,1,.32-.12,1.5,1.5,0,0,1,.73,0l0,0s0,0,0,0l.05,0s0,0,0,0,0,0,0,0,0-.14,0-.16l0,0s0,0,0,0l-.08,0,0,0h0l-.13,0-.27.07a2.89,2.89,0,0,1-.53,0H105l-.09,0h0s-.05,0,0,0,0,0,0,0a.14.14,0,0,1,0,.11s0,0,0,0,0,0,0,0,0,0,0,0l0,0,.1,0s0,0,0,0l.06,0,.12,0,.22-.07.39-.09.14,0h.1l.27,0h0s0,0,0,0h0l0-.16a.05.05,0,0,1,0,0v0s0,0,0,0h0l-.06,0h0s0,0,0,0a2.47,2.47,0,0,1-.36.11l-.21.05h-.11s0,0,0,0h-.26s0,0,0,0a.11.11,0,0,1,0,.1.43.43,0,0,1,0,0s0,0,0,0,0,0,0,0l0,0,0,0h0l.13,0,.06,0h0s0,0,0,0,0-.11,0-.06l-.11.05c-.11.07-.11.18-.1.3s.22.14.22,0Z" transform="translate(-54.91 -9.64)"/><path d="M112,233.5c-4.44.88-9,1.09-13.52,1.64-2,.23-3.92.53-5.89.75l-3.52.4a4.1,4.1,0,0,0-1.35.26c-.14.07,0,.29.11.25a18.88,18.88,0,0,1,2.51-.21c1-.11,2.1-.24,3.15-.37,2-.24,3.91-.55,5.87-.82,4.23-.57,8.48-.89,12.65-1.84,0,0,0-.07,0-.06Z" transform="translate(-54.91 -9.64)"/><path d="M76.74,242.7c3,.18,6,0,9,.18,3.62.18,7.3.16,10.92.17,7.07,0,14.14-.18,21.21-.18a.3.3,0,0,0,0-.6c-7.07,0-14.14.19-21.21.21-6.61,0-13.27-.46-19.87,0a.13.13,0,0,0,0,.26Z" transform="translate(-54.91 -9.64)"/><path d="M67.39,239.9c-.31.18-.59.39-.89.57s-.49.41-.76.57-.61.34-.89.54a3.39,3.39,0,0,1-.39.27,3,3,0,0,0-.36.26c-.14.13,0,.35.19.31a.18.18,0,0,0,0-.34l0,.29c.11-.08.24-.13.36-.2s.25-.17.37-.26c.29-.19.61-.35.9-.53s.46-.39.71-.55.58-.41.88-.59,0-.46-.2-.34Z" transform="translate(-54.91 -9.64)"/><path d="M70.18,239.82A.84.84,0,0,1,70,240l-.32.17c-.31.19-.59.42-.91.6s-.61.32-.92.48a6.56,6.56,0,0,0-.83.54c-.24.16-.1.6.2.49s.38-.2.31-.4a.15.15,0,0,0-.18-.11s-.06,0-.13,0l.07.49c.3-.18.57-.4.89-.56s.69-.35,1-.56.57-.43.88-.61.54-.25.59-.53a.23.23,0,0,0-.45-.12Z" transform="translate(-54.91 -9.64)"/><path d="M158.57,233.59a15.25,15.25,0,0,0-2.6,1.1c-.22.1-.45.17-.67.26s-.37.22-.56.31-.65.14-.74.43.18.3.32.19.27-.09.38-.19a.08.08,0,0,0-.08-.13c-.05,0-.25.09-.3,0l0,.24s.1,0,.13,0l.2-.05a1.89,1.89,0,0,0,.46-.2c.37-.21.78-.32,1.16-.51a17.31,17.31,0,0,1,2.37-1.06.2.2,0,0,0-.1-.39Z" transform="translate(-54.91 -9.64)"/><path d="M161.67,233.82a1.52,1.52,0,0,0-.75.16l-.91.32c-.63.22-1.25.45-1.89.66l-1.44.48c-.22.08-.78.3-.53.62a.16.16,0,0,0,.28,0s-.07.07,0,0l.06-.05.22-.11.48-.18,1.45-.61,1.58-.67.75-.31a2.87,2.87,0,0,0,.71-.26s0,0,0,0Z" transform="translate(-54.91 -9.64)"/><path d="M169.36,231.37c7.94,0,15.87.33,23.8.64,1.82.07,3.64.08,5.45.13l1.65,0,.7,0s1.32.07.52,0-1.9.07-2.85.12c-4.29.22-8.57.46-12.86.61-4.66.15-9.37,0-14,.42a.2.2,0,0,0,0,.4,62.62,62.62,0,0,0,7.62-.21l8.35-.33,8.11-.32,3.81-.18a6.49,6.49,0,0,0,2.48-.35.21.21,0,0,0,.07-.27c-.23-.49-1.78-.35-2.17-.37-1.42-.05-2.86-.1-4.28-.09-2.91,0-5.84-.16-8.75-.26-5.89-.2-11.75-.35-17.64-.29a.12.12,0,0,0,0,.24Z" transform="translate(-54.91 -9.64)"/><path d="M90.23,211c1.24,0,2.47.17,3.72.18h3.9c1.05,0,2.09.13,3.14.12l1.1,0c.24,0,.87-.09,1.06.11l0-.31a6.62,6.62,0,0,1-2,.37l-2.21.32a44.5,44.5,0,0,0-4.87.66.2.2,0,0,0,0,.36,3,3,0,0,0,1.57.23h2.43l3.16,0c.49,0,1,0,1.47,0a11.79,11.79,0,0,1,1.53.1c.12.25.55.07.45-.19l0-.11a.28.28,0,0,0-.25-.19,43.32,43.32,0,0,0-5.81-.12c-.8,0-1.61,0-2.41,0a3.89,3.89,0,0,1-1.92-.14l0,.36a18.13,18.13,0,0,1,2.23-.31l3.08-.4,2.28-.32a5.23,5.23,0,0,0,1.6-.36.2.2,0,0,0,0-.31c-.36-.37-1.22-.23-1.67-.22-1,0-2.05-.07-3.09-.09-1.44,0-2.88,0-4.33,0s-2.74-.09-4.11-.08a.13.13,0,0,0,0,.25Z" transform="translate(-54.91 -9.64)"/><path d="M69.36,228.36a49.73,49.73,0,0,0,4.3,3.23c1.33,1,2.69,2.65,4.17,3.31a1,1,0,0,0,1.22-.15c2-2.56,6.54-4.34,9.6-5.37,1.77-.61-.19-3-1.11-1.45l-.11.18a.66.66,0,0,0,0,.65l.11.16.59-1.44c-2.08.32-4.14,1.7-6,2.6a12,12,0,0,0-4.63,3.46l1.37-.36c-1.15-.5-2.41-1.92-3.44-2.67-1.59-1.15-3.33-2.12-4.8-3.4-.84-.74-2.09.47-1.24,1.25Z" transform="translate(-54.91 -9.64)"/><path d="M73.76,227a25.73,25.73,0,0,1,2.73,4.62,1.56,1.56,0,0,0,2,1.06c2.29-.66,3-4,4.72-5.35l-1.12.14c.38.21.49.42.91.55a.5.5,0,0,0,.6-.34,2.12,2.12,0,0,0-.24-1.48,1,1,0,0,0-1.27-.33c-.79.38-1.12,1.25-1.62,1.93a26.93,26.93,0,0,1-1.9,2.56,3.94,3.94,0,0,1-.51.49c.25.2.27.11.07-.28a14.47,14.47,0,0,1-.63-1.31A13.28,13.28,0,0,0,75,226c-.61-.55-1.78.19-1.21.93Z" transform="translate(-54.91 -9.64)"/><path d="M76.72,225.43c.55.47.55,2.08.62,2.69.17,1.41.35,2.79.42,4.21a.88.88,0,0,0,1.75,0,26.35,26.35,0,0,0-.63-4.67,7.43,7.43,0,0,0-1-2.85.65.65,0,0,0-1-.13l-.19.21a.39.39,0,0,0,0,.54Z" transform="translate(-54.91 -9.64)"/><path d="M199.15,253.17c.2,1.2,1.44,1.81,2.32,2.46s2,1.85,3.31,1.63a3.08,3.08,0,0,0,2.06-1.8,7.13,7.13,0,0,1,2-2.52.81.81,0,0,0,0-1.38c-1.71-.83-2.81,1-3.49,2.32-.49.93-.66,1.73-1.75,1-.58-.39-2.55-1.53-2.68-2.23-.22-1.19-2-.68-1.82.5Z" transform="translate(-54.91 -9.64)"/><path d="M202.22,251.24a5.11,5.11,0,0,0,.65,2.61,18,18,0,0,1,1,2.74c.24.84,1.66,1,1.83,0,.35-2-1.49-3.45-1.74-5.35a.88.88,0,0,0-1.75,0Z" transform="translate(-54.91 -9.64)"/><path d="M233.2,212c-.06,4.53.46,8.62-.29,13.16l1.71-.23-.29-.58a.59.59,0,0,0-1,0l-.33.58a.94.94,0,1,0,1.72.73c1.29-4.45.66-9.37-.29-13.82-.15-.7-1.22-.52-1.23.16Z" transform="translate(-54.91 -9.64)"/><path d="M235.16,220.27l.09-.23-.45.26a4,4,0,0,0,3.15-1.76,6.64,6.64,0,0,0,.15-4.18.65.65,0,0,0-.95-.39l-.16.12a.47.47,0,0,0-.17.62,5.4,5.4,0,0,1,.12,3c-.22,1-1.41,1.3-2.27,1.61a.53.53,0,0,0-.38.5V220c0,.43.69.68.88.24Z" transform="translate(-54.91 -9.64)"/><path d="M234,216a7.82,7.82,0,0,0-1.09-.39c-.28,0-.64.12-.81-.16a1.66,1.66,0,0,1-.06-.77,1.23,1.23,0,0,0-.24-1,.6.6,0,0,0-.86,0,2.63,2.63,0,0,0,0,2.55,1.55,1.55,0,0,0,1.18.74,5.4,5.4,0,0,1,.8,0c.26.05.48.19.73.23A.62.62,0,0,0,234,216Z" transform="translate(-54.91 -9.64)"/><path d="M90,256.84l-.18,0a1,1,0,0,0-.53,1.9c4.47,1.68,8.8,4.11,13.17,6.07a67.3,67.3,0,0,1,7.07,3.88c1.19.72,2.73,2,4.17,2,1.61,0,3.35-1.59,4.58-2.36,2.32-1.46,4.66-2.93,7-4.31,4.92-2.89,10.74-6.27,16.39-7.28,2.16-.39.33-4-1.33-2.29l-.25.27a1,1,0,0,0,0,1.41l.25.26,1-2.34c-4.49.38-8.49,2.75-12.43,4.74-2.48,1.24-4.86,2.43-7.23,3.87-1.93,1.16-4.94,3.84-7.13,4.35-3.17.75-8.62-3.74-11.8-5.07-4.07-1.7-8.59-4.35-12.94-5.11l-.27,1.94h.19c1-.07,1.4-1.75.26-1.9Z" transform="translate(-54.91 -9.64)"/><path d="M102.41,254.46c1.65,2.63,4.27,4.61,6.29,7a31.34,31.34,0,0,1,3.67,4.41,27.84,27.84,0,0,0,1.66,3.21,1.56,1.56,0,0,0,2.88-.78c.54-4,0-7.41,3-10.72.84-.92,2.42-1.84,3-2.93s-.37-2.52-1.58-2.06c-2.32.87-4.46,3.49-5.63,5.59-1.84,3.32-1.43,6.57-1.88,10.12l2.88-.78c-.73-.95-1.1-2.15-1.74-3.16a27.43,27.43,0,0,0-3.13-3.68c-2.45-2.69-5.16-5-7.77-7.46-.84-.81-2.31.23-1.65,1.27Z" transform="translate(-54.91 -9.64)"/><path d="M114.8,262.73s-.21-2.17-.25-2.57a30.93,30.93,0,0,1-.1-5.27c.13-2.38.69-4.75-.47-6.94a.73.73,0,0,0-1.25,0c-1.19,2.24-1,5.46-1,8a21,21,0,0,0,1.2,8,1.18,1.18,0,0,0,1.1.84h.24c1,0,1.59-1.59.56-2Z" transform="translate(-54.91 -9.64)"/><path d="M113.79,269c1.65,2.7,12.83-.73,15.36-1.15s5-.57,7.49-.78c.43,0,5.5-.51,5.64,0-.06-.23-3.25.81-3.76.92-3.18.69-6.33,1.21-9.5,2-1.78.44-3.33.35-4.55,1.83a.26.26,0,0,0,.06.4c2.14,1.13,5.16.09,7.38-.38,6.37-1.37,12.23-1.21,18.66-1.42a.22.22,0,0,0,0-.43,68.21,68.21,0,0,0-12.86.19c-2.28.3-4.52.88-6.79,1.31-.8.15-5.06,1.51-4.18,0,1.36-2.38,9.66-2.55,11.86-2.9,1.76-.28,3.69,0,4.7-1.54a.51.51,0,0,0-.18-.68c-3.66-1.85-10.79-.2-14.73.44-2,.33-12.55,3.22-13.69,1.67-.4-.53-1.27-.06-.91.53Z" transform="translate(-54.91 -9.64)"/><path d="M74.4,218.15c1.07.1,2.15-.15,3.23,0,.72.08.72-1.2,0-1.12-1.12.12-2.22.19-3.34.38-.46.07-.29.72.11.76Z" transform="translate(-54.91 -9.64)"/><path d="M79.72,218c.44.05.89.08,1.33.14a2.41,2.41,0,0,0,1,0,.18.18,0,0,0,.08-.31,3.4,3.4,0,0,0-2.41-.44.29.29,0,0,0,0,.57Z" transform="translate(-54.91 -9.64)"/><path d="M144.83,218.5l.12.15-.15-.36v.06a.59.59,0,0,0,.89.5.83.83,0,0,0,.35-.68l-.1.35v0a.71.71,0,0,0,0-.72,2,2,0,0,0-.91-.72c-.17-.08-.33-.19-.52-.26a.85.85,0,0,0-.45,0c.19,0,0,0-.09,0a.39.39,0,0,0-.17.11.73.73,0,0,0-.07.93,1.28,1.28,0,0,0,.56.44l.43.22c.08,0,0,0,0,0s.12.11,0,0,.08.12.1.14a.68.68,0,0,0,.34.19l-.3-.17c.1.09-.15-.15,0,0a.61.61,0,0,0,.19.17l.14-1.07,0,0h.27l-.17-.06a.49.49,0,0,0-.52.21.47.47,0,0,0,.07.55Z" transform="translate(-54.91 -9.64)"/><path d="M146.16,218.43a7.26,7.26,0,0,1,0-.93c0-.33.2-.6,0-.93a.4.4,0,0,0-.45-.18c-.75.22-.61,1.44-.6,2a.5.5,0,0,0,1,0Z" transform="translate(-54.91 -9.64)"/><path d="M146.92,216.78a2.36,2.36,0,0,0-1.27.35.67.67,0,0,0,.67,1.15,1.78,1.78,0,0,0,.78-.78.6.6,0,0,0-.94-.73,2.09,2.09,0,0,0-.43,2,.49.49,0,0,0,.72.29c.51-.34,1.74-1.36,1-2a.36.36,0,0,0-.5,0,6.24,6.24,0,0,0-.38.66,2.75,2.75,0,0,1-.6.53l.71.29a1.3,1.3,0,0,1,0-.52c0-.06,0-.1.05-.15s.05-.07,0,0-.13,0,0,0l-.68-.89a.56.56,0,0,1-.25.18l.51,1.21a1.09,1.09,0,0,1,.6-.21.65.65,0,0,0,0-1.29Z" transform="translate(-54.91 -9.64)"/><path d="M144.46,214.15a1.63,1.63,0,0,0,.43,1.1.76.76,0,0,0,1-.06.89.89,0,0,0,.28-.88.45.45,0,0,0-.35-.35,1.52,1.52,0,0,0-1.09.06.44.44,0,0,0,0,.76,1.36,1.36,0,0,0,.53.11h.2l.1,0-.35-.35s0-.14,0-.1.07-.09,0,0,.05,0,0,0,.13-.06.09-.05h.09a.34.34,0,0,1,.15.09c-.05-.05,0,.07,0,0a.11.11,0,0,0,0-.06l0-.06c0-.1,0,.06,0,0a.78.78,0,0,1,0-.14,2,2,0,0,1-.07-.23.44.44,0,0,0-.49-.32.45.45,0,0,0-.38.44Z" transform="translate(-54.91 -9.64)"/><path d="M146.46,214.44a5.11,5.11,0,0,0-.33.48.36.36,0,0,0,.06.45.77.77,0,0,0,.68.19,1.09,1.09,0,0,0,.49-.28c.33-.33.47-1,0-1.23a.48.48,0,0,0-.73.46c0,.06,0-.14,0,0a.45.45,0,0,0,.08.27s0,0,0-.06c.07.14.07.15,0,0,0,.07,0-.15,0,0s0,0,0-.06a.06.06,0,0,1,0,0c0,.08.07-.1,0,0s0,.07-.05.08.05-.06,0,0l0,0,0,0,0,0h0l-.13.05c.16-.07-.09,0,.07,0h0l.26.46a1.9,1.9,0,0,1,.14-.48c.11-.27-.31-.51-.49-.29Z" transform="translate(-54.91 -9.64)"/><path d="M145.32,215.41a2.83,2.83,0,0,0,.16,1,.46.46,0,0,0,.66.27,1.39,1.39,0,0,0,.51-1.67.55.55,0,0,0-.91-.24l-.06.05a.45.45,0,0,0-.07.53s0,.06,0,0a.76.76,0,0,1,0,.11.6.6,0,0,1,0,.2,1.3,1.3,0,0,1-.06.31h.63a1.27,1.27,0,0,1-.23-.61.34.34,0,0,0-.68,0Z" transform="translate(-54.91 -9.64)"/><path d="M146.9,215.89c-.32.26-1,.71-.89,1.18a.72.72,0,0,0,.57.6,2.22,2.22,0,0,0,1.59-.55,2.17,2.17,0,0,0,.83-1.37.76.76,0,0,0-.48-.87.73.73,0,0,0-.9.34.37.37,0,0,0,.13.5.8.8,0,0,0,.25.11c.18.06,0,0-.09-.12s0,0,0-.12a.14.14,0,0,1,0,.09c0-.08,0-.08,0,0a1.59,1.59,0,0,1-.27.63l0,0-.12.11-.27.21a1.94,1.94,0,0,1-.35.18s-.12,0-.09,0,.1.17.05,0l0,.32a4.77,4.77,0,0,1,.69-.73c.37-.34-.17-.86-.55-.55Z" transform="translate(-54.91 -9.64)"/><path d="M137.71,136.29c.44.16.58,1.1.74,1.49.36.87.76,1.71,1.12,2.58a10.13,10.13,0,0,1,.56,2.42c.07.44.16.88.23,1.32a4.51,4.51,0,0,0,.28,1.26.42.42,0,0,0,.71,0c.4-.89,0-2-.21-2.93a10.84,10.84,0,0,0-.79-2.79c-.39-.88-.85-1.74-1.21-2.63-.24-.59-.53-1.32-1.23-1.46a.38.38,0,0,0-.2.74Z" transform="translate(-54.91 -9.64)"/><path d="M141.88,146.5c-1,.16-.09,2.11,0,2.61a6.39,6.39,0,0,1,.12,1.69c0,.33,0,.66,0,1s-.12.54-.14.82l.36-.37a1.71,1.71,0,0,0-.32,0c-.16,0-.2.23-.14.34a2.83,2.83,0,0,0,.2.28.38.38,0,0,0,.58-.08,1.91,1.91,0,0,0,.19-.79,8.67,8.67,0,0,0,.06-.89,9.48,9.48,0,0,0-.11-1.84,8.12,8.12,0,0,0-.42-1.23,5.48,5.48,0,0,1-.22-.72,2.48,2.48,0,0,1,0-.27s0-.06,0-.08-.06,0,0,0c.32-.08.18-.54-.14-.49Z" transform="translate(-54.91 -9.64)"/><path d="M120.78,141.89c-.17,3.11-.15,6.27-.09,9.39a37.48,37.48,0,0,1,0,4.37,24.44,24.44,0,0,0-.29,4.28l.78-.22-.08-.16a.33.33,0,0,0-.56,0l-.09.16c-.33.59.74.93.79.22s0-1.46.07-2.18.23-1.4.3-2.1a33.53,33.53,0,0,0,0-4.37c-.07-3.13.07-6.27-.11-9.39a.35.35,0,0,0-.69,0Z" transform="translate(-54.91 -9.64)"/><path d="M235.18,243l0-.1a.42.42,0,0,0-.19-.46c-.86-.39-4.41-.56-4.13,1a.49.49,0,0,0,.47.36c.63,0,5.83.51,5.32-1.14-.23-.71-1.56-.48-2.09-.47-.93,0-2-.24-2.9.2a.38.38,0,0,0,.09.69,5.1,5.1,0,0,0,2.2,0,.35.35,0,0,0,.24-.41l0-.11a.28.28,0,0,0-.45-.12c-.2.19-1.45,0-1.75-.06l.09.7c.61-.31,1.53,0,2.18,0a7.75,7.75,0,0,0,1.66,0c.21-.18-.18-.24-.22-.25a1.81,1.81,0,0,0-.49.11c-.36.06-.71.1-1.07.13a8.61,8.61,0,0,1-2.63-.18l.36.47c0,.35-.22.09,0,.11a1.75,1.75,0,0,0,.38-.09,6.77,6.77,0,0,1,1-.09,7.77,7.77,0,0,1,1.4-.05.33.33,0,0,0,.48-.2Z" transform="translate(-54.91 -9.64)"/><path d="M216.66,247.83c6.54-.16,13.12-.59,19.65-1,2.26-.15,10.55,0,12-2.27,2.46-3.75-12.58-4.49-14.4-4.67-.23,0-.28.36-.06.4,3.1.6,6.3.5,9.4,1.17,1.78.38,4.74,1.52,2.51,3.65-.74.71-5.1.86-5.66.92-7.76.81-15.67,1.15-23.46,1.53-.2,0-.21.32,0,.31Z" transform="translate(-54.91 -9.64)"/><path d="M126.15,230.84c7.83,2.21,17.62,1.52,25.69,1.56.33,0,.43-.55.08-.61-8.4-1.38-17.15-.22-25.62-1.5-.35,0-.51.45-.15.55Z" transform="translate(-54.91 -9.64)"/><path d="M134.3,228a7.87,7.87,0,0,0,1.75-.08.41.41,0,0,0,.1-.74,3.4,3.4,0,0,0-1.61-.26,2.2,2.2,0,0,0-1.45.35.37.37,0,0,0,.25.63,16.22,16.22,0,0,0,2.7-.1.28.28,0,0,0,.06-.51,5.54,5.54,0,0,0-2.33-.2.27.27,0,0,0,0,.54c.51,0,3.17.35,2.85-.74a.28.28,0,0,0-.25-.19c-.83-.08-2.65-.81-3.07.33a.31.31,0,0,0,.21.37,9.59,9.59,0,0,0,1.86.11c.43,0,1.2,0,1.51-.36a.33.33,0,0,0,.05-.38c-.3-.42-.93-.42-1.4-.42a4.94,4.94,0,0,0-1.83.24c-.24.1-.32.52,0,.58a2.41,2.41,0,0,0,1,0,.21.21,0,0,0,0-.41c-.27,0-.57-.07-.84-.13v.58a5.16,5.16,0,0,1,1.24-.18c.23,0,1.12-.13,1.28.1l.05-.38c-.21.27-1,.19-1.35.19a8.28,8.28,0,0,1-1.41-.08l.2.37c.19-.5,2.08,0,2.5,0l-.25-.19a19,19,0,0,1-2.35.06v.54a5,5,0,0,1,2,.14l.07-.51a4.71,4.71,0,0,1-2.36,0v.63a3,3,0,0,1,2.21,0l.1-.74a7.21,7.21,0,0,1-1.54,0,.42.42,0,0,0,0,.84Z" transform="translate(-54.91 -9.64)"/><path d="M92,37.07c1.67,0,1.78,1.25,1.78,2.49,0,.77-.17,2.08-.17,2.71,0,.23,0,.38.17.38.33,0,2.82-3.45,3.88-4.56a2.06,2.06,0,0,1,1.57-.81c1,0,1.69.48,1.69,1.54a2.94,2.94,0,0,1-.69,1.74c-1.48,1.81-3.8,3.13-3.78,3.44a14.74,14.74,0,0,0,4.09,3.45,2,2,0,0,1,1.17,1.81,1.69,1.69,0,0,1-1.86,1.65c-1.21,0-2.23-1-2.94-1.75-1.9-1.88-3-3.63-3.32-3.63-.08,0-.12.06-.12.21a30.59,30.59,0,0,1,.2,3.11c0,1.42-.33,2.17-1.85,2.17-1.3,0-1.67-.92-1.67-2.11,0-1.73.2-2.78.2-4.89,0-1.9-.2-3.07-.2-4.34C90.16,38.2,90.43,37.07,92,37.07Z" transform="translate(-54.91 -9.64)"/><path d="M96,31.71a9.33,9.33,0,0,1,2.54.36,11,11,0,0,1,2.28,1,17.18,17.18,0,0,1,3.7,2.91l.41.43c.14.15.26.3.39.46s.5.64.73,1A12.19,12.19,0,0,1,107.16,40a12.73,12.73,0,0,1,1,4.7,12.58,12.58,0,0,1-.82,4.73,11.9,11.9,0,0,1-2.62,4.08,9.46,9.46,0,0,1-2,1.55,10.27,10.27,0,0,1-2.31,1,14.16,14.16,0,0,1-2.37.46l-.58.06-.59,0-.58,0h-.59a13.55,13.55,0,0,1-2.43-.22,10.57,10.57,0,0,1-2.41-.72,10.32,10.32,0,0,1-2.17-1.3c-.16-.13-.33-.26-.48-.4l-.24-.2-.22-.21-.22-.22-.2-.2-.4-.41a19.22,19.22,0,0,1-1.5-1.81,12.36,12.36,0,0,1-1.26-2.12,9.78,9.78,0,0,1-.74-2.45c0-.22,0-.44-.06-.65s0-.22,0-.32v-.49c0-.05,0-.11,0-.16l0-.29c0-.1,0-.2,0-.3l0-.29c.09-.78.23-1.55.39-2.32a14.42,14.42,0,0,1,.66-2.28A12.19,12.19,0,0,1,85.54,37l.34-.51c.12-.17.26-.33.39-.49s.28-.32.42-.48l.44-.44a11.81,11.81,0,0,1,2-1.45,14.46,14.46,0,0,1,2.17-1,14,14,0,0,1,2.3-.65A13.87,13.87,0,0,1,96,31.71Zm0,2.89a11.06,11.06,0,0,0-1.9.15,14,14,0,0,0-1.88.47A10.31,10.31,0,0,0,88.85,37l-.34.31c-.1.11-.21.21-.31.33s-.2.23-.29.35-.19.24-.28.37a9.65,9.65,0,0,0-.88,1.69A12.1,12.1,0,0,0,86.19,42,9.31,9.31,0,0,0,86,44v.25c0,.08,0,.17,0,.25v.25s0,.07,0,.11l0,.11c0,.15,0,.29.06.43s0,.29.09.43a3.25,3.25,0,0,0,.11.42,3.45,3.45,0,0,0,.14.42c0,.13.1.27.17.41l.09.2a2,2,0,0,0,.11.2,9.92,9.92,0,0,0,1,1.55c.4.51.85,1,1.32,1.49l.36.37.18.18.17.16.17.16.18.15.35.29a8.43,8.43,0,0,0,1.52,1,8.27,8.27,0,0,0,1.71.61,10.39,10.39,0,0,0,1.88.25h1a4.26,4.26,0,0,0,.5,0,4,4,0,0,0,.49,0,10.76,10.76,0,0,0,1.9-.31,6.78,6.78,0,0,0,3.15-1.7,9.27,9.27,0,0,0,2.13-3.11,9.92,9.92,0,0,0,.75-3.75,9,9,0,0,0-.78-3.73,9.15,9.15,0,0,0-1-1.65,6.06,6.06,0,0,0-.6-.74c-.11-.12-.21-.24-.33-.35s-.22-.23-.35-.34a13.73,13.73,0,0,0-3.17-2.34,8.31,8.31,0,0,0-1.72-.68A6.55,6.55,0,0,0,96,34.6Z" transform="translate(-54.91 -9.64)"/><path d="M95.3,30.44c-.9,0-1.32-.73-1.45-1.51-.2-1.11-.41-3.12,1.21-3.19a1.41,1.41,0,0,1,1.19.57c.35.48.23,1,.27,1.59s.3,1.12.06,1.68a1.42,1.42,0,0,1-1.22.86Z" transform="translate(-54.91 -9.64)"/><path d="M111.22,45.74a1.39,1.39,0,0,1-1.39-1.33c-.06-1.51,1.83-1.67,2.93-1.65a2.63,2.63,0,0,1,.84.12,1.36,1.36,0,0,1,.93,1.24,1.4,1.4,0,0,1-1.11,1.43,6.72,6.72,0,0,1-1.1,0c-.35,0-.67.15-1,.17Zm1-.18Zm-1-2.61Z" transform="translate(-54.91 -9.64)"/><path d="M80.13,46.27l-.45,0c-1.05,0-2.62.05-2.68-1.37a1.38,1.38,0,0,1,1.33-1.45h1a4,4,0,0,1,.67,0,1.38,1.38,0,0,0,.29,0,1.4,1.4,0,0,1,1.45,1.33C81.75,45.81,81,46.17,80.13,46.27Z" transform="translate(-54.91 -9.64)"/><path d="M96,62.54a1.39,1.39,0,0,1-1.33-1,4.28,4.28,0,0,1-.07-.72c0-.66-.35-1.43-.11-2.07a1.4,1.4,0,0,1,1.25-.91c1.15-.05,1.52,1.11,1.62,2.06s.12,2.58-1.29,2.63Z" transform="translate(-54.91 -9.64)"/><path d="M105.71,34.55a1.39,1.39,0,0,1-1-2.39l.37-.36.32-.31a5.46,5.46,0,0,1,.52-.43,1.62,1.62,0,0,0,.22-.19,1.4,1.4,0,0,1,1.94,2,3.72,3.72,0,0,1-.52.43,1.62,1.62,0,0,0-.22.19l-.37.35-.32.31A1.39,1.39,0,0,1,105.71,34.55Z" transform="translate(-54.91 -9.64)"/><path d="M83.89,35.49a2.91,2.91,0,0,1-1.55-.67c-.82-.63-1.91-1.7-1.06-2.76a1.39,1.39,0,0,1,1.35-.49c.58.11.82.55,1.23.9s1,.44,1.25,1A1.42,1.42,0,0,1,85,35,1.32,1.32,0,0,1,83.89,35.49ZM84,32.56Z" transform="translate(-54.91 -9.64)"/><path d="M109.23,57.05c-1.58,0-3.65-2.1-2.61-3.4a1.4,1.4,0,0,1,1.41-.48c.55.13.82.61,1.26.93.2.14.44.24.65.37a1.45,1.45,0,0,1,.38,2.09A1.31,1.31,0,0,1,109.23,57.05Zm.08-2.91Z" transform="translate(-54.91 -9.64)"/><path d="M83.6,57.52a1.25,1.25,0,0,1-1-.42c-.89-.92-.11-1.83.64-2.49s1.81-1.74,2.81-.71c.71.73.33,1.62-.29,2.25A4,4,0,0,1,83.6,57.52Zm1-.42Z" transform="translate(-54.91 -9.64)"/><path d="M221.08,232c1,1.21,1.83,2.55,3.27,3.37a.69.69,0,0,0,.93-.25,6.89,6.89,0,0,1,3.77-3.28l-.91-.52.05.32a.38.38,0,0,0,.46.26l.4-.06c.93-.14.55-1.71-.39-1.44a8.4,8.4,0,0,0-4.56,4l.93-.25c-1.32-.72-2.06-2-3-3.1-.56-.62-1.46.29-.91.91Z" transform="translate(-54.91 -9.64)"/><path d="M219.28,233.79c1.39,1.18,3.2,2.33,5.1,1.91,2.76-.62,5.5-2.5,8.38-2.57a.67.67,0,0,0,0-1.33c-1.91,0-3.89.95-5.7,1.53-.9.29-1.83.82-2.75,1-1.63.36-3-.57-4.38-1.41-.51-.32-1.12.44-.65.85Z" transform="translate(-54.91 -9.64)"/><path d="M224.42,231.07a1,1,0,0,1,.22-.87l-1-.41a10.42,10.42,0,0,1,.11,1.93,14.8,14.8,0,0,0-.09,2l1.13-.46-.15-.16a.45.45,0,0,0-.64,0l-.15.16c-.79.86,1,1.72,1.13.46a9,9,0,0,0-.21-4.07c-.15-.36-.65-.62-1-.25a2,2,0,0,0-.51,1.68c.08.69,1.17.71,1.1,0Z" transform="translate(-54.91 -9.64)"/><path d="M212.82,219.74c1.42.15,2.83.27,4.25.4.33,0,1.5,0,1.75.19s-.71.42-.94.49c-.56.16-1.12.31-1.67.49s-1.34.3-2,.47a9.79,9.79,0,0,0-1.52.54,8.18,8.18,0,0,0-1.75.73.34.34,0,0,0-.15.36c.33.79,1.38.82,2.12.83,1.39,0,2.79,0,4.19,0,2,0,4-.06,6.05.14,1,.1,2,.31,3,.51a10.43,10.43,0,0,0,2.33.45c.58,0,.58-.94,0-.91a8.65,8.65,0,0,1-2.1-.4c-.81-.15-1.62-.32-2.44-.42a40.46,40.46,0,0,0-5.28-.18c-1.46,0-2.93,0-4.38.07-.6.05-2.56.39-2.88-.32l-.12.44a9.26,9.26,0,0,1,2.34-1c.82-.29,1.69-.35,2.52-.63s1.51-.46,2.28-.68c.34-.1.87-.19,1.1-.51.52-.72-.53-1-1-1.05-1.87-.22-3.75-.37-5.62-.58-.4-.05-.4.58,0,.62Z" transform="translate(-54.91 -9.64)"/><path d="M211.94,225.31a7.93,7.93,0,0,1,.84.21,4.54,4.54,0,0,0,.74,0c.61,0,1.22,0,1.82,0s1.21.17,1.81.2,1.39,0,2.08,0a29.76,29.76,0,0,1,3.89.23,32.73,32.73,0,0,0,3.56.48.38.38,0,0,0,0-.76,34.4,34.4,0,0,1-3.51-.47,30.42,30.42,0,0,0-3.94-.23c-1.27,0-2.49,0-3.76-.13-.61,0-1.21,0-1.82,0s-1.14-.16-1.71-.11a.27.27,0,0,0,0,.54Z" transform="translate(-54.91 -9.64)"/><path d="M219.14,222.58a2.2,2.2,0,0,0,.36,0h1.08a.37.37,0,0,0,.38-.33.39.39,0,0,0-.27-.43,10.55,10.55,0,0,0-1.37-.34l-.09.7c.21,0,.43,0,.65,0a2.3,2.3,0,0,0,.69-.1.35.35,0,0,0,.23-.23.33.33,0,0,0-.09-.31,1.12,1.12,0,0,0-.79-.25,1.09,1.09,0,0,0-.76.27.3.3,0,0,0,.13.49,1.8,1.8,0,0,0,.73.06,2.07,2.07,0,0,0,.43-.1.41.41,0,0,0,.23-.38.14.14,0,0,0-.18-.14s0,0,0,0h0s0,0,0,0h-.08a.42.42,0,0,0-.13,0l-.16,0h-.46l-.07,0-.12,0,.13.48a0,0,0,0,0,0,0s-.05,0,0,0l.05,0s-.06,0,0,0h0l.07,0,.07,0c.05,0,0,0,0,0H220c.05,0-.06,0,0,0l.15,0,.06,0s-.07,0,0,0l0,0,.05,0s-.06-.06,0,0l0,0,.14-.53-.15,0c-.07,0,.08,0,0,0h-.4l-.63-.06a.36.36,0,0,0-.1.7c.46.1.9.27,1.35.4l.1-.76H219.5l-.24,0-.08,0h0a.34.34,0,0,0-.35.35.31.31,0,0,0,.1.24.37.37,0,0,0,.25.1Z" transform="translate(-54.91 -9.64)"/><path class="cls-2" d="M106.7,194c-1.11,0-2.22,1-3.19,1.46-.32.17-1.15.54-.87,1.07.11.2.26.18.43.25.34.12,1.2-.05.86.66-.09.17-.59.4-.78.49-1.11.6-2.25,1.13-3.4,1.66-.64.3-4.83,2.86-3.59,3.86.2.16.55.09.78.09a20.66,20.66,0,0,0,2.49-.13c1.49-.2,3.12-.87,4.63-.71l-.29-.3c-.08.86-2,1.46-2.49,2.06a.29.29,0,0,0,0,.42c.41.41,1.1.38,1.66.45a9.91,9.91,0,0,0,2.72-.08,47.75,47.75,0,0,1,6.66-.27c2.19,0,4.37.18,6.57.18a20.26,20.26,0,0,0,2.91.06c.3-.05.6-.18.65-.54.15-1.2-2.61-1.63-3.34-1.68-2.1-.13-4.2-.13-6.31-.2-.69,0-6.21,0-6.17-.89,0-.19.84-.82,1-1a8.72,8.72,0,0,1,1.53-1c.52-.29,1.1-.47,1.4-1a.26.26,0,0,0-.09-.35,4.38,4.38,0,0,0-2.86-.31c-.63.08-1.29.07-1.92.16-.43.07-1,.32-.4-.14a21.34,21.34,0,0,1,3.28-1.54,35.5,35.5,0,0,0,3.63-2.21c.81-.52,1.72-.9,2.08-1.86.19-.51.24-1.21-.35-1.47a5.6,5.6,0,0,0-1.35-.22c-.67-.09-1.38-.1-2.06-.15a9.25,9.25,0,0,0-3.89.18c-.31.12-.19.62.14.51a8.65,8.65,0,0,1,2.69-.12c.9,0,1.81.06,2.71.14.73.06,2.16.3,1.45,1.37a8.67,8.67,0,0,1-2.49,1.75,39,39,0,0,1-4.14,2.31c-.88.4-2.36.78-2.91,1.64a.23.23,0,0,0,.09.33c.73.37,1.68,0,2.46,0,1.06,0,2.61-.58,3.58.13l-.09-.36c-.32.56-6.22,3.32-3.51,4.07a26,26,0,0,0,5.71.5c2,.08,4,.09,6,.22a9.24,9.24,0,0,1,1.57.13c.23,0,2.07.6,1.68.91a5.11,5.11,0,0,1-.94,0c-.57,0-1.15,0-1.73,0-2.06,0-4.12-.23-6.17-.17s-4,.11-6,.19c-.8,0-1.58.23-2.39.23a9.22,9.22,0,0,1-1.66-.13,3.57,3.57,0,0,1-.92-.18v.42c.8-.87,2.55-1.13,2.66-2.48,0-.17-.15-.28-.3-.29a10.06,10.06,0,0,0-3,.38,15.81,15.81,0,0,1-2.28.43,5.07,5.07,0,0,1-1.82.08q-.47.15-.12-.33a.56.56,0,0,1,.23-.47,3.7,3.7,0,0,1,.49-.48,9.37,9.37,0,0,1,1.58-1.29c1-.65,2.19-1.23,3.26-1.83.5-.28,2.22-.8,1.9-1.63a.92.92,0,0,0-.5-.36c-.43-.17-.71.1-.52-.44s.88-.67,1.29-.89a5.77,5.77,0,0,1,2.15-1,.14.14,0,0,0,0-.28Z" transform="translate(-54.91 -9.64)"/><path class="cls-2" d="M80.27,199.07c-.64-.09-.88.37-1.25.81s-1.24.87-1.54,1.58a.18.18,0,0,0,0,.22c.23.21.45.31.23.7s-.53.45-.74.62a16.26,16.26,0,0,1-1.68,1.29c-.51.31-1.41.74-1.43,1.43a.21.21,0,0,0,.1.17,3.59,3.59,0,0,0,2.1.22,29,29,0,0,0,3.16-.76c.34-.1.93-.18.93-.65s-.59-.53-1-.52-.74.08-1.11.11c-.12,0-.78.09-.82,0s.52-.33.57-.36c.43-.26.83-.52,1.28-.74a2.49,2.49,0,0,0,1-.76.65.65,0,0,0,0-.8c-.06-.08-.23-.16-.27-.25-.16-.46.24-.52.51-.62s.71-.32,1.07-.48a6.65,6.65,0,0,1,1.53-.41c.26,0,.53-.08.8-.14a3.8,3.8,0,0,1,.49-.13c.81.21-.14.79-.42,1a3.45,3.45,0,0,0-.56.52c-.43.49-.89,1.5.23,1.29a3.63,3.63,0,0,0,.83-.37c.49-.24,1-.33,1.53-.54s.74-.38,1.1-.5a1.29,1.29,0,0,1,.58-.07c.49.11,0,.35-.28.55s-1,.55-.9,1,.78.27,1.08.18c.62-.18,1.55-.18,2.07-.64s.24-.92-.19-1.24-.69-.37-1-.58a1.78,1.78,0,0,1-.68-.68c-.09-.15-.1-.27-.25-.38a1.29,1.29,0,0,0-.89-.09,7.66,7.66,0,0,0-1.44.17l.29.22a9.36,9.36,0,0,0,.13-2.3.2.2,0,0,0-.16-.16c-1-.21-1.68,1.08-2.59.81l.17.3a4.57,4.57,0,0,1,.44-.92c.12-.31,0-.8.19-1s-.15-.61-.36-.36-.22.45-.26.83-.4.87-.48,1.36c0,.12,0,.28.17.3a2,2,0,0,0,1.54-.54,3.14,3.14,0,0,1,.46-.28c.49-.2.44.12.46.53a10.33,10.33,0,0,1-.16,1.47.23.23,0,0,0,.28.22,4.64,4.64,0,0,1,1.48-.16c.48,0,.47.22.71.54a2.66,2.66,0,0,0,.71.58c.27.16,1,.39,1.09.67.33.64-1.36.79-1.68.92-.15.06-.89.57-.53-.17.07-.13.48-.34.62-.45a1.91,1.91,0,0,0,.57-.69.13.13,0,0,0,0-.18,2,2,0,0,0-1.65.27,11.84,11.84,0,0,1-1.73.61c-.32.1-1.57.91-1.67.32s2.73-2.06,1.58-2.53c-.19-.08-.47.06-.64.11-.61.16-1.25.21-1.86.36a15.67,15.67,0,0,0-1.59.66,2.14,2.14,0,0,0-.81.37c-.51.56.7.84.18,1.6-.33.47-1.08.64-1.56.94a13,13,0,0,0-1.33.84.09.09,0,0,0,0,.14,18.53,18.53,0,0,0,2.09.11c.21.05.25-.09.31.19s0,.2-.28.26c-.4.11-.79.24-1.19.33a10.93,10.93,0,0,1-2.88.49c-.47,0-.94-.19-.44-.61a9,9,0,0,1,.82-.55,17.57,17.57,0,0,0,1.74-1.35c.34-.28,1.18-.76,1-1.31,0-.2-.23-.21-.3-.35s.32-.57.57-.77a8.75,8.75,0,0,0,.69-.55c.28-.28.49-.87,1-.82.22,0,.28-.36.06-.39Z" transform="translate(-54.91 -9.64)"/><path class="cls-2" d="M119.38,193.44a4.6,4.6,0,0,0-1.44,1.23c-.35.41-.92.8-1,1.38s.75.49,1.15.35a5,5,0,0,0,.63-.28c.29-.16.56-.45.9-.47l-.23-.18c.15.51-.07,1,0,1.55a.23.23,0,0,0,.16.17,5.72,5.72,0,0,0,1.17,0c.3,0,.5.26.8.31a2.5,2.5,0,0,0,1.9-.76,1.09,1.09,0,0,0-.22-1.53c-.68-.6-1.67-.12-2.47-.28l.18.18c-.16-.55.29-1.44-.46-1.69a3.76,3.76,0,0,0-1.19-.24,5.62,5.62,0,0,0-1.31.39.24.24,0,0,0,.12.46,7.27,7.27,0,0,1,1.09-.35,2.92,2.92,0,0,1,1,.21c.22.06.18.08.18.34a3.48,3.48,0,0,0,0,1,.25.25,0,0,0,.18.19,3.86,3.86,0,0,0,1,0,2.46,2.46,0,0,1,1.08,0,.8.8,0,0,1,.43.52c.08.29-.08.42-.3.58a2.53,2.53,0,0,1-.82.41.92.92,0,0,1-.77-.12c-.49-.29-1,0-1.56-.16l.17.16c-.12-.52.12-1,0-1.56a.25.25,0,0,0-.24-.17c-.49,0-.81.36-1.23.56-.25.12-.8.43-1.07.27l.13.22a.86.86,0,0,1,.31-.68c.19-.19.37-.39.55-.59a4.11,4.11,0,0,1,1.28-1.1c.27-.14,0-.55-.25-.41Z" transform="translate(-54.91 -9.64)"/><path class="cls-2" d="M99.52,201.23v0s0-.06,0,0,0,0,0,0l0,0s.06,0,0,0l0,0s.06,0,0,0h0l-.07,0-.15,0c-.26.06-.57.22-.56.54a.31.31,0,0,0,.29.3,1.63,1.63,0,0,0,.82-.13,2,2,0,0,0,.36-.18,1,1,0,0,0,.31-.27.1.1,0,0,0-.09-.15.8.8,0,0,0-.34.07l-.34.1a.87.87,0,0,1-.31,0h-.12l-.09,0,0,0,.13.34s0-.09,0,0,0,0,0,0-.06,0,0,0l0,0s-.07,0,0,0l.06,0s-.07,0,0,0h0l.07,0,.14,0c.24-.07.51-.2.56-.48a.33.33,0,0,0,0-.22.36.36,0,0,0-.17-.13.3.3,0,0,0-.36.2Z" transform="translate(-54.91 -9.64)"/><path class="cls-2" d="M109.32,200.77a.58.58,0,0,1-.22.08,1.22,1.22,0,0,0-.28.14.57.57,0,0,0-.2.6.65.65,0,0,0,.49.4c.12,0,.24,0,.36,0a.88.88,0,0,1,.32.07,2.13,2.13,0,0,0,.71.08c.28,0,.56,0,.83,0a2.34,2.34,0,0,1,.7.06.61.61,0,0,0,.66-.08.2.2,0,0,0,0-.32,1.9,1.9,0,0,0-1.07-.24l-1.29,0a2,2,0,0,1-.49-.08,5.07,5.07,0,0,0-.56-.05.26.26,0,0,1-.12-.05s0,0,0,0a.16.16,0,0,1,.13-.08,1.26,1.26,0,0,0,.45-.22c.26-.22-.12-.6-.37-.37Z" transform="translate(-54.91 -9.64)"/><path class="cls-2" d="M110.68,206.27c1.16.08,2.39-.07,3.54.12a10.54,10.54,0,0,0,1.37.06c.58,0,1.13.13,1.7.11,1,0,2,.12,3,.12s2.26,0,3.4-.12a.23.23,0,0,0,0-.45c-.49,0-1,.09-1.46.11h-1.81c-1,0-2-.17-3.1-.13a20.86,20.86,0,0,1-3.16-.18,18.93,18.93,0,0,0-3.45,0,.17.17,0,1,0,0,.34Z" transform="translate(-54.91 -9.64)"/><path class="cls-2" d="M122.4,196.13l0,0a.41.41,0,0,0-.11-.07l-.12,0-.09,0a.28.28,0,0,0-.15.08l0,0-.05.08,0,.09a.32.32,0,0,0,0,.14.17.17,0,0,0,0,.1.18.18,0,0,0,0,.08.12.12,0,0,0,.06.06.18.18,0,0,0,.08,0,.37.37,0,0,0,.15,0h.09l.09,0,.08-.06,0-.07,0-.09a.26.26,0,0,0,0-.15.16.16,0,0,0,0-.09.37.37,0,0,0-.07-.12Z" transform="translate(-54.91 -9.64)"/><path class="cls-2" d="M120.2,198.44a7,7,0,0,1,.8-.1,1.32,1.32,0,0,1,.63,0,2,2,0,0,0,.63.29,1.67,1.67,0,0,0,.63,0,1.89,1.89,0,0,0,.93-.58c.14-.14.26-.29.38-.43s.27-.28.25-.48a.11.11,0,0,0-.09-.07c-.2,0-.32.14-.43.27s-.25.29-.38.43a1.35,1.35,0,0,1-.9.5,1,1,0,0,1-.63-.13,1.16,1.16,0,0,0-.52-.23,5.08,5.08,0,0,0-1.4.13c-.23,0-.14.4.1.35Z" transform="translate(-54.91 -9.64)"/><path class="cls-2" d="M121.78,199.75a2.43,2.43,0,0,1,.53-.08l.61,0a2.3,2.3,0,0,0,1-.06,2.77,2.77,0,0,0,.85-.53c.2-.19.48-.47.39-.77a.12.12,0,0,0-.17-.07,7.64,7.64,0,0,0-.55.58,2.75,2.75,0,0,1-.73.49,2.23,2.23,0,0,1-.93.06,3.25,3.25,0,0,0-.54,0c-.17,0-.32.12-.49.16s-.07.17,0,.16Z" transform="translate(-54.91 -9.64)"/><path class="cls-3" d="M153.82,204c-2.89-1-6-2.23-9.08-3.46a73,73,0,0,1-8.66-4.19,29.94,29.94,0,0,1-7.62-5.75,12.78,12.78,0,0,1-3.67-8.64c0-1.77-.38-5.45-.73-10-.23-3.05-.57-6.49-.71-10-.13-3.36.11-6.8.25-10a48.69,48.69,0,0,1,1.05-10c1.12-4.17,3.13-7,6.28-7,3.44-.06,5.5,3,6.71,7.52a55.73,55.73,0,0,1,1.47,10.71c.22,3.62.19,7.37.21,10.82,0,4.37.24,8.24.5,10.79.29,2.78,2.48,5,5.27,6.83a34.61,34.61,0,0,0,8,3.93" transform="translate(-54.91 -9.64)"/><path class="cls-4" d="M153.82,204c-2.89-1-6-2.23-9.08-3.46a73,73,0,0,1-8.66-4.19,29.94,29.94,0,0,1-7.62-5.75,12.78,12.78,0,0,1-3.67-8.64c0-1.77-.38-5.45-.73-10-.23-3.05-.57-6.49-.71-10-.13-3.36.11-6.8.25-10a48.69,48.69,0,0,1,1.05-10c1.12-4.17,3.13-7,6.28-7,3.44-.06,5.5,3,6.71,7.52a55.73,55.73,0,0,1,1.47,10.71c.22,3.62.19,7.37.21,10.82,0,4.37.24,8.24.5,10.79.29,2.78,2.48,5,5.27,6.83a34.61,34.61,0,0,0,8,3.93" transform="translate(-54.91 -9.64)"/><path class="cls-3" d="M189.56,210.68c2.8-1.59,6.2.8,9-1.71,1.42-1.26,1.78-3.28,2.16-5.15.58-2.91,1.35-5.8,1.93-8.71s1.11-6.15,3.08-8.43,5.85-3.33,8.18-1.41c1.64,1.34,2.1,3.68,2.33,5.8a55.1,55.1,0,0,1-2.93,23.58c-.82,2.28-1.89,4.66-4,5.89-2.77,1.63-6.22.65-9.45.62a16.67,16.67,0,0,0-9.88,3.26c-.24.18-.51.34-.76.52" transform="translate(-54.91 -9.64)"/><path class="cls-4" d="M189.56,210.68c2.8-1.59,6.2.8,9-1.71,1.42-1.26,1.78-3.28,2.16-5.15.58-2.91,1.35-5.8,1.93-8.71s1.11-6.15,3.08-8.43,5.85-3.33,8.18-1.41c1.64,1.34,2.1,3.68,2.33,5.8a55.1,55.1,0,0,1-2.93,23.58c-.82,2.28-1.89,4.66-4,5.89-2.77,1.63-6.22.65-9.45.62a16.67,16.67,0,0,0-9.88,3.26c-.24.18-.51.34-.76.52" transform="translate(-54.91 -9.64)"/><path d="M206.08,181.38l2.19,1.68.27.21.36.28.67.53a5.66,5.66,0,0,0,2,1.28c1.82.45,2.42-1.66,3.17-2.83.16-.25.4-.49.53-.75,0,0-.25.31-.07.09l.17-.21.35-.39c.28-.33.58-.66.88-1,.48-.48,1.12-.91,1.23-1.62a1.66,1.66,0,0,0-.29-1.4,1.53,1.53,0,0,0-1.26-.64,2.6,2.6,0,0,0-1.78.93c-.29.28-.56.57-.83.86a14.52,14.52,0,0,0-1.3,1.71,10.33,10.33,0,0,0-1.2,2.48l-.12.35c0,.1-.17.46,0,.13s.06-.13,0-.07.15-.19.17-.2a1.3,1.3,0,0,1,.83-.33c-.23,0,.4.07.27,0s-.23-.09.05,0,0,0-.13-.09c-.28-.18-.55-.38-.82-.58-1.32-1-2.63-1.91-4-2.78a1.32,1.32,0,0,0-1.79.47,1.34,1.34,0,0,0,.47,1.78Z" transform="translate(-54.91 -9.64)"/><path d="M212,182.31a6.87,6.87,0,0,1-.49-1.7c-.07-.72-.09-1.44-.11-2.15a8.46,8.46,0,0,0-.34-2.29,3.42,3.42,0,0,0-1.32-1.86.65.65,0,0,0-1,.55c0,.32,0,.66,0,1s0,.68,0,1c0,.71,0,1.42.06,2.12a10.77,10.77,0,0,0,1,4.59,1.28,1.28,0,0,0,1.73.46,1.31,1.31,0,0,0,.45-1.73Z" transform="translate(-54.91 -9.64)"/><path class="cls-3" d="M153,276.13c.58-1.33,1.1-5,1.35-10.3.15-2.95-.52-6.45-.47-10.33,0-3.19.72-6.64.72-10.3,0-3.29,0-6.75,0-10.32,0-3.34,0-6.8-.1-10.31s-.33-6.84-.41-10.31-.47-6.87-.56-10.31c-.08-3.11.19-6.21.09-9.28s0-6.23-.1-9.26c-.12-3.63-.28-7.17-.43-10.57-.16-3.7-.71-7.23-.87-10.54-.19-3.85-.35-7.4-.5-10.56-.2-4.34-.23-7.93-.23-10.56,0-3.56.14-7,.27-10.38.13-3.58-.25-7.09.05-10.41.33-3.61,1.27-7,1.83-10.24A80.24,80.24,0,0,1,156,102a44.75,44.75,0,0,1,3.86-9.64,21.56,21.56,0,0,1,7.36-7.11c2.81-1.8,5.85-3.41,9.63-3.41s6.45,1.65,8.95,4a19.56,19.56,0,0,1,5.73,8.24c.9,2.75.82,6.22,1.37,10.08.42,3,.85,6.31,1.07,10,.18,3.1.93,6.45,1,10.1,0,3.16-.81,6.53-.88,10.13-.06,3.19.06,6.56-.08,10.12-.13,3.22.06,6.6-.13,10.13-.18,3.24-.62,6.6-.85,10.1-.19,2.94,0,6-.3,9.19-.27,3-.8,6-1.11,9.12s-.64,6.06-.91,9.14-.37,6.1-.57,9.17-.56,6.11-.64,9.17c-.13,4.83.2,9.64.17,14.29,0,3.35-.73,6.64-.71,9.81,0,3.41.71,6.69.77,9.81.06,3.5-.45,6.81-.37,9.83.11,3.71.17,7,.28,9.81.24,6.14.34,4.9.62,9.8" transform="translate(-54.91 -9.64)"/><path class="cls-5" d="M153,276.13c.58-1.33,1.1-5,1.35-10.3.15-2.95-.52-6.45-.47-10.33,0-3.19.72-6.64.72-10.3,0-3.29,0-6.75,0-10.32,0-3.34,0-6.8-.1-10.31s-.33-6.84-.41-10.31-.47-6.87-.56-10.31c-.08-3.11.19-6.21.09-9.28s0-6.23-.1-9.26c-.12-3.63-.28-7.17-.43-10.57-.16-3.7-.71-7.23-.87-10.54-.19-3.85-.35-7.4-.5-10.56-.2-4.34-.23-7.93-.23-10.56,0-3.56.14-7,.27-10.38.13-3.58-.25-7.09.05-10.41.33-3.61,1.27-7,1.83-10.24A80.24,80.24,0,0,1,156,102a44.75,44.75,0,0,1,3.86-9.64,21.56,21.56,0,0,1,7.36-7.11c2.81-1.8,5.85-3.41,9.63-3.41s6.45,1.65,8.95,4a19.56,19.56,0,0,1,5.73,8.24c.9,2.75.82,6.22,1.37,10.08.42,3,.85,6.31,1.07,10,.18,3.1.93,6.45,1,10.1,0,3.16-.81,6.53-.88,10.13-.06,3.19.06,6.56-.08,10.12-.13,3.22.06,6.6-.13,10.13-.18,3.24-.62,6.6-.85,10.1-.19,2.94,0,6-.3,9.19-.27,3-.8,6-1.11,9.12s-.64,6.06-.91,9.14-.37,6.1-.57,9.17-.56,6.11-.64,9.17c-.13,4.83.2,9.64.17,14.29,0,3.35-.73,6.64-.71,9.81,0,3.41.71,6.69.77,9.81.06,3.5-.45,6.81-.37,9.83.11,3.71.17,7,.28,9.81.24,6.14.34,4.9.62,9.8" transform="translate(-54.91 -9.64)"/><path d="M125.18,131.85a22.76,22.76,0,0,0,2.92,3,4.27,4.27,0,0,0,2.6,1.22c1.84,0,2.64-1.94,3.51-3.24.15-.23.31-.46.47-.68l.09-.12c.16-.21,0,0-.05.06a1.8,1.8,0,0,0,.3-.37c.56-.67,1.49-1.36,1.72-2.21a1.65,1.65,0,0,0-2-2,4,4,0,0,0-1.86,1.52c-.39.47-.76,1-1.11,1.48s-.81,1.33-1.22,2l-.23.37s-.07.1-.1.16.31-.35.1-.14a2.08,2.08,0,0,0-.21.21c.22-.32.35-.24.18-.15s.33-.12.2-.08c-.3.11.47,0,.13,0-.17,0,.47.13.24,0l-.18-.05c-.25-.06.33.18.16.07l-.18-.1a5.72,5.72,0,0,1-.48-.32l-.1-.07c-.25-.18.21.18.07.06l-.3-.25-.73-.64c-.64-.59-1.27-1.17-1.93-1.73a1.45,1.45,0,0,0-2,0,1.47,1.47,0,0,0,0,2Z" transform="translate(-54.91 -9.64)"/><path d="M131.91,134.68a7.81,7.81,0,0,0,.33-2.82c0-.85.09-1.71.13-2.57a18,18,0,0,0-.05-2.54,10.71,10.71,0,0,0-.18-1.37,3.29,3.29,0,0,0-.7-1.38,1,1,0,0,0-1.71.45,8.89,8.89,0,0,0,0,2.47c0,.85,0,1.7,0,2.55s-.05,1.65-.05,2.48a8.38,8.38,0,0,0,.06,1.23,3.48,3.48,0,0,0,.35,1.5,1.09,1.09,0,0,0,1.86,0Z" transform="translate(-54.91 -9.64)"/><path d="M161.77,154.82c.15,3.94,1,7.79,1.27,11.73s-.26,8-.15,12,.4,8,.57,12,.82,8,1.07,12c.13,2,.2,4.08.34,6.12s.29,3.92.37,5.88c.17,4,.18,8,.23,12a55.76,55.76,0,0,1-.2,5.92c-.19,2-.46,3.92-.6,5.88-.27,4,.06,8,.07,12,0,4.5-.52,8.95-.8,13.44s-.1,9-.44,13.47c0,.56.83.56.87,0,.27-4,.14-8,.31-12s.7-8,.83-12-.11-8-.13-12,.77-7.84.89-11.79-.06-8-.15-12-.44-8-.64-12c-.1-2-.19-4-.4-6s-.47-4-.63-6c-.32-4-.38-8-.55-12-.1-2.21-.15-4.41-.07-6.62s.21-4.57.17-6.87c-.07-4.43-1.16-8.76-1.34-13.18,0-.57-.91-.57-.89,0Z" transform="translate(-54.91 -9.64)"/><path d="M179.25,153.63c-.19,4,.47,7.89.44,11.84s-.29,8-.46,12-.54,8-.83,12c-.14,1.93-.23,3.87-.45,5.79s-.53,4-.77,6a49,49,0,0,0-.36,5.8c0,2.05.12,4.1.17,6.15.09,3.92-.25,7.84-.44,11.75-.1,2.05-.18,4.11-.36,6.15s-.36,3.86-.48,5.79a92.29,92.29,0,0,0,.29,12c.14,2.16.32,4.32.62,6.47s.72,4.55,1,6.84a40.57,40.57,0,0,1,.29,6.52c-.08,2.27-.26,4.53-.17,6.8a.42.42,0,0,0,.84,0c0-4,.52-7.92.13-11.88s-1.21-7.84-1.56-11.79-.65-8.05-.62-12.06.59-7.91.8-11.87.49-8,.57-12-.37-7.86-.11-11.78,1.06-7.81,1.3-11.74.64-8,.86-12c.25-4.49.41-9,.55-13.49s-.52-8.84-.57-13.28a.34.34,0,0,0-.68,0Z" transform="translate(-54.91 -9.64)"/><path d="M209.72,192.6a48.24,48.24,0,0,0-.86,8.14c-.09,2.08,0,4.18-.12,6.27a5.62,5.62,0,0,1-1.68,4.2,16.16,16.16,0,0,1-5.18,2.59c-1.19.42-2.39.81-3.6,1.18-1.62.5-3.31.85-4.9,1.42l.55.22-.11-.21a.44.44,0,0,0-.81.22l0,.24a.49.49,0,0,0,.61.47,41.64,41.64,0,0,0,4.52-1.3c1.19-.36,2.37-.75,3.54-1.18a19.87,19.87,0,0,0,5.45-2.62c3.12-2.4,2.38-6.74,2.46-10.2q0-2,.21-4c.14-1.77.42-3.53.55-5.3a.33.33,0,0,0-.65-.09Z" transform="translate(-54.91 -9.64)"/><path d="M130.9,143.92a103.78,103.78,0,0,0,.27,11.83c.28,3.71.88,7.39,1.16,11.1.16,2.06.26,4.13.28,6.2a22.82,22.82,0,0,0,.5,5.65,15.93,15.93,0,0,0,5.24,7.78c3.34,2.89,7.31,4.92,10.8,7.6l.37-.86-.29-.07a.47.47,0,0,0-.24.9l.27.08c.44.13.83-.48.47-.79-5.27-4.48-13.12-7-15.53-14.11a16.41,16.41,0,0,1-.7-5.35q0-3-.23-6.06c-.25-3.63-.8-7.21-1.14-10.83-.42-4.35-.31-8.71-.5-13.07a.37.37,0,0,0-.73,0Z" transform="translate(-54.91 -9.64)"/><path d="M166.28,140.88a16.87,16.87,0,0,0,3.46.63,32.68,32.68,0,0,0,3.42.2,24.36,24.36,0,0,0,3.42-.24c.57-.08,1.12-.18,1.68-.31a3.11,3.11,0,0,0,1.6-.68,1,1,0,0,0-.42-1.58,4,4,0,0,0-1.74.25c-.48.12-1,.21-1.46.29a24.19,24.19,0,0,1-3.19.21c-1.1,0-2.21-.07-3.31-.17s-2.15-.3-3.23-.3a.87.87,0,0,0-.23,1.7Z" transform="translate(-54.91 -9.64)"/><path d="M170.49,118.91a7.8,7.8,0,0,0-.67-2.41,4.51,4.51,0,0,0-1.45-2,4.2,4.2,0,0,0-1.84-.59,4.57,4.57,0,0,0-2.08.13,6,6,0,0,0-1.63,1,1.8,1.8,0,0,0-.81,1,2.38,2.38,0,0,1-.6,1,3.26,3.26,0,0,0-.79,2c0,.25,0,.51,0,.77a9.53,9.53,0,0,0-.25,1.38,1.92,1.92,0,0,0,.94,1.28A6.78,6.78,0,0,0,168,123a4.22,4.22,0,0,0,2-1.63A4,4,0,0,0,170.49,118.91Zm-1.72-.8a.64.64,0,0,1-.43.08c-.27,0-.53,0-.8-.07a1.12,1.12,0,0,1-.54-.18,1,1,0,0,1-.32-.7c0-.29-.06-1.71.41-1.7a.58.58,0,0,1,.34.17,10,10,0,0,1,1.21,1.4,1.42,1.42,0,0,1,.28.49A.48.48,0,0,1,168.77,118.11Z" transform="translate(-54.91 -9.64)"/><path d="M185.83,119.44c-.1-.28-.27-.52-.38-.79a8.21,8.21,0,0,1-.27-.84,5.63,5.63,0,0,0-3.21-3.08,3.57,3.57,0,0,0-1.23-.37,3,3,0,0,0-2.19.84,5.4,5.4,0,0,0-1.37,1.74,10.88,10.88,0,0,1-.67,1.77c-.18.3-.41.57-.56.88a2.89,2.89,0,0,0,.45,3,5.73,5.73,0,0,0,2.65,1.7,4.53,4.53,0,0,0,1.74.3,5.19,5.19,0,0,0,2.1-.71,5.84,5.84,0,0,0,2.72-2.37,3.23,3.23,0,0,0,.31-1.1A2.12,2.12,0,0,0,185.83,119.44Zm-2.2.16a.18.18,0,0,1-.08.13h-.09a1.91,1.91,0,0,1-1.27-.27,1.89,1.89,0,0,1-.5-.65c-.25-.43-.5-.85-.74-1.28a.33.33,0,0,1-.06-.28c0-.06.07-.09.12-.13.37-.24.9-.73,1.36-.51a1.53,1.53,0,0,1,.6.61,5,5,0,0,1,.59,1.12A2.06,2.06,0,0,1,183.63,119.6Z" transform="translate(-54.91 -9.64)"/><path d="M157.94,133.87l0,0c-2.37,3.42-4.67,5.94-.63,9.1.69-1.22-.34-2.84.38-4.09.9-1.57,2.82-4.18,1.8-.5,1,.17,1-1.36,1.75-1.63,1.19.16,3.06-2.2,2.65,0a1.15,1.15,0,0,0,1.33-.54c.91-1.92,3.34.94,4.12-1.21,1.17-1.15,1.18-3,2.31-4.21a1.22,1.22,0,1,0-2-1.38c-1,1.49-.48,4-2,5.06.12-1.48,3.59-6.77-.4-5.55-.54.61-1.3.41-1.74,1.11-.76-.34-1.32.3-2,.55.08.75-.71.9-1.25,1.16-.36.67-1.3-.07-1.72.61s-1.33.23-1.85.58" transform="translate(-54.91 -9.64)"/><path d="M158,133.82l0,0a.07.07,0,0,0-.11,0c-1,1.48-2.43,3-2.79,4.87s.8,3.26,2.15,4.34a.09.09,0,0,0,.15,0,4.6,4.6,0,0,0,.14-2.55,3.56,3.56,0,0,1,.73-2.35,6,6,0,0,1,1.06-1.35c.26-.22.38-.16.37.19a6.1,6.1,0,0,1-.28,1.4.09.09,0,0,0,.08.11.92.92,0,0,0,.9-.49c.16-.24.27-.51.43-.75a.93.93,0,0,1,.74-.4,4.28,4.28,0,0,0,1.26-.55,2.35,2.35,0,0,1,.67-.34c.5-.1.38.48.32.82,0,0,0,.09.06.1a1.32,1.32,0,0,0,1.49-.7c.45-.72,1.19-.55,1.89-.38a2.48,2.48,0,0,0,1.47.1c.49-.2.76-.82,1-1.21a13.78,13.78,0,0,0,1.21-2.58c.33-.71,1.07-1.31,1-2.14a1.31,1.31,0,0,0-2.34-.72c-1.23,1.46-.41,4-2,5.18l.16.09a11.5,11.5,0,0,1,1-2.7c.28-.72.77-1.81.46-2.59s-1.4-.63-2-.36c-.14.06-.28.25-.42.32s-.46.18-.69.29-.39.33-.57.41-.62,0-.91.08-.75.42-1.13.59a.09.09,0,0,0,0,.07c0,.72-.65.8-1.14,1.07-.23.13-.37.3-.66.33s-.44,0-.66,0c-.4.09-.56.5-.95.61s-.93,0-1.36.27a.08.08,0,0,0,.08.14,3.87,3.87,0,0,1,1.17-.24,1.51,1.51,0,0,0,.69-.35c.53-.39.61-.23,1.16-.29a.88.88,0,0,0,.44-.17c.37-.25,1-.42,1.27-.82s.11-.43.42-.62a1.75,1.75,0,0,1,1.59-.38.09.09,0,0,0,.11-.05c.37-.5,1-.58,1.53-.91a1.78,1.78,0,0,1,1.42-.29c.73.2.51,1.14.37,1.67a18.92,18.92,0,0,1-.79,2.18,6.75,6.75,0,0,0-.59,1.74.1.1,0,0,0,.16.09c1.34-1,1.11-2.87,1.6-4.3a2.1,2.1,0,0,1,.91-1.26,1.07,1.07,0,0,1,1.41.48c.28.57,0,1.06-.36,1.51a6.3,6.3,0,0,0-.62,1.14c-.21.49-.37,1-.58,1.48a4.73,4.73,0,0,1-.31.64c-.15.26-.39.46-.54.7s-.32.69-.77.79a2.22,2.22,0,0,1-1-.09,3.28,3.28,0,0,0-1.61-.17c-.67.19-.92,1.44-1.7,1.22-.43-.12.07-.83-.45-1s-.93.35-1.23.51a3.06,3.06,0,0,1-.89.39c-.31.07-.47,0-.72.23a2.47,2.47,0,0,0-.48.71,2.19,2.19,0,0,1-.31.48.57.57,0,0,1-.3.23c-.25.05-.17,0-.16-.2s.57-2.23-.38-1.51a5,5,0,0,0-1,1.25,4.31,4.31,0,0,0-.89,1.82,7.88,7.88,0,0,0,.09,1.75,4.41,4.41,0,0,1,0,.89c0,.15,0,.32-.16.4s-.29-.1-.43-.22a4.34,4.34,0,0,1-1.65-2.93,5.23,5.23,0,0,1,.89-2.78c.16-.29,1.93-2.7,1.84-2.8.06.07.16,0,.1-.1Z" transform="translate(-54.91 -9.64)"/><path d="M172.72,130.81a16.15,16.15,0,0,0,2.45,5.3c1,.09-.16-1.45.67-1.55,1.15.4,3.9,3.84,4.42,1.84.13-.33.62-.24,1-.09,1.58.52.66-1.05-.05-1.5-.81-.89-.9-2.2-1.34-3.33-.64-1.4-7.39-3.24-7.29-.68" transform="translate(-54.91 -9.64)"/><path d="M172.59,130.84a14.9,14.9,0,0,0,2.23,5c.15.24.2.48.5.44a.42.42,0,0,0,.32-.19c.19-.32,0-.74,0-1.08,0-.63.8.05,1,.23.41.33.81.68,1.23,1s1.41,1.22,2.08.84a.81.81,0,0,0,.28-.3c0-.07.06-.17.1-.24.21-.35.5-.22.81-.11s.79.25,1-.08-.09-.69-.25-.92a12,12,0,0,1-1.07-1.29,19.27,19.27,0,0,1-.81-2.47,1.5,1.5,0,0,0-.55-.74,7.14,7.14,0,0,0-2.43-1.1c-1.1-.32-4.69-1.1-4.6,1a.12.12,0,0,0,.23,0c0-1.76,3-1.11,4-.85a8.1,8.1,0,0,1,2.37.94,1.9,1.9,0,0,1,.66.6,13.67,13.67,0,0,1,.63,2,3.15,3.15,0,0,0,.93,1.48,1.92,1.92,0,0,1,.71,1c.08.59-1,.05-1.26,0-.52,0-.46.33-.7.65-.52.65-1.74-.48-2.14-.8s-.75-.62-1.14-.91a2.57,2.57,0,0,0-.82-.53c-.31-.08-.49.19-.51.46s.2,1.3-.19,1a2.74,2.74,0,0,1-.39-.64c-.1-.17-.21-.34-.31-.52-.24-.42-.48-.85-.7-1.29a10.31,10.31,0,0,1-1-2.69c0-.16-.27-.1-.25.06Z" transform="translate(-54.91 -9.64)"/><path d="M180.51,131.08c-.26,2.19,2.29,7.15,4.61,5.58.23-1.08,1.32-.08,1.1.68.06.74.77,1,1.35,1.27.87.57.73,2.16,1.36,3,1.14,1.51,2.13-.67,1-1.51-.07-1.89-1.65-2.46-1-4.55-2.39-.24.15-1.74-1.38-2.71l.24.06c-1.35-1.12-1.22.28-1.38,1.25-.71.69-.33-1.45-.35-1.53-.21-.38-.5-.7-.44-1.18-.55-1.12-1.44.08-1.56,1.14-.44-.57-.87-1.4-1.59-.62-1.32-1.62-2.19-2-1.93.64" transform="translate(-54.91 -9.64)"/><path d="M180.43,131.08a6.93,6.93,0,0,0,1.54,4.54c.69.91,2.1,2.06,3.22,1.08.2-.17-.29-.45.39-.43.09,0,.22.12.27.16.28.26.24.54.27.88a1.24,1.24,0,0,0,.46.88c.38.32.94.39,1.23.8a4.72,4.72,0,0,1,.55,1.58c.17.61.52,1.6,1.29,1.66.57.05.88-.56.9-1a1.59,1.59,0,0,0-.36-1c-.27-.36-.26-.93-.44-1.36s-.48-.88-.66-1.34a2.85,2.85,0,0,1-.05-1.89.1.1,0,0,0-.1-.13c-.39,0-1-.1-.93-.61,0-.26.13-.52.18-.78a1.2,1.2,0,0,0-.57-1.32l-.09.23.24.06c.11,0,.22-.13.12-.21-.54-.43-1.2-.71-1.42.15a5.58,5.58,0,0,0-.09.59c0,.15,0,.82-.26.5s0-.8,0-1a.82.82,0,0,0-.13-.69,2.08,2.08,0,0,1-.24-.47c0-.13,0-.32,0-.44a1,1,0,0,0-.33-.43c-.82-.54-1.36,1-1.44,1.57l.2,0c-.3-.39-.72-1.17-1.33-.94-.09,0-.24.19-.33.19s-.31-.31-.4-.4a3.3,3.3,0,0,0-.68-.61c-1.17-.74-1,1.23-1,1.84,0,.14.22.14.21,0,0-.34-.26-1.82.36-1.79s1.1.87,1.39,1.23a.12.12,0,0,0,.15,0c.62-.62,1.05.11,1.41.59.05.07.19.08.2,0,.06-.41.42-1.74,1.08-1.47.29.12.24.51.31.77a4,4,0,0,0,.3.58c.23.42-.05,1,0,1.53,0,.3.35.56.59.2s.11-.74.16-1a1.13,1.13,0,0,1,.15-.48c.26-.31.69.08.91.25l.12-.2-.24-.06a.12.12,0,0,0-.09.23c.81.56.19,1.14.21,1.87s.7.77,1.23.83l-.11-.13a3.07,3.07,0,0,0,.18,2.34c.15.31.32.61.47.92a3.81,3.81,0,0,1,.24.67,3.29,3.29,0,0,0,.11.71c.07.14.27.25.35.41a1.13,1.13,0,0,1,.12.63c0,.37-.25.89-.7.79-1-.21-1-1.89-1.35-2.63a1.79,1.79,0,0,0-.51-.74c-.41-.31-1-.35-1.26-.81s-.07-.74-.24-1.11a1,1,0,0,0-.52-.53.47.47,0,0,0-.47,0c-.1.08-.11.19-.19.3a.84.84,0,0,1-.58.33,2.2,2.2,0,0,1-1.91-.82,6.88,6.88,0,0,1-2-4.93c0-.1-.14-.1-.15,0Z" transform="translate(-54.91 -9.64)"/><path d="M168.42,78.49c1.41,1.31,2.78,2.26,4.17,3.39A8.1,8.1,0,0,0,175,83.54c1.94.59,3.07-1.49,4.19-2.66.6-.64,1.25-1.24,1.91-1.82,1-.88,2.18-1.54,3.14-2.49a1.71,1.71,0,0,0-2.06-2.68,15.65,15.65,0,0,0-2.84,2.24c-.62.55-1.22,1.12-1.8,1.72-.71.75-1.35,1.55-2,2.36a4.3,4.3,0,0,0-.53.6c-.05.09.39-.27.18-.15s.36-.13.23-.09a1.26,1.26,0,0,1,.51,0c-.37-.08.26.16.06,0s-.25-.14-.38-.22c-.34-.23-.66-.48-1-.73a26.21,26.21,0,0,0-4.77-3,1.21,1.21,0,0,0-1.54.31,1.19,1.19,0,0,0,.09,1.56Z" transform="translate(-54.91 -9.64)"/><path d="M176.69,82.46a9.26,9.26,0,0,0,.3-2.88c0-1,.1-2,.14-2.92a17.31,17.31,0,0,0-.06-2.79c-.14-1.11-.25-2.26-1.24-3a1.07,1.07,0,0,0-1.44.38,5.72,5.72,0,0,0-.22,2.85c0,.93,0,1.86,0,2.79s-.1,1.88-.11,2.82a5.94,5.94,0,0,0,.51,3,1.19,1.19,0,0,0,2.15-.28Z" transform="translate(-54.91 -9.64)"/><path d="M174.67,82.68c-6.18,3-7.39,10.51-8.69,16.56-.45,2.09-1.08,4.11-1.63,6.18-.1.39.48.66.67.28a26,26,0,0,0,1.9-6.68c.45-2.21.87-4.44,1.52-6.6a19.4,19.4,0,0,1,2.23-5.06,13.24,13.24,0,0,1,4.37-4,.37.37,0,0,0-.37-.63Z" transform="translate(-54.91 -9.64)"/><path d="M175.89,82.29c1,1.9,2.29,3.64,3.36,5.49a23.37,23.37,0,0,1,2.58,6c.33,1.31.5,2.68.75,4a12,12,0,0,1,.23,1.8,2.34,2.34,0,0,1-.05.7l0,.13c-.11.18,0,.05-.08,0a.31.31,0,0,0-.16.58c2,1,.94-3.74.8-4.43a39,39,0,0,0-.9-4.16,26.44,26.44,0,0,0-2.45-5.22A39.84,39.84,0,0,0,176.29,82c-.19-.23-.52.06-.4.3Z" transform="translate(-54.91 -9.64)"/><path class="cls-2" d="M143.39,207.46a6.12,6.12,0,0,1,2.1-.52,5.85,5.85,0,0,0,2,0,1.24,1.24,0,0,1,.53-.12,2.17,2.17,0,0,0,.36,0,3.92,3.92,0,0,0,.88-.28c.3-.13.56-.35.46-.7A1.94,1.94,0,0,0,149,205c-.41-.33-.71-.78-1.11-1.11a7.16,7.16,0,0,0-1.72-.93c-.53-.23-1.17-.12-1.63-.49-.21-.17-.38-.38-.58-.56a3.92,3.92,0,0,0-.7-.44c-.32-.17-.59-.41-.91-.57a1.49,1.49,0,0,1-.41-.28.44.44,0,0,0-.26-.14.15.15,0,0,0-.11.27c.12.08.18.23.31.32s.55.3.81.48a7.63,7.63,0,0,1,1.23.8,2.18,2.18,0,0,0,1,.67,5.71,5.71,0,0,0,.71.08,3,3,0,0,1,1,.37A4.85,4.85,0,0,1,148,204.5a9,9,0,0,0,.89.86,2,2,0,0,1,.37.39c.14.26-.06.35-.29.44a2.82,2.82,0,0,1-.8.23,2,2,0,0,0-.78.1,6,6,0,0,1-2.12.11,6.81,6.81,0,0,0-2,.6c-.14.06-.08.29.06.23Z" transform="translate(-54.91 -9.64)"/><path class="cls-2" d="M131.93,205.87a4.3,4.3,0,0,0,1.08.29l.26,0a2.13,2.13,0,0,1,.25,0,2.44,2.44,0,0,0,.27,0,2.19,2.19,0,0,0,.27,0,.17.17,0,0,0,.17-.13v0a.13.13,0,0,0,0-.14.46.46,0,0,0-.25-.1,1.22,1.22,0,0,0-.27,0,1.45,1.45,0,0,1-.3,0h-.24l-.58-.11a2.77,2.77,0,0,0-.56-.11c-.13,0-.21.19-.07.26Z" transform="translate(-54.91 -9.64)"/><path class="cls-2" d="M135.43,206.34a5.18,5.18,0,0,1,.88,0c.27,0,.52,0,.79,0a7.61,7.61,0,0,0,.83,0,5.16,5.16,0,0,0,.88,0,.18.18,0,0,0,0-.35,5.16,5.16,0,0,0-.88,0,7.58,7.58,0,0,1-.83,0c-.27,0-.53,0-.8,0a6.32,6.32,0,0,0-.87,0,.16.16,0,0,0,0,.32Z" transform="translate(-54.91 -9.64)"/><path class="cls-2" d="M142.51,204.89a.44.44,0,0,0,.3.17,2.93,2.93,0,0,0,.41.07,3.91,3.91,0,0,0,.49,0l.21,0a2.06,2.06,0,0,0,.26,0l.36-.1a.45.45,0,0,0,.32-.26c.08-.27-.19-.45-.4-.55A2.44,2.44,0,0,0,144,204a1.16,1.16,0,0,0-.52-.08.14.14,0,0,0-.08.2c.06.15.25.2.4.24a3.36,3.36,0,0,1,.45.14,1.42,1.42,0,0,1,.22.13s0,0,0,0,0-.09,0-.08l-.14.05a2.62,2.62,0,0,1-.38.09l-.48.08h-.25a.78.78,0,0,1-.21,0h-.26s-.06,0,0,0a.17.17,0,0,0-.2,0,.15.15,0,0,0,0,.2Z" transform="translate(-54.91 -9.64)"/><path d="M226.31,14.93c4.23,0,8.52-.33,12.75-.14a29.9,29.9,0,0,1,4.84.3,3.84,3.84,0,0,0,1.51-.2c0,.95-.07,1.88-.17,2.82-.25,4.27.28,8.58-.13,12.84-.28,3-1.19,6.15-.84,9.17.21,1.77,3.1,2.61,3.46.47l.11-.67a1,1,0,0,0-.46-1.12c.3.13,1.23-9.87,1.21-10.9-.06-3-.36-5.91-.29-8.86,0-1.43.75-4,0-5.3-1.2-2.1-4.08-1.16-6-1.16-5.35,0-10.62.09-16,.45a1.15,1.15,0,0,0,0,2.3Z" transform="translate(-54.91 -9.64)"/><path d="M244.78,268.86a89.87,89.87,0,0,0,.73,9.54c.13,1.3.7,2.49.48,3.85-.36,2.24-.47,1.44-2.32,1.57-3.68.28-7.34-.5-11-.56-4.82-.08-9.76-.26-14.56.08-3.23.23-.08,4.66,1.23,2.14a1.38,1.38,0,0,0,0-1.44c-1.31-2.52-4.46,1.92-1.23,2.15,6.25.44,12.54,0,18.78.47,2.11.14,4.21-.15,6.3.11,1.25.14,3,.85,4.24.17,2.09-1.13,1.5-4.4,1.37-6.3a78.12,78.12,0,0,0-1.6-12.11,1.24,1.24,0,0,0-2.42.33Z" transform="translate(-54.91 -9.64)"/><path d="M56.31,272l.24-.72c.15-.46-.53-.89-.84-.49-1.63,2.08-.25,5-.33,7.37-.05,1.86-1,4.72.77,6.11,1.38,1.11,3.7.77,5.32.68a29.33,29.33,0,0,1,3.24-.12c1.15.09,2.06.8,3.21.48a1.31,1.31,0,0,0,.91-1.61l-.11-.33a1,1,0,0,0-1.46-.6c-.13.06-1.43-.48-1.73-.51a17.29,17.29,0,0,0-3.05.11c-1.1.07-3.59.72-4.55.1s-.17-4.37-.31-5.67c-.11-1-.38-2-.47-3-.12-1.3.12-1.88-.65-2.91l-.92.39.24.72a.26.26,0,0,0,.49,0Z" transform="translate(-54.91 -9.64)"/><path d="M72.44,10.09c-3.55-.47-7.19,0-10.76-.35-1.78-.17-4.16-.34-5,1.61-.71,1.64,0,3.93.13,5.65.27,3.72-.94,7.33-1,11,0,2.24,3.43,2.24,3.47,0,.06-2.6.81-5.29,1.07-7.89.21-2.17-.42-4.3-.26-6.41.1-1.28-.17-.8,1.09-.37a12,12,0,0,0,3.39.29,40.78,40.78,0,0,0,8.26-.6c1.81-.36,1.12-2.74-.4-2.93Z" transform="translate(-54.91 -9.64)"/><path d="M237,18.26a3.88,3.88,0,0,0,.25,2.93c.72,1.2,2.07,1.11,3.19.57a1.13,1.13,0,0,0,.51-1.26,2.11,2.11,0,0,0-1-1.27,1.61,1.61,0,0,1-.43-.23c-.15-.15-.2-.32-.41-.45l.33.43a.69.69,0,0,1-.11.35l.09,0a1.28,1.28,0,0,0,.4-.14,3.64,3.64,0,0,0,.77-.37.87.87,0,0,0,.45-1,1.08,1.08,0,0,0-.46-.66c-.84-.51-2.12.52-2.74,1a.52.52,0,0,0,.37.88,2.53,2.53,0,0,0,1.15-.48c.17-.1.35-.18.53-.28.34-.19,0,.08-.07-.22l.18-.44c-.55.5-1.66.34-1.91,1.22-.07.26.2-.36.05-.05a1.15,1.15,0,0,0-.17.48,1.93,1.93,0,0,0,.21.91,3.14,3.14,0,0,0,.43.6,3.07,3.07,0,0,1,.25.26c0-.06-.06-.19,0,.05l.78-1.38c-.05,0-.52.17-.38.1-.15,0-.14,0,0,0s.16.08.05,0q.18.15.09.06c-.06-.07,0,0,.06.08-.07-.11-.07-.1,0,.06l-.06-.19c0-.05-.08-.48-.05-.19,0-.11,0-.22,0-.33a4.36,4.36,0,0,0-.18-1.07,1.09,1.09,0,0,0-2.09,0Z" transform="translate(-54.91 -9.64)"/><path d="M242.74,276.63c-.63-.07-1.3,0-1.9-.09l.7,1.73a1.47,1.47,0,0,0,.24-.7c-.11.15-.11.16,0,0l.07-.09c.1-.12.2-.24.29-.37a1.68,1.68,0,0,0,.29-1.42.71.71,0,0,0-.66-.5c-.62,0-1.75.41-1.4,1.25a.54.54,0,0,0,.5.39.74.74,0,0,0,.53-.19c.06,0,.15-.13.19-.12l-.49-.65c0,.13-.4.49-.41.46h.18l-.26,0-.22,0a1.5,1.5,0,0,0-.87.65,1.18,1.18,0,0,0,.7,1.73,8,8,0,0,0,2.53.06,1.15,1.15,0,0,0,1.11-1.12,1.14,1.14,0,0,0-1.11-1.12Z" transform="translate(-54.91 -9.64)"/><path d="M61.07,278c0,.26,0,.53,0,.79a1.06,1.06,0,0,0,.78,1,1.07,1.07,0,0,0,1.2-.48l.14-.35c.09-.19,0,0,0,0s.14-.27.16-.3a2.21,2.21,0,0,0,.24-1.07,1.42,1.42,0,0,0-.67-1.16,1.49,1.49,0,0,0-.71-.23,1.75,1.75,0,0,0-.89.39,1,1,0,1,0,1,1.66l.41-.24-.75.09-.06,0-.08-.06a.56.56,0,0,1-.17-.39c0,.16.07-.16,0-.06a1.39,1.39,0,0,0-.06.19c0,.1.1-.17,0,0l-.1.17c-.08.15.15-.09,0,0a1.06,1.06,0,0,0-.12.1l1.81.75c0-.26,0-.53,0-.79a1.08,1.08,0,1,0-2.15,0Z" transform="translate(-54.91 -9.64)"/><path d="M64.79,17.87a1.82,1.82,0,0,0-1.36-.74,1.46,1.46,0,0,0-1.22.77,2.25,2.25,0,0,0,.18,2.64,1.42,1.42,0,0,0,2,.12A2.43,2.43,0,0,0,65.11,19a.91.91,0,0,0-.4-.83,1,1,0,0,0-1.12.32.51.51,0,0,0-.14.51,1,1,0,0,0,1.3.79c.7-.19.63-1.33.14-1.7-.2-.15-.43,0-.5.21s-.06.5-.17.74l.3-.24s0,0,0,0l0,0a.35.35,0,0,1-.05-.13l-.13.51c.06-.06,0,0,.1-.07s-.07,0,0,0c-.22,0-.36-.08-.43-.22,0,.08,0-.12,0,0a.76.76,0,0,1,0,.15c0-.16,0,0,0,.05a.5.5,0,0,1,0,.13l-.06.18,0,0-.1.17s-.13.18,0,.08l-.09.1c-.1.12,0,0,0,.05s0,0,0,0-.05,0,0,0a.11.11,0,0,1-.08,0c.09,0,.11,0,0,0l0,0-.06,0h0c.09.1-.05-.08-.07-.12.08.16,0,0,0,0l-.06-.22c0,.18,0,0,0-.08a1.62,1.62,0,0,1,0-.22c0,.21,0-.07,0-.11a1.62,1.62,0,0,0,0-.19c0-.05.12-.29,0-.1l.1-.17,0,.05c.06-.06,0-.05-.05,0,.08-.05.06,0-.06,0q.12,0-.06,0c.17,0-.19,0,0,0-.09,0-.1,0,0,0a.57.57,0,0,1,.13.08c-.06-.05.14.16.17.19a.77.77,0,0,0,1.08-1.09Z" transform="translate(-54.91 -9.64)"/></svg>