<?xml version="1.0" encoding="UTF-8"?><svg id="Layer_2" xmlns="http://www.w3.org/2000/svg" width="536.96" height="235.22" viewBox="0 0 536.96 235.22"><defs><style>.cls-1{stroke-width:3.64px;}.cls-1,.cls-2,.cls-3,.cls-4,.cls-5,.cls-6{fill:none;stroke-miterlimit:10;}.cls-1,.cls-2,.cls-3,.cls-4,.cls-6{stroke-linecap:round;}.cls-1,.cls-2,.cls-6{stroke:#f4e5ca;}.cls-7{fill:#f4e5ca;}.cls-2{stroke-width:2px;}.cls-3,.cls-4,.cls-5{stroke:#000;}.cls-3,.cls-5{stroke-width:2.35px;}.cls-4{stroke-width:1.93px;}.cls-6{stroke-width:1.73px;}</style></defs><g id="Layer_1-2"><g><g><g><g><path d="M336.9,178.33c-.63-.17-1.27-.24-1.93-.15-1.09,.15-1.66,.87-2.64,1.25-1.15,.44-2.44,.25-3.63,.46-1.06,.18-1.84,.89-2.84,1.25-1.11,.41-2.33,.53-3.42-.01-.75-.37-1.11-.92-1.68-1.48-.28-.29-.61-.47-.93-.72-.95-.74-1.69-1.73-2.47-2.63-.71-.81-1.45-1.52-2.3-2.18-1.04-.79-1.92-1.77-2.97-2.54-2.12-1.57-4.61-2.49-6.75-3.99-.04-.03-.07-.05-.11-.08,.82-1,1.73-1.72,2.99-2.39,1.37-.72,2.53-1.61,3.35-2.95,.41-.66,.37-1.32,.65-2.02,.27-.67,.99-1.8,1.58-2.22,1.02-.72,2.31,.02,3.34,.37,1.56,.55,4.32,.31,5.23,1.93,.73,1.27,.66,2.71,1.77,3.81,.77,.75,1.76,1.05,2.76,1.36,3.4,1.06,2.74,4.76,4.04,7.43,.64,1.32,1.7,1.87,2.81,2.71,1.12,.85,2.04,1.93,3.15,2.79Z"/><path d="M535,202.5c-.3-.56-.22-1.25-.18-1.85,.07-1.11-.52-1.18-1.39-1.45-3.68-1.17-7.23-2.76-10.64-4.58-1.76-.94-3.49-1.94-5.19-2.98-1.72-1.05-3.37-2.35-5.19-3.2-1.65-.76-3.39-1.3-5-2.14-1.48-.78-2.65-1.92-4.24-2.47-1.21-.41-2.53-.41-3.72-.85-1.76-.64-3.06-2.29-4.21-3.68-.66-.78-1.25-1.78-2.12-2.33-.6-.38-1.23-.67-1.8-1.12-.94-.73-1.73-1.62-2.4-2.61-1.13-1.69-1.61-3.71-2.73-5.39-.43-.65-.78-.86-1.53-.65-1.16,.33-2.2,.48-3.41,.26-2.42-.45-4.53-1.96-6.63-3.17-2.15-1.24-4.72-2.58-6.98-.91-1.34,.98-2.73,1.38-4.38,1.5-.87,.07-1.75,.07-2.61,.22-.85,.15-1.5,.66-2.24,1.07-2.3,1.24-5.04,1.87-7.5,.72-1.47-.69-2.19-1.89-3.35-2.92-1.16-1.03-2.27-1.95-3.29-3.16-1.01-1.22-1.97-2.49-3.12-3.59-.58-.56-1.29-.95-1.87-1.5-.66-.63-1.25-1.32-1.93-1.94-1.42-1.28-3-2.38-4.64-3.36-1.56-.94-3.26-1.68-4.79-2.66-3.3-2.1-6.06-4.94-9.33-7.07-.54-.35-.95-.81-1.5-1.15-.41-.26-.84-.48-1.23-.77-.44-.33-.83-.72-1.1-1.2-.28-.48-.28-1.05-.5-1.54-.64-1.42-2.98-2.4-4.41-2.63-1.53-.24-3.1,.05-4.56,.52-1.56,.5-3.03,1.21-4.49,1.94-.73,.38-1.5,.73-2.21,1.15-.63,.37-1.09,.96-1.79,1.23-.57,.23-1.19,.24-1.74-.06-.33-.18-.48-.41-.89-.42-.92-.04-1.86,.87-2.47,1.45-1.84,1.73-3.29,3.84-4.89,5.78-1.85,2.22-4.15,3.99-6.43,5.73-1.6,1.23-3.21,2.44-4.71,3.79-1.25,1.13-2.33,2.43-3.65,3.49-2.14,1.7-4.47,3.17-5.95,5.54-.89,1.42-1.13,3.16-2.26,4.4-.87,.96-2.03,1.53-3.29,1.75-1.26,.22-2.54,.13-3.81,.2-1.45,.08-2.98,.59-4.29,1.19-3.32,1.5-5.96,4.19-8.78,6.42-1.06,.83-2.2,1.95-3.61,2.04-.13,.01-.26,.01-.39,0,1.53,.85,3.27,2.14,5.1,2,1.33-.09,2.22-.73,3.23,.51,.87,1.04,1.21,2.47,1.94,3.61,.55,.87,1.28,1.61,2.18,2.13,.57,.33,.92,.43,1.37,.93,.36,.41,.7,.85,1.06,1.26,.8,.9,1.64,1.95,2.87,2.2,1.18,.25,2.34,.38,3.44,.96,.68,.36,1.25,.9,1.94,1.25,.55,.28,1.13,.5,1.7,.72,1.1,.42,2.09,.85,3.09,1.43,.11-.13,.21-.25,.33-.36,.45-.42,1.01-.61,1.53-.93,1.28-.77,2.07-2.2,3.5-2.81,1.06-.46,2.11-.56,2.78-1.58,.31-.48,.62-.9,1.12-1.23,1.19-.81,2.52-.2,3.81-.03,.93,.13,2.13,.07,2.88,.75,.5,.44,.58,1.17,1.17,1.51,.58,.32,1.35,.28,1.97,.5,1.41,.49,1.43,1.58,2.1,2.71,.44,.74,1.46,.94,2.18,1.34,.69,.4,1.42,.96,2.24,1.01,1.05,.07,2.16-.69,3.06-1.16,.73-.38,1.46-.76,2.21-1.1,1.44-.66,2.97-1.15,4.55-1.31,1.69-.17,3.6,.34,4.75-1.2,.86-1.17,1.88-1.89,3.18-2.52,1.51-.73,2.89-1.62,4.37-2.38,1.66-.87,3.42-1.56,5.02-2.54,1.14-.69,2.11-1.62,3.2-2.37,.86-.59,1.92-1.23,3.01-1.09,.21,.02,.43,.16,.63,.18,.46,.03,.7-.18,1.11-.34,.76-.31,1.58-.52,2.37-.75,1.59-.47,3.27-.88,4.95-.77,1.24,.09,2.95,.48,3.76,1.51,.35,.43,.37,.57,.89,.78,.25,.1,.5,.2,.75,.31,.79,.36,1.58,.71,2.36,1.1,1.84,.9,3.62,1.75,5.57,2.42,1.86,.64,3.51,1.47,5.22,2.43,1.43,.81,2.67,1.86,4.08,2.67,1.53,.88,2.88,1.8,4.73,1.59,.95-.1,1.74-.5,2.64-.75,.78-.22,1.64-.16,2.44-.2,1.74-.09,3.08-1.05,4.87-.8,1.51,.21,2.89,.88,4.32,1.34,.77,.26,1.57,.48,2.39,.48,.62,0,1.22-.24,1.83-.18,.77,.08,1.25,.57,1.7,1.16,.75,1,1.4,1.84,2.6,2.35,.36,.16,.78,.22,1.13,.4,.42,.22,.79,.63,1.18,.91,.46,.35,.95,.72,1.49,.96,.66,.31,1.37,.31,2.09,.41,1.62,.23,3,1,4.57,1.41,3.47,.9,6.74,2.39,10.16,3.42h.01c.38,.01,.77,.02,1.15,.06,.93,.1,1.82,.36,2.74,.47,1.93,.25,3.88,.2,5.81,.15,1.92-.04,3.84-.12,5.76-.02,1.83,.09,3.55,.37,5.39,.25,3.25-.21,6.5-.69,9.75-.62-.67-.49-1.54-.8-1.96-1.58Zm-100.34-37.33c-.11,.17-.29,.26-.48,.26-.11,0-.22-.03-.32-.1-3.92-2.63-7.44-5.66-10.46-9.01-1.47-1.63-2.96-3.09-4.91-3.01-.32,.01-.63,.06-.94,.11-.45,.08-.9,.15-1.39,.13-1.64-.06-2.84-1.13-3.42-2.11-.57-.96-.75-2-.92-3.01l-.05-.27c-.08-.49-.18-.92-.47-1.21-.5-.5-1.51-.55-2.29-.37-.58,.13-1.12,.35-1.69,.59-.34,.14-.69,.28-1.04,.41-2.16,.75-4.63,.75-6.79,.01-.31-.1-.47-.43-.36-.73,.1-.3,.43-.46,.73-.36,1.89,.65,4.15,.64,6.04-.01,.33-.12,.66-.25,.98-.39,.59-.24,1.2-.5,1.88-.65,1.05-.23,2.49-.18,3.35,.68,.53,.53,.69,1.19,.8,1.83l.05,.28c.16,.94,.31,1.83,.77,2.61,.41,.69,1.3,1.51,2.47,1.55,.37,.02,.76-.05,1.16-.11,.35-.06,.71-.12,1.09-.13,2.66-.09,4.55,2,5.8,3.39,2.96,3.27,6.41,6.24,10.25,8.82,.27,.18,.34,.54,.16,.8Zm45.96,10.68s-.1,.02-.15,.02c-.25,0-.49-.17-.56-.42l-1.09-3.87c-.07-.24-.12-.3-.15-.31-.07-.03-.26,0-.4,.03-2.03,.34-4.1-.56-4.92-2.07-.12-.21-.19-.35-.25-.38-.09-.03-.32,.03-.49,.08-1.65,.43-3.41,.54-5.12,.33-.31-.04-.54-.33-.5-.64,.04-.32,.33-.54,.65-.5,1.55,.19,3.17,.09,4.67-.31,.32-.08,.75-.2,1.18-.04,.48,.17,.69,.57,.83,.84,.62,1.13,2.24,1.8,3.66,1.57,.38-.07,.73-.13,1.1,.01,.61,.23,.77,.82,.84,1.07l1.1,3.87c.09,.31-.09,.63-.4,.72Z"/></g><g><path d="M207.36,208.27s-.06,.01-.08,.02c-.69,.17-1.28,.15-1.91,.03,.66-.02,1.33-.04,1.99-.05Z"/><path d="M295.49,206.78h-1.03c-.07,0-.14,0-.21-.01,.26,0,.51,0,.77-.02h.09c.13,.01,.26,.03,.38,.03Z"/><path d="M305.89,206.79h-.87c.27-.02,.54-.04,.81-.07,.02,.02,.04,.04,.06,.07Z"/><path d="M366.79,197.73c-.08,.13-.16,.25-.25,.36-.51,.65-.9,1.14-1.69,1.44-.6,.23-1.27,.37-1.81,.75-.6,.43-.98,1.1-1.52,1.6-.55,.51-1.13,.99-1.69,1.48t-.02,.02c-.25,.22-.44,.46-.59,.71-.16,.23-.28,.48-.4,.74-.08,.17-.16,.34-.24,.52-.25,.53-.49,1.06-.74,1.59-2.66-.22-5.31-.56-8-.63-1.42-.03-2.85-.04-4.27-.03-1.75,.01-3.35,.34-5.07,.55-3.08,.38-6.22,.27-9.31,.02-.24-.02-.48-.04-.72-.05,.08-.16,.09-.35-.03-.54-.47-.77-1.18-1.07-1.98-1.41-.21-.09-.37-.17-.49-.25-.24-.15-.32-.32-.34-.68,0-.09,0-.19,0-.31,0-.14,0-.28-.03-.41-.03-.21-.09-.4-.22-.58-.59-.8-2.03-.77-2.91-.96-1.62-.35-3.24-.76-4.83-1.22-3.02-.87-5.99-1.9-8.91-3.04-2.92-1.14-5.71-2.4-8.75-3.19-1.44-.37-2.89-.76-4.24-1.41-1.06-.52-2.09-.87-3.27-1.09-1.12-.22-2.31-.18-3.4-.5-.84-.25-1.62-.69-2.36-1.22-.2-.13-.4-.28-.59-.44-.19-.14-.38-.3-.57-.45-.45-.37-.89-.75-1.32-1.1-.87-.73-2.04-.87-3.04-1.42-.89-.5-1.67-1.14-2.34-1.91-.84-.98-1.39-2.27-2.38-3.12-1.27-1.09-2.52-.47-4.01-.37-3.77,.24-7.06-2.13-10.64-2.98,.78-.63,1.62-1.2,2.42-1.82,.87-.67,1.59-1.49,2.41-2.21,1.12-.97,2.32-1.83,3.52-2.7,1.57-1.15,3.15-2.32,4.44-3.78,1.2-1.37,2.26-2.89,3.63-4.08,.39-.35,1.07-.96,1.65-.83,.24,.06,.39,.28,.62,.36,.46,.17,.99,.05,1.4-.16,.95-.47,1.82-1.12,2.8-1.59,1.06-.51,2.15-1,3.29-1.32,1.06-.29,2.17-.44,3.25-.18,.56,.13,1.08,.36,1.56,.68,.78,.52,.89,.87,1.24,1.64,.28,.64,.76,1.07,1.35,1.43,.77,.49,1.48,1,2.24,1.5,1.24,.82,2.39,1.8,3.57,2.71,.2,.15,.39,.3,.59,.44,.2,.15,.39,.3,.59,.43,.59,.42,1.2,.81,1.84,1.14,2.33,1.21,4.66,2.39,6.6,4.21,.82,.77,1.73,1.41,2.52,2.2,.78,.77,1.45,1.65,2.19,2.46,.68,.75,1.52,1.29,2.23,1.99,.76,.76,1.38,1.47,2.41,1.88,1.83,.73,3.81,.23,5.48-.67,1.1-.6,2.03-.66,3.26-.76,1.13-.09,2.07-.37,3.03-.97,1.81-1.14,3.48-.22,5.18,.73,1.48,.84,3,1.81,4.73,2.03,.85,.11,1.47-.17,2.28-.24,.54-.05,.69,.16,.97,.65,.75,1.27,1.18,2.66,2.12,3.83,.52,.66,1.14,1.23,1.85,1.68,.46,.3,.96,.49,1.35,.87,.51,.5,.93,1.12,1.41,1.64,.78,.86,1.67,1.78,2.82,2.12,.99,.29,2,.3,2.97,.7,1.11,.46,2.04,1.3,3.16,1.79,1.11,.49,2.32,.81,3.39,1.39,.21,.11,.41,.22,.62,.34Z"/><path class="cls-7" d="M305.83,206.72c-.27,.03-.54,.05-.81,.07h.87s-.04-.05-.06-.07Zm12.44-.42c-.79-.03-1.57-.03-2.35,0,.91,.04,1.81,.07,2.74,.03,.26,0,.53-.02,.79-.03-.39-.02-.79-.02-1.18,0Z"/></g></g><path d="M305.89,206.79h-.87c.27-.02,.54-.04,.81-.07,.02,.02,.04,.04,.06,.07Z"/><path d="M318.27,206.3c-.79-.03-1.57-.03-2.35,0,.91,.04,1.81,.07,2.74,.03,.26,0,.53-.02,.79-.03-.39-.02-.79-.02-1.18,0Z"/><path d="M326.86,205.34c-.21-.17-.31-.38-.36-.61-.06-.22-.07-.45-.09-.67-.03-.29-.08-.56-.29-.75-.05-.07-.12-.12-.21-.16-.59-.29-1.59-.31-2.23-.45-.78-.18-1.55-.36-2.32-.56-1.37-.36-2.73-.75-4.08-1.17-3-.94-5.95-2.04-8.87-3.23-1.46-.59-2.91-1.29-4.41-1.76-1.33-.41-2.7-.69-4.04-1.09-2.21-.66-4.16-1.82-6.48-2.16-1.07-.15-2.17-.15-3.2-.54-.79-.3-1.5-.74-2.18-1.23-.2-.14-.39-.29-.59-.44-.19-.15-.38-.3-.57-.46-.4-.31-.79-.63-1.19-.93-1-.74-2.23-.99-3.31-1.61-.7-.41-1.35-.9-1.92-1.47-1.01-1-1.6-2.29-2.55-3.32-1.19-1.29-3.01-.28-4.55-.38-2.25-.14-4.37-1.02-6.45-1.82-1.35-.52-2.78-1.09-4.24-1.33-.3-.05-.61-.08-.91-.09-.31-.03-.6-.03-.9,0-.25,.01-.49,.04-.73,.09-1.38,.26-2.52,1.07-3.96,1.28-1.31,.18-2.64,.12-3.96,.24-1.4,.14-2.65,.84-4,1.19-1.13,.29-2.31,.45-3.48,.4-1.08-.04-2.16-.26-3.15-.7-.98-.42-1.72-1.14-2.64-1.65-2.32-1.29-4.2-3.15-6.49-4.48-.65-.38-1.33-.64-1.96-1.07-.56-.39-1.13-.75-1.72-1.09-1.37-.79-2.82-1.45-4.29-2.03-2.65-1.05-5.31-1.86-7.85-3.17-1.42-.73-2.82-1.51-4.25-2.22-1.18-.59-2.41-.89-3.62-1.39-2.95-1.23-5.45-3.22-8.74-3.6-1.58-.18-3.18-.08-4.77,.03-1.66,.13-3.14,.36-4.6,1.2-1.23,.72-2.37,1.59-3.68,2.16-1.12,.49-2.3,.79-3.47,1.14-2.9,.88-5.44,2.45-8.05,3.95-2.6,1.48-5.35,2.68-7.96,4.15-1.25,.7-2.38,1.57-3.62,2.27-.93,.52-1.9,.97-2.85,1.45-1.11,.55-2.22,1.14-3.16,1.95-.9,.77-1.34,1.69-2,2.64-1.16,1.69-3.68,1.94-5.54,1.99-1.22,.03-2.46-.05-3.67,.15-1.31,.21-2.67,.65-3.95,1.03-3.16,.95-5.96,2.95-8.91,4.38-1.1,.52-1.96,.74-3.18,.5-1.3-.26-2.36-.91-3.54-1.47-.98-.48-2.07-.88-2.7-1.84-.38-.59-.51-1.25-1-1.79-.41-.46-.92-.81-1.33-1.27-.97-1.07-1.48-2.55-3.04-2.9-1.27-.29-2.52,.29-3.78-.24-1.22-.52-1.8-1.7-2.71-2.6-1.22-1.19-2.45-1.23-4.03-1.51-1.36-.24-2.88-.77-4.08,.27-1.02,.88-.87,1.75-1.1,2.96-.21,1.07-.99,1.21-1.95,1.47-.89,.24-1.23,.56-1.85,1.26-.36,.42-.75,.73-1.24,.99-1.27,.69-2.62,1.16-3.96,1.65-1.08,.4-1.98,1.24-2.98,1.81-1.27,.72-2.03,1.89-2.76,3.09,2.47,1.2,4.7,2.86,7,4.33,1.65,1.05,3.45,.56,5.16,.02,.73-.23,1.41-.27,2.18-.3,1.05-.05,1.8-.28,2.79-.62,2.63-.88,5.11,.99,7.62,1.46,1.09,.2,2.34-.4,3.35,.11,.58,.29,.91,.9,1.28,1.4,.38,.51,.8,.97,1.33,1.32,.59,.39,1.27,.48,1.87,.79,1.04,.55,1.77,1.58,2.94,1.94,.63,.2,1.31,.17,1.96,.29,1.45,.25,2.73,.96,4.16,1.33,2.22,.56,4.34,1.4,6.49,2.19,1.94,.03,3.9,.4,5.81,.67,3.39,.47,6.72,.71,10.09,.7h.01c.18-.13,.35-.25,.5-.37,.87-.67,1.75-1.32,2.63-1.98,.87-.64,1.74-1.29,2.6-1.96,.3-.23,.59-.49,.89-.75,.78-.68,1.58-1.39,2.69-1.9,1.05-.48,2.26-.8,3.44-1.1,1.22-.33,2.49-.66,3.47-1.16,1.1-.56,1.91-1.27,2.78-2.03,1.25-1.09,2.54-2.23,4.72-2.85,.39-.1,.8-.18,1.2-.26,.63-.13,1.22-.24,1.66-.45,.49-.24,.72-.63,.99-1.07,.2-.32,.4-.65,.7-.94,.72-.71,1.73-.93,2.62-1.13,.19-.04,.38-.08,.55-.12l.46-.12c1.17-.3,2.38-.61,3.62-.5,.71,.06,1.41,.27,1.94,.45,.25,.08,.49,.2,.72,.31,.41,.2,.66,.32,.97,.27,.02,0,.1-.05,.16-.07,.15-.09,.36-.2,.62-.23,.3-.03,.66,.03,.91,.14,.4,.18,.71,.46,1.02,.73,.24,.21,.46,.41,.68,.52,.43,.21,.89,.35,1.38,.51,.25,.08,.49,.16,.73,.24,1.5,.53,3.04,.93,4.59,1.19,1.49-.62,2.82-1.33,3.93-2.12l.22-.16,.27,.05c.94,.19,1.91,.33,2.85,.46,.93,.14,1.88,.27,2.83,.46,.03,.01,.05,.01,.08,.02,.24,.04,.47,.09,.71,.15,.25,.04,.5,.1,.75,.15,.41,.09,.83,.19,1.24,.28,.95,.22,1.9,.44,2.86,.62l.16,.03,.12,.1c1.84,1.51,3.98,2.8,6.23,3.77,1.27-1.09,3.69-1.7,5.58-2.04,1.14-.2,2.29-.36,3.44-.53,1.14-.16,2.28-.32,3.42-.52,.88-.16,1.68-.36,2.31-.6,.65-.24,1.16-.58,1.65-.95,.2-.15,.39-.31,.59-.47,0,0,.02-.01,.03-.02,.17-.14,.35-.29,.53-.43,.93-.71,1.99-1.35,3.73-1.42h.26s.19,.16,.19,.16c.03,.03,.06,.06,.1,.08,.18,.14,.42,.26,.71,.37,.26,.08,.55,.15,.88,.21,.4,.07,.85,.12,1.33,.14,1.22-.53,2.04-1.16,2.36-1.82l.13-.27,.28-.07c2.86-.7,6.31-.61,8.79,.23,2.37,.8,3.96,2.37,4.18,4.04,1.92,.2,4.12-.21,5.1-.99l.23-.18,.28,.05c2.91,.58,5.33,1.47,7.2,2.66,.67,.42,1.3,.74,2.18,.95,.56,.13,1.18,.27,1.76,.39,1,.19,1.78,.6,2.45,.98,.03,.01,.07,.03,.1,.05h.01s.04,.02,.04,.02c.14,.08,.28,.16,.42,.23,.24,.13,.47,.26,.69,.38,1.37,.76,2.54,1.44,3.58,2.06l.28,.17c1.71,1.03,3.32,2,4.19,3.17,.21,.29,.36,.56,.5,.81,.32,.6,.54,.99,1.7,1.43,.61,.23,1.39,.32,2.13,.37h.01c.18,.02,.35,.03,.52,.04,.75,.05,1.47,.09,2.03,.27l.07,.03h.02l.6,.18c.58,.18,1.24,.38,1.88,.6t.02,.01c1.31,.44,2.64,1.01,3.52,1.82h.01c.44,.01,.88,.01,1.33,0,.82-.01,1.63-.03,2.44-.04,1.15-.02,2.31-.02,3.47,.03,.77,.03,1.55,.09,2.3,.13h.22c.78-.03,1.56-.03,2.35,0,.39-.02,.79-.02,1.18,0h.12c1.28-.07,2.57-.16,3.86-.23,1.52-.09,3.05-.16,4.57-.15-.41-.15-.82-.3-1.14-.58Zm-134.41-37.9c-1.37,.01-2.78,.02-3.77,.61-.65,.38-1.1,1-1.57,1.66-.66,.92-1.34,1.86-2.62,2.25-.37,.11-.74,.16-1.1,.21-.45,.05-.87,.11-1.19,.27-.34,.18-.59,.5-.85,.83l-.06,.09c-1.55,1.99-3.63,3.74-6.03,5.04-.08,.04-.18,.07-.27,.07-.21,0-.4-.11-.51-.31-.15-.28-.05-.63,.23-.78,2.26-1.22,4.22-2.86,5.67-4.73l.06-.08c.31-.4,.66-.86,1.23-1.15,.5-.26,1.05-.33,1.57-.4,.33-.04,.64-.08,.92-.16,.91-.28,1.42-.99,2.01-1.82,.52-.73,1.06-1.48,1.93-1.99,1.26-.74,2.82-.75,4.34-.76,1.56-.01,3.04-.02,3.93-.82,.23-.21,.6-.2,.81,.04,.21,.24,.19,.6-.04,.81-1.22,1.1-2.98,1.11-4.69,1.12Zm5.86,4.63c-.86,.75-2.03,1.13-3.15,1.07-.19,.57-.24,1.18-.15,1.77,.05,.32-.16,.61-.48,.66-.03,0-.06,0-.09,0-.28,0-.52-.2-.57-.49-.15-.95,0-1.92,.4-2.82l.18-.41,.45,.08c.9,.17,1.94-.12,2.66-.74,.5-.43,.77-.94,.76-1.45-.01-.31,.24-.58,.55-.59,.3-.02,.59,.24,.6,.56,.02,.86-.38,1.69-1.16,2.35Z"/><path class="cls-7" d="M305.89,206.79h-.87c.27-.02,.54-.04,.81-.07,.02,.02,.04,.04,.06,.07Z"/><path d="M144.46,208.15c-.15-.19-.12-.42-.21-.63-.26-.59-.14-.43-.82-.56-1.96-.37-3.88-.92-5.77-1.54-.19-.06-.38-.13-.57-.19-.5-.18-1-.37-1.5-.56-.46-.19-.92-.37-1.38-.55-.85-.34-1.71-.67-2.58-.94-.93-.29-1.9-.45-2.83-.75-.74-.24-1.43-.62-2.18-.83-.85-.23-1.74-.19-2.59-.41-.98-.25-1.83-.92-2.62-1.52-1.09-.84-2.45-1.07-3.46-2.08-.54-.53-.92-1.54-1.58-1.92-.53-.29-1.17,.03-1.75,.05-.62,.03-1.24-.07-1.85-.21-1.28-.3-2.48-.88-3.73-1.25-.86-.26-1.82-.47-2.71-.22-.73,.2-1.33,.55-2.1,.65-.94,.12-1.94-.02-2.86,.22-.65,.17-1.24,.48-1.9,.61-2.77,.58-5.01-.79-7.15-2.39-1.25-.94-2.61-1.74-4-2.44-.07-.03-.13-.06-.2-.09-.19-.1-.38-.18-.57-.26-.19-.09-.38-.17-.57-.24-1.12-.45-2.28-.82-3.39-1.3-1.5-.65-3.17-1.1-4.6-1.87-.75-.41-1.3-1.17-2.11-1.47-.69-.26-1.43-.32-2.13-.63-.66-.28-1.24-.7-1.88-1.01-1.03-.51-2.1-.5-3.21-.4-1.8,.16-3.58,.59-5.26,1.25-1.78,.7-3.46,1.66-4.94,2.87-1.29,1.07-2.6,1.7-4.1,2.45-1.49,.76-2.9,1.67-4.4,2.4-1.28,.64-2.77,1.15-3.64,2.37-.72,1.02-1.34,1.53-2.65,1.7-1.34,.18-2.66,.04-4,.34-1.85,.41-3.48,1.29-5.15,2.14-1.03,.53-2.06,1.19-3.26,1-.72-.11-1.37-.49-1.99-.85-.61-.35-1.29-.57-1.88-.93-.91-.54-.96-1.32-1.43-2.18-.72-1.33-2.26-.83-3.32-1.65-.45-.35-.46-.72-.78-1.14-.41-.52-1.13-.5-1.72-.58-.78-.1-1.53-.29-2.29-.4-1.02-.14-1.47,.38-1.97,1.09-.66,.97-1.48,1.26-2.56,1.65-1.62,.59-2.41,2.05-3.85,2.86-.75,.43-1.27,.7-1.73,1.48-.29,.49-.52,.79-.88,1.23-.42,.51-.71,.89-1.33,1.18-.56,.27-1.21,.35-1.74,.66-.98,.59-1.75,1.77-2.61,2.53-.82,.73-1.15,1.28-1.6,2.25-.2,.42-.39,.84-.58,1.26,1.5,.28,2.82,.61,4.42,.33,1.34-.23,2.68-.54,4.03-.72,2.44-.34,4.97-.11,7.42-.06,2.65,.05,5.31,.13,7.96,.1,2.83-.03,5.66-.36,8.48-.57,1.29-.1,2.61-.27,3.89-.19,1.28,.07,2.55,.29,3.82,.45,2.55,.32,5.05,.33,7.62,.17,5.11-.31,10.16-.62,15.29-.5,4.55,.11,9.08,.58,13.63,.62h.44c1.45,.01,2.9,.04,4.36,.02,.29,0,.57-.01,.86-.01,2.11-.05,4.2-.38,6.31-.53,5.16-.36,10.25,.29,15.4,.56,5.09,.27,10.12-.39,15.22-.29,4.77,.1,9.53,.72,14.3,.66,2.2-.03,4.41,.16,6.59,.08,1.53-.06,3.05-.18,4.58-.21-.06-.05-.11-.1-.16-.16Zm-72.42-18.55c.09-.31,.41-.48,.72-.39l6.9,2.07c1.32,.4,2.76,.83,4.01,1.54,.19,.11,.37,.22,.54,.34,.18,.11,.36,.24,.53,.39,.04,.02,.08,.05,.11,.08,.41,.35,.77,.75,1.12,1.13,.69,.75,1.34,1.46,2.29,1.74,.61,.17,1.36,.18,2.1,.2,1.35,.02,2.75,.04,3.55,1.08,.19,.25,.14,.61-.11,.81-.11,.08-.23,.12-.35,.12-.17,0-.35-.08-.46-.23-.46-.6-1.52-.61-2.65-.63-.81-.01-1.65-.03-2.41-.25-1.25-.37-2.04-1.23-2.81-2.06-.34-.37-.66-.72-1.02-1.03-.21-.18-.43-.34-.67-.49h-.01c-.19-.13-.4-.25-.61-.35-.2-.11-.4-.21-.62-.29-.92-.41-1.92-.71-2.86-.99l-6.9-2.08c-.31-.09-.48-.41-.39-.71Z"/><path d="M511.34,207.25c-1.57,.03-3.14,.16-4.7,.22-2.28,.09-4.57-.12-6.85-.09-5.04,.07-10.07-.59-15.11-.69-2.74-.05-5.4,.02-8.12,.25-2.74,.24-5.5,.19-8.24,.04-5.43-.29-10.79-.96-16.24-.56-2.21,.16-4.41,.5-6.63,.54-1.94,.04-3.89,0-5.83,0-4.78-.04-9.54-.54-14.32-.65-5.49-.13-10.91,.21-16.38,.54-2.73,.16-5.39,.12-8.11-.23-1.33-.17-2.68-.42-4.03-.46-1.38-.05-2.8,.14-4.18,.24-2.73,.21-5.47,.5-8.21,.57-.31,.01-.63,.02-.94,.02h-.23c-.43,0-.87,0-1.3-.01h0c-2.2-.01-4.4-.07-6.59-.11-2.62-.05-5.29-.27-7.88,.11-.92,.13-1.82,.32-2.73,.49h0c-.52,.1-1.03,.2-1.55,.28-1.5,.25-2.81-.1-4.23-.37,.05-.11,.1-.22,.14-.33,.33-.76,.67-1.53,1.13-2.19,.19-.28,.41-.54,.66-.77h.01c.05-.07,.11-.11,.16-.16,.2-.17,.4-.37,.6-.58h0c.87-.9,1.73-2.02,2.82-2.43,1.27-.49,2.02-.84,2.89-1.92,.17-.22,.32-.45,.46-.68,.12-.18,.23-.37,.36-.55,.09-.14,.19-.28,.3-.42,.05-.06,.1-.12,.15-.17,.51-.53,1.18-.71,1.78-1.14,.57-.4,1.06-.97,1.56-1.45,.79-.74,1.56-1.09,2.56-1.45,.65-.23,1.29-.51,1.78-1,.38-.38,.51-.88,.9-1.25,.82-.78,1.66-.4,2.63-.22,.65,.13,1.32,.17,1.97,.28,.88,.14,.93,.43,1.4,1.14,.31,.46,.78,.78,1.3,.97,.55,.2,1.17,.19,1.71,.4,.97,.37,1.04,1.16,1.42,1.98,.58,1.26,1.89,1.53,3.01,2.18,1.11,.64,2.32,1.3,3.64,.89,1.67-.5,3.19-1.61,4.77-2.32,1.62-.73,3.33-1.17,5.11-1.19,1.29-.02,2.66,.01,3.76-.75,.6-.41,.79-1.02,1.27-1.54,.52-.58,1.21-.97,1.89-1.33,1.44-.74,2.81-1.52,4.23-2.29,1.74-.96,3.59-1.69,5.31-2.68,1.08-.62,2-1.44,2.99-2.18,.48-.35,.98-.71,1.51-.98,.71-.34,1.07-.29,1.78-.13,.66,.14,1.18-.12,1.77-.37,.8-.33,1.64-.57,2.47-.82,1.73-.5,3.61-.94,5.41-.52,.8,.18,1.4,.47,1.88,1.08,.35,.44,.64,.67,1.17,.9,1.54,.65,3.06,1.35,4.56,2.11,1.65,.84,3.32,1.43,5.06,2.06,1.86,.66,3.52,1.63,5.24,2.56,2.54,1.38,4.67,3.98,7.78,3.99,1.67,.01,3.12-.85,4.76-.95,.73-.04,1.48-.02,2.21-.15,.94-.17,1.76-.72,2.72-.76,2.96-.12,5.48,2.26,8.52,1.83,1.25-.17,1.41,.13,2.11,1.08,.67,.91,1.46,1.63,2.49,2.12,.65,.31,1.29,.5,1.88,.95,.55,.43,1.11,.86,1.73,1.2,.65,.37,1.29,.54,2.03,.62,1.28,.14,2.32,.49,3.52,.95,1.81,.7,3.72,1.03,5.53,1.75,.7,.28,1.41,.55,2.12,.81h.01c.89,.34,1.79,.65,2.69,.94,0,0,0,.01,.02,0,.3,.1,.6,.2,.9,.29,.62,.19,1.24,.36,1.87,.53h.01c.24,.07,.48,.13,.72,.19,.45,.11,.89,.22,1.33,.31,.24,.05,1.46,.13,1.62,.32,.22,.27,.02,.78,.3,1.1l.02,.02Z"/><g><path d="M304.56,206.46c-1.07,.04-2.12,.26-3.18,.27-.04,0-.04-.04-.08-.04-.28,0-.56-.04-.83-.04-.65,0-.65-.1-1.29-.1-1.36,.01-2.72,.15-4.07,.19-.05,0-.05-.12-.09-.12-.26,.01-.51,.14-.77,.15-.08,0-.08-.13-.16-.12-.63,.02-1.26,.14-1.89,.15-.63,0-1.25,.08-1.88,.1,0,0,0-.05-.01-.05-.39,.01-.77-.04-1.16-.03-.2,0-.4,.03-.6,.03-.01,0-.01,.03-.02,.03-.81,.02-1.61,.02-2.42,.04-.17,0-.34-.08-.51-.08,0,0,0,.13-.01,.13-.85,.01-1.7-.07-2.55-.06-1.01,.01-2.01,.21-3.01,.23-.48,.01-.95-.12-1.43-.12-.53,0-1.06,.02-1.6,0-.23,0-.46,.1-.69,.1-.79-.02-1.58-.16-2.37-.14-1.02,.02-2.04,0-3.06,.05-1.01,.04-2.02,.11-3.03,.12-1.02,.02-2.05,0-3.07,.07-1.01,.06-2,.21-3.01,.23-.6,.01-1.21,.11-1.82,.09-.03,0-.02-.19-.05-.19,0,0-.01,.16-.02,.16-.37-.02-.75,.02-1.11,0-1.01-.05-2.04-.07-3.08-.06-.42,.01-.84-.01-1.26,0,0,0-.02-.22-.03-.22-.6,.04-1.2,.29-1.79,.34-.24,.02-.49,.01-.74,.03,0,0,0,0-.01,0-.75,.06-1.51,.12-2.25,.13-1,.02-2.03,.03-3.03,0-1-.02-2.03-.16-3.06-.14-1.02,.02-2.02,.22-3.04,.27-1.01,.05-2.02,.1-3.03,.11-.16,0-.15-.07-.31-.07,0,.01-.03-.16-.04-.17,0,.01-.03,.2-.04,.19-.82,.02-1.65,0-2.47,0-.96-.01-1.92,.08-2.89,.1-.96,.02-1.93-.05-2.89,0-.95,.05-1.9,.14-2.85,.16-.94,.02-1.9-.19-2.83-.22-.95-.03-1.94,.08-2.91,.1-.09,0-.17-.11-.26-.1-.92,.02-1.84,.28-2.75,.34-.96,.07-1.97,.02-2.95,.04-.56,.01-1.11-.1-1.66-.12-.02,0-.02,.2-.04,.2-.42-.01-.84,.04-1.25,.03-.39-.01-.78-.09-1.18-.11,0,0,0-.14,0-.14-.61-.02-1.22,.17-1.82,.18-.3,.01-.6-.12-.9-.11,0,0,0,.11-.02,.12-.66,.01-1.33,.01-1.99,.03-.03,0-.04-.04-.07-.04-.8,.03-1.62,0-2.41,.01-.01,0-.01-.09-.02-.09-.19,0-.37,.11-.55,.11-.44,.01-.88-.01-1.31-.01-.86,0-.87,.14-1.73,.14-.98-.01-1.95-.11-2.92-.1-.99,.02-1.97,.07-2.96,.12-1,.06-2-.07-3-.06-1.05,.01-2.1,.1-3.15,.1-.94,0-1.87,.17-2.81,.18-1.03,.02-2.06-.27-3.09-.29-.96-.02-1.91,.1-2.87,.1-1,.01-2,.05-2.98,.12-.98,.07-1.99,.14-2.98,.14-1.01-.01-2.05,.03-3.07,0-.96-.04-1.92,.01-2.89,.01-.24,0-.24-.09-.49-.09-1.58,0-3.3,.11-5.25,.16-1.32,.03-2.68-.18-3.99-.21-.57-.02-1.14,.1-1.7,.09-.55,0-.55-.16-1.1-.17-1.24-.01-2.44,.05-3.6-.05,.56-.62,1.5-1.31,2.26-1.8,.12-.08,.24-.13,.36-.21,0,0,.08,.12,.09,.11,.32-.22,.65-.39,.88-.57,.02-.02-.1-.21-.08-.23,0,0,.08,.11,.09,.11,.27-.21,.48-.5,.75-.7,.57-.44,1.09-.94,1.67-1.36,.88-.66,1.87-1.17,2.72-1.84,.33-.25,.59-.59,.9-.86,.71-.62,1.45-1.31,2.39-1.74,.95-.43,2.12-.74,3.25-1.03,1.29-.34,2.67-.55,3.77-1.11,1.24-.63,2.19-1.4,3.07-2.18,1.2-1.05,2.22-2.26,4.13-2.8,.35-.1,.74-.18,1.11-.26,.68-.13,1.46-.02,2.04-.3,.82-.4,1.25-1.09,1.56-1.6,.16-.27,.26-.54,.45-.73,.46-.45,1.23-.54,1.99-.71,.21-.04,.42-.08,.61-.13,.23-.06,.18-.25,.41-.31,1.07-.27,2.18-.37,3.21-.28,.58,.05,1.17,.21,1.64,.37,.2,.06,.44-.02,.62,.07,.45,.22,.94,.48,1.65,.37,.24-.03,.46,.02,.61-.06,.06-.03,.12-.11,.13-.12,.09,0,.25-.06,.31-.04,.22,.1,.37,.44,.61,.65,.28,.25,.71,.36,1.09,.54,.51,.24,1.01,.45,1.51,.61,.23,.07,.38,.38,.61,.45,1.63,.57,3.35,.94,5.02,1.21,.09,.01,.1-.02,.19-.03s.13,.07,.21,.04c1.55-.63,2.91-1.4,4.1-2.21,.89,.17,1.76,.16,2.63,.28,.83,.12,1.69,.3,2.52,.45,.08,.01,.17-.02,.25-.01,.2,.04,.39,.12,.59,.17,.25,.04,.5,.1,.74,.15,.47,.11,.92,.29,1.38,.4,.91,.21,1.78,.45,2.7,.63,2.01,1.62,4.38,3.01,6.83,4.02,.21,.08,.21,.01,.43-.04s.19-.05,.34-.22c.67-.78,2.53-1.61,5.15-2.07,1.13-.2,2.27-.28,3.41-.44,1.15-.16,2.33-.22,3.47-.42,.96-.17,1.86-.4,2.56-.66,.95-.36,1.65-.96,2.27-1.45,.12-.1,.25-.14,.36-.23,.1-.08,.24-.11,.34-.19,.26-.21,.51-.4,.78-.57,0,0,.01,.01,.02,.01,.44-.29,.82-.79,1.43-.91,.2-.05,.43,.17,.66,.15,.1,.08,.18,.14,.3,.2,.24,.13,.58,.07,.85,.16,.85,.29,1.81,.37,2.62,.39,.07,0,.08,.2,.15,.19,.06,0,.05-.12,.11-.14,1.46-.61,2.52-1.22,3.04-2.09,2.59-.58,5.56-.57,7.75,.17,2.06,.7,3.41,2.03,3.31,3.31-.02,.28-.29,.43-.11,.65s.41-.11,.69-.06c2.27,.39,4.92,.13,6.36-.82,2.63,.54,4.85,1.18,6.53,2.25,.67,.43,1.4,.98,2.51,1.24,.58,.13,1.2,.36,1.8,.47,.84,.17,1.56,.27,2.22,.63,.02,.01,0,.07,.02,.08,.03,.01,.02,.03,.04,.04,.18,.1,.33,.25,.51,.35,.22,.12,.46,.2,.67,.32,1.32,.73,2.37,1.52,3.37,2.12,.14,.08,.24-.09,.38,0,1.6,.97,3.12,1.9,3.84,2.87,.18,.23,.17,.53,.28,.74,.35,.66,.77,1.38,2.2,1.96,.07,.03,.23-.18,.3-.15,.36,.14,.71,.35,1.11,.42,.62,.1,1.25,.29,1.85,.33,.12,.01,.26-.16,.37-.15,.01,0,0,.04,.02,.04,.53,.03,1.05-.02,1.38,.09,.36,.11,.36,.1,.72,.2,.99,.3,2.25,.74,3.33,1.24,.31,.14,.55,.24,.82,.4Z"/><path d="M207.36,208.28s-.06,0-.08,.02c-.69,.17-1.28,.15-1.91,.03,.66-.02,1.33-.04,1.99-.05Z"/><path d="M295.49,206.78c-.52,0-.52,0-1.03,0-.07,0-.14,0-.21,0,.26,0,.51,0,.77-.02,.05,0,.05,0,.09,0,.13,.01,.26,.03,.38,.03Z"/><path d="M305.89,206.79c-.43,.02-.44,.01-.87,0,.27-.02,.54-.04,.81-.07,.02,.02,.04,.04,.06,.07Z"/><path class="cls-7" d="M305.83,206.72c-.27,.03-.54,.05-.81,.07h.87s-.04-.05-.06-.07Zm-10.72,.03h-.09c-.26,.01-.51,.01-.77,.02,.07,.01,.14,.01,.21,.01h1.03c-.12,0-.25-.02-.38-.03Zm-89.74,1.57c.63,.12,1.22,.14,1.91-.03,.02-.01,.05-.02,.08-.02-.66,.01-1.33,.03-1.99,.05Z"/></g></g><g><g><g><path class="cls-7" d="M306.39,149.88c-3.25-1.14-6.78-2.5-10.19-3.88s-6.68-2.97-9.7-4.69c-3.36-1.91-6.34-3.98-8.55-6.45-2.51-2.81-4.11-5.95-4.11-9.68,0-1.99-.43-6.12-.82-11.23-.26-3.42-.64-7.28-.8-11.24s.12-7.62,.28-11.26c.18-4.14,.34-8.04,1.18-11.19,1.25-4.68,3.51-7.84,7.04-7.9,3.86-.06,6.17,3.42,7.53,8.43,.93,3.44,1.38,7.64,1.64,12,.25,4.06,.22,8.27,.24,12.14,.03,4.89,.26,9.24,.56,12.1,.32,3.11,2.77,5.59,5.91,7.65,2.9,1.91,6.19,3.52,9.01,4.41"/><path class="cls-5" d="M306.39,149.88c-3.25-1.14-6.78-2.5-10.19-3.88s-6.68-2.97-9.7-4.69c-3.36-1.91-6.34-3.98-8.55-6.45-2.51-2.81-4.11-5.95-4.11-9.68,0-1.99-.43-6.12-.82-11.23-.26-3.42-.64-7.28-.8-11.24s.12-7.62,.28-11.26c.18-4.14,.34-8.04,1.18-11.19,1.25-4.68,3.51-7.84,7.04-7.9,3.86-.06,6.17,3.42,7.53,8.43,.93,3.44,1.38,7.64,1.64,12,.25,4.06,.22,8.27,.24,12.14,.03,4.89,.26,9.24,.56,12.1,.32,3.11,2.77,5.59,5.91,7.65,2.9,1.91,6.19,3.52,9.01,4.41"/></g><g><path class="cls-7" d="M346.46,157.38c3.13-1.78,6.95,.9,10.08-1.92,1.58-1.41,2-3.68,2.42-5.78,.65-3.26,1.51-6.49,2.17-9.76,.69-3.32,1.24-6.9,3.46-9.45,2.22-2.55,6.55-3.73,9.17-1.59,1.84,1.51,2.35,4.13,2.61,6.51,.47,4.45,.34,8.96-.2,13.41s-1.58,8.82-3.08,13.04c-.92,2.55-2.12,5.22-4.45,6.6-3.1,1.83-6.98,.73-10.6,.7-3.95-.04-7.87,1.32-11.07,3.65-.27,.2-.58,.38-.86,.58"/><path class="cls-5" d="M346.46,157.38c3.13-1.78,6.95,.9,10.08-1.92,1.58-1.41,2-3.68,2.42-5.78,.65-3.26,1.51-6.49,2.17-9.76,.69-3.32,1.24-6.9,3.46-9.45,2.22-2.55,6.55-3.73,9.17-1.59,1.84,1.51,2.35,4.13,2.61,6.51,.47,4.45,.34,8.96-.2,13.41s-1.58,8.82-3.08,13.04c-.92,2.55-2.12,5.22-4.45,6.6-3.1,1.83-6.98,.73-10.6,.7-3.95-.04-7.87,1.32-11.07,3.65-.27,.2-.58,.38-.86,.58"/></g><g><path class="cls-7" d="M347.68,228.34c-.55-5.47-.13-4.09-.4-10.98-.12-3.13-1.13-6.81-1.25-10.97-.1-3.39,.55-7.1,.48-11.02-.06-3.5-.03-7.18-.05-11-.02-3.56,.02-7.24,.04-11,.03-5.21-.13-10.59,.02-16.02,.09-3.42-.1-6.88,.12-10.3s.9-6.84,1.2-10.24,.85-6.87,1.18-10.24,.66-6.92,.97-10.25c.33-3.53,.19-7,.4-10.3,.26-3.93,.51-7.7,.7-11.33,.21-3.95,.5-7.73,.65-11.34,.16-3.99,.36-7.77,.42-11.35,.07-4.03-.59-7.81-.63-11.35-.05-4.09,.4-7.88,.2-11.36-.24-4.18-.63-7.94-1.11-11.3-.61-4.33-1.69-7.92-2.7-11-1.44-4.39-2.76-7.99-5.04-10.17-2.8-2.68-6.57-3.15-10.69-3.15s-8.17,.31-11.32,2.33-4.92,5.54-7.08,9.18c-1.81,3.05-4.17,6.23-5.41,10.28-1.06,3.45-1.81,7.32-2.52,11.4-.62,3.63-.39,7.57-.76,11.63-.34,3.72-1.52,7.54-1.68,11.56-.14,3.77,.03,7.67,.03,11.66,0,2.95,.54,6.98,.77,11.84,.16,3.54,.09,7.53,.31,11.85,.18,3.72,.88,7.66,1.06,11.81,.17,3.81,.06,7.79,.2,11.86,.11,3.4,.16,6.87,.27,10.39s.36,6.9,.46,10.38c.1,3.85-.05,7.73,.04,11.57s.61,7.75,.67,11.56-.7,7.82-.66,11.58c.04,4,.81,7.87,.81,11.56,0,4.11-.69,7.98-.75,11.56-.07,4.34-.23,8.23-.4,11.54-.29,5.88-.55,9.99-1.2,11.48,1.18,1.72,3.45,2.49,5.51,2.78,4.25,.58,8.6,.36,12.88,.51,1.37,.05,2.71-.38,4.07-.46,1.27-.07,2.64,.69,3.9,.52,1.2-.17,2.25-1.37,3.45-1.54,4.05-.57,8.07-1.01,11.66-2.95,.4-.22,1.39-.79,1.17-1.19Z"/><path class="cls-3" d="M347.68,228.34c-.55-5.47-.13-4.09-.4-10.98-.12-3.13-1.13-6.81-1.25-10.97-.1-3.39,.55-7.1,.48-11.02-.06-3.5-.03-7.18-.05-11-.02-3.56,.02-7.24,.04-11,.03-5.21-.13-10.59,.02-16.02,.09-3.42-.1-6.88,.12-10.3s.9-6.84,1.2-10.24,.85-6.87,1.18-10.24,.66-6.92,.97-10.25c.33-3.53,.19-7,.4-10.3,.26-3.93,.51-7.7,.7-11.33,.21-3.95,.5-7.73,.65-11.34,.16-3.99,.36-7.77,.42-11.35,.07-4.03-.59-7.81-.63-11.35-.05-4.09,.4-7.88,.2-11.36-.24-4.18-.63-7.94-1.11-11.3-.61-4.33-1.69-7.92-2.7-11-1.44-4.39-2.76-7.99-5.04-10.17-2.8-2.68-6.57-3.15-10.69-3.15s-8.17,.31-11.32,2.33-4.92,5.54-7.08,9.18c-1.81,3.05-4.17,6.23-5.41,10.28-1.06,3.45-1.81,7.32-2.52,11.4-.62,3.63-.39,7.57-.76,11.63-.34,3.72-1.52,7.54-1.68,11.56-.14,3.77,.03,7.67,.03,11.66,0,2.95,.54,6.98,.77,11.84,.16,3.54,.09,7.53,.31,11.85,.18,3.72,.88,7.66,1.06,11.81,.17,3.81,.06,7.79,.2,11.86,.11,3.4,.16,6.87,.27,10.39s.36,6.9,.46,10.38c.1,3.85-.05,7.73,.04,11.57s.61,7.75,.67,11.56-.7,7.82-.66,11.58c.04,4,.81,7.87,.81,11.56,0,4.11-.69,7.98-.75,11.56-.07,4.34-.23,8.23-.4,11.54-.29,5.88-.55,9.99-1.2,11.48,1.18,1.72,3.45,2.49,5.51,2.78,4.25,.58,8.6,.36,12.88,.51,1.37,.05,2.71-.38,4.07-.46,1.27-.07,2.64,.69,3.9,.52,1.2-.17,2.25-1.37,3.45-1.54,4.05-.57,8.07-1.01,11.66-2.95,.4-.22,1.39-.79,1.17-1.19Z"/></g></g><path d="M316.3,94.71c.11,4.43-.79,8.81-.7,13.24s.5,8.96,.72,13.44,1.15,8.76,1.48,13.18-.49,8.81-.59,13.24,.45,8.95,.64,13.41c.1,2.29,.16,4.58,.31,6.86s.34,4.48,.43,6.73c.2,4.49-.08,8.98-.18,13.47s.28,8.98,.39,13.48-.33,8.98-.64,13.46-.51,8.96-.86,13.44c-.09,1.12-.18,2.24-.27,3.36s1.62,1.08,1.69,0c.3-4.48,.63-8.96,.84-13.44s.67-8.96,.8-13.45-.38-8.98-.42-13.48,.29-8.98,.29-13.47-.51-8.97-.7-13.45-.48-9.05-.68-13.58c-.1-2.23-.05-4.42,.14-6.64s.44-4.41,.5-6.62c.11-4.43-.82-8.78-1.24-13.17-.21-2.22-.24-4.45-.37-6.67s-.26-4.48-.38-6.72-.2-4.43-.05-6.66,.4-4.41,.52-6.63c.06-1.1,.08-2.2,.04-3.3s-1.75-1.11-1.72,0h0Z"/><path d="M334.69,93.43c-.68,8.82-.91,17.66-1.28,26.49-.18,4.42-.1,8.82-.15,13.24s-.41,8.94-.67,13.4c-.53,8.95-1.18,17.9-1.83,26.85-.16,2.21-.35,4.43-.45,6.65s.1,4.44,.31,6.64,.41,4.41,.45,6.63-.04,4.43-.02,6.65c.02,4.49,.65,8.96,1.11,13.42s.99,8.87,1.34,13.31c.09,1.11,.18,2.21,.25,3.32,.06,1.04,1.62,1.06,1.63,0,.05-4.43-.69-8.85-1.09-13.26s-1.06-8.98-1.33-13.48,.12-8.86-.22-13.28c-.17-2.21-.44-4.42-.56-6.63s.02-4.44,.17-6.66c.58-8.94,1.28-17.87,1.79-26.81,.25-4.49,.52-8.98,.75-13.47s-.01-8.83,.1-13.24,.34-8.81,.48-13.21,.43-8.8,.58-13.2c.04-1.12,.06-2.24,.02-3.36-.02-.88-1.28-.86-1.35,0h0Z"/><path d="M368.6,137.01c-.46,1.64-.56,3.41-.71,5.1-.13,1.42-.21,2.84-.25,4.27-.06,2.32,.04,4.64-.08,6.96-.08,1.7-.38,3.39-1.71,4.56-1.59,1.4-3.74,2.12-5.73,2.74-1.38,.43-2.78,.81-4.17,1.18-.88,.23-1.75,.47-2.63,.7-.44,.12-.89,.23-1.33,.35-.54,.14-1.13,.23-1.6,.54l1.37,.79v-.16c0-.7-.95-1.17-1.45-.6l-.1,.12c-.53,.6-.17,1.51,.64,1.55,.89,.05,1.91-.41,2.77-.65s1.64-.45,2.46-.68c1.35-.38,2.69-.77,4.02-1.2,2.22-.72,4.51-1.54,6.36-3.02,1.54-1.23,2.32-2.99,2.56-4.91,.29-2.3,.13-4.66,.16-6.98,.02-1.52,.08-3.04,.17-4.56,.13-1.97,.49-3.95,.52-5.93,.01-.74-1.08-.88-1.28-.17h0Z"/><path d="M280.56,82.54c-.18,2.31-.15,4.67-.18,6.99-.03,2.08,.01,4.15,.13,6.23,.24,4.15,.6,8.3,1.05,12.44,.24,2.25,.5,4.5,.58,6.76s0,4.29,.56,6.4c.96,3.55,3.27,6.44,5.99,8.84,1.91,1.69,4.01,3.16,6.12,4.59s4.13,2.84,6.15,4.34l.71-1.69-.28-.11c-.96-.38-1.62,1.2-.7,1.67l.27,.14c.89,.45,1.95-.72,1.12-1.45-3.31-2.93-7.32-4.97-10.79-7.69-2.76-2.16-5.44-4.78-6.63-8.15-.67-1.92-.74-3.82-.78-5.82-.04-2.26-.26-4.51-.51-6.75-.45-4-.83-8.02-1.11-12.03-.16-2.33-.27-4.65-.26-6.99,.02-2.55,.2-5.15,0-7.7-.07-.92-1.36-.92-1.44,0h0Z"/><path d="M320.36,79.12c1.21,.42,2.55,.54,3.82,.69s2.65,.23,3.98,.23,2.61-.1,3.9-.29c.6-.09,1.19-.2,1.78-.34,.68-.16,1.55-.28,1.87-.98,.22-.49,.15-1.07-.36-1.37-.66-.38-1.25-.1-1.92,.07-.58,.15-1.18,.27-1.77,.37-1.19,.19-2.41,.25-3.61,.26s-2.44-.07-3.65-.17-2.52-.35-3.79-.35c-1.12,0-1.25,1.53-.25,1.88h0Z"/><path d="M325.07,54.49c-.08-.93-.38-1.84-.75-2.7-.37-.88-.84-1.76-1.63-2.29-.6-.41-1.33-.58-2.06-.67-.78-.1-1.59-.11-2.34,.15-.67,.23-1.25,.65-1.82,1.07-.4,.3-.82,.64-.91,1.12-.08,.44-.4,.79-.67,1.14-.5,.64-.9,1.41-.89,2.22,0,.29,.06,.58,.04,.87-.04,.52-.33,1.02-.29,1.54,.05,.61,.55,1.09,1.05,1.43,2.27,1.57,4.98,1.7,7.47,.64,.9-.38,1.74-.99,2.24-1.83,.48-.8,.64-1.78,.56-2.71Zm-1.93-.89c-.14,.1-.32,.1-.49,.09-.3-.01-.59-.04-.89-.08-.21-.03-.44-.07-.61-.2-.23-.18-.33-.49-.36-.78-.04-.32-.06-1.92,.46-1.91,.15,0,.27,.1,.38,.2,.52,.46,.94,1.02,1.36,1.57,.13,.17,.26,.34,.31,.55,.05,.2,0,.45-.17,.57Z"/><path d="M342.27,55.09c-.11-.31-.3-.58-.43-.89-.13-.3-.19-.63-.3-.94-.54-1.62-2.04-2.74-3.6-3.45-.44-.2-.9-.38-1.38-.42-.9-.07-1.78,.34-2.46,.94-.57,.51-1.23,1.24-1.53,1.95-.27,.66-.36,1.35-.75,1.98-.21,.34-.46,.64-.63,.99-.53,1.07-.23,2.42,.51,3.36,.74,.94,1.85,1.52,2.98,1.91,.63,.21,1.28,.38,1.95,.34,.83-.05,1.62-.41,2.35-.8,1.21-.64,2.44-1.43,3.04-2.66,.19-.39,.31-.81,.36-1.24,.04-.36,.02-.74-.1-1.09Zm-2.46,.18c-.02,.05-.04,.11-.09,.14-.03,.02-.07,.02-.11,.02-.49,.01-1.03,0-1.42-.3-.25-.19-.41-.46-.56-.73-.27-.48-.55-.96-.83-1.44-.05-.1-.11-.21-.07-.32,.03-.06,.09-.1,.14-.14,.41-.27,1.01-.82,1.53-.58,.29,.14,.49,.42,.67,.69,.26,.4,.51,.81,.67,1.25,.15,.45,.21,.94,.08,1.4Z"/><g><g><path d="M311,71.27l-.04-.05c-2.66,3.83-5.23,6.67-.71,10.21,.77-1.38-.38-3.19,.43-4.59,1.01-1.77,3.16-4.69,2.02-.56,1.08,.19,1.11-1.53,1.97-1.83,1.32,.17,3.43-2.47,2.97,.03,.56,.13,1.25-.06,1.49-.6,1.02-2.15,3.74,1.05,4.62-1.36,1.31-1.29,1.32-3.36,2.58-4.72,1.07-1.72-1.12-3.15-2.23-1.54-1.12,1.66-.53,4.52-2.18,5.67,.14-1.66,4.03-7.59-.45-6.23-.6,.69-1.46,.47-1.94,1.25-.86-.39-1.49,.33-2.22,.62,.09,.83-.8,1-1.4,1.29-.41,.76-1.46-.07-1.94,.69-.5,.63-1.48,.25-2.07,.65"/><path d="M311.05,71.21l-.04-.05s-.1-.02-.13,.02c-1.16,1.65-2.7,3.4-3.12,5.43s.89,3.68,2.41,4.89c.05,.04,.13,.05,.17-.02,.45-.9,.25-1.84,.16-2.8-.06-.65-.03-1.25,.29-1.84,.17-.31,.37-.62,.56-.91,.34-.51,.71-1.14,1.21-1.51,.28-.2,.37-.1,.36,.23,0,.54-.18,1.09-.32,1.61-.02,.06,.03,.11,.09,.12,.5,.05,.8-.22,1.05-.62,.15-.24,.26-.51,.42-.74,.24-.36,.47-.41,.87-.48,.53-.09,1.02-.41,1.48-.67,.2-.11,.47-.31,.7-.34,.53-.07,.38,.59,.32,.93,0,.05,.01,.1,.06,.11,.34,.06,.69,.06,1.01-.09,.38-.17,.49-.46,.71-.79,.49-.71,1.31-.51,2.02-.34,.51,.13,1.1,.31,1.62,.14,.59-.19,.86-.88,1.21-1.33,.66-.88,.94-1.94,1.39-2.92,.36-.79,1.18-1.46,1.17-2.38-.02-1.43-1.78-1.86-2.63-.82-1.35,1.64-.46,4.44-2.26,5.78l.18,.1c.08-.77,.48-1.54,.78-2.25,.34-.84,.72-1.7,.87-2.59,.09-.52,.11-1.19-.38-1.52-.26-.17-.59-.2-.89-.18-.21,.01-.42,.05-.63,.1-.38,.09-.46,.25-.8,.45s-.76,.27-1.1,.49c-.31,.2-.32,.33-.71,.31-.75-.03-1.28,.46-1.93,.75-.03,.01-.05,.05-.05,.08,.04,.85-.8,.87-1.34,1.22-.27,.17-.36,.33-.71,.34-.22,0-.44-.04-.66,0-.5,.08-.69,.58-1.17,.7s-1,.03-1.46,.29c-.1,.06,0,.22,.09,.16,.4-.23,.83-.19,1.27-.26,.36-.06,.55-.18,.81-.41,.43-.36,.63-.31,1.13-.31,.24,0,.44-.03,.64-.17,.19-.13,.29-.26,.52-.35,.14-.06,.28-.11,.41-.18,.21-.11,.42-.24,.54-.44,.08-.13,.07-.28,.13-.4,.1-.19,.23-.23,.42-.33,.56-.3,1.03-.61,1.68-.37,.05,.02,.1-.01,.13-.05,.42-.58,1.22-.7,1.8-1.09,.39-.27,1.08-.4,1.55-.25,.76,.24,.54,1.25,.39,1.83-.22,.85-.57,1.67-.9,2.48-.25,.62-.58,1.27-.66,1.95,0,.09,.11,.16,.18,.1,1.25-.93,1.28-2.6,1.58-4,.18-.82,.47-1.97,1.36-2.29,.94-.34,1.77,.59,1.52,1.5-.12,.46-.52,.81-.76,1.22-.22,.37-.39,.78-.55,1.18-.38,.96-.7,1.85-1.32,2.68-.44,.58-.62,1.11-1.47,1.05-.56-.04-1.09-.26-1.65-.34-.42-.06-.85-.04-1.2,.23-.25,.19-.34,.45-.52,.7-.2,.27-.58,.51-.94,.47-.29-.03-.27-.1-.25-.34,.09-1.18-.87-.65-1.51-.29-.29,.17-.59,.34-.9,.45-.26,.09-.53,.06-.78,.14-.48,.15-.7,.78-.94,1.17-.09,.15-.67,.92-.82,.59-.05-.11,.12-.49,.15-.62,.04-.2,.08-.39,.11-.59,.03-.22,.11-.69-.15-.82-.58-.31-1.57,1.44-1.79,1.78-.43,.65-.83,1.27-.87,2.07-.06,1.15,.43,2.33-.12,3.42l.17-.02c-1.61-1.28-2.89-2.96-2.26-5.1,.25-.87,.71-1.66,1.2-2.42,.17-.27,1.79-2.39,1.68-2.52,.07,.08,.18-.04,.11-.11h0Z"/></g><g><path d="M327.57,67.84c.36,2.04,1.65,4.15,2.75,5.95,1.09,.1-.18-1.63,.75-1.74,1.29,.45,4.37,4.3,4.96,2.06,.14-.37,.69-.26,1.06-.1,1.78,.58,.74-1.18-.05-1.68-.91-1-1.02-2.47-1.5-3.73-.71-1.57-8.28-3.63-8.17-.77"/><path d="M327.43,67.88c.37,2.02,1.44,3.84,2.5,5.56,.16,.26,.22,.53,.55,.49,.15-.02,.28-.08,.36-.21,.21-.35-.05-.83-.02-1.2,.06-.71,.9,.05,1.16,.25,.47,.37,.92,.77,1.39,1.14,.53,.42,1.58,1.36,2.33,.93,.13-.08,.23-.2,.31-.33,.05-.09,.07-.2,.12-.28,.24-.38,.56-.24,.91-.12,.3,.1,.89,.29,1.09-.08,.18-.32-.1-.78-.28-1.03-.37-.53-.9-.86-1.2-1.45-.44-.87-.59-1.85-.91-2.76-.13-.36-.31-.6-.61-.83-.78-.61-1.78-.97-2.72-1.24-1.23-.36-5.26-1.23-5.16,1.12,0,.16,.25,.16,.25,0,.01-1.97,3.42-1.23,4.51-.95,.92,.23,1.85,.56,2.66,1.06,.27,.17,.58,.38,.74,.67,.38,.67,.46,1.55,.71,2.28,.22,.63,.52,1.24,1.04,1.67,.33,.26,.74,.72,.8,1.16,.08,.67-1.11,.06-1.41,.04-.58-.03-.51,.37-.79,.72-.57,.73-1.95-.53-2.4-.89-.42-.34-.84-.69-1.27-1.03-.26-.2-.6-.52-.92-.6-.34-.08-.55,.21-.57,.52-.01,.2,.23,1.46-.22,1.1-.18-.14-.31-.51-.43-.71s-.23-.39-.35-.59c-.28-.47-.54-.95-.79-1.44-.48-.96-.88-1.97-1.09-3.03-.03-.18-.31-.1-.27,.08h0Z"/></g><g><path d="M336.3,68.14c-.29,2.45,2.58,8.02,5.17,6.25,.26-1.21,1.49-.09,1.23,.76,.07,.83,.86,1.14,1.52,1.43,.98,.65,.83,2.42,1.53,3.35,1.27,1.69,2.39-.76,1.12-1.7-.08-2.12-1.85-2.76-1.12-5.1-2.67-.26,.18-1.94-1.54-3.03,.09,.02,.18,.04,.27,.06-1.51-1.25-1.37,.32-1.55,1.41-.8,.78-.37-1.63-.4-1.72-.24-.43-.56-.78-.5-1.32-.61-1.26-1.6,.09-1.75,1.27-.49-.63-.98-1.57-1.77-.69-1.48-1.82-2.46-2.21-2.17,.72"/><path d="M336.22,68.14c-.19,1.75,.7,3.72,1.72,5.09,.77,1.03,2.35,2.32,3.62,1.22,.22-.19-.33-.51,.44-.49,.09,0,.25,.13,.3,.18,.32,.3,.27,.6,.31,.98s.2,.72,.51,.98c.43,.36,1.06,.44,1.39,.91,.36,.51,.45,1.18,.61,1.77,.19,.69,.58,1.79,1.44,1.86,.64,.06,.99-.64,1.01-1.18,.02-.46-.15-.8-.41-1.16-.3-.41-.29-1.05-.49-1.53-.22-.51-.53-.98-.74-1.5-.27-.7-.26-1.39-.06-2.11,.02-.08-.04-.15-.12-.15-.43-.05-1.1-.11-1.04-.68,.03-.29,.15-.58,.2-.87,.11-.64-.09-1.11-.63-1.48l-.11,.26c.09,.02,.18,.04,.27,.06,.12,.03,.25-.14,.14-.23-.61-.48-1.35-.8-1.59,.16-.05,.22-.07,.45-.1,.67-.02,.17-.05,.92-.29,.56-.16-.24,0-.9,.02-1.17,.04-.37,.06-.44-.14-.77-.1-.17-.21-.34-.27-.53-.04-.15,0-.35-.05-.49-.06-.18-.21-.38-.37-.49-.92-.6-1.52,1.17-1.61,1.76l.23-.03c-.33-.44-.81-1.31-1.49-1.06-.1,.04-.27,.22-.37,.21-.12,0-.35-.35-.45-.45-.23-.25-.48-.5-.76-.68-1.31-.83-1.16,1.38-1.1,2.07,.01,.15,.25,.15,.24,0-.03-.38-.29-2.05,.4-2.01,.59,.03,1.24,.98,1.57,1.38,.04,.05,.12,.04,.16,0,.7-.69,1.18,.13,1.59,.67,.05,.07,.21,.09,.23-.03,.07-.45,.47-1.95,1.2-1.64,.33,.14,.27,.58,.35,.86,.07,.24,.22,.44,.34,.65,.26,.47-.06,1.17,.04,1.71,.06,.34,.39,.63,.67,.23,.18-.26,.12-.84,.17-1.14,.03-.16,.06-.4,.17-.53,.29-.35,.78,.08,1.02,.28l.14-.23c-.09-.02-.18-.04-.27-.06-.16-.04-.24,.17-.11,.26,.91,.63,.22,1.28,.24,2.1,.02,.72,.79,.86,1.37,.94l-.12-.15c-.28,.92-.21,1.76,.2,2.62,.17,.35,.37,.68,.53,1.03,.11,.24,.2,.49,.27,.75s.02,.57,.12,.8c.08,.16,.3,.29,.4,.47,.11,.22,.16,.46,.14,.7-.03,.41-.28,1-.79,.89-1.09-.24-1.16-2.12-1.51-2.94-.13-.31-.31-.62-.58-.83-.45-.35-1.07-.4-1.42-.91-.26-.39-.07-.83-.26-1.24-.11-.24-.32-.51-.58-.6-.18-.07-.37-.06-.53,.06-.12,.09-.13,.22-.21,.33-.16,.23-.37,.32-.66,.37-.83,.16-1.59-.36-2.14-.92-1.31-1.33-2.41-3.62-2.22-5.53,.01-.11-.16-.11-.17,0h0Z"/></g></g><g><path d="M364.2,124.79c.43,.35,.86,.7,1.29,1.04,.31,.25,.63,.48,.94,.73-.05-.04-.38-.3-.07-.06,.1,.08,.2,.16,.3,.24,.56,.44,1.11,.88,1.66,1.33,.77,.62,1.59,1.42,2.59,1.67,1.43,.36,2.59-.39,3.33-1.55,.42-.66,.77-1.36,1.2-2.01,.08-.13,.17-.25,.25-.37,.07-.1,.48-.65,.15-.21s.08-.1,.17-.19c.14-.17,.29-.33,.43-.5,1-1.14,2.65-2.19,2.57-3.86-.05-1.03-.77-2.36-1.92-2.52-.79-.11-1.49-.12-2.22,.26-.33,.18-.66,.52-.94,.79-.32,.31-.64,.64-.94,.97-.61,.67-1.17,1.39-1.66,2.14-.61,.93-1.13,1.94-1.43,3.01-.07,.25-.15,.49-.22,.74-.06,.22,.38-.7,.13-.34,.47-.68,1-1.03,1.84-1.05-.3,0,.81,.17,.39,.04-.17-.05,.68,.35,.4,.16-.06-.04-.12-.07-.18-.1-.33-.2-.64-.43-.95-.65-1.48-1.07-2.96-2.12-4.53-3.06-.92-.55-2.12-.27-2.76,.55-.59,.76-.67,2.14,.17,2.81h0Z"/><path d="M372.2,125.25s-.15-.26-.14-.28c-.02,.02,.14,.38,.03,.06-.06-.19-.13-.38-.18-.58s-.1-.39-.13-.59c-.01-.08,0-.23-.05-.3,.05,.09,.04,.4,.02,.1-.08-.83-.09-1.65-.12-2.48-.03-.89-.16-1.87-.49-2.71-.22-.57-.5-1.02-.93-1.45-.33-.33-.72-.72-1.19-.8-.44-.08-.97,.05-1.19,.48-.13,.26-.19,.51-.21,.8,0,.09-.02,.18-.02,.27,0-.13,.03-.15,0,0-.09,.5-.15,.98-.16,1.49-.02,.82-.01,1.63,.02,2.45,.08,1.96,.27,3.86,1.18,5.63,.5,.96,1.92,1.32,2.82,.74,.99-.64,1.26-1.79,.74-2.82h0Z"/><path d="M273.39,69.05c1.05,1.38,2.18,2.67,3.52,3.78,1.02,.85,2.12,1.65,3.51,1.68,2.42,.05,3.49-2.22,4.63-3.95,.17-.25,.34-.51,.52-.75,.09-.12,.18-.24,.26-.35-.56,.76-.17,.23-.02,.04,.24-.29,.49-.58,.75-.86,.41-.44,.97-.88,1.21-1.43,.45-1.01,.51-2.03-.21-2.96-.6-.77-1.82-1.34-2.8-.95-.53,.21-.96,.41-1.37,.8-.12,.11-.24,.23-.35,.35-.25,.25-.49,.52-.71,.79-.48,.58-.94,1.19-1.37,1.82-.49,.73-.91,1.5-1.36,2.26-.08,.14-.17,.28-.26,.42-.04,.06-.08,.11-.12,.17-.23,.35,.47-.53,.24-.31-.08,.07-.17,.16-.24,.24,.57-.65,.59-.41,.37-.29-.36,.19,.61-.23,.42-.17-.42,.13,.83-.03,.36-.05-.23,0,.79,.18,.48,.06-.06-.02-.14-.04-.2-.06-.34-.08,.61,.31,.37,.16-.07-.04-.14-.07-.21-.11-.19-.11-.36-.23-.54-.35-.04-.03-.07-.06-.11-.08-.33-.23,.44,.36,.24,.19-.11-.1-.23-.18-.34-.28-.28-.23-.55-.47-.82-.72-.31-.28-.61-.56-.91-.84-.08-.08-.16-.16-.25-.24-.16-.14-.94-.72-.54-.42,.25,.19,0,0-.05-.04-.16-.12-.31-.24-.47-.36-.92-.72-2.06-.95-3.05-.18-.83,.64-1.3,2.08-.6,3h0Z"/><path d="M282.02,72.82c.3-.36,.5-.66,.6-1.12,.08-.36,.09-.74,.13-1.1,.05-.46,.1-.91,.12-1.38,.04-.99,.11-1.99,.16-2.98s.04-1.96-.06-2.95c-.12-1.22-.23-2.64-1.29-3.46-.79-.62-2.09-.72-2.63,.34-.3,.59-.5,1.31-.45,1.97,.03,.45,.07,.89,.08,1.34,.02,.95-.01,1.9-.02,2.85s-.04,1.92-.04,2.88c0,1.11,.06,2.81,.93,3.6,.66,.6,1.86,.76,2.5,0h0Z"/><path d="M322.32,9.62c.8,.86,1.7,1.6,2.61,2.34l.49,.38c-.25-.19-.31-.24-.17-.13,.1,.08,.2,.16,.3,.24,.15,.12,.3,.24,.45,.35,.3,.24,.61,.49,.91,.73,.93,.76,1.86,1.7,3.04,2.07,2.58,.8,3.99-1.65,5.49-3.21,.68-.71,1.41-1.38,2.16-2.02,.24-.2,.47-.4,.71-.59,.13-.1,.26-.2,.39-.31,.16-.12,.11-.08-.15,.12,.08-.06,.17-.13,.25-.19,.76-.57,1.67-1.08,2.3-1.78,.92-1.03,1.08-2.49,.21-3.61s-2.27-1.28-3.54-.71c-.73,.33-1.37,.96-1.99,1.47-.48,.39-.94,.8-1.4,1.21-.69,.63-1.37,1.28-2,1.96-.47,.51-.93,1.03-1.36,1.57-.15,.19-.3,.37-.44,.56-.18,.24-.37,.47-.55,.71-.13,.17,.49-.62,.15-.19-.18,.22-.4,.42-.58,.64,.53-.64,.59-.4,.35-.28-.27,.14,.74-.27,.46-.19-.26,.07,.84-.06,.5-.07-.35,0,.79,.13,.49,.07-.52-.1,.63,.35,.23,.11-.15-.09-.29-.17-.44-.27-.4-.27-.78-.56-1.17-.84-1.82-1.35-3.65-2.63-5.8-3.4-.78-.28-1.82,.18-2.2,.9-.42,.79-.31,1.71,.31,2.37h0Z"/><path d="M332.42,14.25c.63-.9,.57-2.08,.66-3.12,.08-.87,.1-1.75,.15-2.63,.11-1.91,.15-3.73-.18-5.63-.22-1.25-.87-2.66-2.27-2.85-1.65-.22-2.35,1.39-2.37,2.77-.02,1.73,.04,3.45-.03,5.18-.04,.98-.13,1.97-.08,2.95,.06,1.32,.13,2.72,1.09,3.72s2.35,.6,3.04-.39h0Z"/></g><path d="M329.6,13.61c-3.15,1.42-5.46,4.47-6.83,7.56-1.59,3.56-2.28,7.41-3.11,11.19-.25,1.17-.52,2.33-.83,3.48s-.71,2.28-.95,3.45c-.16,.79,.9,1.3,1.33,.56,1.01-1.71,1.4-3.79,1.82-5.71,.44-2.03,.81-4.07,1.26-6.1,.74-3.31,1.72-6.68,3.76-9.44,1.17-1.58,2.66-2.68,4.28-3.74,.79-.51,.11-1.62-.72-1.24h0Z"/><path d="M330.94,13.55c.73,1.72,1.94,3.29,2.89,4.89s1.94,3.33,2.66,5.12,1.08,3.58,1.38,5.47c.14,.87,.37,1.73,.51,2.61,.08,.53,.13,1.07,.13,1.61,0,.18,0,.22-.1,.48,.08-.21-.02,.02-.05,.09,.01-.02-.1,.26-.03,.08,.07-.17-.05,.12-.06,.14l.49-.49s-.18,.04-.06,.03c-.63,.05-.8,.78-.31,1.14,.11,.08,.24,.15,.37,.17l-.42-.32c.45,.62,1.29,.47,1.67-.15,.27-.44,.29-1.04,.28-1.55-.03-1.22-.3-2.45-.56-3.64-.34-1.61-.53-3.21-1.08-4.78-.69-1.99-1.65-3.87-2.73-5.67-.63-1.05-1.33-2.07-2.04-3.06-.67-.94-1.34-1.98-2.15-2.8-.43-.43-.99,.11-.78,.6h0Z"/></g><g><path class="cls-1" d="M427.37,176.74c-.06,11.18-.11,22.4,1.27,33.5"/><path class="cls-1" d="M419.32,178.22l.2,5.36c.03,.91,.07,1.83,.41,2.67,1.02,2.51,4.18,3.25,6.88,3.38"/><path class="cls-1" d="M428.59,194.17l3.96,.02c.35,0,.73,0,1-.23,.34-.28,.37-.78,.37-1.23,0-2.12,0-4.24,0-6.36"/></g><g><path class="cls-2" d="M208.37,193.76c.85,5.95,1.18,11.98,.99,17.99"/><path class="cls-6" d="M204.62,197.73c.39,1.22-.03,2.93,.76,3.75,.29,.3,.68,.38,1.05,.43,.99,.14,1.98,.18,2.97,.13"/><path class="cls-2" d="M209.78,199.72l3.49-.9c.15-1.56-.17-3.15-.9-4.54"/></g><path d="M85.77,216.35c1.27-.7,3.07-.48,3.83,.48,.13,.16,.23,.35,.14,.55-.05,.12-.16,.21-.27,.3-1.26,.94-3.35,.91-4.3-.08-.13-.13-.24-.29-.24-.47,0-.44,.64-.73,1.17-.89"/><path class="cls-4" d="M163.84,216.4c2.04,1.18,3.92,2.63,5.56,4.32,.12,.12,.31,.08,.36-.08,.69-1.92,1.73-3.72,3.06-5.28"/><path class="cls-4" d="M168.11,214.41c1.18,1.93,1.73,4.23,1.55,6.49"/><g><path class="cls-4" d="M399.25,211.17c1.76,.56,3.4,1.46,4.82,2.63,.9-1.39,1.96-2.68,3.15-3.84"/><path class="cls-4" d="M402.81,209.38l1.39,3.86"/><path class="cls-4" d="M396.48,213.75c2.28-.29,4.64,.04,6.76,.94,.37,.16,.75,.33,1.15,.3,.39-.03,.73-.26,1.07-.46,1.49-.9,3.19-1.46,4.92-1.62"/></g><path class="cls-4" d="M246.2,218.64l1.08,.19"/><path class="cls-4" d="M368.79,214.7l1.97-.58"/><path class="cls-4" d="M206.06,212.32h.36"/><path class="cls-4" d="M273.2,210.7h.36"/><path class="cls-4" d="M459.32,218.08h.18"/><path class="cls-4" d="M502.52,213.4h.36"/><path class="cls-4" d="M81.68,215.38h1.44"/><path class="cls-4" d="M12.56,216.34h3.84"/><path class="cls-4" d="M45.68,228.82h2.4"/></g></g></svg>