<svg id="Layer_1" data-name="Layer 1" xmlns="http://www.w3.org/2000/svg" width="203.13" height="248.35" viewBox="0 0 203.13 248.35"><defs><style>.cls-1{fill:#fff;}.cls-2{fill:#dbc49e;}.cls-3,.cls-6,.cls-7{fill:none;stroke:#000;stroke-miterlimit:10;}.cls-3{stroke-width:1.72px;}.cls-4{fill:#f4e5ca;}.cls-5{fill:#ff1c31;}.cls-6,.cls-7{stroke-width:1.9px;}.cls-7{stroke-linecap:round;}</style></defs><rect class="cls-1" x="33.97" y="0.86" width="141.02" height="169.59"/><path class="cls-2" d="M79.33,44.92A15.42,15.42,0,0,0,85.72,44a50.56,50.56,0,0,0,5.89-2.47c1-.47,1.9-.92,2.88-1.34s1.77-1.05,2.7-1.47c2-.9,5,.84,6.76,1.6a60.9,60.9,0,0,1,6,2.8,11.92,11.92,0,0,0,2.71,1.06,30.8,30.8,0,0,0,3.27,1,14.56,14.56,0,0,0,6.13-.12,30.5,30.5,0,0,0,6.27-2.33,51.16,51.16,0,0,1,13.08-5.45,28,28,0,0,1,7.29-.93,54.56,54.56,0,0,1,7.33.56,47.89,47.89,0,0,1,6.7,2c2.35.79,4.73,1.47,7.11,2.16,4.66,1.33,9.25,2.81,14,3.82a43.74,43.74,0,0,0,7.71,1.14c2.51.09,4.95.75,7.47.84,2.78.11,5.56.16,8.34.23a24.8,24.8,0,0,0,3.95-.06,32.38,32.38,0,0,0,3.9-.89.65.65,0,0,0-.34-1.26,24.09,24.09,0,0,1-7.26.92l-7.65-.21a66.48,66.48,0,0,1-6.61-.74c-1.13-.14-2.26-.12-3.38-.18a24.93,24.93,0,0,1-3.94-.66c-4.76-1-9.34-2.33-14-3.68-2.3-.66-4.61-1.31-6.9-2s-4.54-1.65-6.86-2.27a32.23,32.23,0,0,0-6.49-.84,29.56,29.56,0,0,0-6.78,0,46.52,46.52,0,0,0-6.78,1.55,56.83,56.83,0,0,0-6.24,2.63c-4.27,2-8.51,4.73-13.37,4.65a22.39,22.39,0,0,1-6.4-1.37,21.7,21.7,0,0,1-3-1.47q-1.6-.77-3.24-1.47c-2.11-.93-4.29-2.1-6.61-2.42a4.7,4.7,0,0,0-2.6.17c-1,.47-1.87,1.15-2.91,1.59-2.23.92-4.34,2.19-6.59,3-1.21.46-2.48.91-3.73,1.25a12.93,12.93,0,0,1-4.12.22c-.83,0-.83,1.26,0,1.3Z" transform="translate(-45.21 -30.3)"/><path class="cls-2" d="M79.33,53.4a14,14,0,0,0,5.94-1.33c1.91-.81,3.21-2.47,4.87-3.65a8.14,8.14,0,0,1,3.06-1.34,30.71,30.71,0,0,1,3.38-.6,55.37,55.37,0,0,1,7.39.73,25.86,25.86,0,0,0,7.19-.24,14.55,14.55,0,0,1,3.73,0c.58,0,1.15.07,1.73.08a2.65,2.65,0,0,1,1.91.66,14.92,14.92,0,0,0,2.09,1.11c1.13.61,2.11,1.4,3.29,1.93a11.81,11.81,0,0,0,6,1.17c2.26-.24,4.39-1.18,6.57-1.78,2.44-.66,4.74-1.58,7.14-2.37,1.1-.37,2.21-.71,3.32-1.06a15.41,15.41,0,0,1,4-.47c1.14-.08,2.24-.42,3.38-.5a30.35,30.35,0,0,1,3.57,0c2.31.12,4.59.69,6.9.88,1.31.1,2.56.41,3.86.61s2.54.16,3.81.38c2.34.39,4.62.47,7,.7,2.59.26,5.16.65,7.76.82,5.77.37,11.56.15,17.34.3l8.84.23c1.22,0,2.44.3,3.65.27a3.65,3.65,0,0,0,2.57-1.15c.62-.56-.3-1.48-.92-.92-1.07,1-2.12.78-3.44.63s-2.35-.14-3.53-.17l-7.65-.2c-5.14-.13-10.28,0-15.42-.21-2.54-.12-5-.41-7.58-.71s-5.07-.29-7.58-.73a24,24,0,0,0-3-.39,37.67,37.67,0,0,1-4.09-.6c-1-.16-2.06-.18-3.09-.28-1.21-.11-2.38-.42-3.58-.59a23,23,0,0,0-6.36,0,22.46,22.46,0,0,1-3.47.38,11.08,11.08,0,0,0-3.46.59c-2.36.76-4.67,1.63-7,2.44s-4.56,1.34-6.83,2a10.65,10.65,0,0,1-6.94,0,14.38,14.38,0,0,1-3.3-1.66c-.84-.56-1.83-.87-2.65-1.42s-.94-1-1.82-1.17c-1.08-.18-2.28-.07-3.38-.15-2.45-.17-4.75.46-7.19.45a27,27,0,0,1-4.49-.31,27.4,27.4,0,0,0-3.84-.47,14.79,14.79,0,0,0-3.76.1A24.12,24.12,0,0,0,92,46c-2.17.82-3.63,2.29-5.41,3.69a9.68,9.68,0,0,1-3.45,1.66,10.74,10.74,0,0,1-3.79.71c-.83-.06-.83,1.24,0,1.3Z" transform="translate(-45.21 -30.3)"/><path class="cls-2" d="M79.33,62a11.66,11.66,0,0,0,5.4-1.24c2-.94,3.62-2.44,5.7-3.11a29,29,0,0,1,6.27-1.52c2.07-.17,4.11.31,6.18,0a124,124,0,0,0,13.5-2.57,19.31,19.31,0,0,1,13.48,1.17,40.92,40.92,0,0,0,12.18,4,119,119,0,0,0,13.36.6c9.41.23,18.82.75,28.21-.1,5.11-.47,10.25-.81,15.34-1.4,2.5-.29,5-.23,7.56-.46a72.36,72.36,0,0,1,7.92-.45.65.65,0,0,0,0-1.3c-4.63-.08-9.27.6-13.9.78-2.13.08-4.26.44-6.39.56-2.32.13-4.63.36-6.94.6-4.66.49-9.31.84-14,.88s-9.38-.2-14.06-.32c-9.23-.23-18.68.35-27.2-3.81-3.84-1.88-7.74-3.24-12.09-2.73A54.69,54.69,0,0,0,113.53,53c-2.16.51-4.35.92-6.54,1.28a33.13,33.13,0,0,1-7.62.65,20.69,20.69,0,0,0-7.12.9,25.36,25.36,0,0,0-3.11.94,16.72,16.72,0,0,0-2.75,1.6,12.45,12.45,0,0,1-7.06,2.36.65.65,0,0,0,0,1.3Z" transform="translate(-45.21 -30.3)"/><path class="cls-2" d="M79,69a17.68,17.68,0,0,0,6,1.64,26.91,26.91,0,0,0,6.58-.57,37.24,37.24,0,0,0,6.31-1.71,65.79,65.79,0,0,1,6.79-1.64c4.54-1.11,9.2-1.69,13.71-2.89a22.69,22.69,0,0,1,3.15-.69c1.23-.15,2.46,0,3.69-.1a65.81,65.81,0,0,1,7-.29,35.18,35.18,0,0,1,7.4.53c2.24.54,4.47.92,6.73,1.37s4.37,1,6.63,1.3,4.6,1,6.95,1.37a24.16,24.16,0,0,0,2.82.21,27.47,27.47,0,0,1,3.81.61c2.19.47,4.39.83,6.56,1.39a52.43,52.43,0,0,0,6.81,1.3c2.29.28,4.66.12,7,.18,5.34.14,10.76.63,16.1.4,2.7-.11,5.36-.36,8.06-.34s5.35-.35,8-.35a.65.65,0,0,0,0-1.3c-2.29,0-4.55.25-6.83.33-2.45.09-4.87.06-7.31.24a139.36,139.36,0,0,1-14-.17c-2.37-.07-4.75-.18-7.12-.18-1.07,0-2.14,0-3.21,0-1.29-.1-2.56-.43-3.83-.65-4.41-.73-8.71-2.13-13.16-2.64-1.12-.12-2.25-.06-3.36-.25s-2.36-.57-3.55-.85c-2.2-.51-4.48-.5-6.67-1s-4.31-.95-6.52-1.32-4.23-1.2-6.44-1.3c-2.42-.12-4.87-.18-7.3-.19-2.23,0-4.42.44-6.66.39A22.93,22.93,0,0,0,117,62.88c-2.24.58-4.55.88-6.83,1.29-2.58.47-5.1,1.2-7.66,1.75-1.24.27-2.51.42-3.72.79s-2.13.79-3.21,1.15a32.93,32.93,0,0,1-7.81,1.46,16.34,16.34,0,0,1-8.09-1.42c-.76-.33-1.42.79-.65,1.12Z" transform="translate(-45.21 -30.3)"/><path class="cls-2" d="M79,75.56a21,21,0,0,0,6.09,2.36c1,.14,2,.11,2.93.31a27.58,27.58,0,0,0,3,.55c2.16.17,4.32-.71,6.39-1.19,2.23-.51,4.39-1.25,6.6-1.83s4.58-.86,6.83-1.5,4.58-1.35,6.88-2a120.61,120.61,0,0,1,14.18-2.84,47.52,47.52,0,0,1,7.54-.39c2.39.05,4.72-.45,7.1-.44s4.49.3,6.73.37,4.65-.09,7,.13c1.16.11,2.26.43,3.41.58s2.22.1,3.34.18,2.51.38,3.77.56,2.24.12,3.34.28,2,.51,3.09.61c1.22.12,2.37.19,3.58.42,2.35.45,4.73.62,7.1,1s4.9,1.24,7.4,1.44c1.37.1,2.73-.06,4.1,0a40.56,40.56,0,0,1,4.26.5,76,76,0,0,0,15.51,1.06c.83,0,.83-1.34,0-1.3a66.92,66.92,0,0,1-14-.82,40.19,40.19,0,0,0-6.73-.75,27.55,27.55,0,0,1-3.52,0,35,35,0,0,1-3.63-.78,64.3,64.3,0,0,0-6.77-1c-2.23-.26-4.41-.82-6.65-.93a31.11,31.11,0,0,1-3.47-.62c-1.11-.17-2.24-.13-3.35-.27s-2.18-.38-3.28-.52-2.13-.09-3.2-.17-2.34-.42-3.52-.57a26.62,26.62,0,0,0-3.34-.2c-2.32,0-4.62,0-6.94-.17a35.2,35.2,0,0,0-6.73-.08,56.34,56.34,0,0,1-7,.24c-4.64,0-9.46,1-14,2s-9.11,2.41-13.68,3.62c-2.48.66-5,1-7.47,1.73S97,76.34,94.56,77a10.31,10.31,0,0,1-3.86.48c-1.11-.14-2.19-.48-3.31-.64a18.61,18.61,0,0,1-3.7-.57,32.94,32.94,0,0,1-4-1.79c-.75-.37-1.4.75-.65,1.12Z" transform="translate(-45.21 -30.3)"/><path class="cls-2" d="M79,85c1,.46,2,1,3,1.45s2,.52,3,.85c2,.69,4.16.45,6.29.57A14.58,14.58,0,0,0,97.61,87c2-.74,4.15-.93,6.19-1.58,2.2-.7,4.12-1.94,6.37-2.5a33.91,33.91,0,0,0,6-1.93,68.41,68.41,0,0,1,6.67-3c2.15-.71,4.38-1.13,6.56-1.74A54.56,54.56,0,0,1,144,73.88c4.91,0,9.78-.37,14.69-.18a64.18,64.18,0,0,1,7.53,1.11c2.4.39,4.83.67,7.22,1.12s4.79,1.21,7.2,1.78,4.65,1.13,7,1.75c5.29,1.43,10.67,2.41,16,3.82,5.1,1.36,10.18,3.25,15.41,4,.82.12,1.17-1.13.35-1.26-4.62-.68-9.11-2.27-13.59-3.53-4.65-1.3-9.41-2.1-14.08-3.32s-9.28-2.35-13.91-3.58S168,73.86,163.17,73a57.91,57.91,0,0,0-13.92-.53c-2.47.17-4.92,0-7.38.16a49.61,49.61,0,0,0-6.77.91c-2.35.48-4.63,1.14-6.94,1.75a67.49,67.49,0,0,0-6.55,1.8c-2.1.78-4.08,1.87-6.12,2.8a44.69,44.69,0,0,1-6.49,2c-2.43.69-4.52,2.1-7,2.69-1.17.28-2.38.4-3.54.76s-2.21.88-3.38,1.14a15.13,15.13,0,0,1-4.09,0c-1.3-.07-2.62,0-3.91-.07a20.88,20.88,0,0,1-3.53-.86,25.57,25.57,0,0,1-3.89-1.75c-.75-.35-1.41.77-.65,1.12Z" transform="translate(-45.21 -30.3)"/><path class="cls-2" d="M79,91.41c1.92.9,3.94,1.69,5.92,2.46a15.84,15.84,0,0,0,6.41.78,18.55,18.55,0,0,0,6.28-.8,54.86,54.86,0,0,0,6.12-2.73,83.73,83.73,0,0,1,13-5.69,76.39,76.39,0,0,1,14.62-2.78c2.43-.24,4.85-.67,7.28-.85a70.73,70.73,0,0,1,7.28.09c2.44.07,4.93,0,7.36.24,1.07.12,2.08.5,3.14.62a36.52,36.52,0,0,1,3.9.28c4.77,1,9.6,1.64,14.37,2.63,4.56.94,9.37.63,14,.75,2.71.07,5.41.15,8.12.15s5.32-.15,7.82.64c1.15.37,2.33.14,3.48.55a22.3,22.3,0,0,0,3.49,1.06c2.5.47,4.82,1.57,7.32,2,.82.16,1.17-1.09.35-1.25-2.14-.4-4.13-1.24-6.23-1.79a31.29,31.29,0,0,1-3.18-.76,12,12,0,0,0-2.79-.91,12.39,12.39,0,0,1-1.92-.13c-.4-.11-.78-.3-1.19-.41a15.15,15.15,0,0,0-3.08-.28c-2.47-.1-4.94,0-7.41-.08-4.74-.1-9.48-.15-14.22-.32A54,54,0,0,1,172,83.81c-2.39-.43-4.79-.79-7.19-1.22a38.67,38.67,0,0,0-6.74-1.1c-2.27,0-4.46-.71-6.75-.77-4.9-.13-9.91-.59-14.78,0s-9.53,1-14.24,2a58.18,58.18,0,0,0-13,4.22c-2.35,1.08-4.63,2.32-7,3.47a25.93,25.93,0,0,1-7.39,2.83,31.43,31.43,0,0,1-3.76.13,15.59,15.59,0,0,1-4-.14,23.77,23.77,0,0,1-3.75-1.39c-1.24-.52-2.51-1-3.73-1.55-.75-.35-1.41.77-.65,1.13Z" transform="translate(-45.21 -30.3)"/><path class="cls-2" d="M79,100.18a24.29,24.29,0,0,0,6.38,2.06c2.25.36,4.56.31,6.83.46a69.48,69.48,0,0,0,7.07.23c2.38-.09,4.7-.61,7.09-.5a31.86,31.86,0,0,0,3.24.08c1.19-.07,2.35-.4,3.54-.47,2.3-.14,4.52.44,6.79-.14a18.72,18.72,0,0,1,3.26-.19,27.83,27.83,0,0,0,3.29-.53c2.39-.49,4.8-.83,7.22-1.18s4.39-1.18,6.66-1.75S144.77,97,147,96.6a32,32,0,0,1,7.19-.44c2.4.1,4.42,1.36,6.74,1.83a24.92,24.92,0,0,1,3,.69,15.39,15.39,0,0,0,3,.82,68.15,68.15,0,0,0,7.15.11,42.84,42.84,0,0,1,7.15.67c2.29.41,4.63.06,6.93.48,2.53.45,5.09.5,7.63.95a67,67,0,0,0,7.48.9c5.34.35,10.58,1.58,15.95,1.64a.65.65,0,0,0,0-1.3,55.28,55.28,0,0,1-6.8-.64c-1.2-.17-2.4-.14-3.6-.29s-2.32-.39-3.49-.53c-2.38-.29-4.78-.26-7.14-.67a52.5,52.5,0,0,0-6.6-.86c-2.23-.1-4.36-.77-6.62-.79a20.64,20.64,0,0,1-3.6-.18c-1-.19-2.07-.46-3.13-.55-2.44-.21-4.9-.12-7.34-.17-1,0-2.07,0-3.1,0a12.82,12.82,0,0,1-3.49-.85c-2.11-.69-4.26-.94-6.33-1.76a15.16,15.16,0,0,0-6.13-.78,30.31,30.31,0,0,0-6.5.77c-2.22.54-4.55,1-6.72,1.79-4.34,1.48-9,1.88-13.5,2.71a15.93,15.93,0,0,1-3.58.22c-1.18,0-2.23.49-3.4.54-2.24.1-4.39-.32-6.63,0-2.68.44-5.34,0-8,.26a49,49,0,0,1-7.66.38c-5.45-.22-11.07-.15-16.1-2.55-.75-.35-1.41.77-.65,1.13Z" transform="translate(-45.21 -30.3)"/><path class="cls-2" d="M79.16,101.66c.89.31,1.63.85,2.49,1.21,1.2.52,2.47.86,3.66,1.41a44.29,44.29,0,0,0,5.9,2.26,11.16,11.16,0,0,0,2.72.67,24.44,24.44,0,0,1,3.81.36,19.68,19.68,0,0,0,2.76.37c1.26.07,2.46.37,3.7.56a55.24,55.24,0,0,0,6.93.29,55.31,55.31,0,0,0,7.05.14c1-.09,1.93-.39,2.91-.44,1.19-.06,2.35,0,3.53-.17,2.25-.3,4.5-.46,6.76-.72s4.48-1.09,6.78-1.36,4.66-.26,7-.43c4.78-.36,9.53-1,14.33-1.35a65.29,65.29,0,0,1,7.13.18,68.26,68.26,0,0,0,7.15-.28c4.78-.23,9.66,0,14.45.19,2.62.11,5.18.69,7.79.82a38.72,38.72,0,0,1,4,.22c1.14.17,2.28.42,3.43.54a43.38,43.38,0,0,1,8.06,1.51c2.46.73,5,.87,7.45,1.65.8.26,1.14-1,.35-1.25-2.15-.69-4.38-.77-6.54-1.38a48.93,48.93,0,0,0-6.85-1.59c-2.12-.29-4.26-.6-6.38-.86-1-.12-2.07-.09-3.11-.12a38.08,38.08,0,0,1-4-.49A128.55,128.55,0,0,0,178.3,103a63.91,63.91,0,0,0-7.19.25,44.67,44.67,0,0,1-7.13-.08,85.6,85.6,0,0,0-14.56.84c-2.28.26-4.54.52-6.83.62a39.25,39.25,0,0,0-6.67.65c-1.13.23-2.23.63-3.37.83s-2.43.29-3.65.38c-2.23.17-4.46.69-6.7.69a16.17,16.17,0,0,0-3,.25,16.47,16.47,0,0,1-3.58.16l-7.25-.19a29.38,29.38,0,0,1-4.3-.25c-1.06-.18-2.1-.43-3.18-.51A37,37,0,0,1,97,106.1c-1.27-.22-2.59,0-3.83-.31A37.14,37.14,0,0,1,86,103.16c-1-.48-2.11-.86-3.18-1.25s-2.13-1.11-3.28-1.5c-.8-.27-1.14,1-.35,1.25Z" transform="translate(-45.21 -30.3)"/><path class="cls-2" d="M79.16,111.65a11.72,11.72,0,0,1,2.53.83,26.11,26.11,0,0,0,2.87,1,53.94,53.94,0,0,0,6.54,2.3c4.32,1,8.73,2,13.18,2q7.13,0,14.25.31a61.22,61.22,0,0,0,7,.1c1.08-.08,2.14-.34,3.22-.42,1.23-.08,2.46.12,3.69.08s2.22-.2,3.33-.3c1.28-.12,2.54-.06,3.81-.11,2.36-.1,4.68-.61,7-.8,4.55-.36,9.11-.86,13.62-1.58,4.79-.77,9.36-2.47,14.17-3.08a42.47,42.47,0,0,1,6.92-.76c2.45.09,4.9.14,7.35.19s5.1,0,7.64.15a41.05,41.05,0,0,1,4.14.68c1.26.21,2.53,0,3.79.18,4.93.84,9.89,1.64,14.86,2.11.83.07.82-1.23,0-1.3-2.21-.21-4.37-.63-6.58-.8-1.11-.09-2.19-.44-3.3-.61s-2.31-.23-3.46-.42a17.69,17.69,0,0,0-3.24-.38,20.8,20.8,0,0,1-3.77-.48,39.35,39.35,0,0,0-6.33-.37c-2.39,0-4.79-.08-7.18-.13a40.4,40.4,0,0,0-6.78,0c-2.28.33-4.59.65-6.85,1.06s-4.54,1.1-6.79,1.66a55.2,55.2,0,0,1-7.43,1.38c-2.36.25-4.69.72-7.05,1-2.16.25-4.32.26-6.48.56-2.4.33-4.73.36-7.13.5-1.2.07-2.38.26-3.58.34s-2.32,0-3.49-.05a22.85,22.85,0,0,0-3.2.34,27.53,27.53,0,0,1-3.74.16c-4.75-.09-9.49-.31-14.24-.45a67.53,67.53,0,0,1-8-.24c-2.52-.37-5-1-7.47-1.48a36.89,36.89,0,0,1-7.54-2.37c-1-.45-2.12-.56-3.12-1.07a13.27,13.27,0,0,0-2.83-.95c-.81-.21-1.16,1-.35,1.25Z" transform="translate(-45.21 -30.3)"/><path class="cls-2" d="M79.16,119.32a8.89,8.89,0,0,0,2.47.08,9.49,9.49,0,0,1,3.44.71c2.21.77,4.42,1.54,6.6,2.39,1,.4,2.14.7,3.18,1.11a11.82,11.82,0,0,1,3.09,2.17,28.15,28.15,0,0,0,5.28,3.57,19.19,19.19,0,0,0,5.79,2,24.73,24.73,0,0,1,2.95.45,12.32,12.32,0,0,0,3.19.48c2.34,0,4.65.19,7,.32,2.51.14,4.91-.44,7.42-.49a47,47,0,0,0,6.78-1,64.8,64.8,0,0,1,7.1-.49c2.37-.12,4.73-.57,7.09-.8,2.52-.25,5-.61,7.54-.91,2.33-.28,4.73-.28,7-.73a55.84,55.84,0,0,1,7.27-1.05c4.85-.29,9.75-.49,14.61-.39,5.69.12,11.38.3,17.07.45,2.6.07,5.18.2,7.78.4a27.73,27.73,0,0,0,7.48-.75c.82-.15.47-1.41-.35-1.25a25.9,25.9,0,0,1-6.91.71c-2.27-.16-4.52-.32-6.8-.38l-14.84-.39c-4.94-.13-9.84,0-14.78.15-2.4.09-4.81.19-7.2.51-1,.13-1.87.34-2.8.55a28.58,28.58,0,0,1-3.92.5c-4.78.37-9.6,1-14.35,1.65-4.58.63-9.16.43-13.69,1.44-2.45.54-4.91.3-7.36.74a28.28,28.28,0,0,1-7.18,0c-1.17-.09-2.33-.09-3.5-.09a14.61,14.61,0,0,1-3.72-.55c-.91-.23-1.83-.21-2.75-.36a16,16,0,0,1-3.12-.86,24.57,24.57,0,0,1-6.69-3.91A34.4,34.4,0,0,0,96.52,123a13.72,13.72,0,0,0-3-1.19c-2.41-.85-4.81-1.76-7.21-2.65a15.85,15.85,0,0,0-3.62-1,23.39,23.39,0,0,1-3.14-.09.65.65,0,0,0-.35,1.26Z" transform="translate(-45.21 -30.3)"/><path class="cls-2" d="M80,129.56c1,0,1.93-.06,2.9-.07a14.65,14.65,0,0,1,3.43.5,8.19,8.19,0,0,1,2.66.93c1,.58,1.86,1.26,2.88,1.76a30.71,30.71,0,0,0,5.62,2.26c2.14.59,4.21,1.48,6.4,1.89s4.32.44,6.47.75a58.45,58.45,0,0,0,6.75.33c4.79.14,9.58.33,14.38.39,2.45,0,4.91,0,7.36-.12s4.72-.49,7.09-.71,4.89-.19,7.33-.19,4.73-.19,7.1-.43c4.61-.46,9.21-.91,13.81-1.49,2.33-.29,4.65-.72,7-.8s4.72.08,7.07.14a43.34,43.34,0,0,0,7.81,0c2.64-.42,5.28,0,7.92-.37,2.41-.35,4.8-.19,7.22-.65,2.72-.51,5.42-1.08,8.15-1.5.82-.13.47-1.38-.35-1.25-2.43.37-4.84.83-7.24,1.32a30,30,0,0,1-3.5.56c-1,.09-2.05-.12-3.07,0a32.93,32.93,0,0,1-3.44.4c-1.19,0-2.39-.11-3.58-.07s-2.27.35-3.42.44a32.21,32.21,0,0,1-3.54-.06c-4.7-.14-9.41-.46-14.08.18s-9.3,1.32-13.94,1.67c-2.28.16-4.54.46-6.82.59s-4.67,0-7,.08c-4.83.09-9.59.95-14.43,1s-9.64-.16-14.45-.3c-2.41-.07-4.81-.14-7.22-.19-2.21-.06-4.34-.59-6.54-.72a18.94,18.94,0,0,1-4-.59c-1.15-.33-2.25-.77-3.39-1.11a41.61,41.61,0,0,1-7-2.64c-1.06-.54-2-1.28-3-1.87a9.31,9.31,0,0,0-2.63-.85,16.88,16.88,0,0,0-2.92-.54c-1.25-.06-2.5.07-3.75.06a.65.65,0,0,0,0,1.3Z" transform="translate(-45.21 -30.3)"/><path class="cls-2" d="M79.33,136.92c2.28.06,4.57,0,6.84.18a27,27,0,0,1,3.36.67c1.16.24,2.35.16,3.5.4s2,.37,3.09.56c.52.1,1,.28,1.56.37s1.38.05,2,.21c.89.2,1.74.63,2.63.87,1.07.28,2.17.4,3.25.66,2.1.49,4.14,1.17,6.24,1.63a34,34,0,0,0,6.45.6c2.32.06,4.66.2,7,.18a20.76,20.76,0,0,0,2.73-.33c1.25-.19,2.48-.07,3.72-.14a57.34,57.34,0,0,0,6.25-1c2.2-.37,4.44-.33,6.65-.62,1.17-.16,2.33-.4,3.5-.5s2.35,0,3.52-.06a25.56,25.56,0,0,0,2.74-.32,21.63,21.63,0,0,1,3.86-.08c9.78.29,19.56.49,29.33.76l8.11.21c2.54.06,5.06-.35,7.6-.4,1.3,0,2.6,0,3.89-.14s2.61-.44,3.94-.5c2.7-.12,5.31-.75,8-.91.83,0,.83-1.34,0-1.3-2.39.14-4.7.76-7.08.87s-4.59.6-6.91.66-4.6.22-6.91.37-4.65,0-7-.07c-9.81-.23-19.63-.54-29.45-.76a50.55,50.55,0,0,0-7-.08c-1,.12-2,.33-3,.38-1.17.06-2.34,0-3.5.05-2.33.16-4.61.68-6.94.82a40.68,40.68,0,0,0-6.11.87,23.83,23.83,0,0,1-3.36.47c-1.16.08-2.33-.05-3.48.08s-2,.36-3,.4c-1.24,0-2.5-.06-3.73-.09-2.3-.05-4.63,0-6.91-.21a35.82,35.82,0,0,1-6.55-1.45c-2.29-.63-4.69-.9-6.93-1.69s-4.75-.86-7.12-1.36a31.34,31.34,0,0,0-3.46-.5c-1.27-.13-2.46-.59-3.72-.76a71.69,71.69,0,0,0-7.76-.27.65.65,0,0,0,0,1.3Z" transform="translate(-45.21 -30.3)"/><path class="cls-2" d="M79.33,144.87l7.2.2a38.85,38.85,0,0,1,7.23.51,48.68,48.68,0,0,1,6.46,1.45,15.64,15.64,0,0,1,3,1.57,16.85,16.85,0,0,1,2.67,1.46,7.63,7.63,0,0,0,4.7,1.91,6.36,6.36,0,0,1,2,.2c.28.11.51.3.8.39a10.49,10.49,0,0,0,3.26.16c2.29-.06,4.45.69,6.74.73l7.17.17c4.82.12,9.66.36,14.48.39a39.09,39.09,0,0,0,6.89-.78c2.43-.43,4.86-.78,7.31-1.08,4.7-.57,9.26-1.53,13.9-2.39a109.3,109.3,0,0,1,14.69-1.24,81.48,81.48,0,0,1,8.27-.05,27.56,27.56,0,0,1,3.95.64,21.93,21.93,0,0,0,3.71.2,21.78,21.78,0,0,1,4,.33,18.12,18.12,0,0,0,3.51.51c2.6,0,5.23.17,7.83.12a.65.65,0,0,0,0-1.3c-2.24,0-4.48-.15-6.71-.13a14.48,14.48,0,0,1-3.6-.29,18.3,18.3,0,0,0-3.11-.49c-1.23-.07-2.46-.07-3.69-.09a18.26,18.26,0,0,1-3.45-.56,33.61,33.61,0,0,0-7.09-.31c-4.84.07-9.71.41-14.53.81-4.66.4-9.18,1.78-13.81,2.44-2.43.35-4.88.61-7.32.93s-4.61.81-6.93,1.14c-4.83.67-9.89.12-14.74,0l-7.17-.18a37,37,0,0,1-7.28-.54c-2.13-.49-4.45.17-6.46-.65a7,7,0,0,0-2.42-.36,6.44,6.44,0,0,1-3.62-1.19,7.62,7.62,0,0,0-2.16-1.48c-1.11-.43-2-1.18-3.08-1.66a37.35,37.35,0,0,0-7-1.83c-5.06-1.16-10.47-.8-15.64-1a.65.65,0,0,0,0,1.3Z" transform="translate(-45.21 -30.3)"/><path class="cls-2" d="M79.33,154.94c2.15-.28,4.32-.69,6.46-.8.94,0,1.84-.36,2.77-.47a21.92,21.92,0,0,1,3.14-.09,13,13,0,0,1,6.49,2.23c2.07,1.23,4.14,2.47,6.3,3.53a12,12,0,0,0,5.75,1.17,57.76,57.76,0,0,1,6.57.65c2.38.25,4.84.24,7.23.31a38.79,38.79,0,0,0,6.81-.38c1.25-.18,2.5-.38,3.77-.46s2.32,0,3.47-.09,2.27-.36,3.42-.38a34.93,34.93,0,0,0,3.54-.15c4.79-.59,9.58-1.24,14.38-1.76a66.2,66.2,0,0,0,6.58-.88c2.32-.48,4.66-.51,7-.79s4.6-.35,6.88-.64a46.92,46.92,0,0,1,6.91-.26c5.5.12,11,.16,16.51.49a25.06,25.06,0,0,0,7.33-.49,81.21,81.21,0,0,1,8.5-1.34c.81-.11.83-1.41,0-1.3-2.26.28-4.52.54-6.75,1a33.27,33.27,0,0,1-7.22,1c-4.9-.15-9.79-.36-14.68-.49-2.46-.06-4.93-.19-7.39-.18a19.42,19.42,0,0,0-2.74.28c-1.28.19-2.57.2-3.86.32-2.33.21-4.64.59-7,.7s-4.27.72-6.43,1c-4.74.67-9.54.91-14.28,1.52a63.92,63.92,0,0,1-7.31.72c-1.07,0-2.13.23-3.19.35-1.23.15-2.47,0-3.7.12-2.34.15-4.63.69-7,.83a70.7,70.7,0,0,1-7.28-.14c-2.34-.09-4.56-.35-6.87-.66s-4.52.17-6.66-.43c-4.81-1.36-8.47-5.84-13.5-6.52a18.79,18.79,0,0,0-6.39.25c-1.15.25-2.32.17-3.49.4-1.37.27-2.75.4-4.14.58-.81.1-.82,1.4,0,1.3Z" transform="translate(-45.21 -30.3)"/><path class="cls-2" d="M79.33,162.46a15.33,15.33,0,0,1,3.52.09c1.11.23,2.18.68,3.27,1,2.2.66,4.44.71,6.64,1.27,1.07.27,2.11.63,3.19.83s2.2.14,3.29.32c2.36.4,4.51,1.48,6.76,2.24a31.54,31.54,0,0,0,12.82,1.62,46,46,0,0,0,6.57-1.22c2.27-.54,4.57-.94,6.86-1.4s4.64-1.35,7-1.67a41.12,41.12,0,0,1,7.19-.16c5,.19,9.93.28,14.9.41a105,105,0,0,0,14.3-.25c2.2-.24,4.26-.89,6.49-.86a13.17,13.17,0,0,0,2.65-.34c1.31-.25,2.65-.31,4-.46,2.66-.31,5.31-.71,7.95-1.11s4.87-1.28,7.38-1.68c1.15-.19,2.31-.34,3.44-.63s2.49-.81,3.77-1.13c2.63-.64,5.33-.94,8-1.47.82-.16.47-1.42-.35-1.25-2.27.45-4.58.73-6.85,1.21s-4.36,1.35-6.63,1.74-4.27.84-6.42,1.43a53.84,53.84,0,0,1-7,1.17c-2.37.33-4.8.43-7.14.85-2.12.38-4.2.26-6.3.71a61.34,61.34,0,0,1-14.26.85l-14.76-.38c-4.53-.13-9.14-.58-13.56.72a69.53,69.53,0,0,1-6.86,1.57c-2.3.43-4.56,1-6.85,1.5a29.67,29.67,0,0,1-13.8-.38c-2.44-.64-4.7-1.75-7.11-2.46a14.66,14.66,0,0,0-3.54-.6A17.16,17.16,0,0,1,94,163.8c-2.48-.7-5-.76-7.5-1.5a30.68,30.68,0,0,0-3.47-1,17.22,17.22,0,0,0-3.66-.1.65.65,0,0,0,0,1.3Z" transform="translate(-45.21 -30.3)"/><path class="cls-2" d="M79.33,174.41c2.35,0,4.7-.15,7-.08a64.47,64.47,0,0,1,6.81.95c1.2.15,2.38.14,3.57.37,1,.2,2,.4,3.06.5,2.36.23,4.68.73,7,1.12,1,.16,1.76.5,2.68.73a13.66,13.66,0,0,0,3.32.17c2.27,0,4.55.1,6.82.16a59.42,59.42,0,0,0,13.5-1.14c4.73-1,9.41-2.22,14.08-3.44s9.15-2,13.72-3a13.42,13.42,0,0,1,3.79-.28,11.29,11.29,0,0,0,2.95-.41c2.28-.45,4.88,0,7.19.09a38.94,38.94,0,0,0,6.39-.18,32.33,32.33,0,0,1,3.41-.05,32.29,32.29,0,0,0,3.55-.32c2.48-.3,5,0,7.46-.37s5.08-.79,7.67-1,5.09-.63,7.66-.74,5.39-.71,8.12-.71a.65.65,0,0,0,0-1.3c-2.43,0-4.79.53-7.21.66-2.25.13-4.44.42-6.68.63s-4.53.3-6.77.65a41.27,41.27,0,0,1-6.92.75c-2.24,0-4.41.39-6.64.43-1.09,0-2.18-.08-3.26,0s-2.23.31-3.37.32c-2.31,0-4.62-.18-6.93-.26a23.36,23.36,0,0,0-3.24,0,27.52,27.52,0,0,1-3.15.49,16.41,16.41,0,0,0-3.21.08c-1.16.2-2.3.51-3.47.7-2.4.41-4.77.92-7.14,1.49-4.58,1.11-9.13,2.38-13.71,3.48a64.85,64.85,0,0,1-14.24,2.2c-2.28,0-4.57-.09-6.86-.15-1.09,0-2.19-.07-3.28-.07a11.1,11.1,0,0,1-3.73-.3,38.43,38.43,0,0,0-7.26-1.45c-1.22-.18-2.45-.24-3.66-.46a29.64,29.64,0,0,0-3.5-.56c-2.56-.15-5-.89-7.6-1s-5.32.05-8,.05a.65.65,0,0,0,0,1.3Z" transform="translate(-45.21 -30.3)"/><path class="cls-2" d="M219.14,170.13c-4.76-.2-9.52-.52-14.28-.46-2.24,0-4.39-.76-6.66-.82s-4.8-.08-7.2-.15c-4.57-.13-8.78.88-13.17,2.09-2.29.62-4.56,1.31-6.82,2s-4.45.6-6.67,1.09c-1,.23-2,.61-3,.93a15.8,15.8,0,0,1-3.86.63c-2.18.17-4.2.78-6.34,1.13-2.46.4-5,.32-7.51.63a44.62,44.62,0,0,1-7,.77,8,8,0,0,0-2.62.31,11.65,11.65,0,0,1-3.91.18,59.26,59.26,0,0,0-7,.14c-4.76.29-9.48-.27-14.22-.62-1.39-.1-2.77-.18-4.15-.23a20.82,20.82,0,0,1-3.92-.64c-2.17-.49-4.6-.08-6.82-.07a25.9,25.9,0,0,1-4-.57,31.71,31.71,0,0,0-3.51-.16,25.4,25.4,0,0,1-3.8-.68,19.85,19.85,0,0,0-3.44-.26.65.65,0,0,0,0,1.3,17.7,17.7,0,0,1,3.09.21c1.1.19,2.14.58,3.26.68s2.08,0,3.12.09c1.2.06,2.32.46,3.51.6a46.91,46.91,0,0,0,6.6,0,12.4,12.4,0,0,1,3.14.5,19,19,0,0,0,3.29.34c4.79.18,9.56.86,14.36.94,2.35,0,4.68-.23,7-.31s4.69.44,6.94.06a13.71,13.71,0,0,1,2.93-.5,17.23,17.23,0,0,0,3.29-.22c2.43-.35,4.85-.7,7.3-.89a42.14,42.14,0,0,0,6.8-.85c2.23-.55,4.53-.44,6.77-.93,1-.23,2-.64,3-.95a19.9,19.9,0,0,1,3.77-.61,34.84,34.84,0,0,0,6.45-1.55c4.42-1.33,9.06-2.9,13.68-3.27a77.83,77.83,0,0,1,8.08.1c1.33,0,2.67,0,4,.11s2.37.54,3.59.69,2.42,0,3.63.06l4,.11c2.77.07,5.54.23,8.32.34.83,0,.83-1.26,0-1.29Z" transform="translate(-45.21 -30.3)"/><path class="cls-2" d="M79.33,192l14.76.39a57.16,57.16,0,0,0,6.8.11c1.1-.11,2.19-.36,3.3-.44s2.14,0,3.21-.16,2-.39,3-.53,2.25-.23,3.36-.48,2.07-.55,3.12-.81,2.21-.36,3.31-.6a67.53,67.53,0,0,1,6.84-.8,53.32,53.32,0,0,0,6.51-1.11c2.27-.5,4.52-1.08,6.8-1.54s4.67-.68,7-.93c2.15-.23,4.25-.71,6.39-1a45.88,45.88,0,0,0,6.67-1.37,77.17,77.17,0,0,1,13.79-2.8c1.18-.11,2.35-.09,3.54-.1a22,22,0,0,0,3-.36c2.25-.31,4.48-.16,6.72-.66,2.54-.58,5.19-.66,7.77-1.1a38.43,38.43,0,0,1,4.15-.2c1.1-.07,2.2-.24,3.29-.42a32.22,32.22,0,0,1,4.28-.35c1.36,0,2.68-.29,4-.44a80.43,80.43,0,0,1,8.07-.37.65.65,0,0,0,0-1.3c-4.78.08-9.49.58-14.25.87-2.19.14-4.31.76-6.53.74-2.38,0-4.61.55-7,.75s-4.6.81-6.92,1c-1.05.07-2.1,0-3.14.14s-2.18.39-3.28.42a67.22,67.22,0,0,0-13.69,1.78c-2.24.55-4.42,1.28-6.66,1.82s-4.59.75-6.88,1.18-4.49.53-6.74.8a65.79,65.79,0,0,0-6.53,1.21A115.59,115.59,0,0,1,124,187.77c-1,.11-2,0-3,.25s-2.17.37-3.25.58c-2.34.45-4.54,1.15-6.91,1.45-1.08.13-2.12.38-3.19.55-1.34.22-2.72.1-4.07.25a31.8,31.8,0,0,1-3.76.42c-1.26,0-2.52-.07-3.78-.1l-16.65-.44a.65.65,0,0,0,0,1.3Z" transform="translate(-45.21 -30.3)"/><path class="cls-2" d="M79.16,196.84c4.63,1.19,9.3,1.1,14,1.23,2.38.07,4.76.17,7.13.25s4.54-.48,6.85-.39a17.83,17.83,0,0,0,2.92-.28c1.18-.16,2.37,0,3.55-.15A16.3,16.3,0,0,1,116,197a17.75,17.75,0,0,0,3-.23,40.46,40.46,0,0,0,6.82-1.85c2.25-.78,4.55-1.44,6.8-2.24a22,22,0,0,0,2.27-1.15,22.12,22.12,0,0,1,3.43-1.1,11,11,0,0,1,3.34-.2c1.2,0,2.36-.4,3.57-.44,4.68-.12,9.41.23,14.09.35,1.06,0,2.14.1,3.2.07,1.24,0,2.46-.27,3.69-.38,2.19-.19,4.37.27,6.56,0s4.63-.19,6.92-.58,4.88-.69,7.32-1c10.75-1.37,21.38-3.58,32.17-4.62.82-.08.83-1.38,0-1.3-4.63.44-9.16,1.23-13.76,1.89-4.77.69-9.53,1.34-14.29,2.12-2.45.41-4.92.7-7.4,1-2.28.29-4.57.83-6.86.92s-4.69.4-7,.26a47.19,47.19,0,0,0-6.62.3,66.82,66.82,0,0,1-6.93-.11L149,188.6a31,31,0,0,0-6.39.24c-1.11.19-2.2-.1-3.31,0a22.89,22.89,0,0,0-3,.86c-2,.59-3.82,1.64-5.85,2.28-2.27.73-4.51,1.55-6.78,2.27a25.34,25.34,0,0,1-6.88,1.44,7.82,7.82,0,0,0-2.37.19,11.2,11.2,0,0,1-3.27.34c-1.18,0-2.32.38-3.5.37a18.18,18.18,0,0,0-3.46.11,40.85,40.85,0,0,1-8.2.1c-5.49-.15-11.09.11-16.44-1.26a.65.65,0,0,0-.35,1.25Z" transform="translate(-45.21 -30.3)"/><path class="cls-2" d="M198.68,195.68a48.47,48.47,0,0,1,10.36-.29c3.36.16,6.73.26,10.1.33a.65.65,0,0,0,0-1.3c-3.5-.07-7-.18-10.5-.35a48,48,0,0,0-10.31.36c-.82.14-.47,1.39.35,1.25Z" transform="translate(-45.21 -30.3)"/><rect class="cls-3" x="33.97" y="0.86" width="141.02" height="169.59"/><path class="cls-2" d="M83,199.68H79c-.63,0-1.29-.08-1.91,0a17.66,17.66,0,0,1-2.39.35c-.92,0-2.78.19-3.42,1.08-1.37,1.87,1.6,1.77,2.56,2,.5.15,1.42.41,1.45,1.1s-1.08,1.28-1.52,1.47c-.63.26-1.28.36-1.92.65a21.29,21.29,0,0,1-2.4.83c-.89.28-1.4,1-2.21,1.37-.36.17-.78.14-1.13.32s-.53.46-.85.61c-.63.31-1.35.27-1.63,1.08a1.41,1.41,0,0,0,.75,1.6,8.5,8.5,0,0,0,1.73.37c.47.1,1-.08,1.46,0a11,11,0,0,0,1.25.33,61.82,61.82,0,0,1,6.19.74c1.17.23,3.44.94,1.86,2.56-.38.39-.52.23-.88.48a11.11,11.11,0,0,0-1,.95,7.56,7.56,0,0,1-1.86,1.09c-.77.36-1.44.93-2.2,1.27s-1.68.4-2.48.73a24.94,24.94,0,0,0-5.49,3c-.56.43-1.67.9-1,1.71.56.64,2,.65,2.66.67,1,0,1.91,0,2.85,0a17,17,0,0,0,2.86-.65c.72-.13,1.43.05,2.15-.1A9.09,9.09,0,0,1,75,225c.51,0,1.32-.12,1.17.8-.12.73-1.88,1.3-2.42,1.48A50.06,50.06,0,0,1,68.2,229c-.91.2-1.84.27-2.74.48s-1.78.71-2.69.95-1.73.47-2.62.76a20.24,20.24,0,0,0-2.89.8c-1.56.76-3.3,1.18-4.81,2.06-2.52,1.45-6.48,3.45-6.77,7.1-.27,3.26,6.79,2.45,8.59,2.45,3.62,0,7.24,0,10.86,0,1.13,0,2.13.28,3.24.36s2.22,0,3.31,0a12.87,12.87,0,0,1,2.7.26,22.65,22.65,0,0,0,4.51.08h2.59c1.1,0,2,.27,3.08.35,1.92.15,3.67,0,5.56.56,2.07.64.95,2.15-.37,3.15-.85.64-1.9,1.12-2.79,1.68a32.92,32.92,0,0,0-2.8,2.05c-.71.57-1.32.7-1.78,1.58a3.84,3.84,0,0,0-.3,2.11c0,2.23,3,2.89,4.59,3.4a30.74,30.74,0,0,0,5,.92c2.26.33,4.54.27,6.78.68,1.16.2,2.32,0,3.48.1a30.76,30.76,0,0,0,3.71.31,20.51,20.51,0,0,1,3.91.26,27.87,27.87,0,0,0,4.19.07c1.27,0,2.47.37,3.75.35h3.55c1.35,0,2.72-.08,4.06,0s2.65.36,4,.35c2.76,0,5.41.35,8.16.34a24.53,24.53,0,0,1,3.63.26,51,51,0,0,0,5.39.06c1.19.05,2.31.37,3.51.36h14.22c6.19,0,12.38-.06,18.57,0,1.64,0,3.24-.37,4.89-.35,1.27,0,2.54,0,3.81,0,2.88,0,5.69-.22,8.57-.33,1,0,2-.37,3.06-.35a40.4,40.4,0,0,0,4.11-.33c1.17-.09,2.38-.32,3.53-.52s2.22-.23,3.35-.5c.69-.17,1.36-.48,2.06-.63,1-.21,1.7-.69,2.64-1a13,13,0,0,0,2.71-1.17,8.2,8.2,0,0,0,1.62-1.26c1.75-2-5.47-5.15-6.38-5.92-.35-.3-1.5-.85-1.39-1.54.08-.5,1-.74,1.34-.91a36.08,36.08,0,0,1,4.48-1.86c1.57-.51,3.11-1.09,4.69-1.52,1.8-.48,3.53-1.23,5.32-1.7.81-.21,1.67-.23,2.47-.48s1.33-.62,2-.86c1.91-.68,3.72-1.53,5.56-2.38a16.85,16.85,0,0,0,4.51-2.94c1.28-1.15,3-2.54,2.59-4.56-.36-1.76-2.06-3.15-3.39-4.05a15.35,15.35,0,0,0-5.56-2c-3.45-.72-6.85-1.74-10.36-2a19.17,19.17,0,0,1-2.46-.42c-.45-.11-1.56-.21-1.73-.74s.76-1.55,1.11-1.9a24.22,24.22,0,0,1,2.54-1.85c1.22-.9,2.6-1.62,3.89-2.45s3.14-1.75,4-3.11a2.55,2.55,0,0,0-.63-3.4c-1.12-.76-2.76-.95-4-1.43-.62-.23-1.28-.38-1.91-.58s-1.45-.11-1.76-.64c-.83-1.42,2.29-2.71,2.93-3.23s1.17-.69,1.08-1.61-.52-1.11-1.25-1.28a18.4,18.4,0,0,0-4.33-.33h-4.25a7.48,7.48,0,0,0-1.88.17,12.9,12.9,0,0,1-2.56.15c-.93,0-1.74.37-2.68.36h-2.11c-1.4,0-3.28.46-4.4-.67" transform="translate(-45.21 -30.3)"/><path d="M83,199.18c-1.16,0-15.09-.94-12.45,3.53,1,1.72,5.61.41,1.14,3.12-1.91,1.16-7.81,2-8.41,4.48-1.37,5.76,14.57.19,13,5.89-.81,2.87-16.5,5.55-14.61,9.26.65,1.27,3.36,1,4.43.93,2.17-.08,4.27-.58,6.43-.85,0,0,2.48-.3,2.49-.29.92,1.83-5.1,3.07-5.94,3.27-7,1.69-17.58,3-22.43,9.11-3.6,4.55.24,6.48,4.54,6.53,9.46.11,18.92.55,28.36.56,1.66,0,4.9-.4,6.43.42l1.38.05c1.64,2.06,1.66,3.38.06,4-.75.92-2.56,1.65-3.52,2.43-1.65,1.35-3.26,2.86-2.1,5.28.91,1.93,3.7,2.55,5.56,3,5.31,1.29,11.05,1.44,16.48,1.71,21.31,1.07,42.64,2.18,64,2.13,11.47,0,23,.1,34.41-.94,4.31-.39,8.74-.64,12.92-1.81,2.06-.58,7.23-1.71,8.34-3.91.77-1.55-.21-2.5-1.41-3.55a17.68,17.68,0,0,0-2.66-1.79c-2.15-1.3-3.64-1.5-1.08-3.5,1.94-1.52,6.12-2.22,8.45-3s4.6-1.26,6.89-1.92a37,37,0,0,0,11.17-5.41c8-6.05.68-11-6.29-12.63-2.63-.61-5.24-1.28-7.9-1.69a19.72,19.72,0,0,1-4-.62c-1.7-2.32,2.43-3.71,4-4.68,2-1.26,6.64-3.06,6.61-6.08-.05-4.14-5-2.41-6.84-4.47-2.59-2.83,2.63-2.59,2.09-5.32-1.05-5.33-20,.38-23.66-1.87-.58-.36-1.12.57-.53.92,3.3,2,8.55.42,12.15.17,1.86-.13,11.09-1.09,9.38,2.68-.42.92-2.27,1-2.43,2.31a1.68,1.68,0,0,0,.36,1.28c.51.65,1.68.6,2.36.83,1.85.61,7.13,1.45,5,5.34-1.22,2.26-6.18,3.79-8.3,5.38-1.19.89-2.29,1.69-2.65,3.2a.63.63,0,0,0,.28.68c3.3,2.33,9.13,2,13,2.83,2.51.56,7.9,1.25,9.13,3.93,1.17,2.53-.32,5.55-2.26,7a19.83,19.83,0,0,1-3.39,2.07c-4.66,2.28-9.45,3.51-14.36,5.05-3.52,1.1-9,2-11.71,4.63a.61.61,0,0,0-.16.6c.71,2,3.28,2.83,5,3.9,5,3.17-.2,5.17-3.7,6.34a46.54,46.54,0,0,1-10.18,1.74c-13.21,1.23-26.52,1.16-39.78,1.18s-26.31-.31-39.47-1.24c-12.48-.87-25.72.39-38-2.36-.87-.19-3.76-.79-4.37-1.42-3.2-3.35,1.43-6,3.12-7.18,1.1-.74,3.09-1.43,3.85-2.7,1.33-2.25-.13-2.87-2.33-3.32-5-1-10.58-.54-15.69-.88-6.4-.43-12.89-.5-19.32-.41-2.29,0-8.56,1.06-6.91-3.93.68-2,4.08-3.84,5.86-4.79,6.06-3.23,12.89-4.17,19.32-6.26.35-.12,5.61-1.36,4.29-3-.87-1.08-5.14-.14-6,0-1.57.18-4.14,1.4-5.64.59-3.45-1.86.22-3,1.84-3.76,2.62-1.28,5.27-1.88,7.76-3.46,1.27-.8,4.08-2.16,3.2-4.06-.5-1.07-3.18-1.25-3.91-1.37-1.07-.17-2.11-.21-3.18-.36-1.39-.2-6.87.09-5-2.77.81-1.23,5.54-2.67,6.61-3,1.7-.6,2.76-.85,3.8-2.34a.55.55,0,0,0,0-.59c-.86-1.24-3.14-1.4-3-2.39.35-1.91,8.42-1.33,10.18-1.37a.5.5,0,0,0,0-1Z" transform="translate(-45.21 -30.3)"/><path d="M220.86,201.94c-1.19-.09-2.82.17-4,.16-1.37-.24-3.18.07-4.53-.16a14.69,14.69,0,0,0-1.87-.13,43.66,43.66,0,0,0-6.16-.26,14.35,14.35,0,0,1-3,.28c-1.4,0-2.82-.19-4.2-.19a15.59,15.59,0,0,0-3.18-.37,24.84,24.84,0,0,0-4.78.42c-1.25.13-4,0-5.22,0a53.76,53.76,0,0,0-10.22-.37,46.9,46.9,0,0,1-5,.38c-1.3-.05-2.57-.45-3.86-.56-1.82.14-3.61.38-5.43.55-2,.08-4.59-.1-6.59-.09-1.55-.25-3,.51-4.56.74a12.2,12.2,0,0,1-1.85-.46l.72-2.19c.15-.52.59-.67.77-1.14.43-.33.66-1,1-1.4s1.27-.41,1.6-1.3a.75.75,0,0,1,.18-.3c.18-.2.21-.52.35-.77.34-.92,1-.78,1.37-1.55.41-.43.69-1,1.16-1.31s1-.36,1.34-.88c.28-.28.07-.52.37-.73.58-1.08,1.34-.25,2.06-.28.64.22,1,0,1.32,1.06.47.92,1.4.31,1.86,1.33.29.74.19,1.36.87,1.75s1.41,1.42,2.26,1.06c1.28-.74,2.42-2,3.81-2.23.89-.38,2.12.23,2.84-.81.49-1.48,1.65-1.82,2.55-2.56a41,41,0,0,1,3.35-2.5c.89-.63,2.35-3,3.23-2.26a.65.65,0,0,0,.65-.25c1.56-.68,3.49-1.77,5-.24.08.73.72.69,1.06,1.06,1,.53,1.91,1.35,2.91,1.9a10.52,10.52,0,0,1,3.27,2c.89.45,1.51,1.6,2.39,2.06.95,1.19,2.21.92,3.28.28.79-.22,1.6.07,2.34-.55,1.58-.78,3.25,1.67,5,1,1-.18.69,1.85,2.67,2.57,1.91,2.16,1.52,1.12,3.25,1.86a10.66,10.66,0,0,0,2.42,1.09,25,25,0,0,0,6,2.65c.1,0,.3.06.36.2s-.06.49,0,.67S220.72,201.54,220.86,201.94Z" transform="translate(-45.21 -30.3)"/><path d="M220.86,201.68c-1.08-.05-2.15.1-3.23.14s-2.27-.07-3.41-.06c-2.42,0-4.85-.4-7.28-.46-2.59-.07-5.11.38-7.71.19a44.66,44.66,0,0,0-7.66-.39,55.91,55.91,0,0,1-6.2.37c-2.34,0-4.66-.37-7-.44a72.87,72.87,0,0,0-7.82.39,15.18,15.18,0,0,1-3.92-.23,12.8,12.8,0,0,0-3.76-.08,64.39,64.39,0,0,1-8.45.29,17.63,17.63,0,0,0-3.33,0c-.7.13-1.36.38-2.06.52a5.34,5.34,0,0,1-2.54-.29l.18.32a8.81,8.81,0,0,1,1.12-2.76,13.28,13.28,0,0,1,1.43-1.86c.46-.41,1-.54,1.4-1.06s.59-1.49,1.17-2a15.36,15.36,0,0,0,1.33-1.46c.59-.7,1.49-.88,2-1.59.16-.2.22-.6.39-.76a1.69,1.69,0,0,1,1.57-.18c.9.2.67,0,1.34.9a2.53,2.53,0,0,0,.34.45,2.05,2.05,0,0,0,.43.26c.13.08.33.05.46.13a2.36,2.36,0,0,1,.81,1.09,4.1,4.1,0,0,0,2.34,2.35c1.32.52,2.71-1.31,3.8-1.85s3.08-.06,3.93-1.27a6.58,6.58,0,0,1,.86-1.31,7.2,7.2,0,0,1,1-.73c.78-.54,1.46-1.19,2.25-1.73a18.46,18.46,0,0,0,2-1.45c.52-.47.94-1.06,1.47-1.54s1.07-.28,1.77-.48c.88-.24,1.67-.91,2.62-1.12a2.14,2.14,0,0,1,2.39.8c.09.1.14.25.25.34.58.49,1.32.82,1.94,1.25,1.68,1.16,3.46,2,5.09,3.25,1.18.88,2.33,2.73,3.89,2.9a3.34,3.34,0,0,0,1.59-.33c.81-.29,1.69-.23,2.47-.57,1.18-.52,1.83-.07,2.91.46a4,4,0,0,0,1.67.47c.5,0,.72-.15,1.09.26a5.76,5.76,0,0,1,.39.74,4,4,0,0,0,1.32,1.29c.64.44,1.11,1.2,1.82,1.53a6.63,6.63,0,0,0,1.09.25,24.41,24.41,0,0,1,2.43,1.05c1.25.48,2.38,1.24,3.6,1.8.48.22,1,.42,1.45.61s1.39.25,1.65.52.09.53.24.75.61.37.82.7.64,0,.45-.26-.19-.19-.48-.49-.18-.46-.34-.75c0,0,0-.08,0-.13-.39-.48-1.2-.51-1.75-.7a23.36,23.36,0,0,1-3.31-1.48c-1-.55-2.1-.93-3.14-1.44a6.45,6.45,0,0,0-1.7-.74,2.3,2.3,0,0,1-1.38-.66,8.18,8.18,0,0,0-.81-.85,5.07,5.07,0,0,1-1.14-.79c-.38-.44-.52-1.05-.9-1.48a.9.9,0,0,0-.64-.37c-.4-.07-.78.16-1.21.07a5.65,5.65,0,0,1-1.47-.64,4.35,4.35,0,0,0-1.63-.57,2,2,0,0,0-.87.16,6,6,0,0,1-1.76.46c-.89.09-1.65.82-2.59.58s-2-1.56-2.72-2.25c-1.44-1.33-3.14-2-4.74-3a25.28,25.28,0,0,1-2.59-1.72c-.58-.51-.78-1.1-1.59-1.41-1.53-.59-2.9.38-4.3.87-.47.16-.86,0-1.32.16a4.22,4.22,0,0,0-1.51,1.28,40,40,0,0,1-4.46,3.61c-.57.46-1.23.78-1.76,1.29-.73.73-.9,1.76-2.11,1.85a8.3,8.3,0,0,0-4.49,1.9c-1,.68-2,.16-2.77-.55s-.49-1.65-1.22-2.19a5,5,0,0,0-.53-.25,4.49,4.49,0,0,1-1.12-1.14,1.76,1.76,0,0,0-1.13-.55c-.54-.11-1.3-.47-1.86-.25-.76.31-1,1.43-1.67,1.86a6.55,6.55,0,0,0-1.81,1.68,8.26,8.26,0,0,0-1.51,1.88,4.22,4.22,0,0,1-.85,1.32c-.27.22-.63.29-.9.51a2.93,2.93,0,0,0-.64.8c-.34.49-.74.92-1.08,1.41a10.47,10.47,0,0,0-1.07,2.79.26.26,0,0,0,.18.32,5.57,5.57,0,0,0,2.41.38,20.68,20.68,0,0,1,4.07-.65,59.91,59.91,0,0,0,7.09,0c1.31-.12,2.62-.3,3.94-.42a17.88,17.88,0,0,1,4,.39c2.58.32,5.24-.32,7.83-.38,4.49-.11,9,.92,13.5.41,1.28-.15,2.53-.38,3.82-.42a31.22,31.22,0,0,1,4.1.36,37.78,37.78,0,0,0,7.29,0c3-.25,5.91.32,8.87.44,1.21.05,2.42,0,3.63.08s2.64-.22,4-.16C221.19,202.21,221.19,201.69,220.86,201.68Z" transform="translate(-45.21 -30.3)"/><path class="cls-4" d="M180.45,187c.61-.13,1.29-.23,1.91-.3a5.36,5.36,0,0,1,1.82-.11c1,.51-1,1.43-1.25,1.94a.21.21,0,0,0,.08.29,4.79,4.79,0,0,0,2.11.4c.41,0,2-.13,2.09.27a.14.14,0,0,0,.11.11c.16,0,.74,0,.82,0,.32.23,0,.48.17.77.05.12.25.14.28.21.23.57-.1.54-.42,1-1.28,1.74,2,1.18,2.7,1.11a14.41,14.41,0,0,1,3.47-.12c.59.11.51.06.06.53a6.18,6.18,0,0,0-1.18,1.27c-.19.36-.4,1,.07,1.21s1.61-.53,2-.69a15.49,15.49,0,0,1,4.14-1,8.85,8.85,0,0,1,1.92-.12c.74.11.45-.38,1.25.75,0,0,.36.73.34.7a3.75,3.75,0,0,0,2.07,1.64c1.25.4,2.62,0,3.88.42.73.22.93.75,1.54,1.06a3.74,3.74,0,0,0,1.14.28,7.74,7.74,0,0,1,1.2.12c1.37.43.09.63-.41.75a18.07,18.07,0,0,1-3.8.63c-.68,0-1,.16-1.48-.46-.19-.25-.18-.63-.51-.83-.77-.46-1.92.24-2.69.38,2-.37-.62.1-.7.08-.36.14-.56,0-.61-.58a.71.71,0,0,0,.12-.18c0-.21.14-.24,0-.51-.2-.52-1.19-.77-1.67-.73a13.61,13.61,0,0,0-2,.53c-.69.17-1.36.42-2,.62a.15.15,0,0,0,.07.29c.86-.24,1.68-.5,2.55-.7a10.06,10.06,0,0,1,1.19-.34A1.21,1.21,0,0,1,202,198c.34.36.24,0,.21.44s-.5.71-.18,1.15.58.2.88.16a23,23,0,0,0,2.48-.62c.67-.15,1-.09,1.29.51a2.93,2.93,0,0,0,.22.65c.37.37,1.09.16,1.55.14a12.87,12.87,0,0,0,2.47-.33c.52-.1,1-.26,1.53-.37a5.47,5.47,0,0,0,1.11-.19c.21-.12.31-.08.35-.36.12-.95-1.77-.92-2.26-1-1-.15-1.46-.83-2.31-1.23a6.8,6.8,0,0,0-2.58-.34,3.7,3.7,0,0,1-3.52-1.91c-.23-.46-.3-1-.79-1.27a5.56,5.56,0,0,0-2.66,0,18.33,18.33,0,0,0-3.28.58,9.26,9.26,0,0,0-1.34.47c-.28.12-.94.6-1.22.6-1.12,0,.24-1.24.59-1.54a5,5,0,0,0,.95-.94.17.17,0,0,0,0-.23c-.6-.47-2.28-.16-3-.15-.9,0-1.78.14-2.68.19-.12,0-1,.13-1.1,0-.63-.65.12-.82.34-1.12s.49-.43.37-.77-.4-.16-.51-.31c-.36-.45.22-.9-.61-1-.24,0-.56.22-.77.13s0-.24-.13-.28a2.35,2.35,0,0,0-1.06-.12,7.1,7.1,0,0,1-2.49-.31c-.32.05-.36,0-.12-.22l.26-.18a5.08,5.08,0,0,0,.8-.67c2-2.3-3.66-1.15-4.43-1-.28.07-.16.49.12.43Z" transform="translate(-45.21 -30.3)"/><path class="cls-4" d="M184.1,190.09H184c-.27,0-.27.43,0,.42l1.35,0a7.75,7.75,0,0,1,1.18,0l-.12-.15c0,.29-.6.59-.82.72s-.67.32-.64.66a.14.14,0,0,0,.09.13,3.73,3.73,0,0,0,.82,0,4.5,4.5,0,0,1,1-.12l-.07-.16c-.11.24-.36.36-.54.56a2.27,2.27,0,0,0-.44.59c-.12.31.11.49.38.56a12.42,12.42,0,0,0,1.58.27c.32.06.62.16.94.2a2.32,2.32,0,0,0,.83-.07.07.07,0,0,0,0-.13c-.22,0-.44,0-.65,0a7.83,7.83,0,0,1-.84-.18c-.49-.11-1-.14-1.49-.23a1.61,1.61,0,0,1-.38-.08c-.28-.09-.13-.3,0-.47a3.72,3.72,0,0,1,.42-.47,1.38,1.38,0,0,0,.36-.4c0-.06,0-.15-.06-.16a3.53,3.53,0,0,0-.86.07,3.46,3.46,0,0,1-.91,0l.1.13c0-.18.31-.31.44-.38l.4-.24c.27-.17.68-.39.67-.76a.17.17,0,0,0-.11-.15,5.51,5.51,0,0,0-1.15,0l-1.46,0a.21.21,0,0,0,0,.42h.07a.21.21,0,0,0,0-.42Z" transform="translate(-45.21 -30.3)"/><path class="cls-4" d="M181.72,198.21c1-.17,1.9-.28,2.86-.4.26,0,1-.26,1.09.22,0,.17-.89.62-1.06.71s-1.73.74-1.39,1.33c.2.36.91.23,1.23.2s.71-.12,1.07-.14c.66,0,.2,0,.16.29-.07.58.13.59.89.48a4.27,4.27,0,0,1,.64-.14c.23,0,.38.37.54.45s.13.1.44.09a10.94,10.94,0,0,0,2.27-.57,20.59,20.59,0,0,1,2.93-.49c3.38-.36,6.74-.83,10.14-.9a.33.33,0,0,0,0-.65,36.8,36.8,0,0,0-5.55.49c-1.71.21-3.42.43-5.13.69a18.49,18.49,0,0,0-2.66.56c-.57.18-1.79.78-2.28.46-.23-.15-.06-.28-.43-.36s-2.12.48-1.25-.34a.12.12,0,0,0,0-.16c-.56-.55-1.66.33-2.17-.05-.67-.49.94-1.06,1.29-1.29s.65-.39.72-.61c.44-1.28-4-.16-4.4-.07a.1.1,0,0,0,.05.2Z" transform="translate(-45.21 -30.3)"/><path class="cls-4" d="M186.83,199v.08a.1.1,0,0,0,0,.1.17.17,0,0,0,.17,0,.23.23,0,0,0,.14-.1h-.26a.31.31,0,0,0,.09.11.31.31,0,0,0,.2.07.32.32,0,0,0,.28-.15.29.29,0,0,0,0-.18.59.59,0,0,0-.06-.14.31.31,0,0,0-.26-.15.46.46,0,0,0-.41.34.35.35,0,0,0,0,.3c.06.12.24.08.34,0a1.21,1.21,0,0,0,.3-.2.51.51,0,0,0,.17-.28.13.13,0,0,0-.09-.15,1.09,1.09,0,0,0-.26,0h-.13a.33.33,0,0,0-.13,0,.09.09,0,0,0,0,.15.22.22,0,0,0,.14,0s0,0,0,0,0,0,0,0h.21l.07,0-.09-.16s0,0,0,0h0l0,0v0s0,0,0,0,0,0,0,0l0,0,0,0h0l-.08.06,0,0s0,0,0,0h0l-.08,0h0l.07.06s0,0,0,0v0h0v0s0,0,0,0h0a.43.43,0,0,1,0-.05s0,0,0,0v0l0-.05s0,0,0,0l0,0,0,0h0l0,0h0s0,0,0,0h0s0,0,0,0h0s0,0,0,0h0s0,0,0,0h0s0,0,0,0l0,0s0,0,0,0h0s0,0,0,0v0s0,0,0,0h0s0,0,0,0h0s0,0,0,0,0,0,0,0h0l-.1,0h0a.14.14,0,0,0-.15,0,.15.15,0,0,0-.08.12s0,0,0,0,0,0,0,0,0,0,0,0h0s0,0,0,0,0,0,0,0h0l.11,0v0l0-.06s-.06,0-.1,0a.08.08,0,0,0,0,.1Z" transform="translate(-45.21 -30.3)"/><path class="cls-4" d="M188,198.07a1,1,0,0,1,.39.78.85.85,0,0,1-.09.45c-.06.12-.21.32-.12.46a.09.09,0,0,0,.09,0c.08,0,.14-.12.18-.19s.09-.15.13-.22a1.15,1.15,0,0,0,.13-.58,1.34,1.34,0,0,0-.48-1,.2.2,0,0,0-.28,0,.19.19,0,0,0,0,.27Z" transform="translate(-45.21 -30.3)"/><path class="cls-4" d="M188.91,197.64c.1.37.51.51.66.84a.52.52,0,0,1-.07.55,1.08,1.08,0,0,0-.3.54c0,.08.13.14.18.07l.2-.24a2.52,2.52,0,0,0,.21-.25.8.8,0,0,0,.09-.72,1.08,1.08,0,0,0-.4-.47,1,1,0,0,1-.38-.37.1.1,0,0,0-.19,0Z" transform="translate(-45.21 -30.3)"/><path class="cls-4" d="M185.52,194.43c.68.1,1.37.18,2,.3.32.06.64.12,1,.15a1.81,1.81,0,0,0,1,0,.09.09,0,0,0,0-.16,2.65,2.65,0,0,0-.93-.18l-1-.16a6.81,6.81,0,0,0-2-.16c-.12,0-.19.23,0,.25Z" transform="translate(-45.21 -30.3)"/><path class="cls-4" d="M190.21,191.5a1,1,0,0,0,.46,0l.09-.05a.16.16,0,0,0,0-.07.19.19,0,0,0,0-.18.49.49,0,0,0-.16-.16l-.1,0a.43.43,0,0,0-.16,0l-.08,0-.08,0a.67.67,0,0,0-.14.15l0,.1a.38.38,0,0,0,0,.15,0,0,0,0,0,0,0,.19.19,0,0,0,.13.14l.07,0a.58.58,0,0,0,.39,0,.33.33,0,0,0,.16-.19.22.22,0,0,0,0-.14l-.07-.09-.1-.11a.19.19,0,0,0-.15,0s-.08,0-.09.08a.12.12,0,0,0,0,.1.18.18,0,0,0,0,.09l.13.15,0-.16a.06.06,0,0,1,0,0l0,0,0,0,0,0,0,0,0,0,0,0h0l-.06,0h0a.35.35,0,0,1-.14,0h0l.08.1h0v0a.06.06,0,0,1,0-.06v0a.43.43,0,0,1,0,0v0a.08.08,0,0,1,0,0l0,0s0,0,0,0l0,0,.06,0-.05,0,.06,0h0l-.05,0,0,0,0,0,0,0,0,0,0,0,.12-.3-.13,0h0a1.22,1.22,0,0,1-.27,0,.21.21,0,0,0-.2.2.21.21,0,0,0,.2.2Z" transform="translate(-45.21 -30.3)"/><path d="M153.55,201.94c-1.19-.09-2.82.17-4,.16-1.37-.24-3.17.07-4.53-.16a14.56,14.56,0,0,0-1.87-.13,43.66,43.66,0,0,0-6.16-.26,14.29,14.29,0,0,1-3,.28c-1.4,0-2.81-.19-4.2-.19a15.5,15.5,0,0,0-3.17-.37,24.7,24.7,0,0,0-4.78.42c-1.26.13-4,0-5.23,0a53.76,53.76,0,0,0-10.22-.37,46.91,46.91,0,0,1-5,.38c-1.31-.05-2.57-.45-3.87-.56-1.82.14-3.61.38-5.42.55-2,.08-4.6-.1-6.6-.09-1.54-.25-3,.51-4.55.74a12,12,0,0,1-1.86-.46l.72-2.19c.15-.52.59-.67.77-1.14.43-.33.66-1,1-1.4s1.27-.41,1.6-1.3a.89.89,0,0,1,.18-.3c.18-.2.21-.52.35-.77.34-.92,1-.78,1.37-1.55.41-.43.69-1,1.16-1.31s1-.36,1.34-.88c.28-.28.08-.52.37-.73.58-1.08,1.35-.25,2.07-.28.63.22,1.05,0,1.31,1.06.47.92,1.4.31,1.86,1.33.3.74.19,1.36.88,1.75s1.4,1.42,2.25,1.06c1.28-.74,2.42-2,3.81-2.23.89-.38,2.13.23,2.84-.81.49-1.48,1.65-1.82,2.55-2.56a39.49,39.49,0,0,1,3.36-2.5c.88-.63,2.34-3,3.22-2.26a.66.66,0,0,0,.66-.25c1.56-.68,3.49-1.77,5-.24.08.73.72.69,1.06,1.06,1,.53,1.91,1.35,2.91,1.9a10.68,10.68,0,0,1,3.28,2c.88.45,1.5,1.6,2.39,2.06.94,1.19,2.21.92,3.27.28.8-.22,1.6.07,2.35-.55,1.57-.78,3.25,1.67,5,1,1-.18.69,1.85,2.68,2.57,1.91,2.16,1.51,1.12,3.24,1.86a10.86,10.86,0,0,0,2.42,1.09,25,25,0,0,0,6,2.65c.11,0,.31.06.36.2s-.06.49,0,.67S153.41,201.54,153.55,201.94Z" transform="translate(-45.21 -30.3)"/><path d="M153.55,201.68c-1.08-.05-2.15.1-3.23.14s-2.27-.07-3.4-.06c-2.43,0-4.86-.4-7.29-.46-2.59-.07-5.11.38-7.71.19a44.6,44.6,0,0,0-7.66-.39,55.76,55.76,0,0,1-6.2.37c-2.34,0-4.66-.37-7-.44a72.87,72.87,0,0,0-7.82.39,15.08,15.08,0,0,1-3.91-.23,12.81,12.81,0,0,0-3.76-.08,64.6,64.6,0,0,1-8.46.29,17.64,17.64,0,0,0-3.33,0c-.69.13-1.36.38-2.06.52a5.34,5.34,0,0,1-2.54-.29l.18.32a9.05,9.05,0,0,1,1.12-2.76,13.28,13.28,0,0,1,1.43-1.86c.46-.41,1-.54,1.4-1.06s.6-1.49,1.18-2a16.71,16.71,0,0,0,1.32-1.46c.59-.7,1.49-.88,2-1.59.15-.2.21-.6.38-.76a1.69,1.69,0,0,1,1.57-.18c.9.2.67,0,1.34.9a2.53,2.53,0,0,0,.34.45,2.34,2.34,0,0,0,.43.26c.13.08.33.05.46.13a2.36,2.36,0,0,1,.81,1.09,4.1,4.1,0,0,0,2.34,2.35c1.32.52,2.71-1.31,3.8-1.85s3.08-.06,3.94-1.27a7,7,0,0,1,.85-1.31,7.2,7.2,0,0,1,1-.73c.78-.54,1.46-1.19,2.25-1.73a16.69,16.69,0,0,0,2-1.45c.53-.47.94-1.06,1.47-1.54s1.07-.28,1.77-.48c.88-.24,1.67-.91,2.62-1.12a2.14,2.14,0,0,1,2.39.8c.09.1.14.25.25.34.58.49,1.32.82,1.94,1.25,1.68,1.16,3.47,2,5.09,3.25,1.18.88,2.33,2.73,3.89,2.9a3.34,3.34,0,0,0,1.59-.33c.81-.29,1.69-.23,2.47-.57,1.18-.52,1.83-.07,2.91.46a4,4,0,0,0,1.67.47c.5,0,.72-.15,1.09.26a5.76,5.76,0,0,1,.39.74,4.07,4.07,0,0,0,1.32,1.29c.64.44,1.11,1.2,1.82,1.53a6.88,6.88,0,0,0,1.09.25,23.44,23.44,0,0,1,2.43,1.05c1.25.48,2.38,1.24,3.6,1.8.48.22,1,.42,1.46.61s1.38.25,1.64.52.1.53.24.75.61.37.83.7.63,0,.45-.26-.2-.19-.49-.49-.18-.46-.34-.75c0,0,0-.08,0-.13-.39-.48-1.19-.51-1.75-.7a23.88,23.88,0,0,1-3.31-1.48c-1-.55-2.1-.93-3.13-1.44a6.75,6.75,0,0,0-1.7-.74,2.32,2.32,0,0,1-1.39-.66,7.25,7.25,0,0,0-.81-.85,5.07,5.07,0,0,1-1.14-.79c-.38-.44-.52-1.05-.89-1.48a.94.94,0,0,0-.64-.37c-.41-.07-.79.16-1.22.07a5.8,5.8,0,0,1-1.47-.64,4.35,4.35,0,0,0-1.63-.57,2,2,0,0,0-.86.16,6.08,6.08,0,0,1-1.77.46c-.89.09-1.64.82-2.58.58s-2-1.56-2.72-2.25c-1.45-1.33-3.15-2-4.75-3a25.28,25.28,0,0,1-2.59-1.72c-.57-.51-.78-1.1-1.58-1.41-1.53-.59-2.91.38-4.3.87-.48.16-.87,0-1.33.16a4.31,4.31,0,0,0-1.51,1.28,40,40,0,0,1-4.46,3.61c-.56.46-1.23.78-1.75,1.29-.74.73-.91,1.76-2.12,1.85a8.24,8.24,0,0,0-4.48,1.9c-1,.68-2,.16-2.78-.55s-.49-1.65-1.22-2.19a3.65,3.65,0,0,0-.53-.25,4.49,4.49,0,0,1-1.12-1.14,1.74,1.74,0,0,0-1.13-.55c-.54-.11-1.3-.47-1.85-.25-.77.31-1,1.43-1.68,1.86a6.69,6.69,0,0,0-1.81,1.68A8.26,8.26,0,0,0,83.4,195a4.22,4.22,0,0,1-.85,1.32c-.27.22-.63.29-.9.51a2.93,2.93,0,0,0-.64.8c-.34.49-.74.92-1.08,1.41a10.82,10.82,0,0,0-1.07,2.79.26.26,0,0,0,.18.32,5.57,5.57,0,0,0,2.41.38,20.8,20.8,0,0,1,4.07-.65,59.91,59.91,0,0,0,7.09,0c1.32-.12,2.63-.3,3.94-.42a17.88,17.88,0,0,1,4,.39c2.59.32,5.24-.32,7.83-.38,4.49-.11,9,.92,13.51.41,1.27-.15,2.53-.38,3.81-.42a31.07,31.07,0,0,1,4.1.36,37.78,37.78,0,0,0,7.29,0c3-.25,5.92.32,8.87.44,1.21.05,2.43,0,3.63.08s2.64-.22,4-.16A.26.26,0,0,0,153.55,201.68Z" transform="translate(-45.21 -30.3)"/><path d="M135.12,204.12c-1.21,0-3-.29-4.12.25a.19.19,0,0,0-.06.26c.27.36.94.31,1.34.33,1.36.06,2.74,0,4.1,0,.73,0,1.45,0,2.18.07a10.06,10.06,0,0,1,1.23.14c.34.06-.22,0-.3,0-.33,0-.67,0-1,0-2.8.13-5.59.29-8.38.51-1.28.1-2.57.18-3.84.35-.44.06-1.31.06-1.58.48a.2.2,0,0,0,0,.21c.33.52,1.82.38,2.33.41,1.79.1,3.59.07,5.38.2l.81.09c.25.11.28.07.11-.11a7.75,7.75,0,0,1-.83.21c-1,.21-2.05.38-3.07.5-1.19.15-2.38.25-3.57.41a5.74,5.74,0,0,0-1.93.41.23.23,0,0,0-.12.19c0,.5.72.55,1.09.62a35.16,35.16,0,0,0,3.81.5c3.1.25,6.22.45,9.33.55s6.11.2,9.16.35l2.25.13a20.26,20.26,0,0,0,2.43.26l.13-.18-.29.07a5,5,0,0,0-.8.12c-.53.07-1.06.1-1.59.15-5.9.59-11.79,1.32-17.71,1.7-6.29.41-12.7.5-18.94,1.42-.51.08-1.49.14-1.47.85,0,.91,1.86.81,2.43.86,1.72.16,3.43.26,5.15.35l2.37.09a6.49,6.49,0,0,1,2.17.12l-.12-.47c-.27.4-3.65.36-2.5,1.62.5.55,1.81.42,2.45.44.48,0,1,.07,1.45.06-.13,0,.55-.09.44-.15s0,.24,0,.28c1.11.92,2.79.79,4.2.92,2.63.26,5.27.43,7.91.66,11.26,1,22.6.82,33.89,1q8.2.14,16.4.34c2.77.06,5.56.15,8.32.39.53,0,1.05.13,1.58.22.69.13-.16.13-.48.19-.87.17-1.75.25-2.63.34-11.14,1.08-22.36,1.12-33.54,1.58-6.53.28-13.07.55-19.61.77-3,.1-6,.32-9,.53-1.34.09-2.67.22-4,.42-.76.11-2,.18-2.54.84a.29.29,0,0,0,0,.35c.37.4,1,.37,1.48.43q1.5.18,3,.21c2,.05,3.95,0,5.93,0,3.8,0,7.64-.06,11.44-.21s7.88-.1,11.81-.08c1.95,0,3.89-.05,5.83-.07.94,0,1.88,0,2.81,0s2.25-.17,2.91.3v-.44a6.24,6.24,0,0,1-2.41.35c-.74.07-1.49.12-2.24.16-1.58.09-3.16.15-4.74.27-1.34.1-2.69.16-4,.31a3.3,3.3,0,0,0-1.62.37.27.27,0,0,0,0,.37c.22.25.76.18,1.05.19,1.18.07,2.36,0,3.55,0h7.49c5.31,0,10.61-.13,15.92-.11,10.52,0,21-.11,31.54.44,2.5.13,5,.31,7.5.69a22.56,22.56,0,0,1,3.06.68l.67.24-.4.7a2.86,2.86,0,0,1-.74.18,18,18,0,0,1-2.43.34c-5.24.44-10.48.79-15.74,1.1q-15.1.87-30.2,1.69-8.42.47-16.81,1c-2.65.19-5.3.39-7.94.65s-5.37.61-8,.62a.34.34,0,0,0,0,.67c2.46,0,5-.37,7.41-.56s5-.41,7.46-.62c5.14-.43,10.29-.72,15.44-1,10.57-.62,21.14-1.12,31.71-1.78,5.58-.35,11.14-.68,16.7-1.2.91-.09,4.32-.16,4.47-1.43,0-.44-.48-.77-.8-.93a11.85,11.85,0,0,0-3.07-.79,116.45,116.45,0,0,0-15.16-1.08c-5.63-.19-11.26-.21-16.89-.21-6,0-12,.06-18.08.14-3.13,0-6.27,0-9.4,0-1.53,0-3.05,0-4.57,0-.63,0-1.26,0-1.89,0a5.86,5.86,0,0,1-1.45-.08v.37c.54-.42,2.22-.3,2.83-.34,1.49-.1,3-.24,4.45-.3s2.88-.15,4.32-.27c.95-.08,2.47.05,3.33-.48a.26.26,0,0,0,0-.44c-.78-.56-2.48-.36-3.38-.38-1.61,0-3.23.06-4.84.08-3.63,0-7.25,0-10.87,0-6.69.13-13.39.23-20.08.22a25,25,0,0,1-4.82-.24c-1.07-.22.25-.34.68-.42,1-.19,2.13-.29,3.2-.38,3.38-.29,6.77-.52,10.16-.64,7.51-.26,15-.72,22.51-.92,7.23-.18,14.46-.48,21.69-.78,3.35-.14,6.72-.39,10-.78.49-.06,3.45-.15,2.79-1.18-.36-.55-1.8-.5-2.36-.55-1.78-.16-3.58-.21-5.36-.29-3.65-.17-7.29-.25-10.94-.33-7-.15-14-.26-21-.3-8.17-.05-16.3-.36-24.44-1.07l-5.46-.48a12.59,12.59,0,0,1-2.28-.29,1.55,1.55,0,0,1-.56-.3c-.07-.06,0-.25-.15-.32a1.86,1.86,0,0,0-.94-.14c-.86,0-1.76,0-2.61-.15-.3,0-.68.07-.45-.21a6.32,6.32,0,0,1,1.38-.35c.32-.1.67-.12.87-.42a.35.35,0,0,0-.12-.47c-.93-.49-2.52-.21-3.54-.24-1.93-.06-3.85-.23-5.77-.39l-1.39-.13a2.8,2.8,0,0,1-.77-.09c-.14-.06-.19.16,0,0s1-.16,1.38-.2l1.63-.16c2-.19,4.07-.39,6.12-.51,7.79-.48,15.61-1,23.36-1.94,1.82-.24,3.65-.44,5.48-.62.52-.05,2.1,0,2.37-.59a.28.28,0,0,0,0-.28c-.51-.69-2.2-.53-2.92-.58-1.83-.14-3.67-.2-5.51-.26-3.86-.13-7.73-.26-11.59-.47-1.91-.11-3.85-.15-5.75-.45a9.69,9.69,0,0,1-2.1-.33c-.27-.12-.41,0,.07-.1s1-.17,1.51-.23c1.6-.2,3.21-.33,4.81-.61a6.62,6.62,0,0,0,2.69-.66.21.21,0,0,0,.06-.21c-.14-.34-.53-.33-.85-.37a32.27,32.27,0,0,0-3.4-.18c-.9,0-1.79,0-2.69-.09l-1-.07c-.38,0-1.07,0-.33,0,2.4-.18,4.81-.51,7.21-.71,1.45-.13,2.89-.26,4.34-.35a13.2,13.2,0,0,0,3-.23.12.12,0,0,0,.08-.11v0a.13.13,0,0,0-.06-.1,3.47,3.47,0,0,0-1.57-.22c-.81,0-1.61,0-2.41-.08-1.37,0-2.77-.08-4.13-.22l-.5,0a7.84,7.84,0,0,0,.84,0c.92-.07,1.84-.06,2.76-.06a.18.18,0,0,0,0-.36Z" transform="translate(-45.21 -30.3)"/><path d="M132.16,214.83c-1,0-2,.06-3,.11s-1.92.14-2.88.19l-2.8.19a11.2,11.2,0,0,0-2.31.26.14.14,0,0,0-.09.2c.11.15.33.15.49.16a10.87,10.87,0,0,0,1.28.05c.82,0,1.65,0,2.47,0s1.62,0,2.43.07c.43,0,.87,0,1.3.08.15,0,.38.08.4,0s-.39.13-.47.15c-.74.15-1.49.23-2.22.39s-1.4.37-2.1.49c-.23,0-.13.39.1.35.84-.14,1.66-.43,2.5-.55.39-.05.75-.17,1.14-.23a4.06,4.06,0,0,0,1.09-.22c.24-.11.52-.35.26-.6a1,1,0,0,0-.61-.15c-.46,0-.93,0-1.39-.05-1.24-.08-2.48-.06-3.72-.05-.54,0-1.09,0-1.63,0l-.68,0a1.53,1.53,0,0,0-.3,0c-.06,0-.14-.07-.09,0l-.09.21a11.82,11.82,0,0,1,2.66-.25c.89-.06,1.78-.09,2.66-.15,1.86-.12,3.76-.12,5.6-.4.13,0,.09-.22,0-.22Z" transform="translate(-45.21 -30.3)"/><path d="M131.28,209.29l.1.05c.15.09.27-.13.13-.23a1,1,0,0,0-.62-.07.93.93,0,0,0-.48.17c-.1.08,0,.24,0,.31a1.19,1.19,0,0,0,.53.09,4.87,4.87,0,0,0,.66,0l.28,0a.76.76,0,0,0,.33-.11.21.21,0,0,0,0-.31.61.61,0,0,0-.34-.12,3.3,3.3,0,0,0-.83,0c-.17,0-.48.06-.47.29s.37.29.55.3a3.84,3.84,0,0,0,.68,0c.23,0,1-.05.89-.46a.38.38,0,0,0-.31-.23,2.63,2.63,0,0,0-.49-.06,3,3,0,0,0-.52,0,1.69,1.69,0,0,0-.45.07c-.2.06-.4.25-.27.47s.34.19.51.2a1.9,1.9,0,0,0,.58,0c.19,0,.42-.18.39-.41s-.3-.28-.5-.29a2.5,2.5,0,0,0-.61,0l-.26,0a.25.25,0,0,0-.17.31.25.25,0,0,0,.31.18l.15,0h0l.12,0h.5c.06,0,0,0,0,0h0s0,0,0,0a.21.21,0,0,1,0-.25c0-.06,0,0,0,0s0-.05,0,0l0,0s.07,0,0,0l-.07,0-.08,0h0c.06,0,0,0,0,0l-.18,0h-.33s.06,0,0,0a.24.24,0,0,1,.07.3s0,0,0,0h0l.12,0h.07l.17,0h.92s0,0,0,0,0,0,0-.06a.19.19,0,0,1,0-.18l0,0h0l0,0-.05,0c.06,0,0,0,0,0a4.6,4.6,0,0,1-.83.11h-.3l-.13,0-.05,0h0s0,0,0,0h0l.05,0c0,.09,0,.16,0,.2h0s0,0,0,0h0l.1,0a3,3,0,0,1,.52,0,1.83,1.83,0,0,1,.33,0l.09,0h0l0,0,0-.09a.14.14,0,0,1,0-.11h0l-.13,0s-.09,0,0,0h-.11l-.43,0h-.54s0,0,0,0h-.11c-.06,0,0,0,0,0l0,.3s0,0,0,0l.09,0,.19,0a1.31,1.31,0,0,0,.53-.09l-.13-.23-.1.06a.07.07,0,0,0,0,.12Z" transform="translate(-45.21 -30.3)"/><path d="M149.72,213.21h0l-.09.6c1.12,0,2.24-.15,3.35-.21,1.46-.08,2.92-.18,4.38-.34,1.31-.13,2.62-.23,3.93-.42.78-.11,1.56-.2,2.34-.29.28,0,.57,0,.85-.09a4.75,4.75,0,0,0,.57-.16.29.29,0,0,0,.35-.35v-.05a.32.32,0,0,0-.3-.23,12.61,12.61,0,0,0-2,.22l-1.71.23c-1.48.21-3,.35-4.43.5s-2.93.25-4.4.33c-.7,0-1.39.1-2.09.17a3.32,3.32,0,0,0-.89.09c-.31.11-.28.61.08.6h0a.3.3,0,0,0,.08-.59Z" transform="translate(-45.21 -30.3)"/><path d="M153.81,223.56a13.23,13.23,0,0,0-2.23.95c-.18.08-.38.14-.57.22s-.31.18-.48.26-.56.12-.64.37.16.25.28.16.23-.07.32-.16a.07.07,0,0,0-.06-.11c-.05,0-.22.07-.26,0l0,.2s.09,0,.12,0l.17-.05a1.71,1.71,0,0,0,.39-.17c.32-.18.67-.28,1-.43a15.53,15.53,0,0,1,2-.92.17.17,0,0,0-.09-.33Z" transform="translate(-45.21 -30.3)"/><path d="M156.46,223.76a1.29,1.29,0,0,0-.64.13l-.77.28c-.54.19-1.08.39-1.62.56l-1.24.42c-.19.06-.66.25-.46.53a.14.14,0,0,0,.25,0s-.06.07,0,0l.05,0a.66.66,0,0,1,.19-.09l.41-.16,1.24-.52,1.36-.58.63-.26a2.2,2.2,0,0,0,.62-.23s0,0,0,0Z" transform="translate(-45.21 -30.3)"/><path d="M163.05,221.66c4.39,0,8.77.09,13.16.29s9,.14,13.51.41a9.67,9.67,0,0,1,1.07.1,1.54,1.54,0,0,0-.85-.05c-.38,0-.78.05-1.17.07l-3.42.19-7,.32c-4.4.17-8.86,0-13.24.41a.17.17,0,0,0,0,.34,51.7,51.7,0,0,0,6.58-.18l7.13-.28,7-.28c1.13,0,2.25-.1,3.37-.16a5.34,5.34,0,0,0,2-.29.19.19,0,0,0,.06-.23c-.15-.33-1-.26-1.26-.28-1.17-.08-2.37-.1-3.55-.12q-4-.07-8-.21c-5.13-.17-10.22-.31-15.35-.26a.11.11,0,0,0,0,.21Z" transform="translate(-45.21 -30.3)"/><path d="M77.4,219.08a41.15,41.15,0,0,0,3.68,2.77c1.14.84,2.3,2.27,3.58,2.84a.86.86,0,0,0,1-.14c1.72-2.18,5.61-3.71,8.23-4.6,1.52-.51-.17-2.54-1-1.23l-.09.15a.54.54,0,0,0,0,.56l.09.14.5-1.24c-1.78.27-3.54,1.46-5.16,2.22a10.41,10.41,0,0,0-4,3l1.17-.31a19.24,19.24,0,0,1-3-2.28c-1.36-1-2.85-1.82-4.11-2.92-.72-.63-1.79.41-1.06,1.07Z" transform="translate(-45.21 -30.3)"/><path d="M81.16,217.88a22,22,0,0,1,2.35,4c.33.7.84,1.15,1.66.91,2-.56,2.6-3.43,4-4.58l-1,.12c.32.18.42.36.78.47a.42.42,0,0,0,.51-.29,1.82,1.82,0,0,0-.21-1.27.8.8,0,0,0-1.08-.28c-.68.32-1,1.07-1.39,1.65a21.94,21.94,0,0,1-1.63,2.2,2.78,2.78,0,0,1-.43.41q.31.27.06-.24a8.93,8.93,0,0,1-.54-1.12,11.5,11.5,0,0,0-2.12-2.73c-.53-.47-1.53.16-1,.8Z" transform="translate(-45.21 -30.3)"/><path d="M83.71,216.58c.46.4.47,1.78.53,2.29.14,1.21.29,2.4.35,3.61a.75.75,0,0,0,1.5,0,21.51,21.51,0,0,0-.54-4,6.3,6.3,0,0,0-.82-2.44.57.57,0,0,0-.87-.12l-.15.18a.33.33,0,0,0,0,.47Z" transform="translate(-45.21 -30.3)"/><path d="M194,245.58c.17,1,1.23,1.54,2,2.1s1.68,1.59,2.83,1.4a2.66,2.66,0,0,0,1.77-1.55,6,6,0,0,1,1.76-2.15c.36-.28.51-.94,0-1.19-1.47-.7-2.41.9-3,2-.42.79-.57,1.48-1.5.87-.5-.33-2.19-1.31-2.3-1.91-.19-1-1.72-.58-1.55.43Z" transform="translate(-45.21 -30.3)"/><path d="M196.59,243.92a4.54,4.54,0,0,0,.56,2.24,15,15,0,0,1,.86,2.35c.21.71,1.42.82,1.57,0,.3-1.75-1.28-3-1.49-4.59a.75.75,0,0,0-1.5,0Z" transform="translate(-45.21 -30.3)"/><path d="M223.84,192.65c-.06,3.88.39,7.38-.26,11.27l1.48-.19-.26-.5a.5.5,0,0,0-.85,0l-.28.5a.8.8,0,1,0,1.47.62c1.1-3.81.57-8-.25-11.84a.54.54,0,0,0-1,.14Z" transform="translate(-45.21 -30.3)"/><path d="M225.51,199.72l.08-.19-.38.22a3.43,3.43,0,0,0,2.7-1.51,5.69,5.69,0,0,0,.12-3.58.56.56,0,0,0-.81-.33l-.14.1a.39.39,0,0,0-.14.53,4.66,4.66,0,0,1,.1,2.54c-.19.88-1.21,1.11-1.95,1.38a.46.46,0,0,0-.32.43v.21c0,.37.59.58.75.2Z" transform="translate(-45.21 -30.3)"/><path d="M224.51,196.11a4.92,4.92,0,0,0-.93-.34c-.24,0-.55.1-.7-.13a1.37,1.37,0,0,1,0-.67,1.07,1.07,0,0,0-.21-.84.53.53,0,0,0-.74,0,2.28,2.28,0,0,0,0,2.18,1.31,1.31,0,0,0,1,.64,5.31,5.31,0,0,1,.69,0,6.4,6.4,0,0,0,.62.2c.66.12,1-.83.28-1Z" transform="translate(-45.21 -30.3)"/><path d="M95.07,243.47l-.16,0c-.86-.11-1.59,1.07-.65,1.55,3.5,1.77,7.07,3.4,10.66,4.95a55.87,55.87,0,0,1,6.88,3.65c1,.58,2.23,1.71,3.4,1.75,2.85.08,6.83-3.78,9.12-5.14,4.52-2.68,9.82-5.9,15-6.84,1.85-.33.28-3.45-1.14-2l-.22.23a.87.87,0,0,0,0,1.21l.22.22.83-2c-3.35.28-6.45,1.91-9.39,3.43-2.52,1.3-5,2.48-7.45,3.94-1.67,1-4.23,3.29-6.1,3.73-2.83.66-7.19-3.11-10-4.27a115.83,115.83,0,0,0-11.25-4.45l-.22,1.66h.16c.86,0,1.2-1.5.22-1.63Z" transform="translate(-45.21 -30.3)"/><path d="M105.7,241.44c1.42,2.25,3.67,3.95,5.39,6a26.22,26.22,0,0,1,3.14,3.79,26.41,26.41,0,0,0,1.43,2.74,1.34,1.34,0,0,0,2.47-.67c.46-3.44,0-6.34,2.55-9.18.72-.78,2.08-1.57,2.59-2.51s-.32-2.15-1.36-1.76c-2,.75-3.82,3-4.82,4.79-1.58,2.84-1.22,5.62-1.61,8.66l2.47-.66c-.63-.82-1-1.85-1.49-2.71a23.69,23.69,0,0,0-2.69-3.15c-2.09-2.3-4.42-4.24-6.65-6.39-.72-.69-2,.2-1.42,1.09Z" transform="translate(-45.21 -30.3)"/><path d="M116.32,248.52s-.18-1.86-.22-2.2a26.14,26.14,0,0,1-.08-4.51c.11-2,.59-4.07-.4-5.94a.62.62,0,0,0-1.07,0c-1,1.91-.86,4.67-.89,6.81a18,18,0,0,0,1,6.87,1,1,0,0,0,1,.72h.2c.88,0,1.36-1.35.48-1.75Z" transform="translate(-45.21 -30.3)"/><path d="M115.45,253.86c1.65,2.3,10.56-.6,12.87-.94s5.06-.64,7.48-.78c.27,0,4-.24,4.06.08a25.71,25.71,0,0,0-3.22.79c-3.43.75-9.5.55-12,3.27a.21.21,0,0,0,.09.36c2,.84,4.4.06,6.46-.38,5.4-1.16,10.35-1,15.8-1.18a.19.19,0,0,0,0-.37,59.26,59.26,0,0,0-11.38.22c-1.83.26-3.63.73-5.45,1.07-1.22.23-4.64,1.22-3-.58.62-.7,4.14-1.09,5-1.27,1.53-.31,3.12-.41,4.67-.66s3.1,0,4-1.31a.43.43,0,0,0-.16-.58c-3.17-1.61-9.12-.17-12.52.36-2.08.32-10.54,2.93-11.89,1.35-.33-.38-1,.13-.71.55Z" transform="translate(-45.21 -30.3)"/><path d="M95.42,204.4q-1.77.25-3.54.45a5.22,5.22,0,0,0-1.94.51.17.17,0,0,0,0,.26c.2.26.7.15,1,.14a19.78,19.78,0,0,1,3,.17c.45.06,1.23,0,1.56.24.31,0,.33,0,.06.05l-.66.09c-.74.09-1.49.1-2.24.14-2.36.14-4.73.17-7.08.44-1,.11-3.12.13-3.72,1.09a.24.24,0,0,0,.08.32,4.07,4.07,0,0,0,1.93.42c1,.08,1.91.1,2.87.15,2.11.1,4.25.12,6.37.13,4.44,0,8.9.15,13.34.4,1,.06,1.89.12,2.84.23.53.06,1.07.09,1.61.15.34,0,.69.14,1,.16l.31.08,0-.15c-1.85.42-3.74.6-5.62.85-4,.51-7.92.87-11.87,1.4-2.52.34-5,.73-7.53,1.13-1.14.19-2.3.34-3.42.59a8.29,8.29,0,0,0-2.27.62.37.37,0,0,0,0,.62,3.58,3.58,0,0,0,1.68.35c1.22.11,2.45.14,3.68.19,2.3.08,4.61.09,6.91.09,2,0,4,.08,6.06.21l.52,0c.46.22.59.15.4-.21a2,2,0,0,0-.6.18,1.38,1.38,0,0,0-.86.44.34.34,0,0,0,.06.41c.34.4,1.31.37,1.77.4,1.32.11,2.65.08,4,.22,2.08.23.6.26.86,1.28.16.64,1.19.75,1.71.85,2.35.46,4.85.27,7.11,1.17.61.24,1.2.55,1.79.83.33.15.91.29,1.1.64l.23.24c-.3.13-.6.24-.9.35a29.06,29.06,0,0,1-4.45.82c-6,.93-12.14,1.7-18.23,2.36-5.08.54-10.16,1-15.2,1.79-.74.13-4.55.5-4.13,1.93.18.6,1.31.78,1.78.89a23.24,23.24,0,0,0,4,.47c6.17.27,12.35.19,18.53.2,5.8,0,11.58-.14,17.38.11a50.72,50.72,0,0,1,8.6.92c.62.13.8.17,0,.33a20.45,20.45,0,0,1-2.2.32c-1.5.15-3,.33-4.48.49-6.18.67-12.34,1.44-18.52,2.23-3,.39-6,1-9.08,1.41-3.29.4-6.6.66-9.91.86-.52,0-.52.83,0,.8,11.63-.58,23-3,34.62-4.2,2.89-.3,5.82-.54,8.69-1,.64-.1,2-.12,2.36-.78.26-.46-.11-.79-.49-1a10.83,10.83,0,0,0-3.1-.64c-1.55-.19-3.11-.32-4.67-.41-3-.17-5.93-.23-8.9-.26-6.08-.05-12.17,0-18.25,0-3.22,0-6.43-.06-9.65-.17a28.73,28.73,0,0,1-4.54-.44c-.52-.1-1.89-.32-.82-.76a12.06,12.06,0,0,1,2.22-.57c5.36-1,10.8-1.32,16.22-1.92,6.15-.68,12.3-1.45,18.41-2.4.87-.14,6.19-.47,5.46-2.23-.18-.44-.69-.61-1.08-.8-.71-.35-1.42-.68-2.14-1a11.65,11.65,0,0,0-3.54-.88c-1.39-.17-2.82-.21-4.2-.49-1.53-.3-.27-.71-.66-1.5s-2.36-.63-3-.66-1.54-.06-2.3-.11c-.4,0-1.67.07-1.93-.24l.06.41c.24-.35,1.95-.14,1.62-1s-3.42-.54-4.07-.58c-2.53-.12-5.06-.09-7.59-.13-1.41,0-2.82-.07-4.22-.13-1-.05-2.91.19-3.76-.4v.62a10.64,10.64,0,0,1,3.1-.74c1.51-.26,3-.49,4.54-.72,3.06-.47,6.12-1,9.2-1.32,2.52-.25,5.06-.52,7.57-.86,1.34-.18,2.69-.29,4-.53.59-.1,2.06-.11,2.55-.55,1.16-1-1.93-1.26-2.38-1.3-2.85-.26-5.69-.41-8.55-.49-5.7-.16-11.43-.06-17.12-.36-.27,0-2.14,0-1.94-.41.11-.23,2-.43,2.18-.47A45,45,0,0,1,90,206.9c1.48-.09,3-.07,4.44-.19a3.16,3.16,0,0,0,1.62-.35.18.18,0,0,0,0-.17c-.08-.37-.72-.39-1-.44a26.76,26.76,0,0,0-3.46-.29,4.05,4.05,0,0,1-1.1,0s-.65.12.28-.08a7.51,7.51,0,0,1,1-.17c1.2-.13,2.4-.27,3.59-.42a.2.2,0,1,0,0-.39Z" transform="translate(-45.21 -30.3)"/><path d="M110.58,214H111a.16.16,0,0,0,.14-.24.38.38,0,0,0-.47-.1c-.12,0-.3.11-.34.25a.16.16,0,0,0,.13.21.65.65,0,0,0,.31,0,.51.51,0,0,0,.31-.13.19.19,0,0,0,0-.3.47.47,0,0,0-.22-.07.74.74,0,0,0-.26,0,.39.39,0,0,0-.26.27.11.11,0,0,0,.11.14,2,2,0,0,0,.43,0,1.59,1.59,0,0,0,.43-.06c.12,0,.3-.12.26-.28s-.18-.16-.29-.17l-.22,0a.3.3,0,0,0-.21.13c0,.06,0,.13.06.14a.18.18,0,0,0,.1,0h.11s0,0,0,0h.2s0,0,0,0h0s0,0,0,0l0,0a.06.06,0,0,1,0-.06s0,0,0,0,0,0,0,0h0s0,0,0,0l-.06,0h0s0,0,0,0l0,0a2,2,0,0,1-.34.05h-.41l.11.14v0s0,0,0,0,0,0,0,0v0l.07,0h.12a.36.36,0,0,1,.15,0h0s0,0,0,0,0,0,0,0l0,0v0h0s0,0,0,0,0,0,0,0,0,0,0,0l0,0h0l-.06,0h-.24s0,0,0,0h0l0,0s0,0,0,0a.14.14,0,0,1,0,.06s0,0,0,0,0,0,0,0,0,0,0,0l0,0h0l0,0h0s0,0,0,0h0l.08,0h.16s0,0,0,0h0s0,0,0,0l.09-.24h-.35a.16.16,0,0,0-.16.17.16.16,0,0,0,.16.16Z" transform="translate(-45.21 -30.3)"/><path d="M103.38,209.44h-.08v.3a46.62,46.62,0,0,1,4.88.17c.15,0,.44.14.56.05-.15.12-.81.09-1,.13-.89.14-1.78.13-2.68.19-3.28.22-6.52.68-9.79,1a.21.21,0,0,0,0,.42,19.19,19.19,0,0,0,3.29-.39c1.28-.18,2.55-.33,3.82-.49s2.58-.19,3.87-.29c.56-.05,1.12-.13,1.68-.23a2.64,2.64,0,0,0,1.18-.26.1.1,0,0,0,0-.16c-.16-.17-.62-.2-.84-.24-.42-.08-.85-.08-1.29-.12-1.21-.08-2.43-.11-3.66-.1a.15.15,0,0,0,0,.3h.08a.15.15,0,0,0,0-.3Z" transform="translate(-45.21 -30.3)"/><path d="M93.48,216.53l0,0a.19.19,0,0,0,.18.15c1.49.19,3-.06,4.54.08l-.2-.15c0-.06-2.89,1.15-1.14,1.38.83.12,1.68,0,2.51.1,1,.07,2.08.08,3.12.09.36,0,.72,0,1.08.06H104a.26.26,0,0,0-.38,0l-.24.09c-.37.14-1.11.46-1.19.92s.57.47.88.49a19.37,19.37,0,0,1,2.74.24.23.23,0,0,0,.24-.1l0,0a.22.22,0,0,0-.37-.22l0,0,.24-.1a15.86,15.86,0,0,0-2.28-.22l-.67,0c-.16,0-.27.05-.25-.1s.83-.49,1-.56.85-.28.72-.66-.77-.21-1-.23c-1.74-.14-3.51-.09-5.26-.13a6.16,6.16,0,0,1-1.31-.1,7.34,7.34,0,0,0,.93-.38c.28-.12.83-.29.69-.69a.24.24,0,0,0-.21-.16c-.72-.07-1.49,0-2.23-.06s-1.55.09-2.31,0l.19.14v-.05a.2.2,0,0,0-.38.11Z" transform="translate(-45.21 -30.3)"/><path d="M111.76,221.84s0-.07,0-.08l0,0,.13-.07a.16.16,0,0,0,0-.24.56.56,0,0,0-.21-.06.67.67,0,0,0-.29.08.3.3,0,0,0-.17.18.19.19,0,0,0,.08.23.74.74,0,0,0,.44,0,3.81,3.81,0,0,0,.47-.07l.23-.08a.4.4,0,0,0,.27-.22.26.26,0,0,0-.19-.3.75.75,0,0,0-.3,0,3,3,0,0,0-.58.11,3.22,3.22,0,0,0-.44.14c-.15.06-.37.14-.42.31s.18.33.35.36a2.15,2.15,0,0,0,.62,0,2.41,2.41,0,0,0,.59-.14.62.62,0,0,0,.23-.14.25.25,0,0,0,0-.36.63.63,0,0,0-.34-.18,1.47,1.47,0,0,0-.47,0,1.64,1.64,0,0,0-.44.09c-.14.06-.31.14-.36.29a.29.29,0,0,0,.17.35.82.82,0,0,0,.35.08,2.09,2.09,0,0,0,.61,0c.19,0,.49-.11.5-.35a.3.3,0,0,0-.23-.29.67.67,0,0,0-.37,0,.84.84,0,0,0-.29.13.12.12,0,0,0,0,.21.76.76,0,0,0,.26.06,1.9,1.9,0,0,1,.25,0h0s0,0,0,0,0,0,0,0h0s0,0,0,0a.12.12,0,0,1,0-.14s0,0,0,0,0,0,0,0l0,0h0l0,0-.22.05h0s0,0,0,0h-.47l-.1,0h0s0,0,0,0v.11s0,0,0,0h0a.88.88,0,0,1,.27-.1,1.22,1.22,0,0,1,.63,0h0l0,0s0,0,0,0,0,0,0,0,0-.12,0-.14,0,0,0,0,0,0,0,0l-.07,0s0,0,0,0h0l-.1,0-.23.06a2.25,2.25,0,0,1-.46,0h-.18l-.08,0h0s0,0,0,0a.16.16,0,0,1,0,.09l0,0s0,0,0,0,0,0,0,0l0,0,.08,0s0,0,0,0l.05,0,.11,0,.19-.06.33-.08.11,0h.09s0,0,0,0l.23,0h0s0,0,0,0h0l0-.14,0,0h0l-.05,0h0s0,0,0,0l-.3.1-.19,0h-.09s0,0,0,0h-.22a.15.15,0,0,1,0,.09s0,0,0,0,0,0,0,0,0,0,0,0l0,0,0,0h0l.11,0,.05,0h0s0,0,0,0,0,0,0,0,0-.08,0-.05l-.1.05c-.09.06-.09.15-.08.25s.19.12.18,0Z" transform="translate(-45.21 -30.3)"/><path d="M117.68,224.31c-3.81.75-7.73.94-11.58,1.4-1.69.2-3.36.45-5,.64l-3,.35a3.4,3.4,0,0,0-1.15.22.12.12,0,0,0,.09.21,16.85,16.85,0,0,1,2.15-.18c.9-.09,1.8-.2,2.7-.31,1.68-.2,3.35-.48,5-.7,3.62-.49,7.26-.77,10.83-1.58,0,0,0-.06,0-.05Z" transform="translate(-45.21 -30.3)"/><path d="M87.53,232.19c2.85.17,5.79.15,8.65.16s5.95.13,8.93.14c5.86,0,11.73-.16,17.6-.15a.26.26,0,0,0,0-.52c-5.87,0-11.74.16-17.6.18s-11.74-.38-17.58,0a.11.11,0,0,0,0,.22Z" transform="translate(-45.21 -30.3)"/><path d="M79.51,229.79c-.26.15-.5.33-.76.49s-.41.35-.65.49-.52.29-.76.46l-.33.23a2.44,2.44,0,0,0-.31.22.16.16,0,0,0,.15.27.15.15,0,0,0,0-.29l0,.25a2,2,0,0,1,.32-.18,3.46,3.46,0,0,0,.31-.22c.25-.16.52-.29.78-.45s.39-.33.6-.47.49-.35.75-.51a.17.17,0,0,0-.17-.29Z" transform="translate(-45.21 -30.3)"/><path d="M81.9,229.72s-.14.09-.18.11-.18.09-.27.15c-.26.16-.51.36-.78.52s-.52.27-.79.4a6.62,6.62,0,0,0-.71.46c-.2.14-.09.52.17.42s.33-.17.27-.34a.12.12,0,0,0-.15-.09.26.26,0,0,1-.12,0l.06.42c.26-.16.49-.34.76-.48a9.17,9.17,0,0,0,.87-.48c.26-.17.49-.37.76-.52s.45-.21.5-.45a.2.2,0,0,0-.39-.11Z" transform="translate(-45.21 -30.3)"/><path d="M99.07,205c1.07,0,2.12.14,3.19.15h3.35c.89,0,1.79.11,2.68.1l.94,0c.21,0,.75-.07.91.1l0-.27a5.63,5.63,0,0,1-1.73.32c-.63.09-1.26.19-1.89.27a38.36,38.36,0,0,0-4.17.57.17.17,0,0,0,0,.31,2.69,2.69,0,0,0,1.35.2c.69,0,1.38,0,2.07,0l2.71,0c.42,0,.84,0,1.26,0a12.45,12.45,0,0,1,1.31.09.21.21,0,0,0,.39-.16l0-.1a.25.25,0,0,0-.21-.16,39.43,39.43,0,0,0-5-.1c-.69,0-1.38,0-2.06,0a3.28,3.28,0,0,1-1.65-.12l0,.31a13.93,13.93,0,0,1,1.91-.27L107,206l1.94-.28a4.33,4.33,0,0,0,1.38-.31.17.17,0,0,0,0-.26c-.3-.31-1-.2-1.43-.19-.88,0-1.75-.06-2.64-.07-1.24,0-2.47,0-3.71,0s-2.35-.08-3.53-.07c-.13,0-.13.21,0,.22Z" transform="translate(-45.21 -30.3)"/><path d="M85.52,211.16c.91.09,1.84-.13,2.77,0,.61.07.61-1,0-1-1,.11-1.91.17-2.86.33-.4.06-.26.61.09.65Z" transform="translate(-45.21 -30.3)"/><path d="M90.08,211l1.13.12a2.09,2.09,0,0,0,.86,0,.15.15,0,0,0,.07-.26,2.88,2.88,0,0,0-2.06-.38.25.25,0,0,0,0,.49Z" transform="translate(-45.21 -30.3)"/><path d="M142,210.64l.11.13-.13-.31v0a.5.5,0,0,0,.75.43.69.69,0,0,0,.3-.58l-.08.29h0a.62.62,0,0,0,0-.62,1.62,1.62,0,0,0-.78-.61,4.64,4.64,0,0,0-.44-.23.74.74,0,0,0-.39,0c.16,0,0,0-.08,0l-.15.09a.63.63,0,0,0,0,.8,1.17,1.17,0,0,0,.47.38l.38.19c.07,0,0,0,0,0l0,0c-.08-.08.08.1.09.12a.6.6,0,0,0,.29.16l-.25-.15c.08.09-.13-.13,0,0a.61.61,0,0,0,.17.15l.12-.92,0,0h.23l-.15,0a.39.39,0,0,0-.44.18.41.41,0,0,0,.06.47Z" transform="translate(-45.21 -30.3)"/><path d="M143.18,210.58a5.35,5.35,0,0,1,0-.8c0-.28.17-.52,0-.79a.35.35,0,0,0-.39-.16c-.64.19-.51,1.23-.5,1.75a.43.43,0,0,0,.85,0Z" transform="translate(-45.21 -30.3)"/><path d="M143.83,209.16a2,2,0,0,0-1.09.31.57.57,0,0,0,.57,1,1.52,1.52,0,0,0,.68-.67.52.52,0,0,0-.81-.62,1.76,1.76,0,0,0-.37,1.68.43.43,0,0,0,.62.25c.44-.29,1.49-1.17.84-1.74a.31.31,0,0,0-.43,0,6.38,6.38,0,0,0-.32.57,2.42,2.42,0,0,1-.51.45l.61.25a1,1,0,0,1,0-.45s0-.08,0-.12l0,0s-.11,0,0,0l-.59-.76a.39.39,0,0,1-.21.15l.43,1a1,1,0,0,1,.52-.18.56.56,0,0,0,0-1.11Z" transform="translate(-45.21 -30.3)"/><path d="M141.72,206.91a1.39,1.39,0,0,0,.37.94.65.65,0,0,0,.82,0,.8.8,0,0,0,.24-.75.41.41,0,0,0-.3-.3,1.33,1.33,0,0,0-.94.05.38.38,0,0,0,0,.65,1.18,1.18,0,0,0,.45.1h.26l-.3-.3s0-.11,0-.08.06-.08,0,0,.05,0,0,0,.11-.06.07-.05.06,0,.08,0a.42.42,0,0,1,.13.07c-.05,0,0,.06,0,0l0-.06a.08.08,0,0,0,0,0h0s0-.08,0-.12a.89.89,0,0,1-.06-.2.38.38,0,0,0-.75.1Z" transform="translate(-45.21 -30.3)"/><path d="M143.44,207.16a3.81,3.81,0,0,0-.29.41.32.32,0,0,0,0,.39.7.7,0,0,0,.59.16.93.93,0,0,0,.42-.24c.28-.28.4-.82,0-1a.41.41,0,0,0-.62.39c0,.05,0-.12,0-.05a.4.4,0,0,0,.07.24s0,0,0-.06c0,.13.06.14,0,0,0,.07,0-.12,0,0s0,0,0-.06a.08.08,0,0,0,0,0c0,.07.05-.08,0,0s0,.07,0,.08l0,0,0,0,0,0,0,0h0l-.11,0c.13-.06-.08,0,.06,0h0l.22.39a2.8,2.8,0,0,1,.13-.41c.09-.23-.27-.44-.42-.25Z" transform="translate(-45.21 -30.3)"/><path d="M142.46,208a2.25,2.25,0,0,0,.14.89.39.39,0,0,0,.56.23,1.18,1.18,0,0,0,.44-1.42.47.47,0,0,0-.78-.21l0,0a.38.38,0,0,0-.06.45s0,.05,0,0l0,.1a.44.44,0,0,1,0,.17.91.91,0,0,1-.05.26h.54a.89.89,0,0,1-.19-.52.3.3,0,0,0-.59,0Z" transform="translate(-45.21 -30.3)"/><path d="M143.81,208.4c-.27.23-.82.61-.76,1a.63.63,0,0,0,.49.52,2,2,0,0,0,1.36-.48,1.79,1.79,0,0,0,.71-1.17.66.66,0,0,0-.41-.75.64.64,0,0,0-.77.3.31.31,0,0,0,.11.43,1,1,0,0,0,.21.09c.16.05,0,0-.07-.1s0,0,0-.1v.07c0-.06,0-.07,0,0a1.23,1.23,0,0,1-.23.54s0,0,0,0l-.1.09-.24.18a1.24,1.24,0,0,1-.3.16l-.07,0s.08.14,0,0l0,.27a5.76,5.76,0,0,1,.59-.62c.32-.29-.14-.73-.47-.47Z" transform="translate(-45.21 -30.3)"/><path d="M219.43,231.65l0-.08a.35.35,0,0,0-.16-.4c-.73-.34-3.78-.48-3.54.87a.42.42,0,0,0,.41.31c.53,0,5,.44,4.55-1-.19-.62-1.34-.42-1.79-.4a5.74,5.74,0,0,0-2.48.16.33.33,0,0,0,.08.6,4.41,4.41,0,0,0,1.88,0,.29.29,0,0,0,.2-.36l0-.08a.24.24,0,0,0-.39-.11c-.17.16-1.24,0-1.49,0l.08.59c.51-.26,1.3,0,1.86,0a6.82,6.82,0,0,0,1.42,0c.18-.15-.15-.21-.19-.21a1.76,1.76,0,0,0-.42.09c-.3.06-.61.09-.91.12a7.46,7.46,0,0,1-2.26-.16l.31.41c0,.29-.19.07,0,.09a1.87,1.87,0,0,0,.32-.08,6.4,6.4,0,0,1,.87-.08,6.26,6.26,0,0,1,1.19,0,.29.29,0,0,0,.42-.17Z" transform="translate(-45.21 -30.3)"/><path d="M203.56,235.76c5.61-.13,11.24-.51,16.83-.89,1.91-.13,9,0,10.3-2,2.11-3.26-10.76-3.84-12.34-4a.18.18,0,0,0,0,.35c2.82.54,6.53-.14,9.07,1.26,5.05,2.79-2.54,3.53-4.55,3.72-6.38.61-12.86.93-19.27,1.24-.17,0-.17.28,0,.27Z" transform="translate(-45.21 -30.3)"/><path d="M126,221.21c6.71,1.89,15.09,1.3,22,1.33.29,0,.37-.47.07-.52-7.19-1.18-14.68-.19-21.94-1.28a.24.24,0,0,0-.13.47Z" transform="translate(-45.21 -30.3)"/><path d="M133,218.73a7.54,7.54,0,0,0,1.5-.06.36.36,0,0,0,.09-.64,2.83,2.83,0,0,0-1.38-.22,1.82,1.82,0,0,0-1.25.3.31.31,0,0,0,.22.53,12.72,12.72,0,0,0,2.31-.08.24.24,0,0,0,.05-.43,4.76,4.76,0,0,0-2-.18.24.24,0,0,0,0,.47c.43,0,2.72.3,2.44-.63a.22.22,0,0,0-.21-.17c-.72-.07-2.27-.7-2.64.28a.26.26,0,0,0,.18.31,7.78,7.78,0,0,0,1.6.1c.36,0,1,0,1.29-.31a.27.27,0,0,0,0-.32c-.26-.36-.79-.36-1.19-.36a4.17,4.17,0,0,0-1.57.21c-.21.08-.28.44,0,.49a2.27,2.27,0,0,0,.86,0c.16,0,.17-.32,0-.35s-.49-.06-.73-.11V218a4.24,4.24,0,0,1,1.06-.15c.2,0,1-.11,1.11.08l0-.33c-.19.24-.9.17-1.16.17a7,7,0,0,1-1.21-.07l.18.32c.15-.43,1.78,0,2.14,0l-.22-.17a15.74,15.74,0,0,1-2,0v.47a4.28,4.28,0,0,1,1.75.11l.06-.43a4.06,4.06,0,0,1-2,0v.54a2.52,2.52,0,0,1,1.89,0l.09-.64a5.83,5.83,0,0,1-1.32,0,.36.36,0,0,0,0,.72Z" transform="translate(-45.21 -30.3)"/><path class="cls-5" d="M96.8,55.24c1.43,0,1.52,1.07,1.52,2.13,0,.66-.14,1.79-.14,2.32,0,.2,0,.32.14.32.29,0,2.42-2.95,3.33-3.89a1.73,1.73,0,0,1,1.34-.7c.86,0,1.45.41,1.45,1.32a2.57,2.57,0,0,1-.59,1.49c-1.27,1.55-3.26,2.68-3.24,3a12.63,12.63,0,0,0,3.51,2.95,1.7,1.7,0,0,1,1,1.55,1.46,1.46,0,0,1-1.59,1.42A3.94,3.94,0,0,1,101,65.59c-1.62-1.61-2.55-3.11-2.84-3.11-.07,0-.11.06-.11.18a25.2,25.2,0,0,1,.18,2.67c0,1.21-.28,1.85-1.59,1.85-1.11,0-1.43-.78-1.43-1.8,0-1.49.18-2.38.18-4.19,0-1.62-.18-2.62-.18-3.72C95.21,56.2,95.44,55.24,96.8,55.24Z" transform="translate(-45.21 -30.3)"/><path class="cls-5" d="M100.19,50.65a7.49,7.49,0,0,1,2.17.31,9.24,9.24,0,0,1,2,.83,14.76,14.76,0,0,1,3.17,2.5l.35.37c.12.12.22.26.34.39s.42.54.62.83a11.49,11.49,0,0,1,1,1.83,11,11,0,0,1,.82,4,10.81,10.81,0,0,1-.71,4.05,10.14,10.14,0,0,1-2.24,3.49,7.92,7.92,0,0,1-1.72,1.33,9.24,9.24,0,0,1-2,.83,13.44,13.44,0,0,1-2,.39l-.5,0-.5,0-.5,0h-.5a12.35,12.35,0,0,1-2.08-.18,9.14,9.14,0,0,1-2.07-.63A9,9,0,0,1,93.91,70c-.14-.11-.28-.22-.41-.34l-.2-.17-.19-.18-.19-.19c-.06-.06-.12-.11-.17-.17l-.34-.35a15.14,15.14,0,0,1-1.29-1.55A10.92,10.92,0,0,1,90,65.24a7.75,7.75,0,0,1-.63-2.1,5.14,5.14,0,0,1-.06-.55c0-.1,0-.19,0-.28v-.42a.57.57,0,0,1,0-.13l0-.25a2.28,2.28,0,0,1,0-.26l0-.25c.08-.67.2-1.33.33-2a13.43,13.43,0,0,1,.57-1.94,10.37,10.37,0,0,1,.92-1.86l.3-.44c.1-.15.22-.29.33-.43s.24-.27.36-.4l.38-.38a10,10,0,0,1,1.68-1.24,11.7,11.7,0,0,1,1.85-.9,12.11,12.11,0,0,1,2-.56A10.82,10.82,0,0,1,100.19,50.65Zm0,2.47a9,9,0,0,0-1.63.13,11,11,0,0,0-1.6.4,8.78,8.78,0,0,0-2.87,1.56l-.29.27a3.45,3.45,0,0,0-.26.28,3.73,3.73,0,0,0-.26.3c-.07.11-.16.21-.23.32a7.67,7.67,0,0,0-.76,1.45,9.91,9.91,0,0,0-.47,1.61,7.43,7.43,0,0,0-.15,1.69v.22c0,.07,0,.14,0,.21v.21a.38.38,0,0,1,0,.1l0,.09a2.2,2.2,0,0,0,0,.37c0,.13,0,.25.07.37s.06.24.1.36.07.24.12.36.09.23.15.35l.08.17a1.4,1.4,0,0,0,.09.17,8.5,8.5,0,0,0,.88,1.33,16.7,16.7,0,0,0,1.13,1.28c.1.1.2.21.31.31l.15.16.15.13.15.14.15.13.3.25a7.1,7.1,0,0,0,1.3.82,6.57,6.57,0,0,0,1.47.52,8.34,8.34,0,0,0,1.6.21h.86l.43,0,.42,0a9.56,9.56,0,0,0,1.63-.27,6,6,0,0,0,2.7-1.45A8.13,8.13,0,0,0,107.83,65a8.51,8.51,0,0,0,.64-3.21A7.69,7.69,0,0,0,107,57.15c-.16-.22-.34-.43-.52-.64l-.28-.3-.3-.29a12,12,0,0,0-2.72-2,7.66,7.66,0,0,0-1.47-.59A6,6,0,0,0,100.19,53.12Z" transform="translate(-45.21 -30.3)"/><path class="cls-5" d="M99.61,49.56c-.76,0-1.12-.62-1.24-1.29-.17-1-.35-2.68,1-2.74a1.23,1.23,0,0,1,1,.49,2.33,2.33,0,0,1,.23,1.36c0,.49.26,1,.06,1.44a1.2,1.2,0,0,1-1,.74Z" transform="translate(-45.21 -30.3)"/><path class="cls-5" d="M113.26,62.67a1.2,1.2,0,0,1-1.2-1.14c0-1.29,1.57-1.43,2.51-1.42a2.46,2.46,0,0,1,.72.1,1.19,1.19,0,0,1-.15,2.29,5.9,5.9,0,0,1-.94,0c-.31,0-.58.13-.89.14Zm.82-.16Zm-.83-2.23Z" transform="translate(-45.21 -30.3)"/><path class="cls-5" d="M86.62,63.12l-.38,0c-.9,0-2.25,0-2.3-1.18a1.19,1.19,0,0,1,1.14-1.24h.82a4.22,4.22,0,0,1,.58,0,2,2,0,0,0,.25,0A1.19,1.19,0,0,1,88,61.87C88,62.73,87.33,63,86.62,63.12Z" transform="translate(-45.21 -30.3)"/><path class="cls-5" d="M100.19,77.05a1.18,1.18,0,0,1-1.14-.85,4.2,4.2,0,0,1-.07-.62c0-.57-.29-1.23-.09-1.77A1.19,1.19,0,0,1,100,73c1,0,1.3,1,1.39,1.76s.1,2.21-1.11,2.26Z" transform="translate(-45.21 -30.3)"/><path class="cls-5" d="M108.53,53.08a1.21,1.21,0,0,1-.86-.36,1.2,1.2,0,0,1,0-1.69l.32-.3.28-.27a3,3,0,0,1,.44-.37,1.15,1.15,0,0,0,.19-.16,1.19,1.19,0,0,1,1.68,0,1.2,1.2,0,0,1,0,1.69,3.54,3.54,0,0,1-.45.37,1.15,1.15,0,0,0-.18.16l-.32.3-.28.26A1.16,1.16,0,0,1,108.53,53.08Z" transform="translate(-45.21 -30.3)"/><path class="cls-5" d="M89.84,53.88a2.47,2.47,0,0,1-1.33-.57c-.69-.53-1.63-1.46-.9-2.36a1.18,1.18,0,0,1,1.16-.42c.49.09.69.47,1,.77s.82.37,1.07.83a1.2,1.2,0,0,1-.12,1.32A1.08,1.08,0,0,1,89.84,53.88Zm.06-2.51Z" transform="translate(-45.21 -30.3)"/><path class="cls-5" d="M111.55,72.36c-1.35,0-3.13-1.81-2.24-2.92a1.19,1.19,0,0,1,1.21-.41c.48.11.7.52,1.08.79.17.13.38.21.56.33a1.23,1.23,0,0,1,.32,1.78A1.14,1.14,0,0,1,111.55,72.36Zm.06-2.5Z" transform="translate(-45.21 -30.3)"/><path class="cls-5" d="M89.59,72.75a1.07,1.07,0,0,1-.86-.36c-.75-.78-.09-1.56.56-2.13s1.55-1.49,2.4-.61c.61.63.29,1.39-.24,1.93A3.4,3.4,0,0,1,89.59,72.75Zm.86-.36Z" transform="translate(-45.21 -30.3)"/><path d="M219.06,211.5a11.7,11.7,0,0,0,2.81,2.89.58.58,0,0,0,.79-.21,5.88,5.88,0,0,1,3.24-2.81l-.79-.45,0,.28c0,.18.23.24.39.22l.35,0c.79-.13.47-1.47-.34-1.24a7.19,7.19,0,0,0-3.9,3.46l.79-.21a10.78,10.78,0,0,1-2.6-2.66c-.48-.53-1.25.25-.79.78Z" transform="translate(-45.21 -30.3)"/><path d="M217.53,213c1.19,1,2.74,2,4.36,1.64,2.37-.53,4.71-2.14,7.18-2.2a.57.57,0,0,0,0-1.14c-1.63,0-3.33.81-4.88,1.31-.77.25-1.57.7-2.35.87-1.4.31-2.61-.48-3.75-1.2-.44-.28-1,.38-.56.72Z" transform="translate(-45.21 -30.3)"/><path d="M221.93,210.71a.83.83,0,0,1,.19-.74l-.84-.35a10.15,10.15,0,0,1,.09,1.65,14.08,14.08,0,0,0-.08,1.71l1-.4-.13-.14a.38.38,0,0,0-.54,0l-.13.14c-.68.74.84,1.48,1,.4a7.48,7.48,0,0,0-.18-3.49.5.5,0,0,0-.82-.22,1.81,1.81,0,0,0-.44,1.44c.07.59,1,.62,1,0Z" transform="translate(-45.21 -30.3)"/><path d="M200.28,211.7c1.21.13,2.42.23,3.64.34.28,0,1.28,0,1.49.17s-.61.36-.8.41c-.48.14-1,.27-1.43.43s-1.15.25-1.74.4a8.86,8.86,0,0,0-1.31.46,7.21,7.21,0,0,0-1.49.62.28.28,0,0,0-.12.31c.28.68,1.18.7,1.81.72,1.19,0,2.39,0,3.58,0,1.73,0,3.47-.05,5.19.13a24.67,24.67,0,0,1,2.55.43,8.14,8.14,0,0,0,2,.39c.5,0,.5-.81,0-.78a8,8,0,0,1-1.8-.34c-.7-.13-1.39-.28-2.09-.37a38,38,0,0,0-4.53-.15c-1.24,0-2.5,0-3.75.06-.51,0-2.19.34-2.46-.27l-.1.38a7.68,7.68,0,0,1,2-.89c.7-.25,1.45-.3,2.16-.54s1.29-.39,1.95-.58c.29-.08.75-.16.94-.43.44-.62-.45-.85-.88-.9-1.6-.2-3.21-.32-4.81-.5-.34,0-.34.5,0,.53Z" transform="translate(-45.21 -30.3)"/><path d="M199.52,216.47c.26,0,.47.14.72.18s.42,0,.63,0c.52,0,1,0,1.57,0s1,.14,1.55.17,1.19,0,1.78,0a24.7,24.7,0,0,1,3.33.19,26.1,26.1,0,0,0,3,.41.33.33,0,0,0,0-.65,28,28,0,0,1-3-.4,27.09,27.09,0,0,0-3.37-.2c-1.09,0-2.14,0-3.23-.1-.51,0-1,0-1.55,0s-1-.13-1.47-.09a.23.23,0,0,0,0,.46Z" transform="translate(-45.21 -30.3)"/><path d="M205.68,214.13a1.73,1.73,0,0,0,.32,0h.3l.62,0a.33.33,0,0,0,.09-.65,7.87,7.87,0,0,0-1.16-.29l-.09.6.56,0a1.92,1.92,0,0,0,.59-.09.27.27,0,0,0,.2-.19.29.29,0,0,0-.07-.27,1.13,1.13,0,0,0-1.34,0,.26.26,0,0,0,.11.42,1.72,1.72,0,0,0,.64.05,1.58,1.58,0,0,0,.36-.09.34.34,0,0,0,.2-.32.12.12,0,0,0-.16-.12h0s-.06,0,0,0h-.07a.35.35,0,0,0-.11,0l-.14,0h-.35s0,0,0,0h-.09l-.1,0,.11.42v0s0,0,0,0l0,0h0l.06,0h.29a.53.53,0,0,1,.12,0h.05s0,0,0,0-.06,0,0,0l0,0,.12-.46-.13,0c-.06,0,.07,0,0,0h-.35l-.54-.05a.31.31,0,0,0-.3.27.31.31,0,0,0,.22.34,11.83,11.83,0,0,1,1.16.34l.08-.66H206l-.21,0h-.11a.31.31,0,0,0-.2.09.27.27,0,0,0-.09.21.29.29,0,0,0,.09.21.36.36,0,0,0,.2.08Z" transform="translate(-45.21 -30.3)"/><path class="cls-4" d="M109.38,189.68c-.91,0-1.83.8-2.62,1.2-.29.15-1.12.46-.85,1,.09.18.28.17.44.22.31.11.9,0,.65.55-.07.17-.51.35-.66.43-.92.48-1.86.92-2.8,1.36-.54.26-4.22,2.42-3.21,3.34.43.39,2,.08,2.44,0,1.42-.14,2.92-.8,4.35-.65l-.25-.25c-.07.73-1.67,1.25-2.13,1.75a.26.26,0,0,0,0,.37,2.29,2.29,0,0,0,1.42.38,8.65,8.65,0,0,0,2.33-.06,40.22,40.22,0,0,1,5.71-.24c1.87,0,3.74.16,5.62.16a18,18,0,0,0,2.43,0c.3,0,.59-.13.62-.5.1-1-2.28-1.36-2.86-1.4-1.8-.11-3.6-.11-5.41-.18-.64,0-5.3.06-5.28-.75,0-.16.73-.71.86-.83a7.76,7.76,0,0,1,1.31-.82c.44-.25.94-.4,1.2-.85a.24.24,0,0,0-.08-.31,3.6,3.6,0,0,0-2.27-.28c-.6.06-1.22.07-1.82.16-.31,0-.79.28-.44-.07a5.07,5.07,0,0,1,1.46-.71c.54-.24,1.07-.48,1.6-.74a30.74,30.74,0,0,0,3-1.82,3.87,3.87,0,0,0,1.73-1.46c.2-.44.3-1.12-.22-1.38a4.46,4.46,0,0,0-1.15-.19c-.47-.07-1-.06-1.44-.11a8.81,8.81,0,0,0-3.69.13c-.27.1-.17.52.12.44a13.28,13.28,0,0,1,4.62,0c.63.05,1.86.26,1.25,1.17a7.55,7.55,0,0,1-2.13,1.51,37.92,37.92,0,0,1-3.41,1.9c-.78.37-2.14.7-2.63,1.48a.21.21,0,0,0,.07.28c.63.32,1.44,0,2.11-.05.91,0,2.24-.49,3.07.12l-.08-.31c-.3.52-1.38.83-1.87,1.14a7.84,7.84,0,0,0-1.44,1.26c-.47.52-.38.91.31,1.08,3.17.8,6.62.31,9.85.61a11.1,11.1,0,0,1,1.51.12c.15,0,1.35.34,1.37.52,0,.42-1.79.23-2.22.23-1.77,0-3.52-.19-5.28-.15s-3.46.12-5.18.16c-.75,0-1.47.21-2.22.21a7.68,7.68,0,0,1-1.26-.12,3,3,0,0,1-.78-.16V199c.68-.75,2.18-1,2.28-2.12a.26.26,0,0,0-.26-.26,8.93,8.93,0,0,0-2.7.37,14.13,14.13,0,0,1-2,.35c-.28,0-1.28.22-1.47.06-.82-.7,4.21-3.49,4.91-3.87.39-.2,1.68-.6,1.5-1.25s-1.39-.28-.78-1a4.87,4.87,0,0,1,1-.51,5.05,5.05,0,0,1,1.84-.85.12.12,0,0,0,0-.24Z" transform="translate(-45.21 -30.3)"/><path class="cls-4" d="M86.74,194c-.54-.08-.75.33-1.07.7s-1.06.74-1.32,1.35a.17.17,0,0,0,0,.19c.2.18.39.27.2.6a2.35,2.35,0,0,1-.64.53,17.07,17.07,0,0,1-1.43,1.11c-.44.26-1.21.63-1.23,1.22a.15.15,0,0,0,.09.14,3,3,0,0,0,1.8.19,23.05,23.05,0,0,0,2.7-.65c.29-.08.8-.15.8-.56s-.51-.44-.82-.43-.63.06-1,.09c-.1,0-.66.07-.7,0s.45-.29.49-.31c.37-.22.71-.44,1.09-.64a2,2,0,0,0,.88-.64.56.56,0,0,0,0-.69c-.05-.07-.2-.14-.23-.22-.14-.39.21-.44.44-.53s.6-.27.91-.41a5,5,0,0,1,1.31-.34l.68-.13a3.34,3.34,0,0,1,.43-.11c.69.18-.13.68-.36.84a2.56,2.56,0,0,0-.48.45c-.37.42-.77,1.28.2,1.1a3.22,3.22,0,0,0,.71-.32c.41-.2.88-.28,1.3-.46s.64-.32,1-.43a1.18,1.18,0,0,1,.49-.06c.42.1,0,.3-.23.47s-.85.48-.77.87.66.23.92.15a4.56,4.56,0,0,0,1.77-.54c.4-.35.21-.79-.16-1.07s-.59-.32-.87-.49a1.52,1.52,0,0,1-.59-.59c-.08-.12-.08-.23-.21-.33a1.26,1.26,0,0,0-.77-.07,5.58,5.58,0,0,0-1.22.15l.24.19a8.21,8.21,0,0,0,.11-2,.17.17,0,0,0-.13-.13c-.85-.18-1.45.93-2.23.69l.15.26a4.42,4.42,0,0,1,.38-.79c.1-.26,0-.69.16-.89s-.12-.53-.31-.31-.18.39-.22.72-.34.73-.41,1.16a.22.22,0,0,0,.14.26,1.77,1.77,0,0,0,1.33-.47,2.55,2.55,0,0,1,.39-.24c.42-.17.38.11.39.46a7.71,7.71,0,0,1-.14,1.26c0,.12.14.21.25.18a3.87,3.87,0,0,1,1.27-.13c.4,0,.4.19.6.46a2.06,2.06,0,0,0,.61.49c.23.15.81.34.94.58.28.55-1.17.68-1.44.79s-.77.48-.46-.15c.06-.11.41-.29.53-.39a1.48,1.48,0,0,0,.49-.59s0-.13,0-.15a1.68,1.68,0,0,0-1.41.23,10.12,10.12,0,0,1-1.49.52c-.27.09-1.35.78-1.43.28s2.34-1.77,1.35-2.17c-.16-.07-.4.06-.55.1-.52.13-1.06.17-1.59.31a10.65,10.65,0,0,0-1.35.56,1.87,1.87,0,0,0-.7.32c-.44.48.59.72.15,1.36-.28.41-.93.56-1.33.81a9.6,9.6,0,0,0-1.14.73s0,.1,0,.11a15.29,15.29,0,0,0,1.78.1c.18,0,.22-.08.27.16s0,.17-.24.22l-1,.29a9.45,9.45,0,0,1-2.46.41c-.41,0-.81-.16-.38-.52.22-.17.46-.32.7-.47a15.24,15.24,0,0,0,1.49-1.16c.29-.23,1-.64.88-1.12,0-.17-.2-.17-.26-.29s.28-.49.49-.66.41-.3.59-.47.42-.75.84-.71c.19,0,.24-.31,0-.34Z" transform="translate(-45.21 -30.3)"/><path class="cls-4" d="M120.24,189.17a3.94,3.94,0,0,0-1.24,1.06c-.3.34-.78.68-.82,1.18s.65.42,1,.3a5.22,5.22,0,0,0,.54-.24c.25-.13.48-.39.77-.4l-.2-.16c.14.43-.06.89,0,1.33a.22.22,0,0,0,.14.14,4.27,4.27,0,0,0,1,0c.25,0,.43.22.68.26a2.14,2.14,0,0,0,1.63-.64.93.93,0,0,0-.19-1.31c-.58-.52-1.43-.11-2.12-.25l.16.16c-.13-.47.25-1.24-.39-1.45a3.63,3.63,0,0,0-1-.21,5.09,5.09,0,0,0-1.13.35c-.25.06-.14.44.11.38a8.37,8.37,0,0,1,.93-.3,2.77,2.77,0,0,1,.89.18c.19.06.16.07.16.3a2.82,2.82,0,0,0,0,.87.24.24,0,0,0,.15.16,3.25,3.25,0,0,0,.88,0,2.19,2.19,0,0,1,.92,0,.66.66,0,0,1,.37.44c.07.25-.07.37-.26.5a2.25,2.25,0,0,1-.69.35.77.77,0,0,1-.66-.1c-.43-.25-.9,0-1.34-.14l.14.14c-.1-.45.1-.89,0-1.34a.22.22,0,0,0-.2-.15c-.41,0-.69.31-1,.49s-.69.37-.92.22l.11.19a.73.73,0,0,1,.27-.58c.16-.16.32-.33.47-.5a3.39,3.39,0,0,1,1.09-.94c.24-.12,0-.48-.21-.36Z" transform="translate(-45.21 -30.3)"/><path class="cls-4" d="M103.24,195.84a.06.06,0,0,0,0,0s0,0,0,0,0,0,0,0l0,0s.06,0,0,0l0,0s0,0,0,0h0l-.06,0-.13,0c-.23.06-.49.19-.48.46a.26.26,0,0,0,.25.26,1.54,1.54,0,0,0,.7-.11,1.3,1.3,0,0,0,.31-.16.67.67,0,0,0,.27-.23c0-.05,0-.12-.08-.13a1,1,0,0,0-.29.06,1.61,1.61,0,0,1-.29.09.93.93,0,0,1-.27,0h-.06s0,0,0,0h0l-.08,0,0,0,.12.29s0-.07,0,0,0,0,0,0,0,.05,0,0a0,0,0,0,1,0,0l0,0,0,0s0,0,0,0h0l.06,0,.12,0a.59.59,0,0,0,.48-.42.23.23,0,0,0,0-.18.32.32,0,0,0-.14-.12c-.12,0-.28,0-.3.17Z" transform="translate(-45.21 -30.3)"/><path class="cls-4" d="M111.62,195.45a.4.4,0,0,1-.18.07.9.9,0,0,0-.24.12.48.48,0,0,0-.18.51.54.54,0,0,0,.43.34,1.56,1.56,0,0,0,.31,0,.88.88,0,0,1,.27.06,2.09,2.09,0,0,0,.61.08h.71a2,2,0,0,1,.6,0c.21.06.39.1.56-.06a.18.18,0,0,0,0-.28,1.73,1.73,0,0,0-.92-.21l-1.1,0a1.48,1.48,0,0,1-.42-.07c-.16,0-.32,0-.48-.05a.12.12,0,0,1-.1,0s0,0,0,0,.06-.05.11-.07a.89.89,0,0,0,.38-.18c.22-.19-.1-.51-.32-.32Z" transform="translate(-45.21 -30.3)"/><path class="cls-4" d="M112.79,200.17c1,.06,2-.06,3,.1a11.33,11.33,0,0,0,1.17,0c.49,0,1,.11,1.46.09.85,0,1.68.11,2.54.11s1.93,0,2.9-.11a.19.19,0,0,0,0-.38c-.41,0-.83.08-1.24.09h-1.55c-.9,0-1.76-.14-2.65-.11a17.66,17.66,0,0,1-2.72-.16,17.1,17.1,0,0,0-2.95,0,.15.15,0,1,0,0,.3Z" transform="translate(-45.21 -30.3)"/><path class="cls-4" d="M122.82,191.48h0a.29.29,0,0,0-.12-.07h-.15a.33.33,0,0,0-.13.07h0l0,.06,0,.08a.19.19,0,0,0,0,.13.19.19,0,0,0,0,.07.16.16,0,0,0,0,.07l.06.06.07,0,.12,0h.09l.07,0,.06,0,.05-.07,0-.07a.29.29,0,0,0,0-.13.24.24,0,0,0,0-.08.17.17,0,0,0-.07-.1Z" transform="translate(-45.21 -30.3)"/><path class="cls-4" d="M120.94,193.46a4.08,4.08,0,0,1,.69-.09,1,1,0,0,1,.54,0,2.2,2.2,0,0,0,.54.25,2,2,0,0,0,.54,0,1.61,1.61,0,0,0,.8-.5c.11-.12.22-.24.32-.37s.23-.23.21-.41c0,0,0,0-.08,0s-.26.12-.36.23-.21.25-.33.37a1.18,1.18,0,0,1-.77.43.93.93,0,0,1-.54-.12,1,1,0,0,0-.44-.19,4.36,4.36,0,0,0-1.2.1c-.2,0-.12.34.08.31Z" transform="translate(-45.21 -30.3)"/><path class="cls-4" d="M122.3,194.58a1.76,1.76,0,0,1,.45-.07l.52,0a1.83,1.83,0,0,0,.87,0,2.24,2.24,0,0,0,.72-.45c.18-.16.42-.4.34-.66,0-.06-.09-.1-.14-.06a5.55,5.55,0,0,0-.48.49,2.38,2.38,0,0,1-.62.43,2,2,0,0,1-.8,0,2.37,2.37,0,0,0-.46,0c-.15,0-.27.1-.42.13a.07.07,0,0,0,0,.14Z" transform="translate(-45.21 -30.3)"/><path d="M136.67,142.1c.42.17.56,1.07.71,1.45.35.84.73,1.65,1.08,2.49a10.35,10.35,0,0,1,.55,2.34c.06.43.15.85.22,1.27a4.23,4.23,0,0,0,.27,1.22.39.39,0,0,0,.68,0c.39-.86-.05-1.94-.2-2.83a10.88,10.88,0,0,0-.76-2.69c-.38-.85-.82-1.68-1.17-2.55-.23-.57-.51-1.27-1.19-1.4a.36.36,0,0,0-.19.7Z" transform="translate(-45.21 -30.3)"/><path d="M140.7,152c-.93.16-.09,2,0,2.53a5.88,5.88,0,0,1,.12,1.62c0,.32,0,.65,0,1s-.11.52-.14.78l.36-.35a1.15,1.15,0,0,0-.32,0c-.15,0-.19.22-.13.33a1.21,1.21,0,0,0,.2.26.35.35,0,0,0,.55-.07,1.85,1.85,0,0,0,.19-.76c0-.29.05-.58.06-.86a8.83,8.83,0,0,0-.11-1.78,8.36,8.36,0,0,0-.41-1.19,6,6,0,0,1-.21-.69,2.48,2.48,0,0,1,0-.27s0-.06,0-.07-.06,0,0,0c.31-.07.17-.52-.13-.47Z" transform="translate(-45.21 -30.3)"/><path d="M120.31,147.52c-.16,3-.14,6.06-.09,9.07a37.13,37.13,0,0,1,0,4.22,23.77,23.77,0,0,0-.29,4.13l.76-.2-.08-.16a.32.32,0,0,0-.54,0l-.08.16c-.32.57.71.89.76.2s0-1.4.06-2.1.23-1.35.3-2a35,35,0,0,0,0-4.22c-.08-3,.06-6.05-.11-9.07a.34.34,0,0,0-.67,0Z" transform="translate(-45.21 -30.3)"/><path class="cls-4" d="M152.23,207.51c-2.79-1-5.83-2.16-8.77-3.35a70.42,70.42,0,0,1-8.37-4,28.85,28.85,0,0,1-7.36-5.56,12.3,12.3,0,0,1-3.54-8.34c0-1.71-.37-5.27-.71-9.67-.23-3-.56-6.28-.69-9.68-.12-3.25.11-6.57.24-9.71a46.89,46.89,0,0,1,1-9.64c1.08-4,3-6.76,6.06-6.81,3.33-.06,5.32,2.95,6.49,7.26A53.26,53.26,0,0,1,138,158.32c.22,3.49.19,7.12.21,10.45,0,4.22.23,8,.49,10.43.28,2.68,2.39,4.81,5.09,6.59a33.44,33.44,0,0,0,7.76,3.8" transform="translate(-45.21 -30.3)"/><path class="cls-6" d="M152.23,207.51c-2.79-1-5.83-2.16-8.77-3.35a70.42,70.42,0,0,1-8.37-4,28.85,28.85,0,0,1-7.36-5.56,12.3,12.3,0,0,1-3.54-8.34c0-1.71-.37-5.27-.71-9.67-.23-3-.56-6.28-.69-9.68-.12-3.25.11-6.57.24-9.71a46.89,46.89,0,0,1,1-9.64c1.08-4,3-6.76,6.06-6.81,3.33-.06,5.32,2.95,6.49,7.26A53.26,53.26,0,0,1,138,158.32c.22,3.49.19,7.12.21,10.45,0,4.22.23,8,.49,10.43.28,2.68,2.39,4.81,5.09,6.59a33.44,33.44,0,0,0,7.76,3.8" transform="translate(-45.21 -30.3)"/><path class="cls-4" d="M186.76,214c2.7-1.54,6,.78,8.68-1.65,1.37-1.22,1.73-3.17,2.09-5,.56-2.81,1.3-5.59,1.86-8.4s1.07-5.95,3-8.15,5.65-3.21,7.9-1.37c1.59,1.3,2,3.56,2.25,5.61a53.1,53.1,0,0,1-2.83,22.78c-.79,2.2-1.82,4.5-3.83,5.69-2.68,1.57-6,.63-9.14.6a16,16,0,0,0-9.53,3.15c-.24.17-.51.32-.74.5" transform="translate(-45.21 -30.3)"/><path class="cls-6" d="M186.76,214c2.7-1.54,6,.78,8.68-1.65,1.37-1.22,1.73-3.17,2.09-5,.56-2.81,1.3-5.59,1.86-8.4s1.07-5.95,3-8.15,5.65-3.21,7.9-1.37c1.59,1.3,2,3.56,2.25,5.61a53.1,53.1,0,0,1-2.83,22.78c-.79,2.2-1.82,4.5-3.83,5.69-2.68,1.57-6,.63-9.14.6a16,16,0,0,0-9.53,3.15c-.24.17-.51.32-.74.5" transform="translate(-45.21 -30.3)"/><path d="M202.72,185.67l2.11,1.62.26.2.35.27c.21.18.43.35.65.52a5.65,5.65,0,0,0,1.93,1.24c1.75.43,2.34-1.61,3.06-2.74a7.44,7.44,0,0,0,.52-.73s-.25.3-.07.09.11-.13.17-.2.21-.25.32-.38c.28-.32.56-.63.86-.93.46-.46,1.08-.88,1.19-1.57a1.62,1.62,0,0,0-.28-1.36,1.51,1.51,0,0,0-1.22-.61,2.54,2.54,0,0,0-1.72.9c-.28.27-.54.54-.8.83a13.57,13.57,0,0,0-1.26,1.65,10,10,0,0,0-1.16,2.4c0,.11-.07.22-.11.34s-.17.43,0,.12.06-.13,0-.07.14-.18.16-.19a1.26,1.26,0,0,1,.8-.32c-.22,0,.39.07.27,0s-.22-.08,0,0,0,0-.13-.08c-.28-.17-.54-.37-.8-.56-1.27-.93-2.54-1.85-3.87-2.69a1.29,1.29,0,0,0-1.73.45,1.3,1.3,0,0,0,.46,1.73Z" transform="translate(-45.21 -30.3)"/><path d="M208.45,186.57a6.88,6.88,0,0,1-.47-1.65c-.07-.69-.08-1.38-.1-2.08a8.61,8.61,0,0,0-.33-2.2,3.3,3.3,0,0,0-1.28-1.8.62.62,0,0,0-.93.53c0,.31,0,.64,0,.95s0,.66,0,1c0,.68,0,1.37.06,2.05a10.41,10.41,0,0,0,.93,4.44,1.22,1.22,0,0,0,2.1-1.23Z" transform="translate(-45.21 -30.3)"/><path class="cls-4" d="M151.45,277.2c.57-1.29,1.07-4.87,1.32-9.94.13-2.86-.51-6.24-.46-10,.05-3.09.69-6.42.69-10,0-3.18.05-6.52,0-10,0-3.24,0-6.57-.09-10s-.32-6.6-.4-10-.45-6.64-.54-10c-.08-3,.18-6,.09-9s0-6-.1-8.95c-.12-3.51-.27-6.93-.42-10.21-.15-3.58-.68-7-.84-10.19-.18-3.71-.34-7.15-.48-10.2-.19-4.18-.22-7.66-.22-10.2,0-3.43.13-6.78.25-10,.14-3.46-.23-6.85.06-10.06.32-3.49,1.22-6.77,1.76-9.89a79.14,79.14,0,0,1,2.25-9.77,43.33,43.33,0,0,1,3.72-9.31,20.84,20.84,0,0,1,7.11-6.87c2.72-1.74,5.66-3.3,9.31-3.3s6.23,1.6,8.64,3.91a18.72,18.72,0,0,1,5.54,8c.87,2.65.79,6,1.32,9.74.41,2.89.83,6.09,1,9.69.17,3,.9,6.24.94,9.77,0,3-.78,6.3-.85,9.77,0,3.09.06,6.35-.08,9.78-.12,3.11.06,6.38-.12,9.79-.17,3.13-.6,6.37-.82,9.76-.18,2.84,0,5.83-.29,8.88-.26,2.87-.78,5.8-1.07,8.81s-.62,5.85-.88,8.83-.36,5.89-.55,8.86-.54,5.9-.62,8.85c-.12,4.68.19,9.32.16,13.81,0,3.24-.71,6.41-.69,9.48,0,3.29.7,6.46.75,9.48.06,3.38-.43,6.57-.35,9.49.1,3.58.16,6.78.27,9.48.23,5.93.32,4.73.59,9.46" transform="translate(-45.21 -30.3)"/><path class="cls-7" d="M151.45,277.2c.57-1.29,1.07-4.87,1.32-9.94.13-2.86-.51-6.24-.46-10,.05-3.09.69-6.42.69-10,0-3.18.05-6.52,0-10,0-3.24,0-6.57-.09-10s-.32-6.6-.4-10-.45-6.64-.54-10c-.08-3,.18-6,.09-9s0-6-.1-8.95c-.12-3.51-.27-6.93-.42-10.21-.15-3.58-.68-7-.84-10.19-.18-3.71-.34-7.15-.48-10.2-.19-4.18-.22-7.66-.22-10.2,0-3.43.13-6.78.25-10,.14-3.46-.23-6.85.06-10.06.32-3.49,1.22-6.77,1.76-9.89a79.14,79.14,0,0,1,2.25-9.77,43.33,43.33,0,0,1,3.72-9.31,20.84,20.84,0,0,1,7.11-6.87c2.72-1.74,5.66-3.3,9.31-3.3s6.23,1.6,8.64,3.91a18.72,18.72,0,0,1,5.54,8c.87,2.65.79,6,1.32,9.74.41,2.89.83,6.09,1,9.69.17,3,.9,6.24.94,9.77,0,3-.78,6.3-.85,9.77,0,3.09.06,6.35-.08,9.78-.12,3.11.06,6.38-.12,9.79-.17,3.13-.6,6.37-.82,9.76-.18,2.84,0,5.83-.29,8.88-.26,2.87-.78,5.8-1.07,8.81s-.62,5.85-.88,8.83-.36,5.89-.55,8.86-.54,5.9-.62,8.85c-.12,4.68.19,9.32.16,13.81,0,3.24-.71,6.41-.69,9.48,0,3.29.7,6.46.75,9.48.06,3.38-.43,6.57-.35,9.49.1,3.58.16,6.78.27,9.48.23,5.93.32,4.73.59,9.46" transform="translate(-45.21 -30.3)"/><path d="M124.56,137.82a20.68,20.68,0,0,0,2.83,2.86,4.11,4.11,0,0,0,2.5,1.19c1.78,0,2.56-1.87,3.39-3.13l.46-.66.09-.11c.15-.21,0,0-.05.05a2.45,2.45,0,0,0,.29-.35c.54-.65,1.44-1.32,1.65-2.14a1.58,1.58,0,0,0-1.93-1.93,3.86,3.86,0,0,0-1.79,1.47,16.48,16.48,0,0,0-1.07,1.42c-.43.63-.79,1.29-1.18,1.94-.07.13-.14.25-.22.37s-.07.09-.1.15.3-.34.1-.14-.16.14-.21.21c.22-.31.34-.23.18-.14s.32-.13.19-.08c-.29.1.46,0,.13,0-.16,0,.45.12.23,0l-.17-.05c-.25-.06.31.17.15.06s-.12-.06-.18-.1a4.53,4.53,0,0,1-.46-.3l-.1-.07c-.24-.17.21.18.07.05l-.29-.23-.7-.62c-.62-.57-1.23-1.13-1.87-1.67a1.39,1.39,0,0,0-1.94,0,1.41,1.41,0,0,0,0,1.94Z" transform="translate(-45.21 -30.3)"/><path d="M131.06,140.55a7.73,7.73,0,0,0,.33-2.72c0-.83.08-1.65.12-2.48a20.2,20.2,0,0,0,0-2.46,11.92,11.92,0,0,0-.17-1.32,3.28,3.28,0,0,0-.68-1.34,1,1,0,0,0-1.65.44,8.69,8.69,0,0,0,0,2.39c0,.82,0,1.64,0,2.46s0,1.6,0,2.4a9.49,9.49,0,0,0,.06,1.19,3.24,3.24,0,0,0,.33,1.44,1,1,0,0,0,1.8,0Z" transform="translate(-45.21 -30.3)"/><path d="M159.91,160c.14,3.84,1,7.6,1.23,11.43s-.27,7.81-.15,11.72.4,7.71.56,11.57.79,7.55,1,11.34c.12,1.88.17,3.76.3,5.64s.29,3.94.38,5.91c.17,3.86.18,7.73.22,11.59a49.81,49.81,0,0,1-.17,5.6c-.18,1.93-.45,3.86-.59,5.79-.27,3.84.05,7.71.06,11.55,0,4.37-.5,8.68-.77,13s-.1,8.71-.43,13.06c0,.53.8.53.84,0,.27-3.9.13-7.81.3-11.71s.7-7.78.81-11.68-.13-7.73-.13-11.59.77-7.56.87-11.36-.08-7.73-.16-11.58-.44-7.71-.63-11.58c-.09-1.86-.17-3.72-.37-5.57s-.45-3.85-.61-5.78c-.31-3.83-.37-7.7-.53-11.53-.1-2.15-.15-4.28-.08-6.42s.21-4.44.18-6.66c-.07-4.3-1.12-8.5-1.3-12.78,0-.55-.88-.55-.86,0Z" transform="translate(-45.21 -30.3)"/><path d="M176.8,158.86c-.19,3.81.45,7.61.42,11.42s-.27,7.57-.43,11.34-.51,7.72-.8,11.57c-.13,1.85-.2,3.7-.41,5.54s-.5,3.84-.74,5.76a50.71,50.71,0,0,0-.4,5.78c0,1.85.1,3.71.15,5.56.12,3.91-.21,7.82-.39,11.72-.1,1.9-.16,3.8-.32,5.7s-.37,3.89-.49,5.84a89.34,89.34,0,0,0,.24,11.45c.14,2.15.32,4.3.6,6.44s.67,4.27,1,6.42a39.11,39.11,0,0,1,.32,6.58c-.07,2.2-.25,4.4-.16,6.61a.41.41,0,0,0,.81,0c0-3.92.51-7.82.1-11.73s-1.18-7.57-1.51-11.4-.63-7.81-.57-11.7.59-7.65.79-11.49.49-7.69.54-11.52-.38-7.74-.08-11.62,1-7.51,1.25-11.3.61-7.55.82-11.33c.23-4.26.38-8.53.51-12.8s-.5-8.55-.54-12.84a.33.33,0,0,0-.66,0Z" transform="translate(-45.21 -30.3)"/><path d="M206.23,196.51a46.43,46.43,0,0,0-.83,7.9c-.08,2,0,4-.11,6a5.47,5.47,0,0,1-1.64,4.05,15.31,15.31,0,0,1-4.93,2.46c-1.19.43-2.39.82-3.6,1.19-1.54.47-3.15.81-4.67,1.35l.53.22-.1-.21a.43.43,0,0,0-.79.21l0,.23a.48.48,0,0,0,.59.46,44.83,44.83,0,0,0,4.39-1.26c1.16-.36,2.3-.74,3.44-1.15a19.41,19.41,0,0,0,5.19-2.49c3-2.31,2.33-6.45,2.41-9.8,0-1.35.1-2.69.2-4,.14-1.7.41-3.38.53-5.08a.32.32,0,0,0-.63-.08Z" transform="translate(-45.21 -30.3)"/><path d="M130.09,149.48a98.1,98.1,0,0,0,.26,11.37c.26,3.63.85,7.21,1.12,10.83.15,2,.25,3.93.27,5.9a22.41,22.41,0,0,0,.46,5.42,15.31,15.31,0,0,0,5,7.53c3.24,2.82,7.11,4.8,10.51,7.41l.35-.84-.27-.06a.45.45,0,0,0-.24.87l.27.08a.46.46,0,0,0,.44-.77c-5.1-4.33-12.71-6.78-15-13.68a15.9,15.9,0,0,1-.65-5.13q0-2.94-.23-5.88c-.24-3.49-.77-6.95-1.1-10.43-.4-4.2-.3-8.41-.48-12.62a.35.35,0,0,0-.7,0Z" transform="translate(-45.21 -30.3)"/><path d="M164.27,146.54a15.34,15.34,0,0,0,3.23.6,30,30,0,0,0,3.42.2,24.4,24.4,0,0,0,3.3-.23,6.29,6.29,0,0,0,3.17-.94c.67-.57.07-1.52-.66-1.58a4.68,4.68,0,0,0-1.47.29c-.49.12-1,.21-1.47.28a21.28,21.28,0,0,1-3.09.19c-1,0-2.06-.07-3.09-.16s-2.08-.29-3.12-.29a.84.84,0,0,0-.22,1.64Z" transform="translate(-45.21 -30.3)"/><path d="M168.33,125.31a7.56,7.56,0,0,0-.64-2.32,4.3,4.3,0,0,0-1.41-2,4,4,0,0,0-1.77-.57,4.54,4.54,0,0,0-2,.13,5.78,5.78,0,0,0-1.57.92,1.72,1.72,0,0,0-.78,1,2.46,2.46,0,0,1-.58,1,3.07,3.07,0,0,0-.77,1.91c0,.25,0,.5,0,.75a10.36,10.36,0,0,0-.25,1.33,1.86,1.86,0,0,0,.91,1.24,6.55,6.55,0,0,0,6.43.55,4.11,4.11,0,0,0,1.94-1.57A3.93,3.93,0,0,0,168.33,125.31Zm-1.66-.76a.66.66,0,0,1-.42.07,6.51,6.51,0,0,1-.76-.07,1.07,1.07,0,0,1-.53-.17,1,1,0,0,1-.31-.67c0-.28-.05-1.66.4-1.65a.53.53,0,0,1,.32.17,10.1,10.1,0,0,1,1.18,1.35,1.59,1.59,0,0,1,.27.47A.49.49,0,0,1,166.67,124.55Z" transform="translate(-45.21 -30.3)"/><path d="M183.15,125.83c-.09-.27-.26-.5-.37-.76s-.16-.55-.26-.82a5.4,5.4,0,0,0-3.1-3,3.81,3.81,0,0,0-1.19-.36,3,3,0,0,0-2.11.81,5.23,5.23,0,0,0-1.32,1.68,10.73,10.73,0,0,1-.65,1.71,9.54,9.54,0,0,0-.54.86,2.81,2.81,0,0,0,.43,2.89,5.38,5.38,0,0,0,2.57,1.64,4.38,4.38,0,0,0,1.68.3,5,5,0,0,0,2-.69,5.67,5.67,0,0,0,2.63-2.29,3.05,3.05,0,0,0,.3-1.07A2.1,2.1,0,0,0,183.15,125.83ZM181,126a.18.18,0,0,1-.08.13h-.09a1.86,1.86,0,0,1-1.23-.26,1.89,1.89,0,0,1-.48-.63c-.24-.41-.48-.82-.71-1.24a.3.3,0,0,1-.06-.27.28.28,0,0,1,.12-.12c.36-.23.87-.7,1.31-.49a1.43,1.43,0,0,1,.58.59,4.47,4.47,0,0,1,.57,1.08A1.9,1.9,0,0,1,181,126Z" transform="translate(-45.21 -30.3)"/><path d="M156.21,139.77l0,0c-2.29,3.3-4.51,5.74-.61,8.8.67-1.19-.33-2.75.37-3.95.87-1.53,2.73-4.05,1.74-.49.93.17,1-1.32,1.69-1.57,1.14.15,3-2.13,2.56,0a1.12,1.12,0,0,0,1.29-.52c.88-1.85,3.22.91,4-1.17,1.13-1.11,1.14-2.9,2.22-4.07a1.17,1.17,0,1,0-1.92-1.32c-1,1.43-.46,3.89-1.88,4.88.12-1.43,3.47-6.54-.39-5.36-.52.59-1.25.4-1.67,1.08-.74-.34-1.29.28-1.92.53.08.72-.69.86-1.21,1.11-.35.65-1.26-.06-1.66.6s-1.28.21-1.79.55" transform="translate(-45.21 -30.3)"/><path d="M156.25,139.72l0,0s-.08,0-.11,0c-1,1.44-2.35,2.95-2.69,4.71s.78,3.15,2.08,4.19a.09.09,0,0,0,.14,0,3.93,3.93,0,0,0,.15-2.28,2.9,2.9,0,0,1,.22-1.67,8.27,8.27,0,0,1,.45-.75,5.62,5.62,0,0,1,1-1.33c.24-.21.37-.17.37.16a5.75,5.75,0,0,1-.28,1.37.08.08,0,0,0,.08.1.89.89,0,0,0,.87-.47c.34-.49.42-1,1.08-1.1a4,4,0,0,0,1.19-.5,4.19,4.19,0,0,1,.59-.32c.57-.19.52.29.44.74,0,0,0,.09.06.1a1.27,1.27,0,0,0,1.41-.62c.45-.71,1.07-.61,1.8-.43a2.6,2.6,0,0,0,1.46.11c.48-.19.7-.75,1-1.12a12.19,12.19,0,0,0,1.19-2.5c.31-.69,1-1.28,1-2.08a1.26,1.26,0,0,0-2.2-.79c-1.29,1.38-.43,3.87-2,5.06l.16.09a12.23,12.23,0,0,1,1-2.73c.25-.67.71-1.7.38-2.42s-1.36-.57-1.91-.3c-.22.1-.39.32-.64.42l-.42.16c-.19.09-.37.32-.55.39s-.59,0-.88.09-.72.4-1.09.56a.09.09,0,0,0,0,.08c0,.68-.68.8-1.16,1a1.75,1.75,0,0,1-.71.29,2.79,2.79,0,0,0-.5,0c-.44.09-.61.52-1.07.61a3.92,3.92,0,0,0-1.18.23c-.09.05,0,.19.09.14.52-.29,1.21-.07,1.68-.46a1.15,1.15,0,0,1,.77-.39c.14,0,.28,0,.41,0a.91.91,0,0,0,.46-.16,7.3,7.3,0,0,1,.77-.44,1.1,1.1,0,0,0,.49-.39c.17-.27.09-.37.38-.58a1.71,1.71,0,0,1,1.54-.36.1.1,0,0,0,.11-.05c.35-.48.94-.53,1.41-.83a1.83,1.83,0,0,1,1.4-.34c.74.17.54,1.08.4,1.62a20.09,20.09,0,0,1-.78,2.13,7.06,7.06,0,0,0-.56,1.66.11.11,0,0,0,.16.09c1.28-1,1.07-2.75,1.54-4.13a1.88,1.88,0,0,1,1-1.29,1,1,0,0,1,1.27.58c.23.54-.08,1-.39,1.42a5.39,5.39,0,0,0-.64,1.21c-.19.46-.35.94-.55,1.4a10.73,10.73,0,0,1-.78,1.2c-.21.34-.32.66-.76.75a2.41,2.41,0,0,1-1-.11,2.59,2.59,0,0,0-1.53-.12,1,1,0,0,0-.44.32,2.2,2.2,0,0,0-.21.32c-.14.23-.86.84-1.11.41-.08-.13.07-.45,0-.63a.35.35,0,0,0-.27-.23c-.4-.07-.92.38-1.24.55a3.27,3.27,0,0,1-1,.36.87.87,0,0,0-.5.26,4.08,4.08,0,0,0-.44.72,1.6,1.6,0,0,1-.28.4c-.08.08-.22.23-.35.19s-.07-.13,0-.3.46-2-.4-1.36a5,5,0,0,0-1,1.24,4.11,4.11,0,0,0-.84,1.73,7.16,7.16,0,0,0,.08,1.6,5.21,5.21,0,0,1,0,.79,1.12,1.12,0,0,1-.1.48c-.17.21-.26.05-.42-.09a4.26,4.26,0,0,1-1.67-2.86,5.1,5.1,0,0,1,.85-2.7,31.22,31.22,0,0,0,1.79-2.72c.06.06.15,0,.09-.1Z" transform="translate(-45.21 -30.3)"/><path d="M170.48,136.81a16,16,0,0,0,2.37,5.13c.94.08-.15-1.41.65-1.5,1.11.39,3.77,3.71,4.28,1.78.12-.33.59-.23.91-.09,1.53.5.63-1-.05-1.45-.78-.86-.87-2.13-1.29-3.22-.62-1.35-7.14-3.13-7-.66" transform="translate(-45.21 -30.3)"/><path d="M170.37,136.85a14.35,14.35,0,0,0,2.15,4.79c.14.22.19.46.48.42a.42.42,0,0,0,.31-.18c.19-.31,0-.72,0-1,.05-.62.78,0,1,.22.41.31.79.66,1.19,1s1.37,1.17,2,.8a.8.8,0,0,0,.27-.28c0-.08.06-.17.1-.24.2-.33.48-.21.78-.11s.76.25.94-.07-.09-.67-.24-.89c-.32-.46-.78-.74-1-1.25a19.47,19.47,0,0,1-.78-2.38,1.47,1.47,0,0,0-.53-.72,6.89,6.89,0,0,0-2.34-1.06c-1.07-.31-4.54-1.07-4.45,1a.11.11,0,0,0,.22,0c0-1.69,2.94-1.06,3.88-.82a8.18,8.18,0,0,1,2.3.91,1.84,1.84,0,0,1,.63.58,12.75,12.75,0,0,1,.61,2,3.07,3.07,0,0,0,.9,1.44,1.82,1.82,0,0,1,.69,1c.07.58-1,.06-1.22,0-.5,0-.44.31-.68.62-.5.63-1.68-.46-2.07-.77l-1.09-.88a2.53,2.53,0,0,0-.8-.51c-.3-.07-.47.18-.49.45s.19,1.25-.19.94a2.48,2.48,0,0,1-.37-.61l-.3-.51c-.24-.41-.47-.82-.68-1.24a10.19,10.19,0,0,1-.94-2.61c0-.15-.26-.09-.23.07Z" transform="translate(-45.21 -30.3)"/><path d="M178,137.07c-.25,2.12,2.22,6.91,4.45,5.39.23-1,1.28-.07,1.07.66.06.72.74,1,1.3,1.23.85.56.71,2.08,1.32,2.88,1.1,1.46,2.06-.65,1-1.46-.07-1.83-1.6-2.38-1-4.4-2.3-.22.15-1.67-1.33-2.61l.24.05c-1.31-1.08-1.19.27-1.34,1.21-.68.67-.31-1.4-.34-1.48-.2-.36-.48-.67-.42-1.13-.53-1.09-1.39.07-1.51,1.09-.42-.54-.84-1.35-1.53-.59-1.28-1.57-2.12-1.9-1.87.62" transform="translate(-45.21 -30.3)"/><path d="M177.94,137.07a6.71,6.71,0,0,0,1.48,4.39c.67.88,2,2,3.12,1,.19-.16-.29-.44.37-.42a.5.5,0,0,1,.26.16c.28.25.24.52.26.84a1.21,1.21,0,0,0,.44.85c.37.31.92.38,1.2.78a4.83,4.83,0,0,1,.53,1.52c.16.6.5,1.55,1.24,1.61.55.05.85-.55.87-1a1.46,1.46,0,0,0-.35-1c-.25-.35-.24-.9-.42-1.32s-.46-.85-.64-1.29a2.84,2.84,0,0,1-.05-1.82.11.11,0,0,0-.1-.14c-.37,0-.94-.09-.89-.58,0-.25.13-.5.17-.75a1.16,1.16,0,0,0-.54-1.28l-.1.22.24.06c.1,0,.21-.12.11-.2-.52-.41-1.16-.69-1.37.14a3.56,3.56,0,0,0-.08.57c0,.15-.05.8-.25.48s0-.77,0-1a.8.8,0,0,0-.12-.67,1.91,1.91,0,0,1-.23-.45c0-.13,0-.31,0-.42a1,1,0,0,0-.32-.42c-.79-.52-1.31,1-1.39,1.51l.19,0c-.29-.38-.69-1.13-1.29-.91-.08,0-.23.18-.31.18s-.3-.29-.39-.38a3.31,3.31,0,0,0-.65-.59c-1.13-.72-1,1.19-1,1.78,0,.13.22.13.21,0,0-.33-.25-1.76.34-1.74s1.07.85,1.35,1.19a.11.11,0,0,0,.14,0c.6-.6,1,.11,1.37.58,0,.06.18.07.19,0,.06-.39.41-1.68,1-1.42.28.12.23.5.3.74a3.86,3.86,0,0,0,.3.57c.22.4-.05,1,0,1.47.05.3.34.55.58.2s.1-.72.14-1a1,1,0,0,1,.15-.46c.25-.3.67.07.88.25l.12-.2-.23-.06a.12.12,0,0,0-.1.22c.79.55.19,1.11.21,1.81s.68.74,1.18.8l-.1-.13a3,3,0,0,0,.17,2.26c.15.3.32.59.46.89a5,5,0,0,1,.23.65,4,4,0,0,0,.1.69c.07.14.27.24.35.4a1.22,1.22,0,0,1,.12.6c0,.36-.25.86-.69.76-.93-.2-1-1.82-1.3-2.53a1.78,1.78,0,0,0-.49-.72c-.39-.3-.92-.34-1.22-.78s-.07-.72-.23-1.07a1,1,0,0,0-.5-.52.45.45,0,0,0-.45.05c-.1.08-.12.19-.19.29a.75.75,0,0,1-.56.32,2.15,2.15,0,0,1-1.85-.79,6.67,6.67,0,0,1-1.92-4.77c0-.09-.13-.09-.14,0Z" transform="translate(-45.21 -30.3)"/><path d="M166.34,86.27c1.34,1.25,2.69,2.19,4,3.27a7.6,7.6,0,0,0,2.33,1.61c1.87.57,3-1.43,4-2.56.61-.64,1.25-1.24,1.92-1.82,1-.82,2.08-1.48,3-2.36a1.66,1.66,0,0,0-2-2.59A15.69,15.69,0,0,0,176.89,84c-.59.53-1.17,1.08-1.72,1.66-.69.73-1.31,1.5-1.93,2.28-.06.08-.52.5-.52.58s.39-.26.18-.14.2-.08.22-.09a1.64,1.64,0,0,1,.49,0c-.36-.07.24.17,0,0s-.24-.14-.35-.22c-.35-.22-.67-.48-1-.72a24.13,24.13,0,0,0-4.58-2.91,1.15,1.15,0,0,0-1.39,1.8Z" transform="translate(-45.21 -30.3)"/><path d="M174.32,90.1a8.64,8.64,0,0,0,.29-2.78c0-.94.1-1.88.14-2.82a16.12,16.12,0,0,0-.06-2.69c-.13-1.07-.24-2.18-1.2-2.85a1,1,0,0,0-1.39.37,5.52,5.52,0,0,0-.21,2.74q0,1.35,0,2.7c0,.91-.1,1.82-.1,2.73a5.6,5.6,0,0,0,.48,2.87,1.15,1.15,0,0,0,2.08-.27Z" transform="translate(-45.21 -30.3)"/><path d="M172.37,90.32c-3.43,1.7-5.46,5.11-6.61,8.64a57.43,57.43,0,0,0-1.59,6.46c-.25,1.18-.5,2.35-.8,3.51s-.67,2.23-1,3.35c-.1.38.46.64.65.28a24.19,24.19,0,0,0,1.79-6.25c.45-2.19.86-4.39,1.5-6.54a18.33,18.33,0,0,1,2.18-4.94,12.72,12.72,0,0,1,4.21-3.91.35.35,0,0,0-.36-.6Z" transform="translate(-45.21 -30.3)"/><path d="M173.55,89.94c.95,1.82,2.2,3.5,3.23,5.28a22.76,22.76,0,0,1,2.5,5.8c.32,1.27.48,2.6.72,3.89a11.06,11.06,0,0,1,.23,1.81,1.85,1.85,0,0,1,0,.62.66.66,0,0,1-.05.15c-.09.16,0,.05-.08.05a.3.3,0,0,0-.15.55c1.94,1,.91-3.61.76-4.29a39,39,0,0,0-.85-4,26.1,26.1,0,0,0-2.34-5,39.67,39.67,0,0,0-3.55-5.16c-.18-.22-.5.06-.38.29Z" transform="translate(-45.21 -30.3)"/><path class="cls-4" d="M140.81,201.18a5.54,5.54,0,0,1,1.8-.45,4.74,4.74,0,0,0,1.68,0,1,1,0,0,1,.45-.1,1.48,1.48,0,0,0,.3,0,3.36,3.36,0,0,0,.76-.24c.25-.11.48-.3.39-.6s-.39-.51-.61-.69-.61-.67-1-.95a5.66,5.66,0,0,0-1.47-.8c-.45-.19-1-.1-1.39-.42-.18-.14-.33-.33-.5-.48a3.13,3.13,0,0,0-.6-.37c-.27-.15-.5-.36-.78-.5a1.21,1.21,0,0,1-.35-.24.33.33,0,0,0-.22-.11.13.13,0,0,0-.1.23c.11.07.16.2.27.27s.47.26.7.41a6.06,6.06,0,0,1,1,.69,2,2,0,0,0,.82.57,4.22,4.22,0,0,0,.61.07,2.66,2.66,0,0,1,.85.32,4.14,4.14,0,0,1,1.28.89,7.68,7.68,0,0,0,.76.75,1.26,1.26,0,0,1,.32.33c.12.22-.05.3-.25.38a2.64,2.64,0,0,1-.68.19,1.68,1.68,0,0,0-.67.09,5.54,5.54,0,0,1-1.82.09,5.62,5.62,0,0,0-1.69.52c-.11,0-.07.24.06.19Z" transform="translate(-45.21 -30.3)"/><path class="cls-4" d="M131,199.82a3.69,3.69,0,0,0,.92.25.91.91,0,0,0,.23,0l.21,0h.23a1.81,1.81,0,0,0,.23,0,.14.14,0,0,0,.15-.11h0a.13.13,0,0,0,0-.13.53.53,0,0,0-.22-.08.89.89,0,0,0-.23,0,2.3,2.3,0,0,1-.26,0,1.49,1.49,0,0,1-.21,0l-.49-.09a2.54,2.54,0,0,0-.48-.09.12.12,0,0,0-.06.22Z" transform="translate(-45.21 -30.3)"/><path class="cls-4" d="M134,200.22a3.87,3.87,0,0,1,.76,0c.22,0,.44,0,.67,0s.47,0,.71,0a4.82,4.82,0,0,0,.76,0,.16.16,0,0,0,0-.3,4.82,4.82,0,0,0-.76,0c-.24,0-.48,0-.71,0s-.46,0-.69,0a4.59,4.59,0,0,0-.74,0,.13.13,0,0,0,0,.27Z" transform="translate(-45.21 -30.3)"/><path class="cls-4" d="M140.05,199a.34.34,0,0,0,.26.14,2.14,2.14,0,0,0,.35.06,2.88,2.88,0,0,0,.42,0l.18,0a.78.78,0,0,0,.22,0l.31-.09a.39.39,0,0,0,.28-.22c.07-.23-.16-.39-.34-.47a3.24,3.24,0,0,0-.41-.13,1,1,0,0,0-.45-.06.11.11,0,0,0-.07.16c0,.13.21.18.34.21a2.91,2.91,0,0,1,.39.12c.07,0,.13.08.19.11s0,0,0,0,0-.08,0-.07l-.12,0a3.18,3.18,0,0,1-.33.08c-.14,0-.27.05-.41.06h-.21a.55.55,0,0,1-.18,0h-.22s-.06,0,0,0a.15.15,0,0,0-.18,0,.14.14,0,0,0,0,.17Z" transform="translate(-45.21 -30.3)"/></svg>