<svg id="Layer_1" data-name="Layer 1" xmlns="http://www.w3.org/2000/svg" width="65.04" height="120.99" viewBox="0 0 65.04 120.99"><defs><style>.cls-1,.cls-2{fill:#f4e5ca;stroke:#000;stroke-miterlimit:10;}.cls-1{stroke-width:0.9px;}.cls-2{stroke-width:0.78px;}</style></defs><path d="M88.06,123.51a22.65,22.65,0,0,1,2.33,0,12.52,12.52,0,0,1,2.19.45,13.14,13.14,0,0,0,4,.38,11.08,11.08,0,0,0,1.88-.34c.75-.16,1.51-.3,2.25-.49s1.42-.38,2.15-.53a11.32,11.32,0,0,1,2.4-.08.29.29,0,0,0,0-.57,14.3,14.3,0,0,0-2.07,0c-.7.1-1.38.31-2.07.48s-1.47.35-2.21.51a15.67,15.67,0,0,1-2.33.44,13.62,13.62,0,0,1-4.17-.44,15.54,15.54,0,0,0-4.35-.43.29.29,0,0,0,0,.57Z" transform="translate(-43.27 -12.45)"/><path d="M46.45,122.61l-.1,0c-.25.11-.13.43.07.52a11.25,11.25,0,0,0,2.27.7,5.71,5.71,0,0,0,1.09.07,12.78,12.78,0,0,1,1.37.16,19.85,19.85,0,0,0,5-.41c.75-.1,1.46-.37,2.2-.5,1-.16,1.93-.16,2.9-.28s1.72-.28,2.59-.35a20.57,20.57,0,0,1,2.72,0c.36,0,.36-.55,0-.57a25.31,25.31,0,0,0-4.92.29c-.92.14-1.85.17-2.78.27s-1.55.34-2.34.5-1.66.24-2.47.36a12.58,12.58,0,0,1-2.6.16c-.41,0-.81-.14-1.22-.18s-.94,0-1.41-.07a10.56,10.56,0,0,1-2.28-.7l.07.52.09-.05c.34-.15.05-.65-.28-.49Z" transform="translate(-43.27 -12.45)"/><path class="cls-1" d="M87.67,100.3c-.09,16.1.68,29.48.68,29.48S63.5,136.1,65.74,131c1.26-2.87,1.1-23.43.58-43.33-.11-3.78-.22-7.53-.34-11.14-.37-11.08-.78-20.76-1.06-25.39-.81-14,.61-36.25,15.28-36.66S94.05,38.73,90,64.19a219.07,219.07,0,0,0-2.17,27.52C87.73,94.62,87.69,97.5,87.67,100.3Z" transform="translate(-43.27 -12.45)"/><path d="M77.65,15c-.56.46-1.24.69-1.78,1.2A19.26,19.26,0,0,0,74.2,17.9c-.52.61-1,1.28-1.46,1.91a6,6,0,0,0-1,1.5c-.27.67-.56,1.35-.8,2a14.07,14.07,0,0,0-.47,2.51,27.24,27.24,0,0,0-.69,5,.1.1,0,0,0,.19,0,34.35,34.35,0,0,1,.83-5,14.68,14.68,0,0,1,.43-2.29c.23-.7.55-1.41.83-2.09a7.15,7.15,0,0,1,1.07-1.59c.49-.63.91-1.3,1.44-1.88s1-1.07,1.52-1.56,1.22-.74,1.76-1.22c.15-.13-.06-.33-.21-.21Z" transform="translate(-43.27 -12.45)"/><path d="M81.6,14.79c.14.42.52.6.83.88a7.86,7.86,0,0,1,1.34,1.69,15.71,15.71,0,0,1,1.68,4,17.89,17.89,0,0,1,.76,4.48c.06,1.55,0,3.11.05,4.66a.09.09,0,1,0,.18,0c.13-3,.29-6.09-.61-9a16.07,16.07,0,0,0-1.44-3.75,14.42,14.42,0,0,0-1.09-1.59,6.21,6.21,0,0,0-.71-.74c-.25-.21-.61-.36-.73-.69-.06-.16-.32-.09-.26.07Z" transform="translate(-43.27 -12.45)"/><g id="face"><ellipse cx="74.48" cy="38.86" rx="3.07" ry="3.25" transform="translate(-45.71 -7.36) rotate(-3.85)"/><ellipse cx="82.75" cy="39.19" rx="3.07" ry="3.25" transform="translate(-45.71 -6.81) rotate(-3.85)"/><path d="M75.88,45.17a4.05,4.05,0,0,1,1.24-.06,1.76,1.76,0,0,1,1.25,2.33c-.57,2-3.07,3.25-4.86,3.26a12.18,12.18,0,0,1-3.28-.5,1.55,1.55,0,0,1-.83-1.06c-.2-.79.84-1.57,1.35-2A7.37,7.37,0,0,1,73,45.82a10.08,10.08,0,0,1,2.1-.52Z" transform="translate(-43.27 -12.45)"/><path d="M78.64,46.14a2.8,2.8,0,0,1,2.22-1.37,4,4,0,0,1,2.16.64,7.68,7.68,0,0,1,3.11,3.18,1.54,1.54,0,0,1,.19,1.08,1.15,1.15,0,0,1-.7.71,3.62,3.62,0,0,1-1.88.06L80.81,50a5.85,5.85,0,0,1-1.43-.34,1.78,1.78,0,0,1-1.19-1.43A3.36,3.36,0,0,1,78.64,46.14Z" transform="translate(-43.27 -12.45)"/><path d="M88.22,47.31c0,.32.17.62.22.94a3.17,3.17,0,0,1,0,1.19,11.15,11.15,0,0,1-.68,2.12c0,.09.09.17.13.08a11.84,11.84,0,0,0,.78-2.13,3.33,3.33,0,0,0,.09-1.13c0-.37-.21-.71-.25-1.07,0-.15-.26-.16-.24,0Z" transform="translate(-43.27 -12.45)"/><path d="M67.76,47.07a2.85,2.85,0,0,0-.39,2.51A6,6,0,0,0,67.83,51a2.3,2.3,0,0,0,.88,1.07c.09.06.22-.09.12-.16a2.34,2.34,0,0,1-.75-1,6,6,0,0,1-.39-1.31,2.8,2.8,0,0,1,.37-2.23c.19-.2-.11-.5-.3-.3Z" transform="translate(-43.27 -12.45)"/><path d="M76.24,51.73a3.49,3.49,0,0,1,.65,0l.6,0a8.12,8.12,0,0,0,1-.13c.34-.07.68-.11,1-.18l.52-.12c.17,0,.34,0,.47-.15s0-.09,0-.12c-.22-.15-.65,0-.9.08s-.72.1-1.07.17a6.14,6.14,0,0,1-1,.12l-.56,0a3.56,3.56,0,0,1-.65,0c-.34-.06-.3.46,0,.38Z" transform="translate(-43.27 -12.45)"/></g><path d="M71.32,58.69a36.76,36.76,0,0,0,0,4.81c.08.73.2,1.42.21,2.16s0,1.73,0,2.59a17.89,17.89,0,0,0,.06,2.43c.1.72.29,1.42.4,2.14a16.19,16.19,0,0,1,.15,2.51,10.1,10.1,0,0,1,0,1.23c0,.36-.14.71-.17,1.07,0,.11.15.11.17,0,0-.36.16-.69.2-1a8.68,8.68,0,0,0,0-1.14,19.84,19.84,0,0,0-.1-2.31c-.09-.72-.27-1.42-.39-2.13a16.78,16.78,0,0,1-.11-2.75,29.14,29.14,0,0,0-.15-4.48,35.88,35.88,0,0,1,0-5.08.12.12,0,0,0-.24,0Z" transform="translate(-43.27 -12.45)"/><path d="M80.53,60.32c0,1.17,0,2.34,0,3.52a11,11,0,0,0,.13,1.62,16.48,16.48,0,0,1,.06,2q0,3.76,0,7.54c0,2.42,0,4.85,0,7.27a27.51,27.51,0,0,1-.2,3.63,11.85,11.85,0,0,0,0,1.46,11.47,11.47,0,0,1-.31,2,19.35,19.35,0,0,0-.12,3.57c0,1.42,0,2.83,0,4.25a.07.07,0,0,0,.14,0q0-1.83,0-3.66a26.14,26.14,0,0,1,0-3.54c.08-.62.23-1.22.33-1.83a7.33,7.33,0,0,0,0-1.48c0-1.16.23-2.32.23-3.5,0-4.92,0-9.85,0-14.77,0-.68,0-1.36,0-2s-.16-1.29-.2-2c-.08-1.35,0-2.74,0-4.1a.08.08,0,0,0-.16,0Z" transform="translate(-43.27 -12.45)"/><path d="M88.85,55.23a7.69,7.69,0,0,1-.44,1.59,12.39,12.39,0,0,1-.54,1.59,22.52,22.52,0,0,0-.94,2.88,26,26,0,0,0-.65,3.13c-.15.94-.37,1.9-.45,2.85a14.63,14.63,0,0,1-.16,1.61c-.11.53-.25,1-.32,1.58A31.85,31.85,0,0,1,85,73.7a23,23,0,0,0-.2,3c0,.52-.18,1-.19,1.55s0,1.09,0,1.63a.1.1,0,1,0,.19,0c0-.54,0-1.09,0-1.63s.15-1,.21-1.55,0-1.06,0-1.59a8.5,8.5,0,0,1,.31-1.79c.23-1.06.16-2.17.36-3.25.09-.48.23-1,.32-1.44s.06-1,.11-1.44a37,37,0,0,1,1.22-6.27c.16-.53.28-1.08.45-1.6s.41-.93.58-1.41.27-.95.41-1.42a3.69,3.69,0,0,0,.3-1.25.11.11,0,0,0-.22,0Z" transform="translate(-43.27 -12.45)"/><path d="M80.48,105.32a.63.63,0,0,0-.21-.36.11.11,0,0,0-.19.08c0,.92,0,1.85,0,2.77s.19,1.67.2,2.52a15,15,0,0,0,.24,2.5,13.86,13.86,0,0,1,.18,2.88c0,1.82,0,3.64,0,5.46a13.67,13.67,0,0,0,.18,2.48c.08.47,0,.94.08,1.41s.16,1,.18,1.46a.09.09,0,1,0,.18,0,6.58,6.58,0,0,0-.08-1.09c-.07-.54,0-1.07-.08-1.61s-.19-.8-.22-1.21,0-.89,0-1.32c0-1.86,0-3.72,0-5.58a10.43,10.43,0,0,0-.08-2.37,17.77,17.77,0,0,1-.33-2.9c0-.88-.16-1.75-.2-2.63s0-1.85,0-2.77l-.15.11.17.21c0,.08.18,0,.15,0Z" transform="translate(-43.27 -12.45)"/><path d="M72.55,84.56a56.83,56.83,0,0,0-.23,7.15c0,2.48,0,5,0,7.43a29.14,29.14,0,0,0,0,3.62,24.53,24.53,0,0,1,.16,3.32c0,1.15.09,2.26.14,3.41,0,.54,0,1.08.08,1.62a10.07,10.07,0,0,1,.19,1.73,6.11,6.11,0,0,0,.13,1.6,12,12,0,0,1,.08,2.07,12.62,12.62,0,0,1-.11,2,6.89,6.89,0,0,1-.18,1,6.13,6.13,0,0,0-.26.83c0,.09.11.13.13,0,.12-.5.36-1,.46-1.46a10,10,0,0,0,.23-1.54,13.67,13.67,0,0,0-.14-3.26,8.64,8.64,0,0,1,0-1.76c0-.56-.2-1.09-.24-1.65s0-1.15-.07-1.73-.13-1.2-.13-1.82c0-1.13.09-2.29,0-3.42,0-.48-.17-1-.2-1.45,0-.64,0-1.3,0-2,0-2.53,0-5,0-7.57a73.32,73.32,0,0,1,.18-8.26c0-.15-.22-.15-.23,0Z" transform="translate(-43.27 -12.45)"/><path d="M70.1,124.08c0,2.3,0,4.62,0,6.92a.09.09,0,0,0,.18,0c.07-2.3,0-4.62,0-6.92a.12.12,0,0,0-.24,0Z" transform="translate(-43.27 -12.45)"/><path d="M73.93,31.85c-.18-.09-.38-.14-.57-.22a.7.7,0,0,0-.26-.1h-.26a4.44,4.44,0,0,0-1.07.28c-.44.14-.88.24-1.32.4-.2.08-.41.17-.61.27a1.15,1.15,0,0,0-.54.4c0,.09,0,.23.1.25A1,1,0,0,0,70,33l.58-.23c.41-.15.83-.26,1.24-.39a8.62,8.62,0,0,1,1-.29c.14,0,.32,0,.45,0s.1,0,0,0,.09,0,.12,0a2.06,2.06,0,0,1,.35.12c.23.1.44-.23.2-.34Z" transform="translate(-43.27 -12.45)"/><path d="M82,31.84h-.21v.38l.14,0h.62c.4,0,.8,0,1.2,0a10.24,10.24,0,0,1,1.23.12,2.48,2.48,0,0,1,1,.32.53.53,0,0,1,.15.12l.05.09a.28.28,0,0,1,0,.17c0,.11,0,.21.09.29a.18.18,0,0,0,.19,0c.4-.11.2-.72,0-.94a1.83,1.83,0,0,0-.93-.49,9.47,9.47,0,0,0-2.71-.23l-.6,0-.25,0h-.09l-.09,0c-.23,0-.24.39,0,.38H82a.18.18,0,0,0,0-.36Z" transform="translate(-43.27 -12.45)"/><g id="left_arm" data-name="left arm"><path class="cls-2" d="M66.32,87.68c-7.6-2.67-17.48-6.29-17.4-13.22C49.19,48.27,41.85,33.88,50,33.3c9.53-.67,7.25,30.85,7.87,36.8.34,3.21,5,5.45,8.11,6.44C66.1,80.15,66.21,83.9,66.32,87.68Z" transform="translate(-43.27 -12.45)"/><path d="M52.45,39.88v-.15h-.33c-.06,2,1.1,3.77,1.65,5.59.15.48.34.94.5,1.42a8.71,8.71,0,0,1,.27,1.76,14.64,14.64,0,0,1,.21,1.62v1.62c0,2.4,0,4.81,0,7.21,0,1.14-.08,2.27-.14,3.41s0,2.44,0,3.66a.08.08,0,1,0,.16,0c0-1.22,0-2.44.11-3.66s.18-2.27.18-3.41c0-2.4,0-4.81,0-7.21A16,16,0,0,0,55,48.81c-.1-.54-.06-1.1-.17-1.64s-.36-1-.53-1.54c-.65-1.94-1.64-3.84-1.82-5.9,0-.21-.36-.21-.33,0v.15a.16.16,0,0,0,.31,0Z" transform="translate(-43.27 -12.45)"/><path d="M50.74,58.52c.16,1,.46,1.93.67,2.9.09.43.09.85.14,1.28s.18,1.08.23,1.63a20.75,20.75,0,0,1,.12,3.15c0,.5-.09,1-.13,1.5s-.15.94-.22,1.42c-.14.91,0,1.88-.06,2.8a7,7,0,0,0,.15,2.5,8.4,8.4,0,0,0,3,3.5c.71.59,1.49,1.07,2.2,1.66.44.36,1,.93,1.62.93.09,0,.12-.15,0-.17-.63-.12-1.13-.74-1.61-1.13-.63-.51-1.32-.92-1.94-1.45-1.2-1-2.64-2.08-3-3.69a9.8,9.8,0,0,1,0-2.65c0-.47,0-.94,0-1.41A6.93,6.93,0,0,1,52,69.78a20.37,20.37,0,0,0,.07-5.57,11.47,11.47,0,0,0-.19-1.29c-.07-.46-.06-.92-.14-1.38-.2-1-.54-2-.74-3.09,0-.17-.29-.1-.26.07Z" transform="translate(-43.27 -12.45)"/><path d="M49.31,43.21A4.68,4.68,0,0,0,49.68,45a12.15,12.15,0,0,1,.52,2.3,16.82,16.82,0,0,0,.13,2,8.68,8.68,0,0,1,.23,1c0,.4,0,.8,0,1.2a.11.11,0,0,0,.21,0,5.65,5.65,0,0,0-.06-2.05,15.61,15.61,0,0,1-.15-2.17,12.23,12.23,0,0,0-.45-2.08,5.76,5.76,0,0,1-.53-2c0-.17-.25-.17-.27,0Z" transform="translate(-43.27 -12.45)"/><path d="M53.14,37c.88-.63,1.83-1.15,2.69-1.81.13-.11,0-.33-.14-.24-.91.58-1.86,1.1-2.74,1.72-.2.14,0,.47.19.33Z" transform="translate(-43.27 -12.45)"/><path d="M47.69,36.54a7.71,7.71,0,0,0-1.06-.46,3.32,3.32,0,0,1-.51-.23c-.16-.1-.3-.21-.45-.31a3,3,0,0,0-.87-.34,2.13,2.13,0,0,1-.91-.36c-.11-.09-.27.06-.16.16.45.48,1.17.48,1.71.82a4.09,4.09,0,0,0,.9.53c.4.15.8.3,1.19.48.19.09.36-.18.16-.29Z" transform="translate(-43.27 -12.45)"/><path d="M57.49,50.65a1.82,1.82,0,0,1,.65-.33l.67-.26a3.53,3.53,0,0,0,1.24-.8c.1-.11,0-.24-.16-.16a5.21,5.21,0,0,1-1.31.71,3.92,3.92,0,0,0-1.3.63c-.14.12.07.33.21.21Z" transform="translate(-43.27 -12.45)"/><path d="M48.83,53.49A12.9,12.9,0,0,1,46.08,53a13.59,13.59,0,0,0-2.68-.42c-.15,0-.19.23,0,.26.92.2,1.85.38,2.77.59a11.24,11.24,0,0,0,2.7.41.18.18,0,0,0,0-.35Z" transform="translate(-43.27 -12.45)"/><path d="M51.1,42.09a15.14,15.14,0,0,1-1.26-1c-.38-.31-.64-.76-1.08-1-.13-.08-.25.09-.16.2a8.9,8.9,0,0,0,1,1.13,12.52,12.52,0,0,0,1.32,1c.21.13.4-.2.19-.33Z" transform="translate(-43.27 -12.45)"/><path d="M57.15,68.33a1.47,1.47,0,0,1,0-.42,1.28,1.28,0,0,1,.23-.45,6,6,0,0,1,.78-.81A22.72,22.72,0,0,1,60,65c.12-.09,0-.29-.12-.21a10.72,10.72,0,0,0-2.17,1.67,4.46,4.46,0,0,0-.79.89,1.3,1.3,0,0,0-.2.49,1.73,1.73,0,0,0,.07.5c0,.18.36.14.33,0Z" transform="translate(-43.27 -12.45)"/><path d="M58.57,83a18.93,18.93,0,0,0-2.55.82,19.94,19.94,0,0,0-2.37,1.26c-.13.08,0,.32.11.26.8-.34,1.54-.8,2.33-1.14a21.49,21.49,0,0,1,2.56-.88c.21-.06.12-.38-.08-.32Z" transform="translate(-43.27 -12.45)"/></g><path d="M67.94,101c-.42-.22-.86-.4-1.29-.61a8.6,8.6,0,0,1-1.23-.75c-.8-.55-1.67-1-2.52-1.47-.19-.11-.33.16-.16.28.79.57,1.67,1,2.48,1.55a9.48,9.48,0,0,0,1.23.73c.43.21.87.39,1.3.6.22.11.41-.22.19-.33Z" transform="translate(-43.27 -12.45)"/><path d="M68.07,58c-.09,0-.14-.16-.22-.22a1.69,1.69,0,0,0-.28-.12,5.11,5.11,0,0,1-.84-.43c-.55-.33-1.08-.7-1.66-1s-1.13-.48-1.69-.74a4.17,4.17,0,0,0-1.65-.5.17.17,0,0,0,0,.33,9,9,0,0,1,1.64.68c.56.26,1.14.47,1.69.75s1,.63,1.56.94a3.86,3.86,0,0,0,.74.35,1.22,1.22,0,0,1,.37.16.62.62,0,0,0,.24.13c.2,0,.35-.25.14-.35Z" transform="translate(-43.27 -12.45)"/><path d="M90.33,31.63a4.53,4.53,0,0,0,.59-.28,5.69,5.69,0,0,1,.9-.24c.59-.18,1.15-.46,1.74-.65A7.87,7.87,0,0,0,95,29.85a3,3,0,0,1,1.6-.48.12.12,0,0,0,0-.23,2.12,2.12,0,0,0-1.42.21,15.42,15.42,0,0,1-1.61.71c-.27.09-.55.16-.82.27s-.59.27-.9.38-.62.16-.93.26-.46.29-.71.39-.1.33.08.27Z" transform="translate(-43.27 -12.45)"/><path d="M88.37,20.41c.33-.31.64-.64.94-1s.58-.68.89-1a5.14,5.14,0,0,0,.79-.89,9.69,9.69,0,0,1,.6-1c.08-.11,0-.25-.15-.15a3.77,3.77,0,0,0-.65.89,6.8,6.8,0,0,1-.85.93c-.63.64-1.17,1.36-1.8,2-.15.16.08.39.23.24Z" transform="translate(-43.27 -12.45)"/><path d="M71.91,83.25c.33-.32.64-.64.94-1s.58-.68.89-1a5.14,5.14,0,0,0,.79-.89,10.93,10.93,0,0,1,.6-1c.08-.1,0-.24-.15-.15a3.63,3.63,0,0,0-.65.9,6.8,6.8,0,0,1-.85.93c-.63.64-1.17,1.36-1.8,2a.17.17,0,0,0,.23.24Z" transform="translate(-43.27 -12.45)"/><path d="M86.56,18.87c0-.85,0-1.7,0-2.55a24.06,24.06,0,0,0-.06-2.55.09.09,0,0,0-.18,0,24.06,24.06,0,0,0-.06,2.55c0,.85,0,1.7,0,2.55a.14.14,0,0,0,.28,0Z" transform="translate(-43.27 -12.45)"/><path d="M79.23,16.22a.93.93,0,0,0-.16-.44,1,1,0,0,1-.23-.44c0-.22,0-.44-.12-.66s-.12-.41-.19-.61a1.77,1.77,0,0,0-.56-.85c-.22-.17-.58-.36-.61-.67a.11.11,0,0,0-.21,0,.8.8,0,0,0,.37.71c.12.11.25.2.35.31a1.65,1.65,0,0,1,.28.5c.08.2.14.41.21.62s.08.43.12.65a1,1,0,0,0,.21.49,1.09,1.09,0,0,1,.26.42.14.14,0,0,0,.28,0Z" transform="translate(-43.27 -12.45)"/><path d="M69.86,21.7l0,.13c0,.11.14.15.16,0,.07-.35.17-.71.22-1.07a7,7,0,0,0,0-1.21c0-.92,0-1.85-.06-2.76a.09.09,0,0,0-.17,0c-.08.91-.06,1.84-.06,2.76a7.18,7.18,0,0,1,0,1.31,2.67,2.67,0,0,0-.09,1l.16,0,0-.13a.06.06,0,0,0-.12,0Z" transform="translate(-43.27 -12.45)"/><path d="M68.29,27.9a5.92,5.92,0,0,0-2.69,1.21,2.54,2.54,0,0,1-.64.37,3.78,3.78,0,0,0-.56.21.9.9,0,0,0-.31.41c-.11.21-.4.32-.58.49s0,.28.16.2a4.65,4.65,0,0,0,.56-.34c.14-.12.17-.33.31-.44a2.86,2.86,0,0,1,.58-.21,2.59,2.59,0,0,0,.58-.34,7.45,7.45,0,0,1,2.63-1.3c.14,0,.11-.28,0-.26Z" transform="translate(-43.27 -12.45)"/><path d="M90.7,40.6a13.61,13.61,0,0,1,2.9.41,5.65,5.65,0,0,1,1.3.34,1.24,1.24,0,0,0,.92.24c.13,0,.11-.24,0-.23-.38,0-.64-.3-1-.42a5.44,5.44,0,0,0-.7-.15l-.66-.16a12.74,12.74,0,0,0-2.75-.31.14.14,0,0,0,0,.28Z" transform="translate(-43.27 -12.45)"/><path d="M80.5,57c.19,0,.25.23.33.38a2.82,2.82,0,0,0,.43.55c.19.21.39.4.58.61s.34.42.53.63a11.46,11.46,0,0,0,1.15,1.05,6.69,6.69,0,0,0,1,1,.12.12,0,0,0,.14-.19,13.65,13.65,0,0,0-.94-1.19,10.19,10.19,0,0,1-1.21-1.16c-.38-.45-.81-.85-1.19-1.29s-.35-.75-.82-.73a.18.18,0,0,0,0,.35Z" transform="translate(-43.27 -12.45)"/><path d="M87.68,68.49c.67-.26,1.31-.59,2-.89s1.46-.57,2.2-.84,1.19-.47,1.8-.67A3.14,3.14,0,0,0,95,65.37c.08-.08,0-.2-.13-.12a4,4,0,0,1-1.57.65c-.62.17-1.21.44-1.82.65a19.49,19.49,0,0,0-1.84.72c-.69.33-1.37.68-2.07,1-.16.06-.09.31.07.25Z" transform="translate(-43.27 -12.45)"/><g id="right_arm" data-name="right arm"><path class="cls-1" d="M102.14,94.12a6.4,6.4,0,0,1-2.41,3.54c-1.66,1-3.74.42-5.68.41a10,10,0,0,0-5.94,1.9l-.44.33c0-2.8.06-5.68.14-8.59,1.68-1,3.76.5,5.44-1a5.37,5.37,0,0,0,1.35-3.08l1.05-5.25a10.77,10.77,0,0,1,2-5c1.18-1.37,3.44-2,4.84-.85a5,5,0,0,1,1.39,3.45A32.38,32.38,0,0,1,102.14,94.12Z" transform="translate(-43.27 -12.45)"/><path d="M91,93.22c0,.73,1.61.37,2,.23s.63-.28,1-.37a6.13,6.13,0,0,0,1-.24,3.18,3.18,0,0,0,1.32-1A4.86,4.86,0,0,0,96.79,90c.14-.75.23-1.49.3-2.25s.29-1.57.38-2.36c0-.42.12-.81.2-1.22a2.15,2.15,0,0,1,.19-.84c.07-.09-.06-.22-.15-.15-.31.21-.33.63-.42,1A15.48,15.48,0,0,0,97,86c-.24,1.41-.32,2.82-.58,4.22a2.82,2.82,0,0,1-.7,1.7,3.81,3.81,0,0,1-.84.52,5.07,5.07,0,0,1-1,.25,11,11,0,0,1-1.51.47c-.26,0-.86.11-1.06-.08a.16.16,0,0,0-.28.12Z" transform="translate(-43.27 -12.45)"/><path d="M101.85,80l-.12-.11a.09.09,0,0,0-.13,0c-.32.25-.15,1-.13,1.36,0,.79.16,1.56.17,2.35s.15,1.53.18,2.3-.1,1.58-.14,2.38c0,.12.21.16.23,0a15.93,15.93,0,0,0,.21-2.18c0-.77-.13-1.53-.16-2.3s-.11-1.55-.17-2.33c0-.27-.05-.54-.06-.8a4,4,0,0,0,0-.77l-.14.11.15.09c.07,0,.16-.06.09-.13Z" transform="translate(-43.27 -12.45)"/><path d="M100,92.09a2.31,2.31,0,0,1-.4,1.29,3.33,3.33,0,0,1-.78,1.11,4.72,4.72,0,0,1-2.73.79c-1,.14-1.91.37-2.87.53a4.69,4.69,0,0,0-2.16.56c-.09.07,0,.22.12.16a3.11,3.11,0,0,1,1.27-.33c.54-.08,1.09-.17,1.62-.27,1.1-.22,2.2-.35,3.31-.5a3.08,3.08,0,0,0,2-1.14,3.52,3.52,0,0,0,.88-2.24c0-.16-.32-.13-.3,0Z" transform="translate(-43.27 -12.45)"/><path d="M102.56,78.37a19.44,19.44,0,0,1,2.75-1.62,8.21,8.21,0,0,1,2.86-1,.15.15,0,0,0,0-.29,6.62,6.62,0,0,0-2.89.91,19.35,19.35,0,0,0-2.91,1.72c-.19.14,0,.46.19.32Z" transform="translate(-43.27 -12.45)"/><path d="M100.66,76.64l0,.06c-.07.26.34.37.39.11a2.7,2.7,0,0,0,0-.75c0-.25,0-.5-.06-.76a4.67,4.67,0,0,0-.21-1.49.1.1,0,0,0-.2,0c0,.26,0,.51,0,.76s0,.47,0,.71a4.22,4.22,0,0,0,0,.71c0,.25,0,.5.07.75l.4-.06,0-.06a.18.18,0,0,0-.35,0Z" transform="translate(-43.27 -12.45)"/><path d="M97.73,79.87a6.82,6.82,0,0,1-.88-.37,7.78,7.78,0,0,0-.74-.42c-.28-.12-.58-.18-.85-.31a2,2,0,0,0-.4-.16,1.29,1.29,0,0,1-.39-.08c-.11-.07-.21.07-.13.17a.52.52,0,0,0,.3.18,1.93,1.93,0,0,1,.38.19,5.87,5.87,0,0,0,.9.37c.28.13.53.31.81.45a8.79,8.79,0,0,0,.9.34c.23.08.32-.28.1-.36Z" transform="translate(-43.27 -12.45)"/><path d="M99.73,96.75a10,10,0,0,0,1.63-.15c.61,0,1.22,0,1.83,0a.08.08,0,0,0,0-.15c-.31,0-.62,0-.93,0s-.6,0-.9,0c-.55,0-1.09.19-1.63.25a.07.07,0,0,0,0,.14Z" transform="translate(-43.27 -12.45)"/></g><path d="M87,85.2a.43.43,0,0,1-.25,0l.06.06v0l-.06.14c.15-.08.25-.28.37-.41a5,5,0,0,1,.48-.44,11.21,11.21,0,0,1,1.07-.73c.73-.44,1.35-1,2.08-1.46.09,0,.06-.22,0-.2a2.44,2.44,0,0,0-1.15.59,10.65,10.65,0,0,1-1.11.79,9.69,9.69,0,0,0-1.11.79,2.79,2.79,0,0,0-.46.45,1,1,0,0,0-.31.51.12.12,0,0,0,.16.12s.11,0,.16,0a.86.86,0,0,0,.17,0,.08.08,0,1,0,0-.15Z" transform="translate(-43.27 -12.45)"/><path d="M86.79,83.57c.18.06.27.24.41.36s.36.26.54.39a11.7,11.7,0,0,1,1.12.88,8.9,8.9,0,0,0,1,.76,2.06,2.06,0,0,1,.77.6.13.13,0,0,0,.24-.07c0-.34-.37-.57-.64-.75a10.37,10.37,0,0,1-1.07-.81A13.75,13.75,0,0,0,87.91,84a3.53,3.53,0,0,1-.6-.41.88.88,0,0,0-.45-.29.13.13,0,0,0-.07.26Z" transform="translate(-43.27 -12.45)"/></svg>