<svg id="Layer_1" data-name="Layer 1" xmlns="http://www.w3.org/2000/svg" width="60.73" height="124.87" viewBox="0 0 60.73 124.87"><defs><style>.cls-1,.cls-2{fill:none;stroke:#000;stroke-miterlimit:10;stroke-width:2px;}.cls-1{stroke-linecap:round;}.cls-3{fill:#606060;}</style></defs><path class="cls-1" d="M1055.52,525.35a19.7,19.7,0,0,0,1.07-6.07c.09-1.77-.06-3.87,0-6.2,0-1.92.06-4,.06-6.2,0-2,.06-4.05,0-6.2s-.05-4.08-.08-6.2-.42-4.1-.46-6.19,0-4.14-.1-6.2c0-1.87,0-3.73,0-5.57s-.32-3.74-.38-5.57c-.07-2.18.23-4.32.14-6.36-.1-2.23-.57-4.34-.67-6.33-.11-2.32.08-4.46,0-6.36-.12-2.61-.09-4.77-.09-6.34,0-2.14-.27-4.23-.19-6.25s.33-4.24.51-6.23c.2-2.17.64-4.22,1-6.16a53.91,53.91,0,0,1,1-6.18,27,27,0,0,1,2.48-5.78,13.58,13.58,0,0,1,4.36-4.51,10.76,10.76,0,0,1,6-1.36c2.21,0,4.19.28,5.69,1.72a12.76,12.76,0,0,1,3.09,5.3,38.06,38.06,0,0,1,1.08,6c.26,1.8.39,3.81.52,6.06.11,1.86.37,3.88.39,6.08,0,1.9-.38,3.92-.42,6.08,0,1.92-.13,3.94-.21,6.08-.08,1.93.23,4,.11,6.1-.1,1.94-.54,4-.68,6.06-.11,1.77-.24,3.61-.41,5.5s0,3.65-.23,5.52-.19,3.66-.36,5.51-.31,3.66-.43,5.5-.66,3.66-.71,5.5c-.08,2.9,0,5.79,0,8.59,0,2-.21,4-.19,5.9s.22,4,.25,5.9c0,2.1,0,4.09,0,5.9.07,2.23.08,4.22.14,5.9.15,3.69.57,2.93.74,5.87" transform="translate(-1035.41 -401.77)"/><path d="M1078,517.91c.78,0,1.56,0,2.34,0a12.5,12.5,0,0,1,2,.43,14,14,0,0,0,4.18.41,13.33,13.33,0,0,0,2.08-.37c.75-.16,1.5-.3,2.25-.48s1.42-.39,2.14-.54a10.2,10.2,0,0,1,2.21,0,1,1,0,0,0,0-2,15.57,15.57,0,0,0-2.16,0,20.4,20.4,0,0,0-2.16.49q-1.1.28-2.22.51a14.2,14.2,0,0,1-2.14.42,12.94,12.94,0,0,1-4-.42,16.6,16.6,0,0,0-4.55-.45,1,1,0,0,0,0,2Z" transform="translate(-1035.41 -401.77)"/><path d="M1036,515.68l-.09,0c-.88.41-.47,1.54.24,1.83a11.25,11.25,0,0,0,2.27.7,6.8,6.8,0,0,0,1.27.1,10.6,10.6,0,0,1,1.38.16,20.33,20.33,0,0,0,5-.42c.82-.1,1.58-.38,2.39-.52s1.81-.14,2.7-.25,1.73-.29,2.6-.36a22.28,22.28,0,0,1,2.71,0c1.29.06,1.29-2,0-2a26.38,26.38,0,0,0-5.1.31c-.86.13-1.73.15-2.59.25s-1.67.35-2.53.53-1.66.23-2.48.35a11.34,11.34,0,0,1-2.4.14c-.41,0-.81-.14-1.23-.18s-.81,0-1.22,0a10.68,10.68,0,0,1-2.27-.71l.24,1.83.09-.05c1.17-.54.15-2.27-1-1.72Z" transform="translate(-1035.41 -401.77)"/><path class="cls-2" d="M1056.17,482.05c-1.74-.61-3.55-1.2-5.38-1.94a44.89,44.89,0,0,1-5.21-2.53,17.85,17.85,0,0,1-4.51-3.56,7.51,7.51,0,0,1-2.15-5.16c0-1.06-.31-3.28-.52-6-.14-1.83-.28-3.9-.36-6s0-4.09,0-6a27.78,27.78,0,0,1,.77-6c.67-2.5,1.77-4.14,3.66-4.17,2.07,0,3.24,1.77,4,4.45a32.25,32.25,0,0,1,1,6.41c.13,2.18.13,4.44.14,6.52,0,2.62-.13,5,0,6.5s1.65,3,3.33,4.09a20.91,20.91,0,0,0,4.84,2.36" transform="translate(-1035.41 -401.77)"/><path class="cls-2" d="M1077.77,486.13c1.69-.95,3.75.52,5.43-1a5.49,5.49,0,0,0,1.3-3.13c.35-1.75.76-3.49,1.11-5.24s.71-3.67,1.89-5,3.43-2,4.84-.8a4.94,4.94,0,0,1,1.4,3.42,32,32,0,0,1,0,7.19,32.36,32.36,0,0,1-1.67,7,6.35,6.35,0,0,1-2.44,3.5c-1.66,1-3.73.48-5.67.47a10,10,0,0,0-5.94,1.87l-.49.33" transform="translate(-1035.41 -401.77)"/><path d="M1058.75,440l0,0c-1.42,2.06-2.8,3.58-.38,5.48.42-.74-.2-1.71.23-2.46.54-.95,1.7-2.51,1.09-.3.57.1.59-.82,1-1,.71.09,1.84-1.32,1.59,0a.7.7,0,0,0,.8-.32c.55-1.15,2,.56,2.48-.73.7-.69.71-1.8,1.38-2.53a.73.73,0,1,0-1.2-.82c-.6.89-.28,2.42-1.17,3,.08-.89,2.16-4.06-.24-3.33-.32.37-.78.25-1,.67-.46-.21-.8.17-1.19.33,0,.45-.43.54-.75.69-.22.41-.79,0-1,.37s-.79.14-1.11.35" transform="translate(-1035.41 -401.77)"/><path d="M1058.78,439.93l0,0a0,0,0,0,0-.06,0,8.2,8.2,0,0,0-1.68,2.95,2.74,2.74,0,0,0,1.29,2.59s.08,0,.09,0a2.61,2.61,0,0,0,.1-1.44,2,2,0,0,1,.38-1.44,4.29,4.29,0,0,1,.63-.84c.17-.15.25-.19.28.07a2.79,2.79,0,0,1-.17.85,0,0,0,0,0,.05.06c.65.06.61-.88,1.19-1a2.32,2.32,0,0,0,.73-.29,2,2,0,0,1,.37-.21c.36-.11.35.15.3.45,0,0,0,.06,0,.06a.78.78,0,0,0,.85-.34c.31-.46.64-.43,1.14-.31a1.7,1.7,0,0,0,.89.07c.3-.1.45-.44.62-.67a7.32,7.32,0,0,0,.72-1.49,6.17,6.17,0,0,1,.51-.85,1,1,0,0,0,.16-.5.77.77,0,0,0-1.31-.58c-.9.83-.3,2.43-1.31,3.2l.1.05a7.25,7.25,0,0,1,.6-1.67c.17-.43.46-1.08.25-1.54s-.85-.35-1.19-.18c-.1.06-.18.16-.29.22s-.26.09-.39.15-.26.22-.43.26a2,2,0,0,0-.48.05c-.22.09-.42.24-.64.33a.08.08,0,0,0,0,.05c0,.43-.42.51-.72.65a1.11,1.11,0,0,1-.44.18,2.81,2.81,0,0,0-.29,0c-.31.05-.43.35-.77.39a1.62,1.62,0,0,0-.65.14c-.06,0,0,.11,0,.08.37-.2.77-.08,1.11-.36s.42-.12.73-.17a.53.53,0,0,0,.25-.12c.23-.14.63-.25.77-.5s.05-.22.19-.33a1.15,1.15,0,0,1,1-.24s0,0,.06,0c.22-.29.65-.38,1-.57a1.1,1.1,0,0,1,.85-.15c.43.15.27.74.18,1.06a16.44,16.44,0,0,0-.81,2.29.07.07,0,0,0,.1.06c.8-.62.66-1.74,1-2.6a1.1,1.1,0,0,1,.66-.79.64.64,0,0,1,.78.54c0,.35-.2.58-.37.85a4,4,0,0,0-.39.81,9.29,9.29,0,0,1-.35.87c-.13.26-.33.48-.48.73-.26.45-.76.3-1.18.19a1.31,1.31,0,0,0-.83,0,.66.66,0,0,0-.29.23c-.11.15-.15.28-.32.38s-.39.15-.45,0,.07-.42-.2-.46-.6.25-.8.36-.71.12-1,.4a2.8,2.8,0,0,0-.25.41.78.78,0,0,1-.25.32c-.31.19-.16-.14-.12-.29s.19-1.06-.3-.68a3.27,3.27,0,0,0-.62.76,2.63,2.63,0,0,0-.52,1.06,4.51,4.51,0,0,0,0,1,3.85,3.85,0,0,1,0,.48.92.92,0,0,1-.06.33c-.11.13-.13.05-.24,0a2.67,2.67,0,0,1-.77-.87,2.12,2.12,0,0,1-.29-.92,3.07,3.07,0,0,1,.54-1.72,17.88,17.88,0,0,0,1.09-1.67,0,0,0,0,0,.06-.06Z" transform="translate(-1035.41 -401.77)"/><path d="M1067.64,438.12a10,10,0,0,0,1.47,3.19c.59.05-.09-.88.41-.93.69.24,2.34,2.3,2.66,1.1.07-.2.37-.14.56-.05,1,.31.4-.64,0-.9a5.94,5.94,0,0,1-.81-2c-.38-.84-4.44-1.94-4.38-.41" transform="translate(-1035.41 -401.77)"/><path d="M1067.57,438.14a8.88,8.88,0,0,0,1.33,3c.09.14.12.29.3.26a.27.27,0,0,0,.2-.11c.11-.19,0-.45,0-.65,0-.38.48,0,.62.14l.74.61c.29.23.85.73,1.25.5a.59.59,0,0,0,.17-.18,1.56,1.56,0,0,1,.06-.15c.12-.2.3-.13.48-.06s.48.15.59-.05-.06-.41-.15-.55a6.11,6.11,0,0,1-.65-.78,12.18,12.18,0,0,1-.48-1.48.91.91,0,0,0-.33-.44,4.4,4.4,0,0,0-1.46-.67c-.66-.19-2.82-.66-2.77.6a.07.07,0,0,0,.14,0c0-1.05,1.83-.66,2.42-.51a5.15,5.15,0,0,1,1.42.57,1.06,1.06,0,0,1,.4.36,8.23,8.23,0,0,1,.38,1.22,1.8,1.8,0,0,0,.55.89,1.12,1.12,0,0,1,.43.62c0,.36-.59,0-.76,0s-.27.19-.42.38c-.31.39-1-.28-1.29-.48s-.44-.37-.68-.55a1.8,1.8,0,0,0-.49-.32c-.19,0-.3.12-.31.29s.12.78-.11.58a1.21,1.21,0,0,1-.23-.38c-.07-.1-.13-.21-.19-.31q-.23-.39-.42-.78a6.17,6.17,0,0,1-.59-1.62c0-.1-.16-.06-.14,0Z" transform="translate(-1035.41 -401.77)"/><path d="M1072.32,438.28c-.16,1.32,1.38,4.3,2.77,3.36.14-.65.8-.05.66.4,0,.45.47.61.82.77.52.34.44,1.3.82,1.79.68.91,1.28-.4.6-.91,0-1.13-1-1.48-.6-2.73-1.43-.14.09-1-.83-1.63l.15,0c-.82-.67-.74.17-.83.76-.43.41-.2-.88-.22-.92-.12-.23-.3-.42-.26-.71-.33-.68-.86.05-.94.68-.26-.34-.52-.84-1-.37-.79-1-1.32-1.18-1.16.39" transform="translate(-1035.41 -401.77)"/><path d="M1072.28,438.28a4.12,4.12,0,0,0,.92,2.73c.41.55,1.26,1.24,1.94.65.12-.1-.18-.27.23-.26a.44.44,0,0,1,.16.1c.17.16.15.32.17.53a.71.71,0,0,0,.27.52c.23.2.57.24.74.49a2.62,2.62,0,0,1,.33.95c.1.37.31,1,.78,1s.53-.34.54-.64a.94.94,0,0,0-.22-.62c-.16-.22-.15-.56-.26-.82s-.29-.53-.4-.81a1.68,1.68,0,0,1,0-1.13.06.06,0,0,0-.06-.08c-.23,0-.59-.06-.56-.37,0-.15.08-.31.11-.46a.71.71,0,0,0-.34-.79l-.06.13.15,0c.06,0,.13-.07.07-.12-.33-.25-.72-.43-.85.09,0,.11,0,.24-.06.36s0,.49-.15.3,0-.48,0-.63a.46.46,0,0,0-.08-.41,1.3,1.3,0,0,1-.14-.29c0-.07,0-.19,0-.26a.56.56,0,0,0-.2-.26c-.49-.32-.81.63-.86.94h.12c-.18-.24-.43-.71-.8-.57-.06,0-.15.12-.2.12s-.19-.19-.24-.25a2,2,0,0,0-.41-.36c-.7-.44-.62.74-.58,1.11,0,.08.13.08.12,0s-.15-1.1.22-1.08.66.52.84.74a.06.06,0,0,0,.08,0c.38-.38.63.07.85.35,0,0,.12.05.12,0,0-.24.26-1.05.65-.88.18.07.15.31.19.46a2.31,2.31,0,0,0,.18.35c.14.25,0,.62,0,.92s.21.33.36.12.06-.45.09-.61a.7.7,0,0,1,.09-.29c.16-.18.42.05.55.16l.08-.13-.15,0a.07.07,0,0,0-.06.13c.49.34.12.69.13,1.13s.42.46.74.5l-.07-.08a1.89,1.89,0,0,0,.11,1.4c.09.19.2.37.28.56a2.74,2.74,0,0,1,.15.4,3,3,0,0,0,.06.43c0,.09.17.15.22.25a.77.77,0,0,1,.07.37c0,.22-.15.54-.42.48-.59-.13-.63-1.14-.81-1.58a1.14,1.14,0,0,0-.31-.44c-.24-.19-.57-.22-.76-.49s0-.45-.14-.67a.61.61,0,0,0-.31-.32.26.26,0,0,0-.28,0c-.07.05-.08.12-.12.18a.5.5,0,0,1-.35.2,1.34,1.34,0,0,1-1.15-.49,4.14,4.14,0,0,1-1.19-3c0-.06-.09,0-.09,0Z" transform="translate(-1035.41 -401.77)"/><path d="M1064.89,433.36c3.08-1.2,1-6.56-2.13-5.39C1058.81,430.14,1059.88,435.19,1064.89,433.36Z" transform="translate(-1035.41 -401.77)"/><path d="M1070,430.81c-2.28,3.8,5.21,4.77,5.66,1C1075.47,428.29,1070.92,426.57,1070,430.81Z" transform="translate(-1035.41 -401.77)"/><path class="cls-3" d="M1064.1,429.93c0,.54.58.55,1,.57C1066.26,430.48,1063.7,427.47,1064.1,429.93Z" transform="translate(-1035.41 -401.77)"/><path class="cls-3" d="M1072.72,429.86c-.13.58.85,2,1.57,1.49C1074.49,430.5,1073.62,428.89,1072.72,429.86Z" transform="translate(-1035.41 -401.77)"/><path d="M1087.68,468.53l1.32,1c-.12-.1.13.1.16.12l.21.17.41.32a3.52,3.52,0,0,0,1.21.77c1.1.28,1.47-1,1.93-1.71.1-.15.23-.29.32-.45l0,.06.11-.13c.06-.08.13-.15.2-.23s.35-.4.54-.58.68-.56.74-1a1,1,0,0,0-.18-.86,1,1,0,0,0-.78-.39c-.68,0-1.15.6-1.58,1.08a8.79,8.79,0,0,0-.79,1,6.47,6.47,0,0,0-.72,1.5c0,.07,0,.14-.07.21s-.1.27,0,.07,0-.08,0,0l.1-.13a.8.8,0,0,1,.51-.2c-.13,0,.25.05.17,0l0,0c.19.08,0,0-.08-.06s-.33-.22-.5-.34c-.79-.58-1.58-1.15-2.41-1.67a.8.8,0,0,0-.81,1.38Z" transform="translate(-1035.41 -401.77)"/><path d="M1091.28,469.07l-.08-.15c0,.06,0,0,0-.05a2.81,2.81,0,0,1-.1-.31,3,3,0,0,1-.07-.32l0-.15c0,.07,0,.06,0,0,0-.43,0-.86-.07-1.29a5,5,0,0,0-.2-1.38,2.09,2.09,0,0,0-.81-1.12.4.4,0,0,0-.6.34c0,.19,0,.4,0,.59s0,.41,0,.62c0,.42,0,.85,0,1.27a6.41,6.41,0,0,0,.58,2.77.78.78,0,0,0,1.06.28.8.8,0,0,0,.28-1.06Z" transform="translate(-1035.41 -401.77)"/><path d="M1065.43,406.44c.82.77,1.67,1.36,2.51,2a4.81,4.81,0,0,0,1.46,1c1.17.37,1.86-.89,2.53-1.6.36-.38.75-.74,1.15-1.09.6-.52,1.32-1,1.9-1.5a1.06,1.06,0,0,0-1.28-1.65A9.54,9.54,0,0,0,1072,405c-.38.34-.75.69-1.1,1.06a18,18,0,0,0-1.2,1.42c-.07.09-.29.26-.32.36s.23-.16.1-.08.14-.06.15-.06c-.14,0,.21,0,.17,0s.13,0,.15,0l-.08,0s.23.14.12.05-.16-.09-.23-.13-.4-.29-.6-.44a15.12,15.12,0,0,0-2.87-1.82.74.74,0,0,0-1,.19.73.73,0,0,0,.06,1Z" transform="translate(-1035.41 -401.77)"/><path d="M1070.43,408.81a5.58,5.58,0,0,0,.19-1.73c0-.59.06-1.17.08-1.76a10.36,10.36,0,0,0,0-1.67,2.25,2.25,0,0,0-.76-1.79.64.64,0,0,0-.88.24,3.2,3.2,0,0,0-.14,1.71c0,.56,0,1.12,0,1.68s-.06,1.14-.07,1.7a3.56,3.56,0,0,0,.31,1.8.74.74,0,0,0,1.33-.18Z" transform="translate(-1035.41 -401.77)"/><path d="M1039.05,438.76a12.94,12.94,0,0,0,1.76,1.79,2.57,2.57,0,0,0,1.57.74c1.12,0,1.61-1.17,2.13-2l.29-.41,0-.07c.1-.13,0,0,0,0a1.92,1.92,0,0,0,.18-.22c.13-.16.27-.32.41-.47a2,2,0,0,0,.62-.87,1,1,0,0,0-1.23-1.23c-.46.09-.83.57-1.12.92a8.28,8.28,0,0,0-.67.89c-.27.39-.49.8-.73,1.21l-.14.22-.07.09c0,.1.2-.21.07-.08a.8.8,0,0,0-.13.13c.15-.2.22-.15.12-.1s.2-.08.12-.05.3,0,.09,0,.29.08.15,0l-.11,0c-.16,0,.2.11.1,0l-.11-.06a2.9,2.9,0,0,1-.29-.19l-.06,0c-.15-.11.14.11,0,0l-.18-.14-.44-.39-1.16-1a.88.88,0,0,0-1.24,1.24Z" transform="translate(-1035.41 -401.77)"/><path d="M1043.12,440.46a4.45,4.45,0,0,0,.21-1.71c0-.51.05-1,.08-1.54a13,13,0,0,0,0-1.53,7.86,7.86,0,0,0-.11-.83,2.1,2.1,0,0,0-.43-.84.63.63,0,0,0-1,.28,5.39,5.39,0,0,0,0,1.5c0,.5,0,1,0,1.52s0,1,0,1.5a4.58,4.58,0,0,0,0,.74,2,2,0,0,0,.22.91.67.67,0,0,0,1.14,0Z" transform="translate(-1035.41 -401.77)"/><path d="M1060.78,452.55c.08,2.35.61,4.64.75,7s-.15,4.83-.09,7.24.26,4.82.37,7.23.5,4.81.65,7.23c.3,4.78.51,9.55.57,14.35,0,2.38-.3,4.68-.47,7.05s0,4.8,0,7.19c0,2.71-.3,5.39-.48,8.08s-.08,5.49-.29,8.22c0,.69,1,.69,1.08,0,.15-2.41.07-4.82.17-7.24s.42-4.81.49-7.22-.07-4.83-.07-7.24.46-4.67.53-7c.14-4.78-.22-9.57-.47-14.34-.12-2.42-.42-4.8-.61-7.22s-.23-4.82-.32-7.23c-.11-2.71.11-5.4.07-8.11s-.69-5.28-.81-7.95c0-.7-1.13-.71-1.1,0Z" transform="translate(-1035.41 -401.77)"/><path d="M1071.35,451.86c.15,2.37.8,4.67.93,7s0,4.74,0,7.1-.35,4.84-.6,7.26c-.12,1.2-.22,2.41-.41,3.6s-.42,2.37-.62,3.56a46.31,46.31,0,0,0-.44,6.86c0,2.41-.32,4.8-.48,7.2s-.38,4.82-.54,7.24a55.53,55.53,0,0,0,.15,7.18c.18,2.68.61,5.31,1,8a25,25,0,0,1,.21,4.06c0,1.39-.16,2.77-.08,4.16a.52.52,0,0,0,1,0,56,56,0,0,0,.1-7.21c-.25-2.39-.74-4.75-.94-7.15a72,72,0,0,1-.36-7.19c0-2.41.35-4.81.49-7.21s.41-4.91.52-7.37,0-4.65.24-7,.87-4.73,1.09-7.13.55-4.86.67-7.3c.14-2.64.19-5.3.11-7.95a52.44,52.44,0,0,0-1.17-7.87.43.43,0,0,0-.83.11Z" transform="translate(-1035.41 -401.77)"/><path d="M1089.67,475.2a17.61,17.61,0,0,0-.46,3.39c-.08.86-.12,1.72-.14,2.58,0,1.34.21,2.93-.31,4.2s-2,1.73-3.19,2.16c-.76.28-1.52.53-2.29.77-1.09.33-2.24.56-3.3,1l.6.15-.09-.09a.55.55,0,0,0-.92.24l0,.13a.62.62,0,0,0,.75.75,28.38,28.38,0,0,0,4.83-1.49,12.22,12.22,0,0,0,3.36-1.65c1.92-1.49,1.54-4.05,1.59-6.2,0-.84.05-1.67.11-2.51.08-1.09.29-2.19.3-3.28a.42.42,0,0,0-.82-.11Z" transform="translate(-1035.41 -401.77)"/><path d="M1042.26,446a44.71,44.71,0,0,0,.13,7.13c.16,2.25.53,4.47.69,6.72.09,1.24.15,2.48.16,3.72a14,14,0,0,0,.31,3.41,9.76,9.76,0,0,0,3.11,4.73c2,1.8,4.47,3.11,6.65,4.72l.47-1.1-.17,0a.59.59,0,0,0-.32,1.14l.17.06a.61.61,0,0,0,.58-1c-3.1-2.72-7.94-4.16-9.31-8.46a11,11,0,0,1-.38-3.33c0-1.18-.06-2.35-.15-3.52-.15-2.13-.48-4.24-.68-6.38-.25-2.59-.1-5.2-.34-7.79a.46.46,0,0,0-.92,0Z" transform="translate(-1035.41 -401.77)"/><path d="M1069.08,408.74c-2.16.95-3.48,3.21-4.21,5.35a34.8,34.8,0,0,0-1,4c-.16.74-.32,1.48-.51,2.21a19.23,19.23,0,0,0-.58,2.23.47.47,0,0,0,.85.35,10.53,10.53,0,0,0,1.16-3.83c.28-1.37.53-2.76.92-4.1a11.71,11.71,0,0,1,1.29-3,8.57,8.57,0,0,1,2.56-2.42.46.46,0,0,0-.46-.79Z" transform="translate(-1035.41 -401.77)"/><path d="M1069.45,409.67a32.06,32.06,0,0,0,1.93,3.36,14.17,14.17,0,0,1,1.52,3.64c.18.77.27,1.56.42,2.34a6.38,6.38,0,0,1,.13,1.07,1.55,1.55,0,0,1,0,.31c-.05.22.07-.3-.06.15-.06.18-.1.2,0,0l.27-.2a.19.19,0,0,1-.1,0,.39.39,0,0,0-.18.65.69.69,0,0,0,1,0,1.57,1.57,0,0,0,.24-1.12c0-.85-.29-1.68-.41-2.51a12.56,12.56,0,0,0-1.57-4.31,17.84,17.84,0,0,0-2.66-3.79c-.28-.27-.64.08-.5.39Z" transform="translate(-1035.41 -401.77)"/><path d="M1063.73,444.08a8.44,8.44,0,0,0,2,.39,16.91,16.91,0,0,0,2.13.13,16.46,16.46,0,0,0,2.1-.14,3.65,3.65,0,0,0,2-.64.74.74,0,0,0-.32-1.22,2.38,2.38,0,0,0-1.09.14c-.32.08-.65.14-1,.19a13.74,13.74,0,0,1-1.81.11c-.64,0-1.28,0-1.92-.09a17,17,0,0,0-2-.16.66.66,0,0,0-.18,1.29Z" transform="translate(-1035.41 -401.77)"/></svg>