<?xml version="1.0" encoding="UTF-8"?><svg id="Layer_2" xmlns="http://www.w3.org/2000/svg" width="3000" height="2000" viewBox="0 0 3000 2000"><defs><style>.cls-1{stroke-width:8.67px;}.cls-1,.cls-2,.cls-3,.cls-4,.cls-5,.cls-6,.cls-7,.cls-8,.cls-9,.cls-10{stroke-miterlimit:10;}.cls-1,.cls-2,.cls-3,.cls-4,.cls-5,.cls-6,.cls-9,.cls-10{stroke:#060910;}.cls-1,.cls-3,.cls-11,.cls-9{fill:#dfefe9;}.cls-12{fill:#a7cbc1;}.cls-2,.cls-3,.cls-9{stroke-linecap:round;}.cls-2,.cls-4,.cls-6,.cls-7{stroke-width:7.59px;}.cls-2,.cls-7,.cls-8,.cls-10{fill:none;}.cls-3{stroke-width:6.07px;}.cls-4,.cls-5{fill:#f9b148;}.cls-13{letter-spacing:-.02em;}.cls-14{letter-spacing:-.01em;}.cls-15{font-family:FranklinGothic-Heavy, 'Franklin Gothic Heavy';font-size:27.92px;font-weight:800;}.cls-15,.cls-16,.cls-17,.cls-18,.cls-19{fill:#060910;}.cls-20{letter-spacing:-.03em;}.cls-16{font-size:28.95px;}.cls-16,.cls-17,.cls-18{font-family:Poppins-Bold, Poppins;font-weight:700;}.cls-21{letter-spacing:0em;}.cls-5{stroke-width:5.04px;}.cls-17{font-size:39.46px;}.cls-22{letter-spacing:0em;}.cls-6{fill:#cc3636;}.cls-7{stroke:#000;}.cls-8{stroke:#dfefe9;stroke-width:7.58px;}.cls-18{font-size:102.3px;}.cls-23{letter-spacing:-.01em;}.cls-9{stroke-width:4.13px;}.cls-10{stroke-width:2.5px;}.cls-24{fill:#5a9b5f;}.cls-25{letter-spacing:0em;}</style></defs><g id="Layer_1-2"><rect class="cls-12" width="3000" height="2000"/><rect class="cls-12" x="101.45" y="178.35" width="2797.11" height="1643.3" rx="37.02" ry="37.02"/><g><g><path class="cls-24" d="m2325.34,1819.65H680.76c12.76-17.07,34.55-29.17,54.52-38.82,51.4-24.84,103.04-49.77,156.76-68.82,14.22-5.04,28.57-9.67,43.11-13.78,101.39-28.64,208.07-30.94,313.41-33.05,106.11-2.12,212.29-4.25,318.33-.24,147.09,5.55,294.34,23.2,438.02,55.27,109.43,24.43,216.78,57.23,320.41,99.44Z"/><path class="cls-24" d="m1017.85,1819.65H157.91c-31.18,0-56.46-25.28-56.46-56.46v-263.86c10.38-.99,20.94-1.08,31.28-1.02,125.18.77,250.26,16.24,371.85,45.95,137,33.49,272.38,87.56,387.47,167.75,45.5,31.67,87.8,67.44,125.8,107.64Z"/><path class="cls-24" d="m2898.55,1352.73v410.45c0,31.18-25.28,56.46-56.46,56.46h-927.96c.14-.15.26-.3.39-.46,29.15-33.76,59.2-66.95,90.4-98.99,78.82-80.88,164.99-154.33,262.55-210.63,189.84-109.55,410.38-147.53,631.08-156.84Z"/></g><g><path class="cls-2" d="m891.35,1710.12c119.79-34.36,251.78-40.97,376.49-46.73,131.85-6.09,264.09-3.62,395.62,7.4,114.5,9.58,229.28,24.39,341.46,49.42"/><path class="cls-2" d="m101.45,1499.33c10.38-.99,20.94-1.08,31.28-1.02,125.18.77,250.26,16.24,371.85,45.95,137,33.49,272.38,87.56,387.47,167.75,45.5,31.67,87.8,67.44,125.8,107.64"/><path class="cls-2" d="m1914.13,1819.65c.14-.15.26-.3.39-.46,29.15-33.76,59.2-66.95,90.4-98.99,78.82-80.88,164.99-154.33,262.55-210.63,189.84-109.55,410.38-147.53,631.08-156.84"/></g></g><g><polygon class="cls-6" points="2820.71 1442.15 2820.71 1295.2 2729.46 1203.96 2671.4 1203.96 2692.73 1203.96 2634.66 1203.96 2543.41 1295.2 2543.41 1442.15 2820.71 1442.15"/><rect class="cls-8" x="2603.16" y="1311.5" width="151.87" height="122.82"/><line class="cls-8" x1="2679.1" y1="1309.72" x2="2679.1" y2="1436.22"/><rect class="cls-8" x="2655.6" y="1225.29" width="48.98" height="55.3"/><line class="cls-8" x1="2704.58" y1="1225.29" x2="2655.6" y2="1280.59"/><line class="cls-8" x1="2655.6" y1="1225.29" x2="2704.58" y2="1280.59"/><line class="cls-8" x1="2603.16" y1="1311.5" x2="2675.25" y2="1431.48"/><line class="cls-8" x1="2603.16" y1="1434.31" x2="2676.73" y2="1311.2"/><line class="cls-8" x1="2755.04" y1="1311.5" x2="2681.17" y2="1434.15"/><line class="cls-8" x1="2755.04" y1="1434.31" x2="2680.29" y2="1311.2"/></g><g><rect class="cls-19" x="1727.19" y="1683.27" width="9.43" height="46.74" rx="2.7" ry="2.7"/><rect class="cls-19" x="1739.14" y="1680.75" width="9.43" height="46.74" rx="2.7" ry="2.7"/><rect class="cls-19" x="1774.46" y="1683.58" width="9.43" height="46.74" rx="2.7" ry="2.7"/><rect class="cls-19" x="1788.92" y="1681.91" width="9.43" height="46.74" rx="2.7" ry="2.7"/><path class="cls-9" d="m1818.77,1671.01c-.09-1.69-.38-3.35-.85-4.97.85-2.16,1.33-4.51,1.33-6.97,0-10.53-8.54-19.07-19.07-19.07-1.14,0-2.25.12-3.33.31-1.36-9.2-9.26-16.27-18.84-16.27-6.9,0-12.93,3.68-16.27,9.17-2.79-1.59-6-2.52-9.44-2.52-7.96,0-14.77,4.88-17.63,11.81-2.34-1.03-4.93-1.61-7.65-1.61-10.53,0-19.07,8.54-19.07,19.07,0,4.37,1.48,8.38,3.96,11.6-5.55,3.33-9.28,9.39-9.28,16.34,0,10.53,8.54,19.07,19.07,19.07,4.49,0,8.61-1.56,11.87-4.16,3.16,6.15,9.56,10.37,16.95,10.37,6.19,0,11.68-2.97,15.16-7.54.12,0,.24,0,.35,0,.94,0,1.88-.02,2.81-.05,3.32,2.79,7.59,4.48,12.27,4.48,7.12,0,13.32-3.91,16.6-9.7,1.76.54,3.63.83,5.57.83,10.53,0,19.07-8.54,19.07-19.07,0-4.15-1.34-7.98-3.59-11.11Z"/><path class="cls-9" d="m1762.38,1694.33s1.28,7.21,5.16,9.87"/><path class="cls-9" d="m1747.41,1677.7s-12.83-5.8-22.79,9.92"/><path class="cls-9" d="m1749.96,1651.06s.36,14.09,14.5,15.74"/><path class="cls-9" d="m1777.96,1686.98s14,1.58,17.59-12.19"/><g><ellipse class="cls-19" cx="1807.12" cy="1645.33" rx="13.12" ry="17.33" transform="translate(-364.55 524.32) rotate(-15.01)"/><ellipse class="cls-19" cx="1792.73" cy="1641.73" rx="5.85" ry="2.57" transform="translate(-608.43 2020.67) rotate(-51.45)"/><ellipse class="cls-19" cx="1812.56" cy="1631.16" rx="2.66" ry="5.65" transform="translate(-24.39 3234.8) rotate(-83.11)"/></g><circle class="cls-11" cx="1803.08" cy="1643.82" r="1.15"/><circle class="cls-11" cx="1816.01" cy="1639.17" r="1.15"/></g><rect class="cls-19" x="390.33" y="1656.78" width="13.87" height="68.76" rx="2.7" ry="2.7" transform="translate(794.53 3382.31) rotate(-180)"/><rect class="cls-19" x="372.76" y="1653.08" width="13.87" height="68.76" rx="2.7" ry="2.7" transform="translate(759.39 3374.91) rotate(180)"/><rect class="cls-19" x="316.49" y="1655.39" width="13.87" height="68.76" rx="2.7" ry="2.7" transform="translate(646.85 3379.54) rotate(-180)"/><rect class="cls-19" x="294.6" y="1656.62" width="13.87" height="68.76" rx="2.7" ry="2.7" transform="translate(603.06 3382) rotate(-180)"/><path class="cls-3" d="m251.74,1623.79c0-14.53,9.28-26.86,22.22-31.49,4.2-11.74,14.74-20.45,27.52-21.96,4.21-13.67,16.94-23.61,31.99-23.61,8.76,0,16.71,3.39,22.68,8.9,4.03-1.72,8.47-2.68,13.13-2.68,8.96,0,17.08,3.54,23.09,9.28,5.24-3.39,11.46-5.38,18.17-5.38,18.48,0,33.47,14.99,33.47,33.47,0,5.32-1.27,10.33-3.48,14.79.31.49.62.99.91,1.49,9.91,5.81,16.58,16.55,16.58,28.86,0,18.05-14.3,32.72-32.18,33.41-4.51,13.16-16.95,22.64-31.64,22.64-8.15,0-15.62-2.92-21.43-7.77-1.09.11-2.18.21-3.28.3-5.78,10.04-16.59,16.81-29,16.81-9.48,0-18.02-3.96-24.11-10.29-2.51.6-5.11.95-7.8.95-18.49,0-33.47-14.98-33.47-33.47,0-.78.06-1.54.12-2.3-13.6-4.25-23.47-16.95-23.47-31.95Z"/><ellipse class="cls-19" cx="256.67" cy="1634.89" rx="12.72" ry="5.32" transform="translate(-1207.02 862.65) rotate(-53.26)"/><ellipse class="cls-19" cx="451.84" cy="1602.2" rx="20.04" ry="30.22" transform="translate(-1031.69 846.98) rotate(-47.27)"/><ellipse class="cls-19" cx="424.48" cy="1603.36" rx="12.02" ry="4.62" transform="translate(-1054.05 851.76) rotate(-48.23)"/><circle class="cls-11" cx="450.92" cy="1571.92" r="1.7"/><path class="cls-3" d="m296.35,1608.09s17.66,6.93,13.76,25.7"/><path class="cls-3" d="m377.38,1605.13s-16.65,24.05-36.38,1.85"/><path class="cls-3" d="m396.02,1647.24s-13.94,7.72-25.25-6.72"/><path class="cls-3" d="m301.48,1570.33s10.85-2.51,17.78,4.43"/><path class="cls-3" d="m313.4,1690.69s15.72-4.62,16.65-17.57"/><rect class="cls-19" x="1145.67" y="1668.62" width="9.43" height="46.74" rx="2.7" ry="2.7"/><rect class="cls-19" x="1157.62" y="1666.11" width="9.43" height="46.74" rx="2.7" ry="2.7"/><rect class="cls-19" x="1192.94" y="1668.94" width="9.43" height="46.74" rx="2.7" ry="2.7"/><rect class="cls-19" x="1207.4" y="1667.26" width="9.43" height="46.74" rx="2.7" ry="2.7"/><path class="cls-9" d="m1237.25,1656.37c-.09-1.69-.38-3.35-.85-4.97.85-2.16,1.33-4.51,1.33-6.97,0-10.53-8.54-19.07-19.07-19.07-1.14,0-2.25.12-3.33.31-1.36-9.2-9.26-16.27-18.84-16.27-6.9,0-12.93,3.68-16.27,9.17-2.79-1.59-6-2.52-9.44-2.52-7.96,0-14.77,4.88-17.63,11.81-2.34-1.03-4.93-1.61-7.65-1.61-10.53,0-19.07,8.54-19.07,19.07,0,4.37,1.48,8.38,3.96,11.6-5.55,3.33-9.28,9.39-9.28,16.34,0,10.53,8.54,19.07,19.07,19.07,4.49,0,8.61-1.56,11.87-4.16,3.16,6.15,9.56,10.37,16.95,10.37,6.19,0,11.68-2.97,15.16-7.54.12,0,.24,0,.35,0,.94,0,1.88-.02,2.81-.05,3.32,2.79,7.59,4.48,12.27,4.48,7.12,0,13.32-3.91,16.6-9.7,1.76.54,3.63.83,5.57.83,10.53,0,19.07-8.54,19.07-19.07,0-4.15-1.34-7.98-3.59-11.11Z"/><path class="cls-9" d="m1180.23,1618.56s-3.24,6.57-1.68,11.01"/><path class="cls-9" d="m1172.18,1644.52s5.66,12.89,23.58,7.86"/><path class="cls-9" d="m1138.86,1662.13s-8.8,11,.94,21.38"/><path class="cls-9" d="m1206.03,1678s14,1.58,17.59-12.19"/><g><ellipse class="cls-19" cx="1225.6" cy="1630.69" rx="13.12" ry="17.33" transform="translate(-380.61 373.18) rotate(-15.01)"/><ellipse class="cls-19" cx="1211.21" cy="1627.09" rx="5.85" ry="2.57" transform="translate(-816.1 1560.36) rotate(-51.45)"/><ellipse class="cls-19" cx="1231.04" cy="1616.51" rx="2.66" ry="5.65" transform="translate(-521.56 2644.6) rotate(-83.11)"/></g><circle class="cls-11" cx="1221.56" cy="1629.18" r="1.15"/><circle class="cls-11" cx="1234.49" cy="1624.53" r="1.15"/><rect class="cls-19" x="1303.59" y="1707.41" width="8.1" height="40.15" rx="2.05" ry="2.05"/><rect class="cls-19" x="1313.85" y="1705.25" width="8.1" height="40.15" rx="2.05" ry="2.05"/><rect class="cls-19" x="1346.71" y="1706.6" width="8.1" height="40.15" rx="2.05" ry="2.05"/><rect class="cls-19" x="1359.49" y="1707.32" width="8.1" height="40.15" rx="2.05" ry="2.05"/><path class="cls-9" d="m1392.61,1688.15c0-8.48-5.42-15.68-12.97-18.39-2.45-6.86-8.61-11.94-16.07-12.82-2.46-7.98-9.89-13.78-18.68-13.78-5.12,0-9.76,1.98-13.24,5.2-2.35-1-4.94-1.56-7.66-1.56-5.23,0-9.97,2.07-13.48,5.42-3.06-1.98-6.69-3.14-10.61-3.14-10.79,0-19.54,8.75-19.54,19.54,0,3.1.74,6.03,2.03,8.64-.18.29-.36.58-.53.87-5.79,3.39-9.68,9.66-9.68,16.85,0,10.54,8.35,19.11,18.79,19.5,2.63,7.68,9.9,13.22,18.48,13.22,4.76,0,9.12-1.71,12.51-4.54.63.07,1.27.12,1.91.17,3.37,5.86,9.69,9.82,16.93,9.82,5.54,0,10.52-2.31,14.08-6.01,1.46.35,2.98.56,4.56.56,10.79,0,19.54-8.75,19.54-19.54,0-.45-.04-.9-.07-1.34,7.94-2.48,13.7-9.89,13.7-18.65Z"/><ellipse class="cls-19" cx="1389.73" cy="1694.63" rx="3.11" ry="7.43" transform="translate(-737.63 1167.88) rotate(-36.74)"/><ellipse class="cls-19" cx="1275.78" cy="1675.55" rx="17.64" ry="11.7" transform="translate(-798.28 1310.37) rotate(-42.73)"/><ellipse class="cls-19" cx="1291.75" cy="1676.22" rx="2.7" ry="7.02" transform="translate(-788.3 1286.72) rotate(-41.77)"/><circle class="cls-11" cx="1276.31" cy="1672.22" r=".99"/><path class="cls-9" d="m1358.28,1674.3s-10.31,4.05-8.04,15"/><path class="cls-9" d="m1305.48,1702.19s9.72,14.04,21.24,1.08"/><path class="cls-9" d="m1326.36,1680.41s3.87-8.46-5.04-14.4"/><path class="cls-9" d="m1363.57,1656.94s-6.33-1.46-10.38,2.59"/><path class="cls-9" d="m1356.61,1727.22s-9.18-2.7-9.72-10.26"/><rect class="cls-19" x="2383.97" y="1571.59" width="13.87" height="68.76" rx="2.7" ry="2.7"/><rect class="cls-19" x="2401.55" y="1567.89" width="13.87" height="68.76" rx="2.7" ry="2.7"/><rect class="cls-19" x="2457.82" y="1570.2" width="13.87" height="68.76" rx="2.7" ry="2.7"/><rect class="cls-19" x="2479.71" y="1571.44" width="13.87" height="68.76" rx="2.7" ry="2.7"/><path class="cls-3" d="m2519.42,1548.19c0-9.2-4.22-17.4-10.82-22.8.19-1.35.32-2.73.32-4.13,0-16.26-13.18-29.45-29.45-29.45-7.24,0-13.87,2.63-18.99,6.96-5.05-4.06-11.46-6.51-18.44-6.51-2.33,0-4.59.3-6.76.81-5.17-4.48-11.89-7.2-19.26-7.2-7.88,0-15.03,3.12-20.31,8.16-4.61-2.99-10.09-4.74-15.98-4.74-16.26,0-29.45,13.18-29.45,29.45,0,4.68,1.12,9.08,3.06,13.01-.27.43-.54.87-.8,1.31-8.72,5.11-14.59,14.56-14.59,25.39,0,15.88,12.58,28.79,28.31,29.39,3.96,11.58,14.92,19.92,27.84,19.92,7.17,0,13.74-2.57,18.85-6.83.95.1,1.92.18,2.88.26,5.08,8.83,14.59,14.79,25.52,14.79,8.34,0,15.86-3.48,21.21-9.05,2.21.53,4.5.84,6.86.84,16.26,0,29.45-13.18,29.45-29.45,0-.68-.06-1.35-.1-2.02,11.96-3.74,20.65-14.91,20.65-28.11Z"/><path class="cls-3" d="m2406.94,1517.33s16.65,24.05,36.38,1.85"/><path class="cls-3" d="m2400.16,1570.05s6.63-14.49-8.63-24.67"/><g><ellipse class="cls-19" cx="2344.19" cy="1528.43" rx="25.49" ry="19.3" transform="translate(260.65 3396.63) rotate(-74.99)"/><ellipse class="cls-19" cx="2365.36" cy="1523.13" rx="3.78" ry="8.61" transform="translate(-433.72 1806) rotate(-38.55)"/><ellipse class="cls-19" cx="2336.19" cy="1507.58" rx="8.31" ry="3.92" transform="translate(-164.08 291.35) rotate(-6.89)"/></g><circle class="cls-11" cx="2343.97" cy="1526.21" r="1.7"/><circle class="cls-11" cx="2329.57" cy="1521.22" r="1.7"/><path class="cls-3" d="m2465.52,1526.58s8.32,18.96,34.69,11.56"/><path class="cls-3" d="m2452.37,1569.46s-17.66,6.93-13.76,25.7"/><rect class="cls-1" x="1073.93" y="520.38" width="758.23" height="926.06"/><line class="cls-10" x1="1486.2" y1="599.14" x2="1720.71" y2="599.14"/><line class="cls-10" x1="1486.2" y1="667.52" x2="1719.6" y2="667.23"/><line class="cls-10" x1="1486.2" y1="735.89" x2="1721.04" y2="735.89"/><line class="cls-10" x1="1486.2" y1="804.27" x2="1718.88" y2="804.27"/><line class="cls-10" x1="1486.2" y1="872.65" x2="1718.88" y2="872.65"/><line class="cls-10" x1="1486.2" y1="941.02" x2="1719.6" y2="941.02"/><line class="cls-10" x1="1486.2" y1="1009.4" x2="1720.32" y2="1009.4"/><line class="cls-10" x1="1486.2" y1="1085.37" x2="1719.6" y2="1085.37"/><line class="cls-10" x1="1486.2" y1="1153.75" x2="1721.76" y2="1153.75"/><line class="cls-10" x1="1486.2" y1="1222.12" x2="1719.96" y2="1222.12"/><text class="cls-15" transform="translate(1387.69 601.9)"><tspan x="0" y="0">Date:</tspan></text><text class="cls-15" transform="translate(1285.9 668.15)"><tspan x="0" y="0">D</tspan><tspan class="cls-14" x="18.97" y="0">a</tspan><tspan x="34.97" y="0">y of </tspan><tspan class="cls-20" x="90.78" y="0">W</tspan><tspan x="115.1" y="0">eek:</tspan></text><text class="cls-15" transform="translate(1372.53 738.69)"><tspan x="0" y="0">Floss?</tspan></text><text class="cls-15" transform="translate(1329.94 803.13)"><tspan x="0" y="0">E</tspan><tspan class="cls-13" x="16.27" y="0">x</tspan><tspan x="31.16" y="0">ercise?</tspan></text><text class="cls-15" transform="translate(1272.79 870.62)"><tspan class="cls-20" x="0" y="0">W</tspan><tspan x="24.32" y="0">ater In</tspan><tspan class="cls-21" x="110.44" y="0">t</tspan><tspan x="121.04" y="0">a</tspan><tspan class="cls-23" x="137.41" y="0">k</tspan><tspan x="153.04" y="0">e?</tspan></text><text class="cls-15" transform="translate(1343.66 938.11)"><tspan x="0" y="0">Alcohol?</tspan></text><text class="cls-15" transform="translate(1367.89 1006.36)"><tspan x="0" y="0">Sleep?</tspan></text><text class="cls-15" transform="translate(1247.61 1080.68)"><tspan x="0" y="0">Sh</tspan><tspan class="cls-23" x="33.46" y="0">ow</tspan><tspan class="cls-25" x="70" y="0">er Length?</tspan></text><text class="cls-15" transform="translate(1289.7 1148.18)"><tspan x="0" y="0">Phone Time?</tspan></text><text class="cls-15" transform="translate(1222.24 1215.67)"><tspan x="0" y="0">Secret </tspan><tspan class="cls-22" x="92.32" y="0">P</tspan><tspan class="cls-25" x="110" y="0">ass</tspan><tspan class="cls-23" x="155.97" y="0">w</tspan><tspan x="176.31" y="0">ord?</tspan></text><text class="cls-18" transform="translate(1056.15 429.54)"><tspan x="0" y="0">Daily Checklist</tspan></text><rect class="cls-5" x="1158.62" y="1294.91" width="570.83" height="65.56"/><text class="cls-16" transform="translate(1389.27 1335.81)"><tspan x="0" y="0">SUBMIT</tspan></text><g><circle class="cls-4" cx="530.6" cy="465.61" r="131.11"/><text class="cls-17" transform="translate(454.48 476.88)"><tspan x="0" y="0">1:30 pm</tspan></text></g><rect class="cls-7" x="101.45" y="178.35" width="2797.11" height="1643.3" rx="39.9" ry="39.9"/></g></svg>