<?xml version="1.0" encoding="UTF-8"?><svg id="Layer_2" xmlns="http://www.w3.org/2000/svg" width="3008.14" height="2002.9" viewBox="0 0 3008.14 2002.9"><defs><style>.cls-1{stroke-width:4.43px;}.cls-1,.cls-2,.cls-3,.cls-4,.cls-5,.cls-6,.cls-7,.cls-8,.cls-9{stroke-miterlimit:10;}.cls-1,.cls-2,.cls-3,.cls-4,.cls-5,.cls-6,.cls-7,.cls-9{stroke:#060910;}.cls-1,.cls-3,.cls-10,.cls-5{fill:#dfefe9;}.cls-1,.cls-5,.cls-9{stroke-linecap:round;}.cls-11{font-size:31.11px;}.cls-11,.cls-12,.cls-13{font-family:Poppins-Bold, Poppins;font-weight:700;}.cls-11,.cls-12,.cls-13,.cls-14,.cls-15,.cls-16{fill:#060910;}.cls-17{fill:#a7cbc1;}.cls-18{letter-spacing:0em;}.cls-2{fill:#cc3636;}.cls-2,.cls-7{stroke-width:8.15px;}.cls-3{stroke-width:9.32px;}.cls-19{letter-spacing:0em;}.cls-4{stroke-width:2.69px;}.cls-4,.cls-8,.cls-9{fill:none;}.cls-12{font-size:42.39px;}.cls-13{font-size:120.74px;}.cls-20{letter-spacing:-.01em;}.cls-14{font-size:34.01px;}.cls-14,.cls-15{font-family:FranklinGothic-Heavy, 'Franklin Gothic Heavy';font-weight:800;}.cls-5{stroke-width:6.52px;}.cls-21{letter-spacing:-.02em;}.cls-22{letter-spacing:0em;}.cls-23{letter-spacing:-.01em;}.cls-15{font-size:30px;}.cls-6{stroke-width:5.42px;}.cls-6,.cls-7{fill:#f9b148;}.cls-24{fill:#5a9b5f;}.cls-25{letter-spacing:-.03em;}.cls-26{letter-spacing:-.01em;}.cls-8{stroke:#dfefe9;stroke-width:8.14px;}.cls-9{stroke-width:8.14px;}</style></defs><g id="Layer_1-2"><rect class="cls-17" x="4.07" width="3000" height="2000"/><g><g><path class="cls-24" d="m2389.27,1998.83H625.41c13.69-18.31,37.06-31.28,58.48-41.63,55.13-26.64,110.51-53.39,168.13-73.81,15.25-5.4,30.65-10.37,46.24-14.78,108.74-30.71,223.16-33.19,336.15-35.45,113.8-2.28,227.69-4.56,341.42-.26,157.76,5.96,315.69,24.89,469.79,59.28,117.37,26.2,232.5,61.38,343.65,106.66Z"/><path class="cls-24" d="m986.95,1998.83H4.07v-343.55c11.13-1.06,22.46-1.16,33.54-1.09,134.26.83,268.41,17.42,398.83,49.28,146.94,35.92,292.14,93.91,415.58,179.92,48.8,33.97,94.17,72.33,134.93,115.45Z"/><path class="cls-24" d="m3004.07,1498.05v500.78h-1055.83c.15-.16.28-.33.42-.49,31.27-36.21,63.49-71.81,96.96-106.17,84.54-86.75,176.95-165.53,281.59-225.91,203.61-117.5,440.15-158.24,676.86-168.21Z"/></g><g><path class="cls-9" d="m851.27,1881.35c128.48-36.85,270.04-43.94,403.8-50.12,141.41-6.53,283.25-3.88,424.32,7.94,122.8,10.28,245.91,26.16,366.23,53.01"/><path class="cls-9" d="m4.07,1655.27c11.13-1.06,22.46-1.16,33.54-1.09,134.26.83,268.41,17.42,398.83,49.28,146.94,35.92,292.14,93.91,415.58,179.92,48.8,33.97,94.17,72.33,134.93,115.45"/><path class="cls-9" d="m1948.24,1998.83c.15-.16.28-.33.42-.49,31.27-36.21,63.49-71.81,96.96-106.17,84.54-86.75,176.95-165.53,281.59-225.91,203.61-117.5,440.15-158.24,676.86-168.21"/></g></g><g><polygon class="cls-2" points="2923.15 1593.14 2923.15 1435.25 2825.1 1337.21 2762.71 1337.21 2785.63 1337.21 2723.24 1337.21 2625.2 1435.25 2625.2 1593.14 2923.15 1593.14"/><rect class="cls-8" x="2689.4" y="1452.76" width="163.19" height="131.96"/><line class="cls-8" x1="2770.99" y1="1450.85" x2="2770.99" y2="1586.77"/><rect class="cls-8" x="2745.73" y="1360.12" width="52.63" height="59.42"/><line class="cls-8" x1="2798.36" y1="1360.12" x2="2745.73" y2="1419.54"/><line class="cls-8" x1="2745.73" y1="1360.12" x2="2798.36" y2="1419.54"/><line class="cls-8" x1="2689.4" y1="1452.76" x2="2766.85" y2="1581.68"/><line class="cls-8" x1="2689.4" y1="1584.72" x2="2768.44" y2="1452.44"/><line class="cls-8" x1="2852.58" y1="1452.76" x2="2773.22" y2="1584.54"/><line class="cls-8" x1="2852.58" y1="1584.72" x2="2772.26" y2="1452.44"/></g><g><rect class="cls-16" x="1748.18" y="1852.22" width="10.14" height="50.22" rx="2.7" ry="2.7"/><rect class="cls-16" x="1761.02" y="1849.52" width="10.14" height="50.22" rx="2.7" ry="2.7"/><rect class="cls-16" x="1798.97" y="1852.56" width="10.14" height="50.22" rx="2.7" ry="2.7"/><rect class="cls-16" x="1814.51" y="1850.75" width="10.14" height="50.22" rx="2.7" ry="2.7"/><path class="cls-1" d="m1846.59,1839.05c-.1-1.82-.4-3.6-.91-5.34.91-2.32,1.43-4.85,1.43-7.49,0-11.31-9.17-20.49-20.49-20.49-1.22,0-2.41.13-3.58.33-1.46-9.89-9.95-17.48-20.24-17.48-7.41,0-13.89,3.95-17.48,9.85-2.99-1.71-6.45-2.7-10.15-2.7-8.55,0-15.87,5.24-18.94,12.68-2.52-1.1-5.29-1.73-8.22-1.73-11.31,0-20.49,9.17-20.49,20.49,0,4.69,1.6,9,4.25,12.46-5.96,3.58-9.97,10.09-9.97,17.56,0,11.31,9.17,20.49,20.49,20.49,4.82,0,9.25-1.68,12.75-4.47,3.4,6.61,10.27,11.14,18.22,11.14,6.66,0,12.55-3.19,16.29-8.11.13,0,.25,0,.38,0,1.01,0,2.02-.02,3.02-.05,3.56,3,8.16,4.82,13.18,4.82,7.65,0,14.32-4.2,17.83-10.42,1.89.58,3.9.89,5.99.89,11.31,0,20.49-9.17,20.49-20.49,0-4.46-1.44-8.57-3.86-11.94Z"/><path class="cls-1" d="m1785.99,1864.1s1.38,7.75,5.54,10.6"/><path class="cls-1" d="m1769.91,1846.23s-13.78-6.23-24.49,10.66"/><path class="cls-1" d="m1772.64,1817.61s.39,15.14,15.58,16.91"/><path class="cls-1" d="m1802.73,1856.21s15.05,1.7,18.9-13.1"/><g><ellipse class="cls-16" cx="1834.07" cy="1811.45" rx="14.1" ry="18.62" transform="translate(-406.66 536.98) rotate(-15.01)"/><ellipse class="cls-16" cx="1818.6" cy="1807.59" rx="6.29" ry="2.76" transform="translate(-728.39 2103.4) rotate(-51.45)"/><ellipse class="cls-16" cx="1839.91" cy="1796.22" rx="2.86" ry="6.07" transform="translate(-164.19 3407.2) rotate(-83.11)"/></g><circle class="cls-10" cx="1829.72" cy="1809.83" r="1.24"/><circle class="cls-10" cx="1843.62" cy="1804.84" r="1.24"/></g><rect class="cls-16" x="311.75" y="1823.75" width="14.91" height="73.88" rx="2.7" ry="2.7" transform="translate(638.41 3721.38) rotate(-180)"/><rect class="cls-16" x="292.87" y="1819.78" width="14.91" height="73.88" rx="2.7" ry="2.7" transform="translate(600.64 3713.43) rotate(180)"/><rect class="cls-16" x="232.41" y="1822.26" width="14.91" height="73.88" rx="2.7" ry="2.7" transform="translate(479.72 3718.4) rotate(-180)"/><rect class="cls-16" x="208.89" y="1823.59" width="14.91" height="73.88" rx="2.7" ry="2.7" transform="translate(432.68 3721.05) rotate(-180)"/><path class="cls-5" d="m162.84,1788.3c0-15.61,9.97-28.86,23.87-33.83,4.51-12.62,15.84-21.97,29.57-23.6,4.52-14.69,18.2-25.37,34.37-25.37,9.41,0,17.96,3.65,24.37,9.57,4.33-1.85,9.1-2.88,14.1-2.88,9.63,0,18.35,3.81,24.81,9.97,5.63-3.65,12.32-5.79,19.52-5.79,19.86,0,35.96,16.1,35.96,35.96,0,5.71-1.37,11.09-3.74,15.89.33.53.66,1.06.97,1.6,10.65,6.24,17.82,17.78,17.82,31.01,0,19.39-15.36,35.16-34.58,35.89-4.84,14.14-18.22,24.32-34,24.32-8.76,0-16.79-3.14-23.02-8.35-1.17.12-2.34.23-3.52.32-6.21,10.78-17.82,18.06-31.16,18.06-10.19,0-19.36-4.25-25.91-11.06-2.69.64-5.49,1.02-8.38,1.02-19.86,0-35.96-16.1-35.96-35.96,0-.83.07-1.65.12-2.47-14.61-4.57-25.22-18.21-25.22-34.33Z"/><ellipse class="cls-16" cx="168.14" cy="1800.23" rx="13.67" ry="5.71" transform="translate(-1375.1 858.15) rotate(-53.26)"/><ellipse class="cls-16" cx="377.84" cy="1765.11" rx="21.53" ry="32.47" transform="translate(-1175.15 845) rotate(-47.27)"/><ellipse class="cls-16" cx="348.44" cy="1766.36" rx="12.92" ry="4.97" transform="translate(-1200.99 849.46) rotate(-48.23)"/><circle class="cls-10" cx="376.85" cy="1732.57" r="1.83"/><path class="cls-5" d="m210.77,1771.43s18.97,7.45,14.79,27.61"/><path class="cls-5" d="m297.84,1768.26s-17.89,25.84-39.09,1.99"/><path class="cls-5" d="m317.86,1813.51s-14.98,8.29-27.14-7.22"/><path class="cls-5" d="m216.28,1730.87s11.65-2.7,19.11,4.76"/><path class="cls-5" d="m229.09,1860.19s16.9-4.97,17.89-18.88"/><rect class="cls-16" x="1123.35" y="1836.48" width="10.14" height="50.22" rx="2.7" ry="2.7"/><rect class="cls-16" x="1136.18" y="1833.78" width="10.14" height="50.22" rx="2.7" ry="2.7"/><rect class="cls-16" x="1174.13" y="1836.82" width="10.14" height="50.22" rx="2.7" ry="2.7"/><rect class="cls-16" x="1189.67" y="1835.02" width="10.14" height="50.22" rx="2.7" ry="2.7"/><path class="cls-1" d="m1221.75,1823.31c-.1-1.82-.4-3.6-.91-5.34.91-2.32,1.43-4.85,1.43-7.49,0-11.31-9.17-20.49-20.49-20.49-1.22,0-2.41.13-3.58.33-1.46-9.89-9.95-17.48-20.24-17.48-7.41,0-13.89,3.95-17.48,9.85-2.99-1.71-6.45-2.7-10.15-2.7-8.55,0-15.87,5.24-18.94,12.68-2.52-1.1-5.29-1.73-8.22-1.73-11.31,0-20.49,9.17-20.49,20.49,0,4.69,1.6,9,4.25,12.46-5.96,3.58-9.97,10.09-9.97,17.56,0,11.31,9.17,20.49,20.49,20.49,4.82,0,9.25-1.68,12.75-4.47,3.4,6.61,10.27,11.14,18.22,11.14,6.66,0,12.55-3.19,16.29-8.11.13,0,.25,0,.38,0,1.01,0,2.02-.02,3.02-.05,3.56,3,8.16,4.82,13.18,4.82,7.65,0,14.32-4.2,17.83-10.42,1.89.58,3.9.89,5.99.89,11.31,0,20.49-9.17,20.49-20.49,0-4.46-1.44-8.57-3.86-11.94Z"/><path class="cls-1" d="m1160.49,1782.69s-3.48,7.06-1.81,11.83"/><path class="cls-1" d="m1151.84,1810.58s6.08,13.85,25.34,8.45"/><path class="cls-1" d="m1116.03,1829.5s-9.46,11.82,1.01,22.97"/><path class="cls-1" d="m1188.2,1846.55s15.05,1.7,18.9-13.1"/><g><ellipse class="cls-16" cx="1209.23" cy="1795.72" rx="14.1" ry="18.62" transform="translate(-423.92 374.57) rotate(-15.01)"/><ellipse class="cls-16" cx="1193.77" cy="1791.85" rx="6.29" ry="2.76" transform="translate(-951.53 1608.8) rotate(-51.45)"/><ellipse class="cls-16" cx="1215.08" cy="1780.49" rx="2.86" ry="6.07" transform="translate(-698.4 2773.04) rotate(-83.11)"/></g><circle class="cls-10" cx="1204.89" cy="1794.1" r="1.24"/><circle class="cls-10" cx="1218.78" cy="1789.1" r="1.24"/><rect class="cls-16" x="1293.03" y="1878.16" width="8.7" height="43.14" rx="2.05" ry="2.05"/><rect class="cls-16" x="1304.06" y="1875.84" width="8.7" height="43.14" rx="2.05" ry="2.05"/><rect class="cls-16" x="1339.36" y="1877.29" width="8.7" height="43.14" rx="2.05" ry="2.05"/><rect class="cls-16" x="1353.09" y="1878.06" width="8.7" height="43.14" rx="2.05" ry="2.05"/><path class="cls-1" d="m1388.68,1857.46c0-9.12-5.82-16.85-13.94-19.76-2.63-7.37-9.25-12.83-17.27-13.78-2.64-8.58-10.63-14.81-20.07-14.81-5.5,0-10.48,2.13-14.23,5.59-2.53-1.08-5.31-1.68-8.24-1.68-5.62,0-10.72,2.22-14.48,5.82-3.28-2.13-7.19-3.38-11.4-3.38-11.6,0-21,9.4-21,21,0,3.34.8,6.48,2.18,9.28-.2.31-.39.62-.57.94-6.22,3.65-10.4,10.38-10.4,18.11,0,11.32,8.97,20.53,20.19,20.96,2.83,8.26,10.64,14.2,19.85,14.2,5.12,0,9.8-1.83,13.44-4.87.68.07,1.37.13,2.06.19,3.63,6.3,10.41,10.55,18.19,10.55,5.95,0,11.31-2.48,15.13-6.46,1.57.38,3.21.6,4.89.6,11.6,0,21-9.4,21-21,0-.49-.04-.96-.07-1.44,8.53-2.67,14.72-10.63,14.72-20.04Z"/><ellipse class="cls-16" cx="1385.59" cy="1864.43" rx="3.34" ry="7.98" transform="translate(-840.02 1199.12) rotate(-36.74)"/><ellipse class="cls-16" cx="1263.14" cy="1843.92" rx="18.96" ry="12.57" transform="translate(-915.88 1346.49) rotate(-42.73)"/><ellipse class="cls-16" cx="1280.31" cy="1844.65" rx="2.9" ry="7.54" transform="translate(-903.42 1321.91) rotate(-41.77)"/><circle class="cls-10" cx="1263.72" cy="1840.34" r="1.07"/><path class="cls-1" d="m1351.8,1842.58s-11.08,4.35-8.63,16.12"/><path class="cls-1" d="m1295.06,1872.55s10.45,15.09,22.82,1.16"/><path class="cls-1" d="m1317.5,1849.14s4.16-9.09-5.42-15.47"/><path class="cls-1" d="m1357.48,1823.93s-6.8-1.57-11.16,2.78"/><path class="cls-1" d="m1350,1899.44s-9.87-2.9-10.45-11.03"/><rect class="cls-16" x="2453.88" y="1732.22" width="14.91" height="73.88" rx="2.7" ry="2.7"/><rect class="cls-16" x="2472.76" y="1728.25" width="14.91" height="73.88" rx="2.7" ry="2.7"/><rect class="cls-16" x="2533.22" y="1730.73" width="14.91" height="73.88" rx="2.7" ry="2.7"/><rect class="cls-16" x="2556.74" y="1732.06" width="14.91" height="73.88" rx="2.7" ry="2.7"/><path class="cls-5" d="m2599.41,1707.08c0-9.88-4.53-18.7-11.63-24.5.2-1.45.35-2.93.35-4.44,0-17.47-14.17-31.64-31.64-31.64-7.78,0-14.9,2.82-20.41,7.48-5.42-4.37-12.31-6.99-19.81-6.99-2.51,0-4.93.32-7.27.87-5.55-4.81-12.77-7.74-20.69-7.74-8.47,0-16.15,3.35-21.82,8.77-4.95-3.21-10.84-5.09-17.17-5.09-17.47,0-31.64,14.17-31.64,31.64,0,5.03,1.2,9.76,3.29,13.98-.29.47-.58.94-.86,1.41-9.37,5.49-15.68,15.64-15.68,27.29,0,17.06,13.52,30.93,30.42,31.58,4.26,12.44,16.03,21.4,29.91,21.4,7.71,0,14.77-2.76,20.26-7.34,1.03.11,2.06.2,3.1.28,5.46,9.49,15.68,15.89,27.42,15.89,8.96,0,17.04-3.74,22.79-9.73,2.37.57,4.83.9,7.38.9,17.47,0,31.64-14.17,31.64-31.64,0-.73-.06-1.45-.11-2.18,12.85-4.02,22.18-16.02,22.18-30.2Z"/><path class="cls-5" d="m2478.56,1673.92s17.89,25.84,39.09,1.99"/><path class="cls-5" d="m2471.27,1730.57s7.12-15.57-9.28-26.5"/><g><ellipse class="cls-16" cx="2411.13" cy="1685.84" rx="27.39" ry="20.74" transform="translate(158.21 3577.92) rotate(-74.99)"/><ellipse class="cls-16" cx="2433.88" cy="1680.15" rx="4.07" ry="9.25" transform="translate(-516.64 1882.92) rotate(-38.55)"/><ellipse class="cls-16" cx="2402.53" cy="1663.44" rx="8.93" ry="4.21" transform="translate(-182.31 300.44) rotate(-6.89)"/></g><circle class="cls-10" cx="2410.89" cy="1683.46" r="1.83"/><circle class="cls-10" cx="2395.43" cy="1678.1" r="1.83"/><path class="cls-5" d="m2541.51,1683.85s8.94,20.37,37.27,12.42"/><path class="cls-5" d="m2527.37,1729.93s-18.97,7.45-14.79,27.61"/><rect class="cls-3" x="1046.27" y="478.88" width="814.7" height="995.04"/><line class="cls-4" x1="1489.24" y1="563.5" x2="1741.22" y2="563.5"/><line class="cls-4" x1="1489.24" y1="636.97" x2="1668.21" y2="636.97"/><line class="cls-4" x1="1489.24" y1="710.44" x2="1733.3" y2="710.44"/><line class="cls-4" x1="1489.24" y1="783.91" x2="1702.52" y2="783.91"/><line class="cls-4" x1="1489.24" y1="857.38" x2="1659.42" y2="857.38"/><line class="cls-4" x1="1489.24" y1="930.85" x2="1713.95" y2="930.85"/><line class="cls-4" x1="1489.24" y1="1004.32" x2="1728.02" y2="1004.32"/><line class="cls-4" x1="1489.24" y1="1085.95" x2="1640.95" y2="1085.95"/><line class="cls-4" x1="1489.24" y1="1159.42" x2="1667.34" y2="1159.42"/><line class="cls-4" x1="1489.24" y1="1232.89" x2="1615.91" y2="1232.89"/><text class="cls-15" transform="translate(1383.39 566.47)"><tspan x="0" y="0">Date:</tspan></text><text class="cls-14" transform="translate(1249.39 637.65)"><tspan x="0" y="0">D</tspan><tspan class="cls-23" x="23.1" y="0">a</tspan><tspan x="42.6" y="0">y of </tspan><tspan class="cls-25" x="110.58" y="0">W</tspan><tspan class="cls-19" x="140.21" y="0">eek:</tspan></text><text class="cls-15" transform="translate(1367.1 713.45)"><tspan x="0" y="0">Floss?</tspan></text><text class="cls-14" transform="translate(1303.04 782.69)"><tspan x="0" y="0">E</tspan><tspan class="cls-21" x="19.81" y="0">x</tspan><tspan x="37.95" y="0">ercise?</tspan></text><text class="cls-14" transform="translate(1233.42 855.2)"><tspan class="cls-25" x="0" y="0">W</tspan><tspan x="29.63" y="0">ater In</tspan><tspan class="cls-22" x="134.53" y="0">t</tspan><tspan x="147.43" y="0">a</tspan><tspan class="cls-20" x="167.38" y="0">k</tspan><tspan x="186.41" y="0">e?</tspan></text><text class="cls-14" transform="translate(1319.75 927.72)"><tspan x="0" y="0">Alcohol?</tspan></text><text class="cls-15" transform="translate(1362.12 1001.05)"><tspan x="0" y="0">Sleep?</tspan></text><text class="cls-14" transform="translate(1202.74 1080.91)"><tspan x="0" y="0">Sh</tspan><tspan class="cls-20" x="40.76" y="0">ow</tspan><tspan x="85.27" y="0">er Length?</tspan></text><text class="cls-14" transform="translate(1254.01 1153.43)"><tspan x="0" y="0">Phone Time?</tspan></text><text class="cls-14" transform="translate(1171.85 1225.95)"><tspan x="0" y="0">Secret </tspan><tspan class="cls-18" x="112.45" y="0">P</tspan><tspan x="133.99" y="0">ass</tspan><tspan class="cls-26" x="189.98" y="0">w</tspan><tspan class="cls-19" x="214.76" y="0">ord?</tspan></text><text class="cls-13" transform="translate(985.67 353.8)"><tspan x="0" y="0">Daily Checklist</tspan></text><rect class="cls-6" x="1137.26" y="1311.09" width="613.35" height="70.44"/><text class="cls-11" transform="translate(1385.09 1355.04)"><tspan x="0" y="0">SUBMIT</tspan></text><g><circle class="cls-7" cx="462.47" cy="352.71" r="140.88"/><text class="cls-12" transform="translate(380.68 364.82)"><tspan x="0" y="0">1:30 pm</tspan></text></g></g></svg>