<?xml version="1.0" encoding="UTF-8"?><svg id="Layer_1" xmlns="http://www.w3.org/2000/svg" width="34.64" height="34.65" viewBox="0 0 34.64 34.65"><path d="m30.69,5.8C27.82,2.44,23.82.4,19.42.05c-3.63-.27-7.17.63-10.19,2.56-.86-.59-2.04-.57-2.88.15C2.67,5.9.44,10.28.06,15.11c-.39,4.82,1.13,9.5,4.27,13.18s7.53,5.92,12.35,6.3c.49.04.98.06,1.46.06,4.3,0,8.42-1.51,11.73-4.34.83-.71,1.04-1.87.6-2.82,2.38-2.67,3.83-6.02,4.12-9.65.35-4.4-1.04-8.68-3.9-12.04Zm2.32,11.91c-.25,3.25-1.55,6.25-3.66,8.66-.82-.39-1.83-.3-2.56.33-1.13.97-2.4,1.72-3.74,2.25-.64.26-1.3.47-1.97.62-1.3.29-2.65.39-4.02.29-.51-.04-1.02-.11-1.52-.21-.63-.12-1.25-.29-1.86-.5h0c-2.2-.77-4.17-2.11-5.73-3.94-2.31-2.72-3.43-6.17-3.15-9.73.28-3.56,1.93-6.8,4.65-9.11.73-.63.99-1.61.73-2.49,2.37-1.49,5.09-2.3,7.92-2.3.4,0,.8.02,1.2.05,3.98.32,7.6,2.16,10.19,5.2,2.59,3.04,3.85,6.9,3.53,10.88Z"/><path d="m27.29,16.39c-.35,3.13-1.96,4.93-5.06,5.66-.07.02-.14.03-.21.05.28.62.35,1.17.35,2.08v2.73c0,.15,0,.31-.02.48-.02.47-.06,1.34.19,1.52.07.05.24.08.51.04-.64.26-1.3.47-1.97.62-.38-.68-.34-1.56-.31-2.24,0-.15.01-.29.01-.42v-2.74c.01-1.02-.07-1.31-.64-2.2-.14-.22-.16-.49-.06-.73.1-.24.31-.42.57-.47l.44-.09c.26-.06.52-.11.78-.17,2.45-.58,3.57-1.82,3.85-4.3.18-1.62-.09-2.78-.86-3.75-.27-.34-.27-.74-.27-1.01v-.13c-.02-.32-.03-.63-.04-.95-.02-.4-.03-.8-.06-1.2-.68.26-1.33.51-1.95.82-.45.22-1,.45-1.74.27-1.61-.39-3.24-.38-4.84.01-.76.18-1.29-.07-1.67-.26-.65-.31-1.34-.58-2.02-.84-.02.36-.03.73-.05,1.09-.01.34-.03.69-.05,1.03v.13c-.01.3-.03.72-.28,1.07-1.05,1.51-1.27,3.39-.59,5.04.69,1.64,2.12,2.76,3.92,3.07l.79.14c.24.04.44.18.56.39.12.2.14.45.05.68l-.17.43c-.15.39-.29.76-.46,1.11-.17.35-.51.66-.89.8-1.54.59-3.08.12-4.11-1.27-.3-.4-.59-.77-.94-.99-.11-.07-.24-.13-.39-.17.5.39.91.84,1.22,1.35.12.19.22.4.32.6.07.14.15.28.22.42.22.38.57.67,1.04.87.59.25,1.31.33,2.15.25l.54-.06c.23-.03.45.05.62.2.17.15.26.36.26.59,0,.7,0,.82-.04,1.39v.31c-.02.43-.06,1.3-.45,2.01-.63-.12-1.25-.29-1.86-.5.12,0,.24-.03.33-.09.35-.26.38-1.17.39-1.47v-.35c.02-.17.03-.31.04-.43-.98.05-1.85-.08-2.6-.4-.79-.33-1.39-.85-1.79-1.53-.09-.16-.17-.33-.26-.5-.08-.17-.16-.33-.26-.49-.28-.46-.71-.87-1.23-1.18-.27-.16-.66-.42-.87-.85-.17-.33-.19-.72-.05-1.07.13-.32.37-.56.7-.68.23-.09.46-.09.63-.09.71.02,1.52.1,2.2.54.56.36.97.88,1.35,1.37.42.58,1.16,1.17,2.27.74.1-.18.19-.36.26-.54-2.24-.43-4.08-1.92-4.95-3.99-.89-2.15-.61-4.6.75-6.55,0,.01-.01-.14,0-.23v-.17c.02-.33.04-.66.05-1,.02-.5.04-1.01.08-1.51.04-.45.25-.82.59-1.03.35-.22.79-.25,1.23-.08l.15.06c.75.29,1.53.59,2.28.95.34.17.44.19.61.15,1.85-.45,3.73-.46,5.59-.01.2.05.32.02.66-.15.73-.36,1.49-.65,2.23-.92l.23-.09c.41-.16.84-.13,1.18.09.34.21.54.57.57,1.01.05.54.07,1.1.09,1.65.01.31.02.62.04.93v.33c.99,1.29,1.34,2.82,1.12,4.82Z"/></svg>