<svg id="Layer_1" data-name="Layer 1" xmlns="http://www.w3.org/2000/svg" width="35.39" height="35.39" viewBox="0 0 35.39 35.39"><path d="M18.36,13.83a1.53,1.53,0,0,0-1.57,1.52,1.57,1.57,0,1,0,1.57-1.52Z" transform="translate(-7.3 -7.3)"/><rect x="9.9" y="12.01" width="2.32" height="12.8"/><path d="M30.77,19.19a5.47,5.47,0,0,0-4.61,2.06V19.32H23.94V32.11h2.31V25.52c0-2.78,1.6-4.25,4.06-4.25,2.2,0,3.45,1.23,3.45,3.74v7.1h2.32V24.75C36.08,21,33.88,19.19,30.77,19.19Z" transform="translate(-7.3 -7.3)"/><path d="M37.54,7.3H14a5.12,5.12,0,0,0-4.56,2.81A2.38,2.38,0,0,0,7.3,12.47V36a6.76,6.76,0,0,0,6.75,6.75h23.5a2.37,2.37,0,0,0,2.35-2.18A5.15,5.15,0,0,0,42.7,36V12.46A5.17,5.17,0,0,0,37.54,7.3ZM41.11,36a3.56,3.56,0,0,1-1.63,3,2.37,2.37,0,0,0-1.93-1H14.05a2,2,0,0,1-2-2V12.47a2.37,2.37,0,0,0-1-1.94,3.56,3.56,0,0,1,3-1.64h23.5a3.57,3.57,0,0,1,3.57,3.57Z" transform="translate(-7.3 -7.3)"/></svg>