<?xml version="1.0" encoding="UTF-8"?><svg id="Layer_2" xmlns="http://www.w3.org/2000/svg" viewBox="0 0 654.48 436.32"><defs><style>.cls-1{fill:#e27944;}</style></defs><g id="Layer_1-2"><rect class="cls-1" width="654.48" height="436.32"/><path d="m598.56,50v336.33H55.92V50h542.63m5.11-5.11H50.81v346.56h552.86V44.88h0Z"/><path d="m511.94,300.8c.12-.08.24-.18.36-.27-.07.07-.16.13-.23.18-.05.02-.08.06-.13.08Z"/><path d="m482.23,271.04v2.69h1.07l.67-.46v-2.23h-1.73Zm1.09,3.82h-1.09v3.07h1.76v-2.63l-.67-.44Zm0,0h-1.09v3.07h1.76v-2.63l-.67-.44Zm-1.09-3.82v2.69h1.07l.67-.46v-2.23h-1.73Zm0,0v2.69h1.07l.67-.46v-2.23h-1.73Zm1.09,3.82h-1.09v3.07h1.76v-2.63l-.67-.44Zm0,0h-1.09v3.07h1.76v-2.63l-.67-.44Zm-1.09-3.82v2.69h1.07l.67-.46v-2.23h-1.73Zm-11.3,11.76h-1.02v6.84h.98c.56,0,.85-.27.85-.79v-5.28c0-.52-.28-.78-.81-.78Zm11.3-11.76v2.69h1.07l.67-.46v-2.23h-1.73Zm1.09,3.82h-1.09v3.07h1.76v-2.63l-.67-.44Zm0,0h-1.09v3.07h1.76v-2.63l-.67-.44Zm.64-1.59v-2.23h-1.73v2.69h1.07l.67-.46Zm-13.03,9.52h-1.02v6.84h.98c.56,0,.85-.27.85-.79v-5.28c0-.52-.28-.78-.81-.78Zm38.81-18.53h-40.95c-.38,1.71-1.72,3.06-3.43,3.43v24.82c1.71.36,3.06,1.72,3.43,3.43h29.73c-.08-.49-.12-.98-.12-1.49,0-5.19,4.23-9.43,9.43-9.43,1.99,0,3.83.62,5.35,1.67v-19.01c-1.71-.38-3.06-1.72-3.43-3.43Zm-33.64,5.62h3.79v1.21h-2.41v2.68h2.07v1.2h-2.07v2.89h2.44v1.21h-3.81v-9.2Zm-2.97,19.19c0,.55-.17.97-.49,1.27-.33.32-.75.46-1.3.46h-2.81v-9.2h2.81c.55,0,.97.16,1.3.46.32.32.49.74.49,1.29v5.71Zm-.5-9.99l-.83-5.22c0-.18-.02-.46-.04-.84,0,.18-.02.46-.05.84l-.83,5.22h-1.35l-1.35-9.21h1.4l.7,5.45c.01.19.04.47.05.85.01-.19.02-.47.06-.85l.79-5.45h1.13l.8,5.45c.01.19.02.47.05.85,0-.19.01-.47.05-.85l.7-5.45h1.4l-1.35,9.21h-1.35Zm5.37,11.72h-3.82v-9.2h3.79v1.21h-2.4v2.69h2.06v1.19h-2.06v2.89h2.44v1.21Zm3.76.01h-1.37l-1.76-9.21h1.38l1.03,6.31c0,.18.01.44.02.79,0-.18.01-.45.04-.79l1.04-6.31h1.37l-1.76,9.21Zm3.6-12.58c0,.56-.28.84-.84.84h-3.68v-9.2h3.65c.55,0,.81.28.81.84v2.38c0,.32-.1.56-.29.73-.02.02-.27.17-.72.45.46.29.72.45.74.47.22.18.32.44.32.75v2.74Zm11.74,8.4h-8.07c-.69,0-1.25-.56-1.25-1.25s.56-1.26,1.25-1.26h8.07c.69,0,1.26.56,1.26,1.26s-.57,1.25-1.26,1.25Zm9.31-7.49h-17.37c-.69,0-1.25-.57-1.25-1.26s.56-1.26,1.25-1.26h17.37c.69,0,1.25.57,1.25,1.26s-.56,1.26-1.25,1.26Zm-24.19-4.3v3.07h1.76v-2.63l-.67-.44h-1.09Zm1.73-1.59v-2.23h-1.73v2.69h1.07l.67-.46Zm-13.03,9.52h-1.02v6.84h.98c.56,0,.85-.27.85-.79v-5.28c0-.52-.28-.78-.81-.78Zm11.3-11.76v2.69h1.07l.67-.46v-2.23h-1.73Zm1.09,3.82h-1.09v3.07h1.76v-2.63l-.67-.44Zm0,0h-1.09v3.07h1.76v-2.63l-.67-.44Zm-1.09-3.82v2.69h1.07l.67-.46v-2.23h-1.73Zm0,0v2.69h1.07l.67-.46v-2.23h-1.73Zm1.09,3.82h-1.09v3.07h1.76v-2.63l-.67-.44Zm0,0h-1.09v3.07h1.76v-2.63l-.67-.44Zm-1.09-3.82v2.69h1.07l.67-.46v-2.23h-1.73Z"/><path d="m518.29,261.83v36.58c0,1.32-1.07,2.39-2.39,2.39h-1.09c1.53-1.67,2.45-3.89,2.45-6.33,0-2.29-.83-4.39-2.2-6.03v-21.57c0-.52-.42-.95-.95-.95-1.42,0-2.58-1.16-2.58-2.58,0-.52-.42-.95-.93-.95h-42.65c-.51,0-.93.42-.93.95,0,1.42-1.16,2.58-2.58,2.58-.52,0-.95.42-.95.95v26.5c0,.52.42.95.95.95,1.42,0,2.58,1.16,2.58,2.58,0,.52.42.95.93.95h31.07c.42,1.09,1.06,2.1,1.84,2.96h-38.22c-1.32,0-2.39-1.07-2.39-2.39v-36.58c0-1.32,1.07-2.39,2.39-2.39h53.25c1.32,0,2.39,1.07,2.39,2.39Z"/><path d="m519.2,309.89c-.05.17-.19.3-.38.34l-4,.91-2.72,2.88c-.1.1-.23.16-.38.16-.04,0-.07,0-.11-.01-.18-.04-.33-.17-.39-.34l-3.3-9.72-3.3,9.72c-.06.17-.21.3-.38.34-.04.01-.07.01-.11.01-.15,0-.28-.06-.38-.16l-2.73-2.88-4-.91c-.17-.04-.32-.17-.38-.34-.06-.16-.02-.35.08-.49l5.79-7.15c1.52,1.03,3.34,1.64,5.3,1.64h.17c1.97-.04,3.77-.67,5.25-1.72l5.86,7.23c.11.13.15.33.08.49Z"/><path d="m515.06,292.32c-.35-1.21-1.02-2.31-1.88-3.18-1.37-1.37-3.26-2.22-5.35-2.22-4.16,0-7.55,3.39-7.55,7.55,0,.51.05,1.01.16,1.49.12.67.35,1.3.64,1.88.61,1.21,1.53,2.23,2.66,2.96,1.18.76,2.58,1.21,4.09,1.21s2.91-.45,4.1-1.21c2.07-1.35,3.45-3.69,3.45-6.33,0-.74-.11-1.47-.32-2.15Zm-2.6,2.24c-.52,0-.93-.42-.93-.95,0-1.57-1.27-2.84-2.85-2.84-.51,0-.93-.41-.93-.93s.42-.95.93-.95c2.61,0,4.72,2.12,4.72,4.72,0,.52-.41.95-.93.95Z"/><path d="m297.51,138.91l-8.67-8.69c-.79-.79-1.83-1.22-2.94-1.22h-28.17c-2.85,0-5.3,1.64-6.53,4.02-1.74.15-3.12,1.59-3.12,3.37v33.62c0,5.32,4.33,9.65,9.65,9.65h33.64c1.78,0,3.23-1.38,3.37-3.12,2.36-1.23,3.99-3.67,3.99-6.51v-28.18c0-1.11-.43-2.15-1.22-2.94Zm-1.88,1.33h-8.98v-8.8c.21.09.41.22.58.39l8.4,8.41Zm-1.5,34.06c-.62-.87-1.62-1.44-2.77-1.44h-33.64c-1.57,0-2.85-1.28-2.85-2.85v-33.62c0-1.15-.57-2.15-1.44-2.77.91-1.41,2.49-2.35,4.29-2.35h26.67v10.1c0,.63.51,1.13,1.13,1.13h10.94v27.53c0,1.79-.93,3.36-2.33,4.27Z"/><path d="m287.83,151.6h-28c-.63,0-1.13.51-1.13,1.13s.51,1.13,1.13,1.13h28c.63,0,1.13-.51,1.13-1.13s-.51-1.13-1.13-1.13Z"/><path d="m259.82,146.53h10.4c.63,0,1.13-.51,1.13-1.13s-.51-1.13-1.13-1.13h-10.4c-.63,0-1.13.51-1.13,1.13s.51,1.13,1.13,1.13Z"/><path d="m287.83,159.21h-28c-.63,0-1.13.51-1.13,1.13s.51,1.13,1.13,1.13h28c.63,0,1.13-.51,1.13-1.13s-.51-1.13-1.13-1.13Z"/><path d="m287.83,166.83h-28c-.63,0-1.13.51-1.13,1.13s.51,1.13,1.13,1.13h28c.63,0,1.13-.51,1.13-1.13s-.51-1.13-1.13-1.13Z"/><path d="m155.72,138.34c-1.28,0-2.25.97-2.25,2.18s.97,2.14,2.25,2.14,2.25-.97,2.25-2.21c0-1.17-.97-2.11-2.25-2.11Z"/><rect x="154.06" y="146.19" width="3.32" height="18.32"/><path d="m173.48,146.01c-2.9,0-5.25,1.07-6.6,2.94v-2.77h-3.18v18.32h3.32v-9.44c0-3.98,2.28-6.08,5.81-6.08,3.15,0,4.94,1.76,4.94,5.36v10.16h3.32v-10.54c0-5.39-3.15-7.95-7.6-7.95Z"/><path d="m183.18,128.99h-33.65c-2.85,0-5.3,1.65-6.53,4.02-1.74.15-3.11,1.59-3.11,3.37v33.62c0,5.32,4.33,9.65,9.65,9.65h33.64c1.78,0,3.23-1.38,3.37-3.12,2.36-1.23,4-3.67,4-6.52v-33.65c0-4.07-3.31-7.37-7.37-7.37Zm5.11,41.02c0,1.79-.93,3.37-2.34,4.28-.62-.87-1.62-1.44-2.77-1.44h-33.64c-1.57,0-2.85-1.28-2.85-2.85v-33.62c0-1.15-.57-2.16-1.45-2.77.91-1.41,2.49-2.35,4.29-2.35h33.65c2.82,0,5.11,2.29,5.11,5.11v33.65Z"/><path d="m184.35,263.85c-4.1-4.81-9.83-7.73-16.13-8.23-5.2-.4-10.26.9-14.58,3.66-1.24-.85-2.93-.81-4.12.21-5.27,4.5-8.47,10.77-9.02,17.68s1.63,13.61,6.12,18.88c4.5,5.27,10.77,8.47,17.68,9.02.7.06,1.39.08,2.09.08,6.16,0,12.05-2.17,16.79-6.21,1.19-1.02,1.49-2.68.85-4.03,3.41-3.83,5.49-8.62,5.91-13.82.5-6.3-1.49-12.42-5.59-17.23Zm3.33,17.05c-.37,4.65-2.22,8.95-5.24,12.39-1.17-.56-2.62-.42-3.67.48-3.89,3.32-8.84,4.91-13.93,4.52-5.09-.4-9.73-2.77-13.04-6.65-3.32-3.89-4.92-8.83-4.52-13.93.4-5.1,2.77-9.73,6.65-13.05,1.06-.9,1.42-2.3,1.05-3.55,3.4-2.14,7.29-3.29,11.34-3.29.57,0,1.15.02,1.72.07,5.7.45,10.88,3.1,14.59,7.44,3.71,4.35,5.51,9.88,5.05,15.58Z"/><path d="m177.46,269.41h-22.21c-2.01,0-3.64,1.63-3.64,3.64v12.31c0,2.01,1.63,3.64,3.64,3.64h22.21c2.01,0,3.64-1.63,3.64-3.64v-12.31c0-2.01-1.63-3.64-3.64-3.64Zm-.8,2.27l-9.73,9.39c-.22.21-.55.22-.79.02l-11.05-9.39c.05,0,.1-.03.16-.03h21.4Zm2.18,13.69c0,.76-.62,1.38-1.38,1.38h-22.21c-.76,0-1.38-.62-1.38-1.38v-11.72l10.8,9.17c.54.46,1.19.68,1.85.68.71,0,1.43-.27,1.98-.81l10.28-9.92c.02.09.06.18.06.28v12.31Z"/><path d="m400.7,137.82c-7.75-9.08-20.92-10.82-30.71-4.57-1.24-.85-2.93-.82-4.12.21-10.88,9.28-12.17,25.68-2.89,36.56,5.12,6,12.41,9.09,19.74,9.09,5.95,0,11.94-2.04,16.81-6.19,1.19-1.02,1.49-2.68.85-4.03,3.41-3.83,5.49-8.62,5.91-13.82.5-6.3-1.49-12.42-5.59-17.23Zm-28.19,31.56c-1.6-1.01-3.08-2.27-4.37-3.78-3.08-3.61-4.57-8.06-4.56-12.47,1.61-.16,3.17-.57,4.53-.95,2.49-.68,5.07-1.39,7.55-2.4,1.16-.47,2.28-1.02,3.38-1.62,2.27,3.86,4.28,7.86,6.04,11.98-4.09,2.32-8.24,5.38-12.58,9.23Zm13.45-7.11c1.18,2.93,2.21,5.92,3.11,8.94-4.71,1.66-9.9,1.4-14.42-.68,3.89-3.4,7.64-6.14,11.31-8.25Zm-11.14-14.58c-2.36.96-4.87,1.65-7.3,2.31-1.2.33-2.49.68-3.78.84.56-4.59,2.76-8.99,6.54-12.22.55-.47.91-1.08,1.08-1.73,2.34,2.99,4.51,6.11,6.51,9.35-.99.53-2.01,1.03-3.05,1.45Zm20.3,20.05c-1.23,1.05-2.56,1.89-3.95,2.58-.93-3.09-2-6.14-3.21-9.14,5.29-2.73,10.47-4.17,15.83-4.46-.65,3.94-2.39,7.56-5.01,10.55-1.17-.56-2.61-.42-3.67.48Zm3.86-28.44c3.61,4.24,5.39,9.6,5.07,15.14-5.77.26-11.32,1.75-16.95,4.64-1.77-4.13-3.8-8.16-6.08-12.04,4.95-3.12,9.1-7.49,11.94-12.6,2.23,1.21,4.28,2.82,6.02,4.86Zm-16.29-7.5c2.81,0,5.61.57,8.23,1.66-2.65,4.72-6.5,8.76-11.08,11.65-2.28-3.7-4.77-7.26-7.48-10.63,3.22-1.78,6.78-2.67,10.34-2.67Z"/><path d="m508.88,137.82c-4.11-4.81-9.83-7.73-16.13-8.23-5.2-.39-10.26.9-14.59,3.66-1.23-.84-2.92-.82-4.12.21-5.27,4.49-8.46,10.76-9,17.68-.56,6.9,1.62,13.6,6.11,18.87s10.78,8.47,17.68,9.02c.7.06,1.4.09,2.09.09,6.16,0,12.05-2.16,16.79-6.21,1.19-1.02,1.49-2.68.86-4.04,3.41-3.82,5.48-8.62,5.9-13.81.5-6.3-1.49-12.43-5.58-17.23Zm3.32,17.05c-.36,4.65-2.22,8.95-5.24,12.4-1.17-.56-2.62-.43-3.66.47-1.62,1.39-3.44,2.46-5.35,3.22-.92.37-1.86.67-2.82.89-1.86.42-3.79.56-5.75.42-.73-.06-1.46-.16-2.18-.3-.9-.17-1.79-.42-2.66-.72h-.01c-3.15-1.1-5.97-3.02-8.2-5.64-3.31-3.89-4.91-8.83-4.51-13.93.4-5.1,2.76-9.73,6.66-13.04,1.05-.9,1.42-2.3,1.05-3.56,3.39-2.13,7.29-3.29,11.34-3.29.57,0,1.15.03,1.72.07,5.7.46,10.88,3.09,14.59,7.44,3.71,4.35,5.51,9.88,5.05,15.57Z"/><path d="m504.01,152.98c-.5,4.48-2.81,7.06-7.24,8.1-.1.03-.2.04-.3.07.4.89.5,1.67.5,2.98v3.91c-.01.21-.01.44-.03.69-.03.67-.09,1.92.27,2.18.1.07.34.11.73.06-.92.37-1.86.67-2.82.89-.54-.97-.49-2.23-.44-3.21,0-.21.01-.42.01-.6v-3.92c.01-1.46-.1-1.88-.92-3.15-.2-.31-.23-.7-.09-1.05.14-.34.44-.6.82-.67l.63-.13c.37-.09.74-.16,1.12-.24,3.51-.83,5.11-2.61,5.51-6.16.26-2.32-.13-3.98-1.23-5.37-.39-.49-.39-1.06-.39-1.45v-.19c-.03-.46-.04-.9-.06-1.36-.03-.57-.04-1.15-.09-1.72-.97.37-1.9.73-2.79,1.17-.64.31-1.43.64-2.49.39-2.3-.56-4.64-.54-6.93.01-1.09.26-1.85-.1-2.39-.37-.93-.44-1.92-.83-2.89-1.2-.03.52-.04,1.04-.07,1.56-.01.49-.04.99-.07,1.47v.19c-.01.43-.04,1.03-.4,1.53-1.5,2.16-1.82,4.85-.84,7.21.99,2.35,3.03,3.95,5.61,4.39l1.13.2c.34.06.63.26.8.56.17.29.2.64.07.97l-.24.62c-.21.56-.42,1.09-.66,1.59-.24.5-.73.94-1.27,1.15-2.2.84-4.41.17-5.88-1.82-.43-.57-.84-1.1-1.35-1.42-.16-.1-.34-.19-.56-.24.72.56,1.3,1.2,1.75,1.93.17.27.31.57.46.86.1.2.21.4.31.6.31.54.82.96,1.49,1.25.84.36,1.88.47,3.08.36l.77-.09c.33-.04.64.07.89.29.24.21.37.52.37.84,0,1,0,1.17-.06,1.99v.44c-.03.62-.09,1.86-.64,2.88-.9-.17-1.79-.42-2.66-.72.17,0,.34-.04.47-.13.5-.37.54-1.67.56-2.1v-.5c.03-.24.04-.44.06-.62-1.4.07-2.65-.11-3.72-.57-1.13-.47-1.99-1.22-2.56-2.19-.13-.23-.24-.47-.37-.72-.11-.24-.23-.47-.37-.7-.4-.66-1.02-1.25-1.76-1.69-.39-.23-.94-.6-1.25-1.22-.24-.47-.27-1.03-.07-1.53.19-.46.53-.8,1-.97.33-.13.66-.13.9-.13,1.02.03,2.18.14,3.15.77.8.52,1.39,1.26,1.93,1.96.6.83,1.66,1.67,3.25,1.06.14-.26.27-.52.37-.77-3.21-.62-5.84-2.75-7.09-5.71-1.27-3.08-.87-6.58,1.07-9.38,0,.01-.01-.2,0-.33v-.24c.03-.47.06-.94.07-1.43.03-.72.06-1.45.11-2.16.06-.64.36-1.17.84-1.47.5-.31,1.13-.36,1.76-.11l.21.09c1.07.42,2.19.84,3.26,1.36.49.24.63.27.87.21,2.65-.64,5.34-.66,8-.01.29.07.46.03.94-.21,1.04-.52,2.13-.93,3.19-1.32l.33-.13c.59-.23,1.2-.19,1.69.13.49.3.77.82.82,1.45.07.77.1,1.57.13,2.36.01.44.03.89.06,1.33v.47c1.42,1.85,1.92,4.04,1.6,6.9Z"/><path d="m289.29,277.63v6.03c-.06.06-.12.11-.18.16-2.03,1.58-4.37,2.83-6.88,3.69-1.59.56-3.26.96-4.99,1.19-1.25.18-2.52.27-3.82.27-1.37,0-2.73-.1-4.04-.3-1.66-.23-3.26-.62-4.79-1.15-2.6-.89-4.97-2.18-7.04-3.83v-6.02l13.5,5.53c1.31.55,3.37.55,4.68,0l13.55-5.56Z"/><path d="m302.68,269.56l-4.23,1.73v5.77c.81.35,1.36,1.14,1.36,2.07,0,.84-.46,1.58-1.14,1.95l.57,1.57,1.7,4.73-3.17.84-3.06-.66,1.41-4.82.47-1.58c-.77-.35-1.3-1.13-1.3-2.04s.55-1.72,1.36-2.07v-5.04l-21.14,8.67c-1.17.48-3.05.48-4.22,0l-27.18-11.14c-1.17-.48-1.17-1.25,0-1.72l27.18-11.15c1.17-.47,3.05-.47,4.22,0l27.18,11.15c1.17.47,1.17,1.24,0,1.72Z"/><path d="m269.63,289.92c-2.94-.36-5.73-1.19-8.26-2.41h-1.24l-3.81,18.32h5.93l.62-2.83h3.28l.59,2.83h6.19l-3.3-15.91Zm-6.31,9.27l1.14-6.14h.12l1.13,6.14h-2.39Zm5.81-11.68h-4.55c1.53.53,3.13.92,4.79,1.15l-.24-1.15Z"/><path d="m286.49,287.51h-1.06c-2.6,1.26-5.46,2.09-8.46,2.45l-3.3,15.87h5.93l.62-2.83h3.28l.59,2.83h6.19l-3.8-18.32Zm-5.81,11.68l1.14-6.14h.12l1.13,6.14h-2.39Zm-3.19-11.68l-.24,1.19c1.72-.23,3.4-.63,4.99-1.19h-4.74Z"/><path d="m397.46,277.49v6.04c-.06.05-.12.1-.18.15-1.86,1.44-3.96,2.6-6.21,3.45-2.11.8-4.37,1.33-6.71,1.55-.91.1-1.83.15-2.77.15-.45,0-.9-.01-1.35-.04-2.61-.12-5.14-.61-7.49-1.42-2.6-.89-4.97-2.18-7.04-3.83v-6.02l13.5,5.53c1.31.55,3.37.55,4.68,0l13.55-5.56Z"/><path d="m410.85,269.41l-4.23,1.73v5.77c.81.35,1.36,1.14,1.36,2.07,0,.84-.46,1.58-1.14,1.95l.57,1.57,1.7,4.73-3.17.84-3.06-.66,1.41-4.82.47-1.58c-.77-.35-1.3-1.13-1.3-2.04s.55-1.72,1.36-2.07v-5.04l-21.14,8.67c-1.17.48-3.05.48-4.22,0l-27.18-11.14c-1.17-.48-1.17-1.25,0-1.72l27.18-11.15c1.17-.47,3.05-.47,4.22,0l27.18,11.15c1.17.47,1.17,1.24,0,1.72Z"/><path d="m379.47,296.06v-.11c1.38-.89,2.07-2.15,2.07-3.79,0-.83-.13-1.54-.41-2.15-4.14-.06-8.1-.98-11.59-2.66h-2.69v18.32h8.35c4.44,0,6.66-1.78,6.66-5.37,0-2.1-.79-3.52-2.39-4.25Zm-6.33-4.27h.85c.38,0,.64.12.81.38.17.25.25.68.25,1.26s-.08.98-.25,1.23c-.17.23-.42.35-.79.35h-.87v-3.22Zm1.92,9.9c-.18.22-.53.33-1.07.33h-.85v-3.77h.85c.51,0,.86.16,1.04.46.19.3.29.83.29,1.55s-.1,1.2-.27,1.43Zm4.91-13.15c-1.06-.79-2.68-1.18-4.89-1.18h-2.32c2.34.81,4.88,1.3,7.49,1.42-.08-.1-.18-.17-.28-.24Z"/><path d="m393.93,295.42c-.53-.34-.95-.58-1.25-.73-.32-.15-.76-.34-1.36-.58-.61-.25-.96-.4-1.07-.45-.11-.05-.24-.1-.41-.16-.17-.06-.28-.11-.34-.15-.06-.05-.15-.1-.27-.17-.11-.06-.17-.19-.17-.36,0-.47.38-.72,1.15-.72s2.38.25,4.83.74l.68-5.19c-.7-.12-1.41-.23-2.1-.3-3.12,1.52-6.62,2.41-10.29,2.62-.52.9-.76,1.99-.76,3.26,0,1.94.79,3.46,2.35,4.54.51.35.96.62,1.33.79.38.17.84.36,1.38.58.55.23.97.41,1.25.55.29.15.51.27.66.39.15.12.22.28.22.47,0,.44-.3.64-.91.64-.92,0-2.71-.33-5.34-.99l-.41,4.99c2.07.52,4.21.79,6.38.79s3.85-.53,5-1.6c1.16-1.08,1.75-2.58,1.75-4.53s-.78-3.43-2.31-4.43Zm-4.67-8.35c-2.09,0-3.72.53-4.9,1.6,2.34-.22,4.6-.75,6.71-1.55-.61-.04-1.21-.05-1.81-.05Z"/></g></svg>