<?xml version="1.0" encoding="UTF-8"?><svg id="Layer_1" xmlns="http://www.w3.org/2000/svg" viewBox="0 0 229.92 181.84"><defs><style>.cls-1,.cls-2{fill:#dfefe9;}.cls-2{stroke:#060910;stroke-linecap:round;stroke-miterlimit:10;stroke-width:6.07px;}.cls-3{fill:#060910;}</style></defs><g><rect class="cls-3" x="142.38" y="113.08" width="13.87" height="68.76" rx="2.7" ry="2.7" transform="translate(298.64 294.93) rotate(-180)"/><rect class="cls-3" x="124.81" y="109.39" width="13.87" height="68.76" rx="2.7" ry="2.7" transform="translate(263.49 287.53) rotate(180)"/><rect class="cls-3" x="68.54" y="111.7" width="13.87" height="68.76" rx="2.7" ry="2.7" transform="translate(150.95 292.15) rotate(-180)"/><rect class="cls-3" x="46.65" y="112.93" width="13.87" height="68.76" rx="2.7" ry="2.7" transform="translate(107.17 294.62) rotate(-180)"/><path class="cls-2" d="m3.79,80.09c0-14.53,9.28-26.86,22.22-31.49,4.2-11.74,14.74-20.45,27.52-21.96,4.21-13.67,16.94-23.61,31.99-23.61,8.76,0,16.71,3.39,22.68,8.9,4.03-1.72,8.47-2.68,13.13-2.68,8.96,0,17.08,3.54,23.09,9.28,5.24-3.39,11.46-5.38,18.17-5.38,18.48,0,33.47,14.99,33.47,33.47,0,5.32-1.27,10.33-3.48,14.79.31.49.62.99.91,1.49,9.91,5.81,16.58,16.55,16.58,28.86,0,18.05-14.3,32.72-32.18,33.41-4.51,13.16-16.95,22.64-31.64,22.64-8.15,0-15.62-2.92-21.43-7.77-1.09.11-2.18.21-3.28.3-5.78,10.04-16.59,16.81-29,16.81-9.48,0-18.02-3.96-24.11-10.29-2.51.6-5.11.95-7.8.95-18.49,0-33.47-14.98-33.47-33.47,0-.78.06-1.54.12-2.3-13.6-4.25-23.47-16.95-23.47-31.95Z"/><ellipse class="cls-3" cx="8.72" cy="91.19" rx="12.72" ry="5.32" transform="translate(-69.58 43.63) rotate(-53.26)"/><path class="cls-2" d="m48.4,64.39s17.66,6.93,13.76,25.7"/><path class="cls-2" d="m129.43,61.44s-16.65,24.05-36.38,1.85"/><path class="cls-2" d="m148.07,103.55s-13.94,7.72-25.25-6.72"/><path class="cls-2" d="m53.53,26.64s10.85-2.51,17.78,4.43"/><path class="cls-2" d="m65.45,147s15.72-4.62,16.65-17.57"/></g><g><ellipse class="cls-3" cx="203.89" cy="58.51" rx="20.04" ry="30.22" transform="translate(22.56 168.58) rotate(-47.27)"/><ellipse class="cls-3" cx="176.53" cy="59.67" rx="12.02" ry="4.62" transform="translate(14.43 151.57) rotate(-48.23)"/><circle class="cls-1" cx="202.97" cy="50.9" r="1.7"/><ellipse class="cls-3" cx="201.66" cy="67.83" rx="7.8" ry="10.27" transform="translate(38.24 204.07) rotate(-58.41)"/></g></svg>