<svg id="Layer_1" data-name="Layer 1" xmlns="http://www.w3.org/2000/svg" width="48.6" height="45.11" viewBox="0 0 48.6 45.11"><path d="M43.3,36.54l.3-.22c-.06.06-.13.1-.19.15Z" transform="translate(-0.7 -2.45)"/><path d="M41.49,6.43H7.74A3.71,3.71,0,0,1,4.91,9.25V29.72a3.7,3.7,0,0,1,2.83,2.83h24.5a7.16,7.16,0,0,1-.1-1.24,7.78,7.78,0,0,1,7.77-7.76,7.69,7.69,0,0,1,4.41,1.38V9.25A3.71,3.71,0,0,1,41.49,6.43ZM13.77,24a1,1,0,0,1-1.17,1.15h-4A1,1,0,0,1,7.44,24V12.48H9.33v11h2.55v-11h1.89Zm5.78,1.15-1.39-4.45-1.4,4.45h-2v-.07l2.36-6.4q-2.22-6.15-2.22-6.18h2l1.26,4.12,1.27-4.12h2v.07l-2.22,6.06,2.36,6.52Zm11.53-.26H24.43a1,1,0,0,1,0-2.07h6.65a1,1,0,1,1,0,2.07Zm7.67-6.18H24.43a1,1,0,0,1,0-2.07H38.75a1,1,0,0,1,0,2.07Z" transform="translate(-0.7 -2.45)"/><path d="M48.53,4.42V34.57a2,2,0,0,1-2,2h-.9a7.74,7.74,0,0,0,.21-10.19V8.57a.78.78,0,0,0-.78-.78A2.14,2.14,0,0,1,43,5.66a.78.78,0,0,0-.77-.78H7a.78.78,0,0,0-.77.78A2.14,2.14,0,0,1,4.14,7.79a.78.78,0,0,0-.78.78V30.41a.77.77,0,0,0,.78.77,2.15,2.15,0,0,1,2.13,2.14A.79.79,0,0,0,7,34.1H32.65a7.94,7.94,0,0,0,1.52,2.44H2.67a2,2,0,0,1-2-2V4.42a2,2,0,0,1,2-2H46.56A2,2,0,0,1,48.53,4.42Z" transform="translate(-0.7 -2.45)"/><path d="M49.28,44a.38.38,0,0,1-.31.27l-3.3.75-2.24,2.37a.4.4,0,0,1-.31.13H43a.43.43,0,0,1-.32-.28l-2.72-8-2.72,8a.44.44,0,0,1-.31.28h-.09a.4.4,0,0,1-.31-.13l-2.25-2.37L31,44.3A.4.4,0,0,1,30.7,44a.44.44,0,0,1,.07-.41l4.77-5.88a7.74,7.74,0,0,0,4.37,1.35h.14a7.75,7.75,0,0,0,4.33-1.42l4.83,5.95A.44.44,0,0,1,49.28,44Z" transform="translate(-0.7 -2.45)"/><path d="M45.87,29.55a6.32,6.32,0,0,0-1.55-2.63,6.23,6.23,0,0,0-10.63,4.4,5.58,5.58,0,0,0,.13,1.23,5.92,5.92,0,0,0,.53,1.55,6.28,6.28,0,0,0,2.19,2.44,6.2,6.2,0,0,0,6.75,0,6.25,6.25,0,0,0,2.84-5.22A6.11,6.11,0,0,0,45.87,29.55ZM43.73,31.4a.77.77,0,0,1-.77-.79,2.34,2.34,0,0,0-2.35-2.33.78.78,0,0,1,0-1.55,3.89,3.89,0,0,1,3.89,3.88A.77.77,0,0,1,43.73,31.4Z" transform="translate(-0.7 -2.45)"/></svg>